<svg width="179" height="137" viewBox="0 0 179 137" fill="none" xmlns="http://www.w3.org/2000/svg">
<mask id="mask0_5228_7712" style="mask-type:alpha" maskUnits="userSpaceOnUse" x="0" y="0" width="179" height="137">
<rect width="179" height="137" fill="#D9D9D9"/>
</mask>
<g mask="url(#mask0_5228_7712)">
<g clip-path="url(#clip0_5228_7712)">
<path opacity="0.3" d="M64.7516 22.041C64.7516 22.041 63.9842 18.1154 60.5604 16.7282C57.1366 15.341 54.982 17.1119 54.4802 18.3811C53.9785 19.6502 53.8604 21.8048 51.9419 20.9194C50.0529 20.0339 49.2855 19.0009 46.8652 20.0339C44.445 21.067 45.2124 23.1921 43.4414 23.5758C41.6705 23.9595 42.2903 22.956 40.4014 23.1921C38.5124 23.4577 38.6304 24.5793 38.1287 25.2286C37.6269 25.878 37.6269 25.3467 35.856 25.6123C34.7639 25.7894 33.7604 26.2617 32.934 26.9996H72.0419C72.0419 26.9996 73.0454 24.963 70.389 23.4577C67.7917 21.9229 65.519 23.5463 64.7516 22.041Z" stroke="#808080" stroke-width="0.950354" stroke-linecap="round" stroke-linejoin="round"/>
<path opacity="0.3" d="M39.6339 48.4277C39.6339 48.4277 39.1912 46.1845 37.2431 45.3876C35.2951 44.5907 34.026 45.5942 33.7603 46.3321C33.4947 47.0405 33.4061 48.2801 32.3141 47.7784C31.222 47.2766 30.7793 46.6863 29.4216 47.2766C28.0343 47.8669 28.4771 49.0771 27.4735 49.3132C26.47 49.5198 26.8242 48.959 25.7321 49.1066C24.6401 49.2541 24.7286 49.9035 24.4334 50.2577C24.1383 50.6119 24.1383 50.3167 23.1348 50.4643C22.5149 50.5528 21.9246 50.848 21.4524 51.2612H43.8841C43.8841 51.2612 44.4744 50.1101 42.9396 49.2246C41.4048 48.3392 40.0766 49.2837 39.6339 48.4277Z" stroke="#808080" stroke-width="0.950354" stroke-linecap="round" stroke-linejoin="round"/>
<path d="M127.737 89.8675V68.2858C133.452 65.6707 134.511 64.2776 135.583 64.2776H148.369V55.8362H156.102V102.913H165.96V111.975H169" stroke="#808080" stroke-width="0.950354" stroke-miterlimit="10"/>
<path d="M76.6462 31.6925H102.118" stroke="#808080" stroke-width="0.950354" stroke-miterlimit="10"/>
<path d="M16.1101 111.148H31.1925V60.6472H44.4744V96.656H45.4396C46.3162 95.2806 49.6987 86.6267 49.6987 85.9035V50.1987H59.5568V41.7573H66.1978" stroke="#808080" stroke-width="0.950354" stroke-miterlimit="10"/>
<path d="M36.2397 103.297H33.8195V109.141H36.2397V103.297Z" stroke="#808080" stroke-width="0.950354" stroke-miterlimit="10"/>
<path d="M40.8736 97.8662H38.4534V103.71H40.8736V97.8662Z" stroke="#808080" stroke-width="0.950354" stroke-miterlimit="10"/>
<path d="M54.5393 55.2163H52.119V61.0604H54.5393V55.2163Z" stroke="#808080" stroke-width="0.950354" stroke-miterlimit="10"/>
<path d="M54.5393 63.274H52.119V69.1181H54.5393V63.274Z" stroke="#808080" stroke-width="0.950354" stroke-miterlimit="10"/>
<path d="M54.5393 71.3318H52.119V77.1758H54.5393V71.3318Z" stroke="#808080" stroke-width="0.950354" stroke-miterlimit="10"/>
<path d="M36.2397 90.8414H33.8195V96.6855H36.2397V90.8414Z" stroke="#808080" stroke-width="0.950354" stroke-miterlimit="10"/>
<path d="M40.8736 85.4106H38.4534V91.2547H40.8736V85.4106Z" stroke="#808080" stroke-width="0.950354" stroke-miterlimit="10"/>
<path d="M36.2397 78.3564H33.8195V84.2005H36.2397V78.3564Z" stroke="#808080" stroke-width="0.950354" stroke-miterlimit="10"/>
<path d="M40.8736 72.9257H38.4534V78.7697H40.8736V72.9257Z" stroke="#808080" stroke-width="0.950354" stroke-miterlimit="10"/>
<path d="M55.9559 60.6471H63.6004" stroke="#808080" stroke-width="0.950354" stroke-miterlimit="10"/>
<path d="M55.9559 68.7048H63.6004" stroke="#808080" stroke-width="0.950354" stroke-miterlimit="10"/>
<path d="M130.571 92.6418H153.504" stroke="#808080" stroke-width="0.950354" stroke-miterlimit="10"/>
<path d="M130.571 76.5559H153.504" stroke="#808080" stroke-width="0.950354" stroke-miterlimit="10"/>
<path d="M130.571 80.5701H153.504" stroke="#808080" stroke-width="0.950354" stroke-miterlimit="10"/>
<path d="M130.571 84.5841H153.504" stroke="#808080" stroke-width="0.950354" stroke-miterlimit="10"/>
<path d="M130.571 88.6278H153.504" stroke="#808080" stroke-width="0.950354" stroke-miterlimit="10"/>
<path d="M130.571 68.4982H153.504" stroke="#808080" stroke-width="0.950354" stroke-miterlimit="10"/>
<path d="M130.571 72.5419H153.504" stroke="#808080" stroke-width="0.950354" stroke-miterlimit="10"/>
<path d="M79.2731 35.1163H97.8678" stroke="#808080" stroke-width="0.950354" stroke-miterlimit="10"/>
<path d="M79.2731 40.5472H97.8678" stroke="#808080" stroke-width="0.950354" stroke-miterlimit="10"/>
<path d="M82.874 45.978H97.8679" stroke="#808080" stroke-width="0.874326" stroke-miterlimit="10"/>
<path d="M92.8502 51.4088H98.7533" stroke="#808080" stroke-width="0.598723" stroke-miterlimit="10"/>
<path d="M92.8502 56.8396H100.524" stroke="#808080" stroke-width="0.598723" stroke-miterlimit="10"/>
<path d="M91.1678 62.2705H102" stroke="#808080" stroke-width="0.655745" stroke-miterlimit="10"/>
<path d="M91.1678 67.7013H102" stroke="#808080" stroke-width="0.655745" stroke-miterlimit="10"/>
<path d="M140.4 136.413V124.843" stroke="#808080" stroke-width="0.950354" stroke-linecap="round" stroke-linejoin="round"/>
<path d="M135.205 127.588L140.311 131.602L143.882 127.057" stroke="#808080" stroke-width="0.950354" stroke-linecap="round" stroke-linejoin="round"/>
<path d="M140.311 126.614C139.514 125.876 138.924 124.932 138.629 123.899C138.156 122.216 140.429 119.176 140.429 119.176C140.429 119.176 141.905 122.275 142.082 123.722C142.23 125.168 140.311 126.614 140.311 126.614Z" fill="#808080" stroke="#808080" stroke-width="0.950354" stroke-miterlimit="10" stroke-linecap="round"/>
<path d="M142.554 128.651C142.554 127.765 142.613 126.909 142.731 126.053C142.908 125.109 144.237 124.519 145.181 124.312C146.126 124.076 147.985 124.341 147.985 124.341C147.808 125.522 147.188 126.614 146.244 127.382C144.768 128.562 142.554 128.651 142.554 128.651Z" fill="#808080" stroke="#808080" stroke-width="0.950354" stroke-miterlimit="10" stroke-linecap="round"/>
<path d="M137.714 129.359C137.714 129.359 138.215 128.474 136.326 126.555C134.437 124.637 131.279 126.201 131.279 126.201C131.279 126.201 132.785 128.414 133.759 129.123C134.703 129.89 137.714 129.359 137.714 129.359Z" fill="#808080" stroke="#808080" stroke-width="0.950354" stroke-miterlimit="10" stroke-linecap="round"/>
<path d="M140.252 133.963C139.514 133.019 138.481 132.34 137.33 132.045C136.326 131.779 135.293 131.75 134.26 131.927C134.26 131.927 135.471 134.406 136.858 134.731C138.215 135.085 140.252 133.963 140.252 133.963Z" fill="#808080" stroke="#808080" stroke-width="0.950354" stroke-miterlimit="10" stroke-linecap="round"/>
<path d="M140.252 133.963C140.488 133.521 140.842 133.166 141.255 132.93C142.052 132.429 144.148 132.311 144.148 132.311C144.089 132.665 143.941 133.019 143.705 133.285C143.469 133.55 143.174 133.786 142.82 133.904C142.023 134.229 141.078 134.259 140.252 133.963Z" fill="#808080" stroke="#808080" stroke-width="0.950354" stroke-miterlimit="10" stroke-linecap="round"/>
<path d="M137.714 129.359L132.991 126.467" stroke="#808080" stroke-width="0.950354" stroke-miterlimit="10" stroke-linecap="round"/>
<path d="M140.311 126.614V121.715" stroke="#808080" stroke-width="0.950354" stroke-miterlimit="10" stroke-linecap="round"/>
<path d="M142.584 128.651L145.152 125.788" stroke="#808080" stroke-width="0.950354" stroke-miterlimit="10" stroke-linecap="round"/>
<path d="M137.389 133.462L140.252 133.963L141.964 133.432" stroke="#808080" stroke-width="0.950354" stroke-miterlimit="10" stroke-linecap="round"/>
<path d="M124.314 136.413V127.706" stroke="#808080" stroke-width="0.950354" stroke-linecap="round" stroke-linejoin="round"/>
<path d="M120.388 129.772L124.225 132.783L126.911 129.359" stroke="#808080" stroke-width="0.950354" stroke-linecap="round" stroke-linejoin="round"/>
<path d="M124.255 129.034C123.664 128.474 123.222 127.765 122.986 126.998C122.631 125.729 124.343 123.426 124.343 123.426C124.343 123.426 125.465 125.758 125.583 126.85C125.701 127.942 124.255 129.034 124.255 129.034Z" fill="#808080" stroke="#808080" stroke-width="0.950354" stroke-miterlimit="10" stroke-linecap="round"/>
<path d="M125.967 130.569C125.967 129.92 126.026 129.271 126.114 128.592C126.232 127.913 127.236 127.441 127.974 127.263C128.682 127.086 130.069 127.293 130.069 127.293C129.922 128.178 129.449 129.005 128.771 129.595C127.619 130.51 125.967 130.569 125.967 130.569Z" fill="#808080" stroke="#808080" stroke-width="0.950354" stroke-miterlimit="10" stroke-linecap="round"/>
<path d="M122.307 131.1C122.307 131.1 122.69 130.451 121.274 128.975C119.857 127.529 117.466 128.71 117.466 128.71C117.466 128.71 118.617 130.363 119.326 130.923C120.034 131.484 122.307 131.1 122.307 131.1Z" fill="#808080" stroke="#808080" stroke-width="0.950354" stroke-miterlimit="10" stroke-linecap="round"/>
<path d="M124.196 134.554C123.635 133.845 122.867 133.314 121.982 133.108C121.215 132.901 120.447 132.871 119.68 133.019C119.68 133.019 120.595 134.878 121.628 135.144C122.69 135.41 124.196 134.554 124.196 134.554Z" fill="#808080" stroke="#808080" stroke-width="0.950354" stroke-miterlimit="10" stroke-linecap="round"/>
<path d="M124.196 134.554C124.373 134.229 124.638 133.934 124.963 133.757C125.553 133.373 127.147 133.285 127.147 133.285C127.118 133.55 127 133.816 126.822 134.023C126.645 134.229 126.409 134.406 126.173 134.495C125.524 134.76 124.845 134.79 124.196 134.554Z" fill="#808080" stroke="#808080" stroke-width="0.950354" stroke-miterlimit="10" stroke-linecap="round"/>
<path d="M122.277 131.101L118.706 128.916" stroke="#808080" stroke-width="0.950354" stroke-miterlimit="10" stroke-linecap="round"/>
<path d="M124.255 129.034V125.345" stroke="#808080" stroke-width="0.950354" stroke-miterlimit="10" stroke-linecap="round"/>
<path d="M125.967 130.569L127.915 128.415" stroke="#808080" stroke-width="0.950354" stroke-miterlimit="10" stroke-linecap="round"/>
<path d="M122.041 134.2L124.196 134.583L125.494 134.17" stroke="#808080" stroke-width="0.950354" stroke-miterlimit="10" stroke-linecap="round"/>
<path d="M32.8455 136.413V129.3" stroke="#808080" stroke-width="0.950354" stroke-linecap="round" stroke-linejoin="round"/>
<path d="M29.6577 131.012L32.7864 133.491L34.9705 130.717" stroke="#808080" stroke-width="0.950354" stroke-linecap="round" stroke-linejoin="round"/>
<path d="M32.8158 130.392C32.3141 129.949 31.9599 129.359 31.7828 128.739C31.4876 127.706 32.8749 125.847 32.8749 125.847C32.8749 125.847 33.7898 127.736 33.8784 128.651C33.9669 129.536 32.8158 130.392 32.8158 130.392Z" fill="#808080" stroke="#808080" stroke-width="0.950354" stroke-miterlimit="10" stroke-linecap="round"/>
<path d="M34.2031 131.661C34.2031 131.13 34.2326 130.599 34.3212 130.067C34.4392 129.507 35.2362 129.123 35.8265 128.975C36.3873 128.916 36.9776 128.916 37.5679 129.005C37.4498 129.743 37.0661 130.392 36.5053 130.864C35.797 131.337 35 131.602 34.2031 131.661Z" fill="#808080" stroke="#808080" stroke-width="0.950354" stroke-miterlimit="10" stroke-linecap="round"/>
<path d="M31.222 132.104C31.222 132.104 31.5467 131.573 30.3661 130.363C29.1855 129.152 27.267 130.156 27.267 130.156C27.267 130.156 28.1819 131.514 28.7723 131.956C29.333 132.399 31.222 132.104 31.222 132.104Z" fill="#808080" stroke="#808080" stroke-width="0.950354" stroke-miterlimit="10" stroke-linecap="round"/>
<path d="M32.7568 134.908C32.3141 134.318 31.6647 133.904 30.9564 133.727C30.3365 133.58 29.7167 133.55 29.0674 133.668C29.0674 133.668 29.8053 135.174 30.6612 135.41C31.5172 135.616 32.7568 134.908 32.7568 134.908Z" fill="#808080" stroke="#808080" stroke-width="0.950354" stroke-miterlimit="10" stroke-linecap="round"/>
<path d="M32.7568 134.908C32.9044 134.642 33.111 134.406 33.3767 134.259C33.8489 133.963 35.1476 133.875 35.1476 133.875C35.1181 134.111 35.0295 134.318 34.8819 134.495C34.7344 134.672 34.5573 134.79 34.3507 134.878C33.8489 135.085 33.2881 135.085 32.7568 134.908Z" fill="#808080" stroke="#808080" stroke-width="0.950354" stroke-miterlimit="10" stroke-linecap="round"/>
<path d="M31.222 132.104L28.3295 130.333" stroke="#808080" stroke-width="0.950354" stroke-miterlimit="10" stroke-linecap="round"/>
<path d="M32.8158 130.392V127.382" stroke="#808080" stroke-width="0.950354" stroke-miterlimit="10" stroke-linecap="round"/>
<path d="M34.2031 131.661L35.7674 129.92" stroke="#808080" stroke-width="0.950354" stroke-miterlimit="10" stroke-linecap="round"/>
<path d="M31.0154 134.613L32.7568 134.908L33.8193 134.583" stroke="#808080" stroke-width="0.950354" stroke-miterlimit="10" stroke-linecap="round"/>
<path d="M9.88245 136.413H168.203" stroke="#808080" stroke-width="0.950354" stroke-miterlimit="10"/>
<path fill-rule="evenodd" clip-rule="evenodd" d="M92.9388 54.9212L89.0988 55.3521C87.8799 54.5611 86.3716 52.9141 85.8846 50.6415C85.1467 47.1881 83.1692 46.9225 83.1692 46.9225C83.1397 46.9225 81.1622 46.2437 80.7489 46.0961C77.3547 45.004 73.2815 46.2732 72.0419 46.6569C70.4776 47.1586 69.7102 47.4243 68.9428 48.1622C67.8212 49.2837 67.2899 50.8481 67.3194 52.4419C67.3696 54.3692 66.5491 56.7393 66.0827 57.9377L65.7935 57.9701C65.7817 57.917 65.7699 57.8668 65.7551 57.8137C64.8992 52.56 65.0467 50.2578 65.4599 47.867C65.5072 47.6073 65.6518 47.3534 65.8732 47.0996C65.6341 47.3623 65.4806 47.6279 65.4304 47.8965C65.0172 50.2873 64.8696 52.5895 65.7256 57.8432C65.7374 57.8875 65.7492 57.9318 65.7581 57.976L64.0432 58.1679C64.1022 58.1679 58.6124 47.6309 64.7221 40.0749C66.552 37.8318 68.5296 35.9723 71.3335 34.8212C72.6322 34.2899 74.9639 33.6406 76.4397 33.493C78.978 33.2864 81.0146 33.493 82.6084 33.6111C85.1172 33.7882 86.1798 36.0608 86.1798 36.0608C86.1798 36.0608 90.3119 37.389 92.2304 42.2591C94.1489 47.1291 92.9388 54.9212 92.9388 54.9212Z" fill="#263238"/>
<path d="M78.0335 64.9859C77.9745 64.9859 77.9155 64.9564 77.8859 64.9269C77.4727 64.6612 76.0855 63.7167 75.9969 62.8313C75.9379 62.2115 76.2626 61.8278 76.5577 61.5031C77.1185 60.8537 77.7384 60.1159 75.5837 56.8692C75.5542 56.8101 75.5247 56.7216 75.5542 56.6626C75.5542 56.574 75.6133 56.515 75.6723 56.4855C75.7313 56.4559 75.8199 56.4264 75.8789 56.456C75.9674 56.456 76.0265 56.515 76.056 56.574C78.2992 59.9093 77.7974 60.9423 77.0005 61.8868C76.7348 62.1819 76.5577 62.4181 76.5873 62.8018C76.6168 63.2445 77.4137 63.9824 78.2106 64.4546C78.2696 64.4841 78.2992 64.5432 78.3287 64.6022C78.3582 64.6612 78.3582 64.7203 78.3287 64.7793C78.2992 64.8383 78.2696 64.8974 78.2106 64.9269C78.1516 64.9564 78.0925 64.9859 78.0335 64.9859Z" fill="#263238"/>
<path d="M76.5873 70.889C76.2921 70.889 76.0265 70.7709 75.7904 70.4462C75.5247 70.092 75.4952 69.6198 75.6723 69.1771C76.0265 68.3211 77.0595 67.6718 78.3877 67.4357C79.7159 67.229 81.2507 67.5537 82.0476 68.2326C82.4018 68.5277 82.5789 68.8524 82.5789 69.2066C82.5789 69.5903 82.4904 69.8854 82.2837 70.0625C81.8705 70.4462 81.2212 70.3872 80.4538 70.2986C79.9815 70.2396 79.5093 70.2396 79.0666 70.2691C78.5058 70.2986 78.0335 70.4757 77.5908 70.6233C77.2366 70.7709 76.9119 70.889 76.5873 70.889ZM79.2141 67.9374C78.978 67.9374 78.7124 67.9669 78.4763 67.9964C77.1185 68.2031 76.4102 68.8819 76.2036 69.3837C76.1445 69.5017 76.115 69.6198 76.1445 69.7379C76.1445 69.8559 76.2036 69.974 76.2626 70.092C76.4692 70.3872 76.6758 70.3577 77.3842 70.092C77.8269 69.9445 78.3582 69.7379 79.0075 69.7083C79.5093 69.6788 80.0111 69.6788 80.5128 69.7379C81.1031 69.7969 81.6934 69.8559 81.9 69.6493C81.9296 69.6198 82.0181 69.5312 82.0181 69.2066C82.0181 68.9705 81.841 68.7934 81.6934 68.6753C81.1917 68.2621 80.2472 67.9374 79.2141 67.9374Z" fill="#263238"/>
<path fill-rule="evenodd" clip-rule="evenodd" d="M82.7264 59.4371C82.0771 59.5552 81.3982 58.9354 81.2802 58.0794C81.1326 57.1644 81.5163 56.397 82.1656 56.279C82.815 56.1609 83.4938 56.7807 83.6119 57.6367C83.789 58.5517 83.4053 59.3486 82.7264 59.4371Z" fill="#263238"/>
<path fill-rule="evenodd" clip-rule="evenodd" d="M72.5141 60.7948C71.8648 60.9128 71.1859 60.293 71.0679 59.4371C70.9203 58.5221 71.304 57.7547 71.9533 57.6366C72.6027 57.5186 73.2815 58.1384 73.3996 58.9943C73.5472 59.8798 73.1635 60.6472 72.5141 60.7948Z" fill="#263238"/>
<path d="M68.7656 56.8101C68.7066 56.8101 68.6181 56.7805 68.5885 56.751C68.5295 56.692 68.5 56.633 68.5 56.5739C68.5 56.5149 68.5 56.4264 68.559 56.3673C68.6181 56.3083 68.6476 56.2788 68.7361 56.2493C71.7172 55.5114 72.9863 55.0096 73.0454 53.9766C73.0454 53.888 73.0749 53.829 73.1339 53.77C73.193 53.7109 73.252 53.7109 73.3405 53.7109C73.4291 53.7109 73.4881 53.7405 73.5471 53.7995C73.6062 53.8585 73.6062 53.9175 73.6062 54.0061C73.4881 55.5704 71.7172 56.0722 68.8542 56.8101C68.8247 56.8101 68.7952 56.8101 68.7656 56.8101Z" fill="#263238"/>
<path d="M85.5334 54.1213C82.5996 54.4902 80.7696 54.6762 80.0819 53.2653C80.0495 53.1827 80.0288 53.1296 80.0613 53.0528C80.0937 52.9761 80.138 52.9259 80.2206 52.8934C80.3033 52.861 80.3564 52.8403 80.4332 52.8728C80.5099 52.9053 80.5601 52.9495 80.5925 53.0322C81.0294 53.9708 82.393 53.9708 85.436 53.5575C85.5305 53.5516 85.5688 53.5693 85.6456 53.6018C85.7223 53.6343 85.7548 53.7169 85.7754 53.773C85.7961 53.8291 85.7902 53.894 85.7577 53.9708C85.74 54.0091 85.6692 54.0682 85.6161 54.0918C85.5895 54.1036 85.56 54.1124 85.5334 54.1242V54.1213Z" fill="#263238"/>
<path d="M84.1432 60.0864C84.0842 60.0864 84.0252 60.0569 83.9661 60.0273C83.9071 59.9978 83.8776 59.9388 83.8776 59.8798C83.8481 59.8207 83.8776 59.7617 83.9071 59.7027C83.9366 59.6436 83.9661 59.5846 84.0252 59.5551C84.3203 59.4075 84.586 58.7582 84.4974 58.3745C84.4974 58.2859 84.4974 58.2269 84.5564 58.1679C84.586 58.1088 84.6745 58.0793 84.7335 58.0498C84.8221 58.0498 84.8811 58.0498 84.9401 58.1088C84.9992 58.1384 85.0287 58.2269 85.0582 58.2859C85.1467 58.8762 84.8221 59.7912 84.2908 60.0864C84.2318 60.0569 84.1727 60.0864 84.1432 60.0864Z" fill="#263238"/>
<path d="M71.3631 61.6802H71.3335C70.6842 61.5917 70.0644 60.8538 69.9758 60.234C69.9758 60.1454 69.9758 60.0864 70.0349 60.0274C70.0644 59.9683 70.1529 59.9388 70.212 59.9093C70.3005 59.9093 70.3595 59.9093 70.4186 59.9683C70.4776 59.9978 70.5071 60.0864 70.5366 60.1454C70.5957 60.5291 71.0384 61.0604 71.4221 61.1194C71.5106 61.1194 71.5697 61.1489 71.6287 61.208C71.6877 61.267 71.7172 61.326 71.6877 61.4146C71.6877 61.5031 71.6582 61.5622 71.5992 61.6212C71.5106 61.6802 71.4516 61.6802 71.3631 61.6802Z" fill="#263238"/>
<path d="M80.4538 76.2313C79.7159 76.2313 77.3842 76.0542 74.0785 74.2243C71.304 72.719 70.271 70.9481 69.6511 69.8855C68.7066 68.4097 67.8507 66.3732 66.9357 63.4511C66.9357 63.4216 66.9062 63.3921 66.9357 63.3331C66.9652 63.274 66.9357 63.274 66.9652 63.215C66.9948 63.1855 66.9948 63.156 67.0243 63.1265C67.0538 63.097 67.0833 63.097 67.1128 63.0674C67.1423 63.0674 67.1718 63.0379 67.2309 63.0674C67.2604 63.0674 67.2899 63.0674 67.3489 63.097C67.3785 63.1265 67.408 63.1265 67.4375 63.156C67.467 63.1855 67.467 63.215 67.4965 63.2445C68.4115 66.1075 69.2379 68.1146 70.1529 69.5608C70.7432 70.5939 71.7467 72.2762 74.3736 73.693C78.1811 75.7886 80.6309 75.6115 80.6604 75.6115H80.7785C80.808 75.6115 80.8375 75.641 80.867 75.6705C80.8965 75.7 80.926 75.7296 80.926 75.7591C80.9555 75.7886 80.9555 75.8181 80.9555 75.8771V75.9952C80.9555 76.0247 80.926 76.0542 80.8965 76.0837C80.867 76.1133 80.8375 76.1428 80.808 76.1428C80.7785 76.1723 80.7489 76.1723 80.6899 76.1723C80.6604 76.2018 80.6014 76.2313 80.4538 76.2313Z" fill="#263238"/>
<path d="M80.7489 76.2018C80.6899 76.2018 80.6013 76.1723 80.5423 76.1133C80.4833 76.0542 80.4537 75.9952 80.4537 75.9362C80.4537 75.8771 80.4832 75.7886 80.5128 75.7296C80.5718 75.6705 80.6308 75.641 80.6899 75.641C80.7194 75.641 82.815 75.3459 86.0322 72.5124C88.3344 70.4758 89.2198 68.4097 89.5445 67.3472C90.1053 65.7238 90.4595 63.5987 90.6956 60.5882C90.6956 60.4996 90.7251 60.4406 90.7841 60.3815C90.8432 60.3225 90.9022 60.3225 90.9907 60.3225C91.0793 60.3225 91.1383 60.352 91.1974 60.4111C91.2564 60.4701 91.2564 60.5291 91.2564 60.6177C91.0203 63.6578 90.6366 65.8419 90.0758 67.4948C89.7511 68.5868 88.8066 70.771 86.4158 72.8961C83.0511 75.8476 80.8669 76.1428 80.7784 76.1428L80.7489 76.2018Z" fill="#263238"/>
<path d="M67.4669 65.2811C66.3158 65.2516 64.2498 64.3661 63.3053 61.9458C62.774 60.5881 62.9216 59.2009 63.6595 58.3154C64.2793 57.5776 65.1943 57.2824 66.2863 57.489C66.3158 57.489 66.3454 57.5185 66.3749 57.5185C66.4044 57.548 66.4339 57.5776 66.4634 57.6071C66.4929 57.6366 66.4929 57.6661 66.4929 57.6956V57.8137C66.4929 57.8432 66.4634 57.8727 66.4634 57.9317C66.4339 57.9613 66.4044 57.9908 66.3749 58.0203C66.3454 58.0498 66.3158 58.0498 66.2863 58.0498H66.1683C65.2828 57.8727 64.5449 58.1088 64.0727 58.6696C63.4824 59.378 63.3643 60.5881 63.807 61.7392C64.6335 63.8939 66.4339 64.6908 67.4374 64.7203C67.526 64.7203 67.585 64.7498 67.644 64.8088C67.7031 64.8679 67.7326 64.9269 67.7326 65.0154C67.7326 65.104 67.7031 65.163 67.644 65.2221C67.6145 65.2516 67.5555 65.2811 67.4669 65.2811Z" fill="#263238"/>
<path d="M66.1683 61.9163C66.1387 61.9163 66.0797 61.9163 66.0502 61.8868C66.0207 61.8573 65.9912 61.8573 65.9617 61.7982C65.9617 61.7982 65.4304 61.1784 65.1943 60.9128C65.1647 60.8833 65.1352 60.8537 65.1352 60.8242C65.1352 60.7947 65.1057 60.7652 65.1057 60.7062C65.1057 60.6766 65.1057 60.6176 65.1352 60.5881C65.1647 60.5586 65.1647 60.5291 65.1943 60.4996C65.2238 60.47 65.2533 60.4405 65.2828 60.4405C65.3123 60.4405 65.3418 60.411 65.4009 60.411C65.4304 60.411 65.4894 60.411 65.5189 60.4405C65.5484 60.47 65.578 60.47 65.6075 60.4996C65.8731 60.7652 66.3749 61.385 66.4044 61.385C66.4339 61.4145 66.4634 61.4736 66.4634 61.5326C66.4634 61.5916 66.4634 61.6507 66.4339 61.6802C66.4044 61.7392 66.3749 61.7687 66.3158 61.7982C66.2863 61.8868 66.2273 61.9163 66.1683 61.9163Z" fill="#263238"/>
<path d="M91.0202 62.5657C90.9612 62.5657 90.8727 62.5362 90.8431 62.5067C90.7841 62.4477 90.7546 62.3886 90.7546 62.3296C90.7546 62.2706 90.7546 62.182 90.8136 62.123C90.8431 62.064 90.9022 62.0345 90.9907 62.0049C91.9647 61.7688 93.529 60.5587 93.8537 58.286C94.0308 57.0759 93.6471 55.9248 92.9092 55.364C92.3189 54.9212 91.5515 54.8622 90.7251 55.2459C90.666 55.2754 90.5775 55.2754 90.5185 55.2459C90.4594 55.2164 90.4004 55.1574 90.3709 55.0983C90.3414 55.0393 90.3414 54.9508 90.3709 54.8917C90.4004 54.8327 90.4594 54.7737 90.5185 54.7442C91.522 54.3014 92.5255 54.3605 93.2634 54.9212C94.1784 55.6296 94.6506 56.9283 94.444 58.3746C94.0898 60.9424 92.2894 62.2706 91.1678 62.5657H91.0202Z" fill="#263238"/>
<path d="M91.5221 59.0533C91.4631 59.0533 91.4335 59.0533 91.404 59.0238C91.345 58.9943 91.286 58.9352 91.2564 58.8467C91.2269 58.7581 91.2269 58.6991 91.286 58.6401C91.3155 58.6106 91.6697 57.9022 91.8468 57.5775C91.8763 57.548 91.8763 57.5185 91.9058 57.489C91.9353 57.4595 91.9648 57.4594 91.9943 57.4299H92.1124C92.1714 57.4299 92.1714 57.4594 92.2305 57.4594C92.26 57.489 92.2895 57.489 92.319 57.5185C92.3485 57.548 92.3485 57.5775 92.378 57.607V57.7251C92.378 57.7546 92.3485 57.7841 92.3485 57.8432C92.1714 58.1678 91.8172 58.8762 91.7877 58.8762C91.7582 58.9352 91.7287 58.9647 91.6697 58.9942C91.6106 59.0238 91.5811 59.0533 91.5221 59.0533Z" fill="#263238"/>
<path d="M93.0568 43.2626C93.0273 43.2626 92.9978 43.2626 92.9683 43.2331C91.8171 42.8198 91.2564 41.6392 90.6956 40.5176C89.9872 39.0419 89.3083 37.6546 87.5079 37.6546H87.4784C87.3898 37.6546 87.3308 37.6251 87.2718 37.5661C87.2127 37.5071 87.1832 37.448 87.1832 37.3595C87.1832 37.2709 87.2127 37.2119 87.2718 37.1529C87.3308 37.0938 87.3898 37.0643 87.4784 37.0643H87.5079C89.6625 37.0643 90.489 38.7467 91.1973 40.2225C91.7286 41.3146 92.2304 42.3181 93.1453 42.6427C93.1749 42.6427 93.2044 42.6723 93.2339 42.6723C93.2634 42.7018 93.2929 42.7313 93.3224 42.7608C93.3519 42.7903 93.3519 42.8198 93.3815 42.8494V42.9674C93.3815 43.0264 93.3519 43.0264 93.3519 43.056C93.3224 43.0855 93.2929 43.115 93.2634 43.1445C93.2339 43.174 93.2044 43.174 93.1749 43.2035C93.1453 43.2331 93.1158 43.2626 93.0568 43.2626Z" fill="#263238"/>
<path d="M92.8502 54.9212H92.8207C92.7911 54.9212 92.7616 54.8917 92.7026 54.8917C92.6731 54.8622 92.6436 54.8622 92.614 54.8326C92.5845 54.8031 92.5845 54.7736 92.555 54.7441V54.626C92.5845 54.2718 92.6436 53.8882 92.7026 53.534C93.0273 51.2022 93.411 48.5754 92.496 45.004C92.4665 44.945 92.496 44.8564 92.5255 44.7974C92.555 44.7384 92.614 44.6793 92.7026 44.6793C92.7616 44.6498 92.8502 44.6793 92.9092 44.7089C92.9682 44.7384 93.0273 44.7974 93.0273 44.8859C93.9718 48.5754 93.5881 51.3793 93.2634 53.652C93.2044 54.0357 93.1453 54.3899 93.1158 54.7441C93.1158 54.8031 93.0863 54.8622 93.0273 54.9212C92.9682 54.8917 92.9092 54.9212 92.8502 54.9212Z" fill="#263238"/>
<path d="M62.1246 41.8164C62.0656 41.8164 62.0066 41.7869 61.9476 41.7574C61.8885 41.7279 61.859 41.6688 61.859 41.5803C61.859 41.5212 61.859 41.4622 61.8885 41.4032C61.918 41.3442 61.9771 41.3146 62.0361 41.2851C63.1872 40.7834 64.2202 40.0455 65.0467 39.1305C68.3819 35.382 71.9238 33.6406 75.5837 33.9358C75.6722 33.9358 75.7313 33.9653 75.7903 34.0243C75.8493 34.0834 75.8493 34.1424 75.8493 34.2309C75.8493 34.3195 75.8198 34.3785 75.7608 34.4375C75.7017 34.4966 75.6427 34.4966 75.5542 34.4966C70.3299 34.0538 66.6995 38.1565 65.4894 39.4847C64.6039 40.4882 63.4824 41.2851 62.2722 41.7869C62.2132 41.7869 62.1837 41.8164 62.1246 41.8164Z" fill="#263238"/>
<path d="M86.0912 36.7101C86.0322 36.7101 85.9731 36.6806 85.9141 36.6511C85.8551 36.6216 85.8255 36.5625 85.8255 36.5035C85.6189 35.8837 85.2648 35.2934 84.763 34.8506C84.2612 34.4079 83.6709 34.1128 83.0216 33.9652C82.0476 33.7586 81.1916 33.7881 80.3357 33.8176C79.096 33.8766 77.9154 33.9357 76.6167 33.1387C76.5577 33.1092 76.4987 33.0502 76.4987 32.9617C76.4692 32.9026 76.4987 32.8141 76.5282 32.755C76.5577 32.696 76.6167 32.637 76.7053 32.637C76.7643 32.6075 76.8529 32.637 76.9119 32.6665C78.063 33.3749 79.1255 33.3158 80.3357 33.2568C81.2211 33.2273 82.1066 33.1683 83.1692 33.4044C83.9366 33.552 84.6154 33.9061 85.1762 34.4374C85.737 34.9687 86.1502 35.618 86.3863 36.3559C86.4159 36.415 86.3863 36.5035 86.3568 36.5625C86.3273 36.6216 86.2683 36.6806 86.1797 36.6806C86.1404 36.7003 86.1109 36.7101 86.0912 36.7101Z" fill="#263238"/>
<path d="M63.9546 58.1679C63.8956 58.1679 63.8365 58.1384 63.7775 58.1089C63.7185 58.0794 63.689 58.0203 63.6594 57.9613C63.5709 57.7547 63.4823 57.4595 63.3348 57.1349C62.3017 54.508 59.911 48.3983 62.6264 42.8494C62.6559 42.7904 62.7149 42.7313 62.8035 42.7018C62.8625 42.6723 62.9511 42.6723 63.0101 42.7018C63.0691 42.7313 63.1282 42.7904 63.1577 42.8789C63.1872 42.9379 63.1872 43.0265 63.1577 43.0855C60.5603 48.3983 62.892 54.3604 63.8956 56.9283C64.0136 57.2529 64.1317 57.5481 64.2202 57.7547C64.2498 57.8137 64.2498 57.9023 64.2202 57.9613C64.1907 58.0203 64.1317 58.0794 64.0431 58.1089C64.0136 58.1679 63.9841 58.1679 63.9546 58.1679Z" fill="#263238"/>
<path d="M80.4242 44.8859C80.3947 44.8859 80.3652 44.8859 80.3357 44.8564C80.3061 44.8564 80.2766 44.8269 80.2471 44.7974C80.2176 44.7679 80.1881 44.7383 80.1881 44.7088C80.1586 44.6793 80.1586 44.6498 80.1586 44.5908C80.1586 44.5613 80.1586 44.5022 80.1881 44.4727C80.5128 43.5872 81.4868 42.8198 82.4017 42.7018H82.5198C82.5493 42.7018 82.5788 42.7313 82.6084 42.7608C82.6379 42.7903 82.6674 42.8198 82.6674 42.8494C82.6969 42.8789 82.6969 42.9084 82.6969 42.9674V43.0855C82.6969 43.115 82.6674 43.1445 82.6379 43.174C82.6083 43.2035 82.5788 43.2331 82.5493 43.2331C82.5198 43.2626 82.4903 43.2626 82.4313 43.2626C81.7229 43.3511 80.926 43.9709 80.6603 44.6498C80.6308 44.7088 80.6013 44.7383 80.5423 44.7974C80.5423 44.8564 80.4832 44.8859 80.4242 44.8859Z" fill="#263238"/>
<path d="M88.8951 54.7145C88.8656 54.7145 88.8066 54.7145 88.7771 54.685C87.1832 53.8881 86.5339 52.0581 85.9141 50.3167C85.2352 48.3982 84.5859 46.5683 82.7854 46.3322C82.6969 46.3322 82.6379 46.2731 82.6084 46.2141C82.5493 46.1551 82.5493 46.0665 82.5493 46.0075C82.5493 45.9189 82.6083 45.8599 82.6674 45.8304C82.7264 45.7714 82.815 45.7714 82.874 45.7714C84.9991 46.037 85.737 48.1326 86.4454 50.1396C87.0357 51.7925 87.6555 53.5044 89.0132 54.1833C89.0722 54.2128 89.1313 54.2423 89.1608 54.3013C89.1903 54.3604 89.1903 54.4194 89.1903 54.5079C89.1903 54.5965 89.1313 54.626 89.0722 54.685C89.0427 54.685 88.9542 54.7145 88.8951 54.7145Z" fill="#263238"/>
<path d="M80.9556 84.2594H80.8375C78.4468 84.2299 76.5578 82.9903 75.3771 81.9572C75.3476 81.9277 75.3181 81.8982 75.2886 81.8392L71.6877 72.5123C71.6877 72.4828 71.6582 72.4533 71.6582 72.3943C71.6582 72.3647 71.6582 72.3057 71.6877 72.2762C71.7172 72.2172 71.7763 72.1581 71.8353 72.1286C71.8943 72.0991 71.9829 72.0991 72.0419 72.1286C72.1009 72.1581 72.16 72.2172 72.1895 72.2762L75.7608 81.544C76.8824 82.4885 78.6238 83.6396 80.808 83.6691C84.9697 83.7577 88.9542 79.8912 90.2529 74.5194L89.9873 65.7533C89.9873 65.7238 89.9873 65.6647 90.0168 65.6352C90.0168 65.6057 90.0463 65.5762 90.0758 65.5467C90.1053 65.5172 90.1349 65.4876 90.1644 65.4876C90.1939 65.4581 90.2234 65.4581 90.2824 65.4581C90.3119 65.4581 90.371 65.4581 90.4005 65.4876C90.43 65.4876 90.4595 65.5172 90.489 65.5467C90.5186 65.5762 90.5481 65.6057 90.5481 65.6352C90.5776 65.6647 90.5776 65.6943 90.5776 65.7533L90.8432 74.5489V74.6374C89.4855 80.2158 85.3238 84.2594 80.9556 84.2594Z" fill="#263238"/>
<path d="M114.898 114.985C114.839 114.985 114.78 114.985 114.721 114.926C114.662 114.896 114.633 114.837 114.603 114.778C114.574 114.719 114.574 114.66 114.603 114.601C114.633 114.542 114.662 114.483 114.721 114.454C115.311 114.04 117.289 112.506 117.673 109.731C118.115 106.603 116.197 104.389 115.813 103.976C115.784 103.946 115.754 103.887 115.754 103.858V103.71C115.754 103.651 115.784 103.622 115.813 103.592C115.843 103.563 115.872 103.533 115.931 103.503C120.919 101.91 126.144 101.201 131.368 101.378C131.397 101.378 131.456 101.378 131.486 101.408C131.515 101.437 131.545 101.437 131.574 101.467C131.604 101.496 131.633 101.526 131.633 101.555C131.633 101.585 131.663 101.614 131.663 101.674C131.663 101.703 131.663 101.762 131.633 101.792C131.604 101.821 131.604 101.851 131.574 101.88C131.545 101.91 131.515 101.939 131.486 101.939C131.456 101.939 131.427 101.969 131.368 101.969C126.35 101.792 121.333 102.47 116.551 103.946C117.259 104.802 118.676 106.957 118.263 109.82C117.938 112.092 116.64 113.598 115.754 114.395C119.148 114.306 122.602 114.1 125.967 113.745C129.361 113.391 132.755 112.86 136.09 112.211C136.946 111.296 137.566 110.203 137.891 109.023C138.57 106.514 137.743 104.359 137.33 103.533C130.896 93.1436 122.72 83.9643 113.127 76.3788C111.74 75.2572 110.176 74.3718 108.493 73.752C108.228 73.6634 107.962 73.5453 107.667 73.4568C107.637 73.4568 107.608 73.4273 107.578 73.3978C107.549 73.3682 107.519 73.3387 107.519 73.3092C107.49 73.2797 107.49 73.2502 107.49 73.1912C107.49 73.1616 107.49 73.1026 107.519 73.0731C107.519 73.0436 107.549 73.0141 107.578 72.9845C107.608 72.955 107.637 72.9255 107.667 72.9255C107.696 72.896 107.756 72.896 107.785 72.896C107.815 72.896 107.874 72.896 107.903 72.9255C108.169 73.0141 108.464 73.1321 108.73 73.2207C110.471 73.87 112.065 74.785 113.511 75.9361C123.133 83.5806 131.368 92.8189 137.832 103.238V103.267C138.363 104.359 139.13 106.544 138.422 109.17C138.068 110.499 137.359 111.679 136.415 112.683C136.385 112.712 136.326 112.742 136.267 112.771C132.903 113.421 129.449 113.952 126.026 114.306C122.336 114.719 118.588 114.926 114.898 114.985Z" fill="#263238"/>
<path d="M105.542 72.778H105.453C100.583 71.3613 95.5066 70.8595 90.4595 71.3023C90.3709 71.3023 90.3119 71.2727 90.2528 71.2432C90.1938 71.1842 90.1643 71.1252 90.1643 71.0366C90.1643 70.9481 90.1938 70.889 90.2233 70.83C90.2824 70.771 90.3414 70.7415 90.4299 70.7415C95.5361 70.2987 100.701 70.8005 105.63 72.2468C105.689 72.2763 105.748 72.3058 105.807 72.3648C105.837 72.4238 105.867 72.4829 105.867 72.5714C105.867 72.66 105.807 72.6895 105.778 72.7485C105.689 72.7485 105.63 72.778 105.542 72.778Z" fill="#263238"/>
<path d="M46.2749 134.76C45.2123 134.76 44.1202 134.554 43.1462 134.141C42.1427 133.727 41.2572 133.108 40.5194 132.34L40.4603 132.281C40.2537 132.045 40.0176 131.809 39.8405 131.573C39.0731 130.687 38.5123 129.625 38.1876 128.474C37.863 127.322 37.8335 126.142 38.0401 124.991C38.6894 121.36 39.4568 117.7 40.3128 114.129C42.7625 103.858 46.0683 93.8225 50.2004 84.1119C50.9973 82.2524 52.178 80.5701 53.6537 79.2124C55.1295 77.8547 56.9004 76.8216 58.8484 76.2018C60.6194 75.641 62.4198 75.1392 64.2202 74.6965C66.9357 74.0472 69.7101 73.5749 72.5141 73.2502H72.6321C72.6617 73.2502 72.6912 73.2798 72.7207 73.3093C72.7502 73.3388 72.7797 73.3683 72.7797 73.3978C72.8092 73.4273 72.8092 73.4569 72.8092 73.5159V73.6339C72.8092 73.6635 72.7797 73.693 72.7502 73.7225C72.7207 73.752 72.6912 73.7815 72.6617 73.7815C72.6321 73.811 72.6026 73.811 72.5436 73.811C69.7691 74.1357 67.0537 74.6079 64.3383 75.2573C62.5379 75.6705 60.7669 76.1723 58.996 76.7626C57.1365 77.3529 55.4542 78.3564 54.0374 79.6551C52.6207 80.9538 51.4696 82.5771 50.7317 84.348C46.6291 94.0291 43.3233 104.064 40.8735 114.277C40.0176 117.848 39.2502 121.508 38.6304 125.109C38.4238 126.201 38.4828 127.293 38.778 128.356C39.0731 129.418 39.6044 130.392 40.3128 131.219C40.5194 131.455 40.726 131.691 40.9326 131.897L40.9621 131.927C41.9951 132.989 43.3233 133.727 44.7991 134.052C46.2454 134.347 47.7802 134.229 49.1674 133.668C50.4661 133.137 51.7943 132.576 53.0634 131.986C62.5674 127.677 71.5106 122.216 79.7158 115.723C80.2766 113.745 80.1881 111.62 79.4797 109.702C78.7713 107.783 77.4432 106.13 75.7313 105.009C72.8387 106.632 69.8872 108.137 66.9357 109.495C63.7185 110.971 61.1211 111.974 58.8484 112.86C55.2771 114.247 52.4436 115.339 48.8722 117.582C46.452 119.088 44.2088 120.829 42.1132 122.748C42.0542 122.807 41.9951 122.836 41.9066 122.836C41.818 122.836 41.759 122.807 41.7 122.748C41.6409 122.689 41.6114 122.63 41.6114 122.541C41.6114 122.452 41.6409 122.393 41.7 122.334C43.8251 120.386 46.0978 118.615 48.5476 117.081C52.178 114.808 55.0114 113.686 58.6123 112.299C60.885 111.414 63.4528 110.44 66.6405 108.964C69.6216 107.606 72.6321 106.071 75.5542 104.419C75.6132 104.389 75.6427 104.389 75.7017 104.389C75.7608 104.389 75.7903 104.419 75.8493 104.419C77.7383 105.599 79.1846 107.37 79.9815 109.466C80.7784 111.561 80.8669 113.834 80.2471 115.959C80.2176 116.018 80.1881 116.077 80.1586 116.107C71.9238 122.659 62.892 128.149 53.3291 132.488C52.0304 133.078 50.7317 133.639 49.4035 134.17C48.3705 134.554 47.3374 134.76 46.2749 134.76Z" fill="#263238"/>
<path d="M116.905 103.828C116.846 103.828 116.758 103.799 116.728 103.769L113.157 100.67C111.179 99.1352 108.405 84.0529 109.172 78.8877C109.349 77.707 109.674 77.0577 110.176 76.8216C110.235 76.7921 110.323 76.7921 110.382 76.8216C110.441 76.8511 110.5 76.9101 110.53 76.9692C110.559 77.0282 110.559 77.1167 110.53 77.1758C110.5 77.2348 110.441 77.2938 110.382 77.3233C110.205 77.3824 109.881 77.6775 109.704 78.9172C108.936 84.2595 111.829 98.8696 113.511 100.198L117.082 103.297C117.112 103.326 117.171 103.385 117.171 103.444V103.622C117.141 103.681 117.112 103.71 117.053 103.769C116.994 103.828 116.964 103.828 116.905 103.828Z" fill="#263238"/>
<path d="M60.4718 112.122C60.4128 112.122 60.3242 112.093 60.2947 112.063C60.2357 112.004 60.2062 111.945 60.2062 111.886L55.9559 82.9314C55.9559 82.8428 55.9559 82.7838 56.015 82.7247C56.074 82.6657 56.133 82.6362 56.1921 82.6067C56.2806 82.6067 56.3396 82.6067 56.3987 82.6657C56.4577 82.7247 56.4872 82.7838 56.5167 82.8428L60.7669 111.797C60.7669 111.886 60.7669 111.945 60.7079 112.004C60.6489 112.063 60.5899 112.093 60.5308 112.122H60.4718Z" fill="#263238"/>
<path d="M57.3727 113.332C57.3137 113.332 57.2841 113.332 57.2546 113.303C57.2251 113.273 57.1661 113.244 57.1661 113.214C57.1366 113.185 57.1366 113.126 57.1071 113.096C57.1071 113.037 57.1071 113.008 57.1366 112.948L59.5273 106.78C59.5273 106.75 59.5568 106.721 59.5864 106.691C59.6159 106.662 59.6454 106.632 59.6749 106.632C59.7044 106.603 59.7339 106.603 59.793 106.603C59.8225 106.603 59.8815 106.603 59.911 106.632C59.9405 106.632 59.9701 106.662 59.9996 106.691C60.0291 106.721 60.0586 106.75 60.0586 106.78C60.0881 106.809 60.0881 106.839 60.0881 106.898C60.0881 106.927 60.0881 106.986 60.0586 107.016L57.6679 113.185C57.6383 113.244 57.6088 113.273 57.5498 113.303C57.4908 113.332 57.4317 113.332 57.3727 113.332Z" fill="#263238"/>
<path d="M114.898 114.985H96.6577C95.8018 114.985 94.9753 114.808 94.1784 114.483L89.0132 112.329C88.8657 112.27 88.7476 112.181 88.659 112.092C88.5705 111.974 88.482 111.856 88.4524 111.709C88.3934 111.561 88.3934 111.414 88.4229 111.266C88.4524 111.118 88.482 110.971 88.5705 110.853C88.6295 110.735 88.7181 110.646 88.8066 110.558C89.2789 110.115 89.9872 110.115 90.1938 110.115C90.489 110.115 90.7842 110.174 91.0793 110.292C91.522 110.469 92.0238 110.705 92.5256 110.882L95.241 111.856L97.6908 111.561H97.7203C97.7793 111.561 97.8383 111.532 97.8974 111.502C97.9269 111.473 97.9564 111.414 97.9564 111.355L97.9859 110.941C97.9859 110.882 97.9859 110.853 97.9564 110.794C97.9269 110.764 97.8974 110.705 97.8383 110.705L85.8551 105.806C85.5009 105.658 85.2057 105.392 85.0286 105.068C84.8516 104.743 84.763 104.359 84.822 103.976C84.8516 103.769 84.9401 103.592 85.0286 103.415C85.1467 103.208 85.3238 103.031 85.5304 102.913C85.737 102.766 85.9731 102.677 86.2093 102.648C86.4749 102.589 86.7701 102.618 87.0357 102.736C87.5965 102.943 89.6035 103.592 92.378 104.507L94.4146 105.186C94.4441 105.186 94.4736 105.215 94.5031 105.245C94.5326 105.274 94.5621 105.304 94.5621 105.333C94.5916 105.363 94.5917 105.392 94.5917 105.452V105.57C94.5917 105.599 94.5621 105.629 94.5326 105.658C94.5031 105.688 94.4736 105.717 94.4441 105.717C94.4146 105.717 94.385 105.747 94.326 105.747H94.2079L92.1714 105.097C89.3969 104.182 87.3899 103.533 86.8291 103.326C86.652 103.267 86.4749 103.238 86.2683 103.267C86.1207 103.297 85.9731 103.356 85.8256 103.444C85.678 103.533 85.5894 103.651 85.5009 103.799C85.4419 103.917 85.3828 104.035 85.3533 104.153C85.3238 104.389 85.3533 104.655 85.4714 104.891C85.5894 105.097 85.7961 105.274 86.0322 105.363L98.0154 110.263C98.163 110.322 98.3106 110.44 98.3991 110.587C98.4877 110.735 98.5172 110.882 98.5172 111.059L98.4877 111.473C98.4877 111.679 98.3991 111.856 98.2516 112.004C98.104 112.152 97.9269 112.24 97.7203 112.24L95.2115 112.535H95.0934L92.319 111.561C91.8172 111.384 91.2859 111.148 90.8432 110.971C90.6366 110.882 90.4005 110.823 90.1643 110.823C90.0463 110.823 89.4855 110.823 89.1608 111.118C89.1018 111.178 89.0723 111.207 89.0427 111.266C89.0132 111.325 88.9837 111.384 88.9837 111.443C88.9837 111.502 88.9837 111.591 89.0132 111.65C89.0427 111.709 89.0723 111.768 89.1018 111.827C89.1313 111.886 89.1903 111.915 89.2494 111.945L94.4146 114.1C95.1229 114.395 95.8903 114.542 96.6577 114.542H114.898C114.987 114.542 115.046 114.572 115.105 114.631C115.164 114.69 115.193 114.749 115.193 114.837C115.193 114.926 115.164 114.985 115.105 115.044C115.046 114.955 114.957 114.985 114.898 114.985Z" fill="#263238"/>
<path d="M98.3991 107.872H98.3401C98.1925 107.842 96.5692 106.986 87.685 102.234L86.1797 101.438C85.796 101.26 85.5304 100.936 85.3533 100.552C85.2057 100.168 85.1762 99.7257 85.2943 99.342C85.3828 99.1058 85.5009 98.8992 85.6485 98.7221C85.9141 98.427 86.2978 98.2499 86.711 98.1909C87.0357 98.1613 87.3308 98.1909 87.626 98.3089L96.215 101.939L88.8952 97.6005C88.8656 97.6005 88.8657 97.571 88.8361 97.571C88.659 97.4235 88.541 97.2464 88.4524 97.0398C88.3639 96.8331 88.3049 96.6265 88.3049 96.3904C88.3049 96.1838 88.3344 95.9772 88.4229 95.8001C88.5115 95.623 88.6 95.4459 88.7476 95.2983C89.2493 94.7966 90.0758 94.7376 90.6956 95.1508L104.125 100.936C105.099 101.054 105.985 101.201 106.87 101.349C107.578 101.467 108.316 101.615 109.143 101.733C109.202 101.762 109.261 101.792 109.32 101.851C109.349 101.91 109.379 101.969 109.379 102.057C109.379 102.116 109.32 102.175 109.29 102.234C109.261 102.294 109.172 102.293 109.084 102.293C108.228 102.175 107.49 102.028 106.782 101.91C105.867 101.762 105.011 101.585 104.007 101.497C103.978 101.497 103.948 101.497 103.919 101.467L90.43 95.682C90.4005 95.682 90.4004 95.6525 90.3709 95.6525C89.9577 95.3869 89.4264 95.4164 89.1313 95.7116C89.0427 95.8001 88.9837 95.9182 88.9247 96.0362C88.8656 96.1543 88.8656 96.2724 88.8656 96.3904C88.8656 96.538 88.8952 96.6856 88.9542 96.8036C89.0132 96.9217 89.1018 97.0398 89.1903 97.1578L100.082 103.592C100.141 103.622 100.2 103.681 100.229 103.769C100.259 103.828 100.259 103.917 100.2 103.976C100.17 104.035 100.111 104.094 100.022 104.123C99.9634 104.153 99.8749 104.153 99.8159 104.094L87.3604 98.8402C87.1538 98.7517 86.9471 98.7221 86.7405 98.7516C86.4749 98.7812 86.2093 98.8992 86.0322 99.1058C85.9141 99.2239 85.8256 99.3715 85.796 99.5191C85.7075 99.7847 85.737 100.08 85.8256 100.345C85.9436 100.611 86.1207 100.818 86.3864 100.936L87.8916 101.733C90.9317 103.356 97.9859 107.134 98.4286 107.311C98.4582 107.311 98.4877 107.341 98.5467 107.341C98.5762 107.37 98.6057 107.37 98.6353 107.429C98.6648 107.459 98.6648 107.488 98.6943 107.518V107.636C98.6943 107.665 98.6648 107.695 98.6648 107.754C98.6648 107.813 98.6353 107.813 98.5762 107.842C98.5467 107.872 98.5172 107.872 98.4877 107.901C98.4582 107.872 98.4286 107.872 98.3991 107.872Z" fill="#263238"/>
<path d="M115.046 104.212C114.869 104.212 114.692 104.153 114.515 104.094C114.367 104.005 114.219 103.887 114.101 103.74L111.976 100.759C111.12 99.5484 109.822 98.722 108.375 98.4859V98.1907L108.316 98.4564C107.519 98.3383 107.047 98.3973 106.516 98.4564C105.778 98.5744 105.04 98.5744 104.332 98.4564C102.649 98.2202 101.321 97.5709 100.672 97.2757C100.17 97.0396 99.6683 96.7445 99.1665 96.4493C99.137 96.4493 99.137 96.4198 99.1075 96.4198H99.0484C99.0189 96.4198 99.0189 96.4493 98.9894 96.4493C98.9894 96.4788 98.9599 96.4788 98.9599 96.5083C98.9009 96.8625 98.9304 97.2167 99.0484 97.5709C99.2846 98.2498 99.8749 98.6335 100.76 99.2533C101.085 99.4894 101.41 99.6665 101.764 99.8731C101.823 99.9026 101.882 99.9616 101.911 100.05C101.941 100.139 101.911 100.198 101.882 100.257C101.852 100.316 101.793 100.375 101.705 100.404C101.646 100.434 101.557 100.404 101.498 100.375C101.144 100.168 100.79 99.9617 100.436 99.7255C99.4912 99.0762 98.8418 98.6039 98.5172 97.748C98.3696 97.3053 98.3401 96.8625 98.3991 96.4198C98.4286 96.3017 98.4581 96.2132 98.5172 96.1246C98.5762 96.0361 98.6647 95.9475 98.7828 95.918C98.9009 95.859 98.9894 95.859 99.1075 95.859C99.2255 95.859 99.3436 95.8885 99.4321 95.9476C99.9044 96.2427 100.377 96.5083 100.878 96.7445C101.498 97.0396 102.767 97.6299 104.361 97.8661C105.04 97.9841 105.719 97.9841 106.398 97.8661C107.047 97.748 107.726 97.748 108.375 97.8661H108.405C109.999 98.1612 111.445 99.0467 112.389 100.375L114.515 103.356C114.574 103.444 114.662 103.504 114.751 103.563C114.839 103.592 114.957 103.622 115.046 103.622L115.931 103.504C116.02 103.504 116.079 103.504 116.138 103.563C116.197 103.622 116.226 103.681 116.256 103.74C116.256 103.828 116.256 103.887 116.197 103.946C116.138 104.005 116.079 104.035 116.02 104.064L115.134 104.182C115.164 104.182 115.105 104.212 115.046 104.212Z" fill="#263238"/>
<path d="M107.844 102.057C107.815 102.057 107.785 102.057 107.756 102.028L106.221 101.438C105.808 101.438 105.394 101.438 104.981 101.408C104.391 101.349 103.83 101.26 103.24 101.113C103.181 101.083 103.092 101.054 103.063 100.995C103.033 100.936 103.004 100.847 103.033 100.788C103.063 100.729 103.092 100.641 103.151 100.611C103.21 100.582 103.299 100.552 103.358 100.582C104.302 100.818 105.276 100.936 106.25 100.906C106.28 100.906 106.339 100.906 106.368 100.936L107.962 101.526C108.021 101.556 108.11 101.585 108.139 101.644C108.169 101.703 108.198 101.792 108.169 101.851C108.169 101.91 108.11 101.998 108.051 102.028C107.992 102.057 107.933 102.057 107.844 102.057Z" fill="#263238"/>
<path d="M77.3251 106.278C77.266 106.278 77.207 106.248 77.148 106.219L77.0594 106.13C77.0299 106.101 77.0299 106.071 77.0299 106.012V105.894C77.0299 105.865 77.0594 105.835 77.0889 105.806L78.9189 103.179L83.4643 97.2757C84.1726 96.3608 85.0581 95.6229 86.0616 95.0916L89.3969 93.3207C89.633 93.2026 90.3709 92.9665 91.3449 92.8484C92.2008 92.7304 92.7911 92.7894 93.4405 92.8484C93.5881 92.8484 93.7356 92.878 93.8832 92.878C94.6801 92.937 95.477 92.9665 96.2444 92.937C96.4215 92.937 96.5986 92.9665 96.7462 93.055C96.8938 93.1436 97.0414 93.2321 97.1299 93.3797C97.2185 93.5273 97.2775 93.6749 97.307 93.852C97.3365 94.0291 97.307 94.2061 97.2185 94.3537C97.0709 94.7079 96.8643 95.0326 96.5986 95.2982C95.8312 96.0951 94.7982 96.2132 93.8832 96.3313C93.3519 96.3903 92.7911 96.4198 92.2599 96.3608C92.1713 96.3608 92.1123 96.3313 92.0533 96.2722C91.9942 96.2132 91.9942 96.1542 91.9942 96.0656C91.9942 96.0361 91.9942 95.9771 92.0237 95.9476C92.0533 95.918 92.0533 95.8885 92.0828 95.859C92.1123 95.8295 92.1418 95.8295 92.1713 95.8H92.2894C92.7911 95.859 93.2929 95.8295 93.7947 95.7705C94.6506 95.6524 95.5361 95.5343 96.1854 94.885C96.392 94.6489 96.5691 94.4128 96.6872 94.1176C96.7167 94.0586 96.7167 93.97 96.7167 93.8815C96.7167 93.7929 96.6872 93.7339 96.6281 93.6749C96.5986 93.6158 96.5101 93.5568 96.4511 93.5273C96.392 93.4978 96.3035 93.4683 96.2149 93.4683C95.3885 93.4978 94.5916 93.4978 93.7651 93.4092L93.2929 93.3797C92.6731 93.3207 92.1123 93.2617 91.3154 93.3502C90.3709 93.4683 89.692 93.7044 89.574 93.7634L86.2682 95.5343C85.3237 96.0361 84.4973 96.715 83.848 97.5709L79.3026 103.474L77.4726 106.101L77.3841 106.189C77.4136 106.248 77.3546 106.278 77.3251 106.278Z" fill="#263238"/>
<path d="M80.1586 114.985C80.0995 114.985 80.0405 114.985 79.9815 114.926C79.9225 114.896 79.8929 114.837 79.8634 114.778C79.8339 114.719 79.8634 114.66 79.8929 114.601C79.9225 114.542 79.952 114.483 80.011 114.454L82.874 112.801C82.933 112.771 82.9921 112.771 83.0511 112.771L94.326 113.952C94.4145 113.952 94.4736 114.011 94.5031 114.07C94.5621 114.129 94.5621 114.218 94.5621 114.277C94.5621 114.306 94.5621 114.336 94.5326 114.395C94.5031 114.454 94.5031 114.454 94.4735 114.483C94.444 114.513 94.4145 114.513 94.385 114.542C94.3555 114.572 94.326 114.542 94.2669 114.542L83.0806 113.362L80.3062 114.956C80.2471 114.985 80.1881 114.985 80.1586 114.985Z" fill="#263238"/>
<path d="M89.0427 99.2829C89.0132 99.2829 88.9542 99.2829 88.9247 99.2534C88.8951 99.2534 88.8656 99.2239 88.8361 99.1943C88.8066 99.1648 88.7771 99.1353 88.7771 99.1058C88.7771 99.0763 88.7476 99.0468 88.7476 98.9877C88.7476 98.9582 88.7476 98.8992 88.7771 98.8697C88.7771 98.8402 88.8066 98.8106 88.8361 98.7811L89.8691 97.7481C89.8987 97.7186 89.9282 97.6891 89.9577 97.6891C89.9872 97.6891 90.0167 97.6595 90.0758 97.6595C90.1053 97.6595 90.1643 97.6595 90.1938 97.6891C90.2233 97.6891 90.2528 97.7186 90.2824 97.7481C90.3119 97.7776 90.3414 97.8071 90.3414 97.8366C90.3414 97.8661 90.3709 97.8957 90.3709 97.9547C90.3709 97.9842 90.3709 98.0432 90.3414 98.0728C90.3414 98.1023 90.3119 98.1318 90.2824 98.1613L89.2493 99.1943C89.1903 99.2534 89.1313 99.2829 89.0427 99.2829Z" fill="#263238"/>
<path d="M94.2965 100.729L91.6401 100.581C91.6106 100.581 91.5515 100.581 91.522 100.552C91.4925 100.522 91.463 100.522 91.4335 100.493C91.404 100.463 91.404 100.434 91.3744 100.404C91.3744 100.375 91.3449 100.345 91.3744 100.286C91.3744 100.257 91.3744 100.198 91.404 100.168C91.4335 100.139 91.4335 100.109 91.463 100.08C91.4925 100.05 91.522 100.05 91.5515 100.021C91.5811 100.021 91.6106 99.9912 91.6696 100.021L94.2965 100.168C94.385 100.168 94.4441 100.198 94.5031 100.257C94.5621 100.316 94.5916 100.375 94.5916 100.463C94.5916 100.552 94.5621 100.611 94.5031 100.67C94.4441 100.729 94.385 100.729 94.2965 100.729Z" fill="#263238"/>
<path d="M113.334 102.411C113.245 102.411 113.186 102.382 113.127 102.323C113.068 102.264 113.039 102.205 113.039 102.116V100.463C113.039 100.375 113.068 100.316 113.127 100.257C113.186 100.198 113.245 100.168 113.334 100.168C113.423 100.168 113.482 100.198 113.541 100.257C113.6 100.316 113.629 100.375 113.629 100.463V102.116C113.629 102.146 113.629 102.205 113.6 102.234C113.57 102.264 113.57 102.293 113.541 102.323C113.511 102.352 113.482 102.382 113.452 102.382C113.393 102.411 113.363 102.411 113.334 102.411Z" fill="#263238"/>
<path d="M113.334 147.098C113.275 147.098 113.245 147.098 113.216 147.068C113.186 147.039 113.157 147.039 113.127 147.009C113.098 146.98 113.098 146.95 113.068 146.921V146.803C113.57 141.195 113.806 135.528 113.777 129.89C113.747 124.843 113.511 119.737 113.068 114.719C113.068 114.631 113.098 114.572 113.127 114.513C113.186 114.454 113.245 114.424 113.334 114.424C113.423 114.424 113.482 114.454 113.541 114.483C113.6 114.542 113.629 114.601 113.629 114.69C114.072 119.737 114.308 124.843 114.338 129.89C114.367 135.528 114.131 141.224 113.629 146.832C113.629 146.891 113.6 146.98 113.541 147.009C113.482 147.039 113.393 147.098 113.334 147.098Z" fill="#263238"/>
<path d="M60.4718 148.396H60.4423C60.4128 148.396 60.3832 148.367 60.3242 148.367C60.2947 148.337 60.2652 148.308 60.2357 148.278C60.2062 148.249 60.2062 148.219 60.1766 148.19V148.072C60.6489 144.884 61.0326 141.637 61.3277 138.42C61.6524 134.849 61.8295 131.248 61.8885 127.647C61.8885 127.559 61.918 127.5 61.9771 127.44C62.0361 127.381 62.0951 127.352 62.1837 127.352C62.2132 127.352 62.2722 127.352 62.3017 127.381C62.3313 127.411 62.3608 127.411 62.3903 127.44C62.4198 127.47 62.4493 127.5 62.4493 127.529C62.4493 127.559 62.4788 127.588 62.4788 127.647C62.4198 131.248 62.2427 134.878 61.918 138.45C61.6524 141.667 61.2392 144.943 60.7669 148.16C60.7669 148.219 60.7374 148.278 60.6784 148.337C60.6194 148.396 60.5603 148.396 60.4718 148.396Z" fill="#263238"/>
<path d="M87.9212 61.4736C87.7736 61.4736 87.6555 61.4441 87.5375 61.3555C87.4194 61.2965 87.3309 61.1784 87.2423 61.0604C87.1833 60.9423 87.1243 60.7947 87.1243 60.6767V58.7582C87.1243 58.6696 87.1538 58.6106 87.2128 58.5516C87.2719 58.4925 87.3309 58.463 87.4194 58.463C87.508 58.463 87.567 58.4925 87.626 58.5516C87.6851 58.6106 87.7146 58.6696 87.7146 58.7582V60.6767C87.7146 60.7062 87.7146 60.7652 87.7441 60.7947C87.7736 60.8242 87.8031 60.8538 87.8326 60.8833C87.8622 60.9128 87.8917 60.9128 87.9212 60.9128C87.9507 60.9128 87.9802 60.9128 88.0097 60.8833C88.0392 60.8833 88.0983 60.7947 88.1278 60.5291C88.1573 60.2044 88.0983 59.9093 87.9802 59.6141C87.9507 59.5551 87.9507 59.4665 87.9802 59.4075C88.0097 59.3485 88.0688 59.2894 88.1573 59.2599C88.2163 59.2304 88.3049 59.2304 88.3639 59.2599C88.4229 59.2894 88.482 59.3485 88.5115 59.437C88.6296 59.7912 88.6886 60.2044 88.6886 60.5881C88.6591 61.0309 88.482 61.2375 88.3639 61.3555C88.3344 61.385 88.3049 61.385 88.2754 61.4146C88.1868 61.4441 88.0392 61.4736 87.9212 61.4736Z" fill="#263238"/>
<path d="M121.097 69.2067C117.378 69.2067 113.836 68.3803 110.589 66.7274C110.53 66.6979 110.471 66.6389 110.441 66.5503C110.412 66.4913 110.412 66.4028 110.471 66.3437C110.501 66.2847 110.56 66.2257 110.648 66.1961C110.707 66.1666 110.796 66.1666 110.855 66.2257C114.013 67.8195 117.466 68.6459 121.097 68.6459C133.7 68.6459 143.941 58.4041 143.941 45.801C143.941 33.1979 133.7 22.9561 121.097 22.9561C108.493 22.9561 98.2516 33.1979 98.2516 45.801C98.2516 53.475 101.853 60.3521 108.139 64.6023C108.169 64.6318 108.198 64.6613 108.228 64.6909C108.257 64.7204 108.257 64.7499 108.257 64.7794V64.8975C108.257 64.927 108.228 64.9565 108.228 64.986C108.198 65.0155 108.169 65.045 108.139 65.0746C108.11 65.1041 108.08 65.1041 108.051 65.1041H107.933C107.903 65.1041 107.874 65.0746 107.844 65.0746C101.41 60.7063 97.7203 53.6816 97.7203 45.801C97.7203 32.9028 108.228 22.3953 121.126 22.3953C134.024 22.3953 144.532 32.9028 144.532 45.801C144.502 58.6992 133.995 69.2067 121.097 69.2067Z" fill="#263238"/>
<path d="M101.498 86.8568C101.439 86.8568 101.41 86.8568 101.38 86.8273C101.351 86.7977 101.292 86.7682 101.292 86.7387C101.262 86.7092 101.262 86.6502 101.233 86.6206V86.5026L107.726 64.7792C107.756 64.7202 107.785 64.6317 107.874 64.6021C107.933 64.5726 108.021 64.5726 108.08 64.5726C108.139 64.6021 108.228 64.6317 108.257 64.7202C108.287 64.7792 108.287 64.8678 108.287 64.9268L102.945 82.7836L110.501 66.3436C110.53 66.2845 110.589 66.2255 110.648 66.196C110.707 66.1665 110.796 66.1665 110.855 66.196C110.914 66.2255 110.973 66.2845 111.002 66.3436C111.032 66.4026 111.032 66.4911 111.002 66.5502L101.764 86.6502C101.734 86.7092 101.705 86.7387 101.646 86.7682C101.616 86.8568 101.557 86.8568 101.498 86.8568Z" fill="#263238"/>
<path d="M122.13 64.1595C120.949 64.1595 119.562 63.7463 118.204 62.3886L117.437 61.6212C113.511 57.7251 107.578 51.8221 109.674 49.1362C109.674 49.1066 109.704 49.1066 109.733 49.0771C109.881 48.9591 110.294 48.5754 110.264 48.2212C110.264 48.1326 110.294 48.0736 110.323 48.0146C110.382 47.9555 110.441 47.926 110.53 47.926C110.619 47.926 110.678 47.9555 110.737 47.9851C110.796 48.0441 110.825 48.1031 110.825 48.1917C110.884 48.841 110.264 49.3723 110.117 49.5199C108.405 51.8221 114.544 57.9318 117.85 61.208C118.115 61.4736 118.381 61.7392 118.647 61.9754C121.746 65.0745 124.815 62.8608 125.199 62.5657C125.524 62.0934 128.652 57.1644 129.744 53.4749C130.069 52.3829 130.01 51.4974 129.567 50.8481C128.83 49.7265 127.206 49.5789 127.206 49.5789C127.118 49.5789 127.059 49.5494 127 49.4903C126.941 49.4313 126.941 49.3723 126.941 49.2837C126.941 49.1952 126.97 49.1362 127.029 49.1066C127.088 49.0476 127.147 49.0476 127.236 49.0476C127.324 49.0476 129.125 49.2247 130.04 50.5824C130.6 51.4088 130.689 52.4419 130.305 53.711C129.125 57.6366 125.789 62.7723 125.642 62.9789C125.612 63.0084 125.612 63.0379 125.583 63.0379C125.524 63.0084 124.078 64.1595 122.13 64.1595Z" fill="#263238"/>
<path d="M109.881 49.5789C109.822 49.5789 109.762 49.5494 109.703 49.5199C109.644 49.4903 109.615 49.4313 109.615 49.3723C109.526 49.1066 107.785 42.7313 111.002 40.6062C114.013 38.6287 114.573 38.1564 114.603 38.1269C114.662 38.0974 114.721 38.0679 114.78 38.0679C114.839 38.0679 114.898 38.0974 114.957 38.1269C114.987 38.1564 118.322 40.6357 116.374 43.4102C114.839 45.5648 114.721 46.1551 114.692 46.2141C114.692 46.2732 114.662 46.3617 114.633 46.3912C114.573 46.4502 114.514 46.4798 114.455 46.4798C114.396 46.4798 114.308 46.4798 114.249 46.4207C114.19 46.3617 114.16 46.3322 114.131 46.2436C114.042 45.8009 115.046 44.2661 115.902 43.0265C117.318 41.0194 115.37 39.1599 114.78 38.6582C114.426 38.9238 113.54 39.5732 111.327 41.0194C108.464 42.9084 110.146 49.1066 110.176 49.1657V49.2837C110.176 49.3132 110.146 49.3428 110.146 49.4018C110.117 49.4313 110.117 49.4608 110.087 49.4903C110.058 49.5199 110.028 49.5199 109.999 49.5494C109.94 49.5789 109.91 49.5789 109.881 49.5789Z" fill="#263238"/>
<path d="M111.711 50.0511H111.622C111.593 50.0511 111.563 50.0216 111.533 49.9921C111.504 49.9625 111.474 49.933 111.474 49.9035C111.445 49.874 111.445 49.8445 111.445 49.7855V49.6674C111.504 49.5198 112.596 45.6828 118.529 44.3546C118.676 44.2956 120.063 43.7348 120.182 42.1114C120.211 41.7277 120.211 41.3736 120.211 41.0784C120.211 39.8683 120.27 39.2485 121.952 38.5991C122.248 38.4811 122.631 38.363 123.015 38.2154C125.022 37.4775 128.033 36.3855 129.036 34.8802L129.066 34.8507L130.04 33.6405C130.069 33.5815 130.158 33.552 130.217 33.5225C130.276 33.5225 130.364 33.5225 130.423 33.5815C130.6 33.6996 130.748 33.8766 130.807 34.0833C130.866 34.2308 130.866 34.3784 130.837 34.526C130.807 34.6736 130.748 34.8211 130.689 34.9392L130.659 34.9687C130.217 35.441 129.951 35.7656 129.774 36.0018C129.892 35.9132 130.01 35.7951 130.099 35.7361C130.689 35.2048 131.309 34.6736 131.84 34.7916C131.958 34.8211 132.047 34.8802 132.135 34.9392C132.224 35.0277 132.283 35.1163 132.312 35.2344C132.342 35.2639 132.342 35.2934 132.342 35.3524C132.342 35.3819 132.342 35.441 132.312 35.4705C132.312 35.5 132.283 35.5295 132.253 35.559C132.224 35.5885 132.194 35.6181 132.165 35.6181C132.135 35.6476 132.106 35.6476 132.047 35.6476C132.017 35.6476 131.958 35.6476 131.929 35.6181C131.899 35.6181 131.87 35.5885 131.84 35.559C131.811 35.5295 131.781 35.5 131.781 35.4705C131.752 35.4114 131.722 35.3524 131.693 35.3524C131.456 35.2934 130.837 35.8247 130.453 36.1493C129.922 36.5921 129.597 36.8872 129.272 36.9167C129.213 36.9167 129.154 36.9167 129.095 36.8872C129.036 36.8577 128.977 36.8282 128.948 36.7692C128.711 36.5035 128.83 36.0903 130.217 34.585C130.246 34.526 130.276 34.467 130.276 34.4079C130.276 34.3489 130.276 34.2899 130.246 34.2308L129.479 35.1753C128.387 36.8577 125.376 37.9498 123.192 38.7467C122.808 38.8943 122.454 39.0123 122.159 39.1304C120.772 39.6617 120.772 39.9863 120.772 41.0784C120.772 41.3736 120.772 41.7277 120.742 42.141C120.595 44.207 118.765 44.8564 118.676 44.8859H118.647C113.068 46.1551 111.976 49.7559 111.976 49.815C111.947 49.874 111.917 49.933 111.888 49.9626C111.829 50.0216 111.77 50.0511 111.711 50.0511Z" fill="#263238"/>
<path d="M123.428 47.6013C123.399 47.6013 123.34 47.6013 123.31 47.5718C123.281 47.5423 123.251 47.5423 123.222 47.5128C123.104 47.3652 122.867 46.9225 123.399 45.5943C123.487 45.3877 123.576 45.122 123.694 44.8269C124.314 43.174 125.258 40.6652 126.616 39.9568C128.151 39.1599 131.634 38.7762 131.781 38.7467C131.87 38.7467 131.929 38.7467 131.988 38.8057C132.047 38.8648 132.076 38.9238 132.106 38.9828C132.106 39.0714 132.106 39.1304 132.047 39.1894C131.988 39.2485 131.929 39.278 131.87 39.3075C131.84 39.3075 128.328 39.7207 126.882 40.4586C125.73 41.0489 124.786 43.5282 124.255 45.004C124.137 45.2991 124.048 45.5648 123.96 45.7714C123.546 46.7454 123.664 47.0996 123.694 47.1291C123.723 47.1586 123.753 47.2176 123.753 47.2767C123.753 47.3357 123.753 47.3947 123.723 47.4242C123.694 47.4833 123.664 47.5128 123.605 47.5423C123.546 47.6013 123.487 47.6013 123.428 47.6013Z" fill="#263238"/>
<path d="M129.125 50.3168C129.066 50.3168 129.007 50.3168 128.948 50.2578C128.889 50.2283 128.859 50.1692 128.829 50.1102C128.8 50.0512 128.8 49.9921 128.829 49.9331C128.859 49.8741 128.889 49.815 128.918 49.7855C128.948 49.756 129.597 49.1657 129.449 47.3062C129.243 44.9155 128.8 43.4397 127.236 43.4102H127.206C125.435 43.4102 123.871 45.7714 123.871 45.8009L123.782 45.8895C123.753 45.919 123.723 45.919 123.694 45.919H123.576C123.546 45.919 123.517 45.8895 123.487 45.8895L123.399 45.8009C123.369 45.7714 123.369 45.7419 123.369 45.7124V45.5943C123.369 45.5648 123.399 45.5353 123.399 45.5058C123.458 45.3877 125.17 42.8494 127.265 42.8789C129.479 42.9084 129.863 45.1516 130.04 47.2767C130.246 49.4904 129.331 50.2283 129.302 50.2578C129.272 50.2873 129.184 50.3168 129.125 50.3168Z" fill="#263238"/>
<path d="M120.211 60.6471C120.152 60.6471 120.063 60.6176 120.034 60.5881C119.975 60.5291 119.945 60.47 119.945 60.411C119.945 60.352 119.945 60.2634 120.004 60.2044C120.034 60.1454 120.093 60.1159 120.181 60.0863C120.211 60.0863 121.126 59.7912 121.155 58.4925C121.185 57.8137 121.864 56.8396 122.779 55.6295C124.048 53.8881 125.612 51.763 125.288 50.1101C124.786 47.4242 123.369 46.9225 123.31 46.8929C123.281 46.8929 123.251 46.8634 123.222 46.8339C123.192 46.8044 123.162 46.7749 123.162 46.7454C123.133 46.7159 123.133 46.6863 123.133 46.6273V46.5092C123.133 46.4797 123.162 46.4502 123.192 46.4207C123.222 46.3912 123.251 46.3617 123.281 46.3617C123.31 46.3322 123.34 46.3322 123.399 46.3322H123.517C123.576 46.3617 125.317 46.952 125.878 49.9921C126.232 51.8811 124.579 54.1537 123.251 55.9542C122.484 57.0167 121.775 57.9907 121.746 58.4925C121.687 60.2339 120.418 60.5881 120.359 60.6176C120.27 60.6471 120.24 60.6471 120.211 60.6471Z" fill="#263238"/>
<path d="M128.948 44.325C128.889 44.325 128.8 44.2955 128.77 44.266C128.711 44.207 128.682 44.1479 128.682 44.0889C128.564 43.2625 128.8 42.4656 129.272 41.8752C129.597 41.4915 130.01 41.2554 130.394 41.2554C130.748 41.2554 131.161 41.4325 131.486 41.7572C131.899 42.1999 132.165 42.7312 132.253 43.351C132.283 43.3215 132.342 43.292 132.371 43.233C132.548 43.0559 132.637 42.7902 132.667 42.5541C132.607 42.377 132.548 42.1999 132.46 42.0523C132.312 41.7572 132.135 41.462 131.958 41.1964C131.929 41.1669 131.929 41.1374 131.899 41.1079V40.9898C131.899 40.9012 131.958 40.8422 132.017 40.8127C132.076 40.7537 132.165 40.7537 132.224 40.7537C132.312 40.7537 132.371 40.8127 132.401 40.8717C132.755 41.344 133.05 41.8752 133.227 42.4656V42.5541C133.198 42.9673 133.05 43.3215 132.785 43.6462C132.607 43.8528 132.342 44.0299 132.076 44.1184C132.047 44.1479 131.988 44.1479 131.929 44.1479C131.87 44.1479 131.84 44.1184 131.811 44.0889C131.781 44.0594 131.752 44.0299 131.722 43.9708C131.693 43.9413 131.693 43.8823 131.693 43.8233C131.693 43.1739 131.486 42.5836 131.073 42.1704C130.837 41.9343 130.6 41.8162 130.394 41.8162C130.187 41.8162 129.922 41.9933 129.685 42.2294C129.302 42.6722 129.125 43.3215 129.213 44.0004C129.213 44.0889 129.213 44.1479 129.154 44.207C129.095 44.266 129.036 44.2955 128.977 44.325H128.948Z" fill="#263238"/>
<path d="M132.903 43.0855C132.844 43.0855 132.755 43.056 132.726 43.0265C132.696 42.997 132.667 42.9675 132.667 42.938C132.637 42.9084 132.637 42.8789 132.637 42.8199C132.637 42.7904 132.637 42.7313 132.667 42.7018C132.667 42.6723 132.696 42.6428 132.726 42.6133C132.962 42.3476 133.109 42.0525 133.168 41.6983C133.05 41.4622 132.903 41.2261 132.755 40.9899L132.696 40.9014C132.43 40.4587 132.283 40.2521 132.46 40.0454C132.637 39.8388 132.962 39.9274 133.404 40.2816C133.522 40.3701 133.641 40.4587 133.729 40.5767L133.788 40.4587C133.67 40.3406 133.582 40.2225 133.463 40.1045C133.05 39.6913 132.607 39.278 132.106 38.9534L132.017 38.8648C131.988 38.8353 131.988 38.8058 131.988 38.7468V38.6287C131.988 38.5992 132.017 38.5697 132.047 38.5106L132.135 38.4221C132.165 38.3926 132.194 38.3926 132.253 38.3926H132.371C132.401 38.3926 132.43 38.4221 132.46 38.4516C132.991 38.8058 133.463 39.219 133.906 39.6617C134.083 39.8388 134.231 40.0159 134.378 40.193C134.408 40.2225 134.437 40.2816 134.437 40.3406C134.437 40.3996 134.437 40.4587 134.408 40.4882L134.054 41.1965C134.024 41.2556 133.995 41.2851 133.965 41.3146C133.936 41.3441 133.877 41.3441 133.818 41.3736C133.759 41.3736 133.7 41.3441 133.641 41.3146C133.67 41.3736 133.7 41.4327 133.729 41.4917C133.759 41.5507 133.759 41.6098 133.759 41.6688C133.7 42.141 133.463 42.5838 133.139 42.9675C133.109 42.997 133.08 43.0265 133.05 43.0265C132.991 43.0855 132.932 43.0855 132.903 43.0855Z" fill="#263238"/>
<path d="M131.781 39.3075C131.073 39.3075 131.014 37.5956 131.014 37.0643C131.014 36.5331 131.073 34.8212 131.781 34.8212C132.489 34.8212 132.548 36.5331 132.548 37.0643C132.548 37.5956 132.489 39.3075 131.781 39.3075ZM131.781 35.5591C131.693 35.8247 131.604 36.3265 131.604 37.0643C131.604 37.8022 131.693 38.3335 131.781 38.5696C131.87 38.304 131.958 37.8022 131.958 37.0643C131.958 36.3265 131.87 35.8247 131.781 35.5591Z" fill="#263238"/>
<path d="M116.935 38.3335H116.876C116.699 38.304 116.344 38.186 116.167 37.5071C116.049 37.0054 116.02 36.5036 116.079 36.0018C116.197 34.9098 116.61 33.7882 117.318 33.8472C118.027 33.9062 118.233 35.1164 118.115 36.2084C118.086 36.7102 117.938 37.212 117.732 37.6842C117.466 38.245 117.141 38.3335 116.935 38.3335ZM117.289 34.408C117.171 34.408 116.787 34.9393 116.669 36.0609C116.61 36.5036 116.64 36.9463 116.728 37.3595C116.817 37.6842 116.935 37.7728 116.935 37.7728C116.964 37.7728 117.082 37.7137 117.23 37.4186C117.407 37.0054 117.525 36.5921 117.555 36.1494C117.702 35.0278 117.407 34.408 117.289 34.408Z" fill="#263238"/>
<path d="M112.271 40.3996C112.212 40.3996 112.183 40.3996 112.153 40.3701C112.124 40.3406 112.094 40.3406 112.065 40.3111C112.035 40.2815 112.006 40.252 112.006 40.2225C112.006 40.193 111.976 40.1635 111.976 40.1044C112.065 37.1824 114.839 33.9062 116.61 33.1978C117.259 32.9322 117.584 33.1093 117.791 33.2864C118.942 34.408 118.411 37.0348 118.352 37.33C118.145 38.2745 117.643 38.8648 116.964 39.0124C116.522 39.1009 116.433 39.8978 116.433 39.8978C116.433 39.9274 116.433 39.9569 116.404 40.0159C116.374 40.0454 116.374 40.0749 116.344 40.1044C116.315 40.134 116.285 40.134 116.256 40.1635C116.226 40.1635 116.197 40.193 116.138 40.1635C116.108 40.1635 116.079 40.1635 116.02 40.134C115.99 40.1044 115.961 40.1044 115.931 40.0749C115.902 40.0454 115.902 40.0159 115.872 39.9864C115.872 39.9569 115.843 39.9274 115.872 39.8683C115.872 39.8093 115.99 38.6582 116.846 38.4811C117.466 38.363 117.702 37.6547 117.791 37.2414C117.997 36.356 118.145 34.467 117.378 33.7291C117.289 33.6406 117.082 33.6701 116.817 33.7586C115.37 34.3489 112.626 37.389 112.537 40.1635C112.537 40.2225 112.507 40.3111 112.448 40.3406C112.419 40.3406 112.36 40.3701 112.271 40.3996Z" fill="#263238"/>
<path d="M120.772 28.741C119.945 28.741 119.296 28.2688 119.296 27.649C119.296 27.0291 119.945 26.5569 120.772 26.5569C121.598 26.5569 122.248 27.0291 122.248 27.649C122.218 28.2393 121.598 28.741 120.772 28.741ZM120.772 27.1177C120.241 27.1177 119.886 27.3833 119.886 27.649C119.886 27.9146 120.241 28.1802 120.772 28.1802C121.303 28.1802 121.657 27.9146 121.657 27.649C121.657 27.3833 121.274 27.1177 120.772 27.1177Z" fill="#263238"/>
<path d="M120.536 35.6771C120.506 35.6771 120.447 35.6771 120.418 35.6476C120.359 35.6181 120.3 35.5591 120.27 35.5C120.241 35.441 120.241 35.3525 120.27 35.2934C122.159 30.7185 121.657 27.7375 121.628 27.708C121.628 27.6194 121.628 27.5604 121.687 27.5014C121.716 27.4423 121.805 27.3833 121.864 27.3833C121.952 27.3833 122.011 27.3833 122.07 27.4423C122.13 27.4718 122.189 27.5604 122.189 27.6194C122.218 27.7375 122.749 30.8071 120.772 35.5296C120.742 35.5886 120.713 35.6181 120.654 35.6476C120.654 35.6476 120.595 35.6771 120.536 35.6771Z" fill="#263238"/>
<path d="M118.234 35.4114C118.174 35.4114 118.086 35.3819 118.027 35.3229C117.968 35.2639 117.938 35.2048 117.938 35.1458C117.938 35.0868 117.968 34.9982 117.997 34.9392C118.056 34.8802 118.115 34.8506 118.174 34.8506C118.706 34.7916 119.237 31.3973 119.267 27.6194C119.267 27.5308 119.296 27.4718 119.355 27.4128C119.414 27.3537 119.473 27.3242 119.562 27.3242C119.65 27.3242 119.709 27.3537 119.768 27.4128C119.827 27.4718 119.857 27.5308 119.857 27.6194C119.827 29.8921 119.621 35.2048 118.263 35.3819L118.234 35.4114Z" fill="#263238"/>
<path d="M118.794 34.7325C118.735 34.7325 118.647 34.703 118.617 34.6735C118.558 34.644 118.529 34.5555 118.529 34.4964C118.145 32.1057 117.2 29.8625 115.784 27.944C115.666 27.9735 115.548 28.0325 115.459 28.0916C115.282 28.2392 115.164 28.4753 115.134 28.7114C115.784 29.4198 116.256 30.2757 116.492 31.2202C116.522 31.2792 116.522 31.3383 116.492 31.3973C116.463 31.4563 116.433 31.5154 116.374 31.5449C116.315 31.5744 116.256 31.6039 116.197 31.5744C116.138 31.5744 116.079 31.5449 116.02 31.4858C115.282 30.8365 114.426 30.3938 113.482 30.1577C112.537 29.9215 111.563 29.892 110.589 30.0986C110.5 30.2757 110.353 30.6299 110.5 31.0136C110.53 31.1021 110.589 31.2202 110.678 31.2792C111.327 31.1612 112.714 31.0726 114.042 31.8991C114.869 32.4008 115.518 33.1682 115.902 34.0537C115.902 34.0832 115.931 34.1127 115.931 34.1718C115.931 34.2013 115.931 34.2603 115.902 34.2898C115.902 34.3193 115.872 34.3488 115.843 34.3784C115.813 34.4079 115.784 34.4374 115.754 34.4374C115.725 34.4669 115.695 34.4669 115.636 34.4669C115.607 34.4669 115.548 34.4669 115.518 34.4374C115.489 34.4374 115.459 34.4079 115.43 34.3784C115.4 34.3488 115.371 34.3193 115.371 34.2898C115.046 33.5224 114.456 32.8436 113.747 32.4008C112.448 31.6039 111.15 31.781 110.648 31.8991H110.5C110.471 31.8991 110.412 31.8695 110.382 31.84C110.205 31.6629 110.058 31.4858 109.969 31.2497C109.704 30.5118 110.087 29.8625 110.176 29.7149C110.205 29.6559 110.294 29.5969 110.353 29.5969C111.268 29.3903 112.183 29.3607 113.098 29.5378C114.013 29.7149 114.869 30.0396 115.636 30.5414C115.607 30.4823 115.577 30.4233 115.548 30.3643C115.311 29.892 115.016 29.4493 114.633 29.0361C114.574 28.977 114.544 28.918 114.544 28.859C114.544 28.7409 114.574 28.1211 115.075 27.7079C115.311 27.5308 115.577 27.4127 115.872 27.4127C115.931 27.4127 115.961 27.4127 116.02 27.4422C116.049 27.4718 116.108 27.5013 116.138 27.5308C117.673 29.5673 118.706 31.9581 119.089 34.4964C119.089 34.585 119.089 34.644 119.03 34.703C118.971 34.7621 118.912 34.7916 118.853 34.8211L118.794 34.7325Z" fill="#263238"/>
<path d="M126.97 37.1824C126.911 37.1824 126.882 37.1824 126.823 37.1529C126.793 37.1234 126.734 37.0939 126.734 37.0644C126.409 36.5626 125.996 36.1494 125.524 35.7952C124.815 35.2639 123.989 34.9097 123.104 34.7622C123.074 34.7622 123.015 34.7327 122.986 34.7327L122.897 34.6441C122.867 34.6146 122.867 34.5851 122.867 34.526V34.408C123.546 31.9877 124.815 30.4234 125.967 30.5415C126.35 30.6005 126.704 30.8071 127.029 31.2203C127.236 31.2203 127.413 31.1613 127.59 31.0432C127.944 30.7776 128.062 30.2758 127.915 29.7741C127.59 29.3904 126.911 28.7705 125.996 28.623C124.461 28.3868 122.808 29.5379 122.041 31.3384C122.041 31.3679 122.012 31.3974 121.982 31.4269C121.952 31.4564 121.923 31.486 121.893 31.486C121.864 31.486 121.834 31.5155 121.775 31.5155C121.746 31.5155 121.687 31.5155 121.657 31.486C121.628 31.486 121.598 31.4564 121.569 31.4269C121.539 31.3974 121.51 31.3679 121.51 31.3384C121.51 31.3089 121.48 31.2794 121.48 31.2203C121.48 31.1908 121.48 31.1318 121.51 31.1023C122.366 29.0362 124.255 27.767 126.055 28.0327C127.206 28.2097 128.003 28.9771 128.387 29.4199C128.416 29.4494 128.416 29.4789 128.446 29.5084C128.682 30.2463 128.475 31.0432 127.915 31.4564C127.619 31.6926 127.236 31.7811 126.852 31.7516C126.823 31.7516 126.763 31.7516 126.734 31.7221L126.645 31.6335C126.468 31.3974 126.203 31.1023 125.908 31.0727C125.199 30.9842 124.137 32.1353 123.517 34.2309C124.373 34.408 125.17 34.7917 125.878 35.323C126.38 35.7067 126.852 36.2084 127.206 36.7397C127.236 36.7692 127.265 36.8283 127.265 36.8873C127.265 36.9463 127.265 36.9758 127.236 37.0349C127.206 37.0939 127.177 37.1234 127.118 37.1529C127.059 37.1529 127 37.1824 126.97 37.1824Z" fill="#263238"/>
</g>
</g>
<defs>
<clipPath id="clip0_5228_7712">
<rect width="160.8" height="156.314" fill="white" transform="translate(8.19995 -7.91711)"/>
</clipPath>
</defs>
</svg>
