<svg width="17" height="25" viewBox="0 0 17 25" fill="none" xmlns="http://www.w3.org/2000/svg">
<mask id="path-1-outside-1_5883_1526" maskUnits="userSpaceOnUse" x="0" y="0" width="17" height="25" fill="black">
<rect fill="white" width="17" height="25"/>
<path d="M8.8649 6.6501C9.36314 6.41932 9.8367 6.20753 10.2998 5.9758C10.353 5.94921 10.3843 5.79536 10.3634 5.71748C10.1138 4.82285 9.86232 3.92822 9.58806 3.04024C9.47764 2.73659 9.34865 2.44004 9.2018 2.15226C9.11449 1.95662 9.16194 1.81701 9.36124 1.73153C9.8832 1.50835 10.4052 1.28897 10.93 1.06673C11.1274 0.982209 11.2593 1.04299 11.3494 1.23769C11.927 2.49242 12.3416 3.816 12.5832 5.17614C12.6477 5.52753 12.643 5.52754 13.0036 5.53703C13.1934 5.53703 13.3832 5.56363 13.573 5.55128C13.7827 5.53799 13.8852 5.60921 13.8786 5.82669C13.8814 5.91323 13.8897 5.99951 13.9033 6.08502C13.7666 6.07552 13.6442 6.06413 13.5236 6.05938C10.3397 5.92262 8.044 7.3244 6.57017 10.1099C6.29591 10.6294 6.11464 11.1983 5.90586 11.7501C5.84417 11.9096 5.79577 12.0568 5.59078 12.035C5.38579 12.0131 5.36112 11.8583 5.35448 11.6864C5.30797 10.5192 5.2852 9.34918 5.19979 8.18483C5.11912 7.10026 4.98341 6.01854 4.63607 4.97765C4.4064 4.28721 4.38837 4.28341 3.67471 4.41827C3.3416 4.48095 3.01039 4.54078 2.67064 4.58162C2.51595 4.60061 2.4742 4.66235 2.48084 4.80955C2.49033 5.3148 2.52829 5.82384 2.48084 6.32909C2.36791 7.58461 2.24454 8.84108 2.07466 10.09C1.86018 11.6674 1.53657 13.2297 1.52803 14.8319C1.51569 17.2185 2.44099 19.1607 4.22894 20.7201C5.73788 22.0373 7.44706 22.9348 9.43242 23.2767C9.77786 23.3365 10.128 23.3717 10.4763 23.4125L10.5456 23.3062C10.4601 23.2561 10.3783 23.1999 10.3008 23.1381C9.50359 22.4115 8.76051 21.6347 8.22052 20.6925C8.03072 20.3601 7.91209 19.986 7.74601 19.6393C7.69458 19.5337 7.60988 19.4479 7.50495 19.3952C7.13768 19.2319 6.75333 19.1103 6.38986 18.9365C6.33 18.9045 6.26201 18.8909 6.19444 18.8975C6.12688 18.9041 6.06279 18.9305 6.01025 18.9736C5.40193 19.3667 4.7528 19.4047 4.08374 19.1635C3.98357 19.1263 3.90164 19.0518 3.85503 18.9555C3.781 18.7437 3.99453 18.5946 4.24982 18.683C4.58248 18.8138 4.94816 18.8351 5.29374 18.7437C5.41806 18.7067 5.53479 18.6488 5.69233 18.5785C5.59743 18.5044 5.53763 18.456 5.47595 18.4113C4.99385 18.0609 4.65599 17.6307 4.53262 17.0191C4.40925 16.4074 4.06286 15.868 3.60828 15.4207C3.47067 15.2858 3.37577 15.1481 3.51338 14.9705C3.61872 14.8376 3.79808 14.8756 3.98219 15.057C4.37832 15.4566 4.69093 15.9312 4.90179 16.453C4.92836 16.5176 4.95589 16.5812 5.00239 16.6905C5.06263 16.6229 5.11843 16.5515 5.16942 16.4768C5.35014 16.1764 5.42186 15.8229 5.37251 15.4758C5.36397 15.414 5.35922 15.3504 5.35637 15.2858C5.34878 15.1301 5.41237 15.0218 5.5737 15.0009C5.60673 14.9941 5.64084 14.9944 5.67376 15.0017C5.70667 15.0091 5.73764 15.0235 5.76458 15.0438C5.79153 15.0641 5.81383 15.0899 5.83001 15.1195C5.84619 15.1492 5.85587 15.1819 5.85841 15.2156C5.97719 15.7457 5.88494 16.3013 5.60122 16.7645C5.52963 16.8781 5.44868 16.9855 5.35922 17.0855C5.13051 17.3448 5.12291 17.36 5.35922 17.6259C5.79482 18.1217 6.38227 18.3857 6.97256 18.6383C7.1728 18.7266 7.38348 18.7912 7.64731 18.8871C7.66819 18.3173 7.71943 17.7959 7.70045 17.2726C7.65949 16.0526 7.32725 14.86 6.73151 13.7948C6.65179 13.6504 6.66413 13.5099 6.81407 13.4253C6.98964 13.3237 7.11206 13.4149 7.20127 13.5716C7.5868 14.2701 7.86786 15.0214 8.03546 15.8015C8.25279 16.7655 8.26607 17.737 8.17117 18.72C8.11233 19.3278 8.34389 19.8767 8.6713 20.4105C9.22269 20.0809 9.7437 19.74 10.1641 19.2708C10.382 19.0136 10.5805 18.7406 10.7582 18.4541C10.8531 18.3145 10.8057 18.2081 10.651 18.1103C10.0312 17.718 9.73326 17.1321 9.68011 16.4112C9.66683 16.2336 9.71048 16.0826 9.91262 16.0655C10.1148 16.0485 10.185 16.1909 10.1973 16.3676C10.2277 16.7816 10.3539 17.1549 10.6538 17.4559C10.7088 17.5033 10.7664 17.5473 10.8265 17.5879C10.8423 17.4242 10.8722 17.2622 10.9157 17.1036C11.0894 16.6411 11.2726 16.1824 11.47 15.7293C11.5421 15.5612 11.6911 15.4615 11.8733 15.5812C12.0555 15.7009 12.0033 15.8481 11.9103 15.9962C11.5221 16.5975 11.3282 17.3037 11.3551 18.0191C11.3572 18.3612 11.2549 18.6959 11.0619 18.9783C11.0125 19.0581 10.9613 19.135 10.893 19.2404C11.2384 19.3497 11.5383 19.2699 11.823 19.1398C11.984 19.0563 12.1366 18.9573 12.2785 18.8444C12.419 18.7437 12.5566 18.7124 12.6762 18.8587C12.7957 19.0049 12.736 19.1436 12.6069 19.2509C12.0375 19.7409 11.3855 19.9157 10.6443 19.7438C10.565 19.721 10.48 19.7288 10.4061 19.7656C9.93635 20.1246 9.47607 20.496 8.98258 20.8844C9.02434 20.948 9.07749 21.0411 9.14012 21.1247C9.7614 21.9148 10.4701 22.632 11.2526 23.2625C11.3383 23.3252 11.444 23.3543 11.5497 23.3441C13.5037 23.1153 14.6919 21.9652 15.3201 20.1692C15.7453 18.9536 15.7491 17.7 15.5299 16.4521C15.08 13.8964 13.8985 11.6598 12.4731 9.53247C12.4513 9.50018 12.4247 9.47169 12.3782 9.41185C12.2719 9.53152 12.1694 9.63599 12.0792 9.75091C11.3883 10.6275 10.9803 11.6418 10.6557 12.695C10.6367 12.7548 10.6367 12.8403 10.5959 12.8707C10.501 12.9381 10.3786 13.0341 10.2951 13.0122C10.2116 12.9904 10.1347 12.8413 10.1176 12.7377C10.1005 12.6342 10.166 12.526 10.1983 12.4215C10.558 11.2761 11.0258 10.184 11.8116 9.25895C12.345 8.63214 12.9799 8.15064 13.7989 7.95785C13.9061 7.93316 14.0152 7.91891 14.1595 7.89327L14.2345 8.39567C13.7015 8.47725 13.2005 8.70136 12.7844 9.04432C12.8403 9.13169 12.8935 9.21622 12.9485 9.29789C13.5673 10.2153 14.1937 11.1318 14.6378 12.147C15.0297 13.0426 15.4198 13.9458 15.7092 14.8765C16.0567 15.945 16.2207 17.0648 16.1942 18.1882C16.1429 19.6678 15.7444 21.0373 14.7925 22.2035C13.9592 23.2264 12.8603 23.7782 11.5601 23.8779C9.17429 24.0612 7.0238 23.365 5.06977 22.0212C3.8797 21.2035 2.82249 20.25 2.06612 19.0011C1.46702 17.994 1.1136 16.8598 1.03453 15.6904C0.921601 14.3314 1.10476 12.997 1.30785 11.6627C1.57073 9.9399 1.89814 8.22566 1.97217 6.48009C1.99969 5.83429 1.95509 5.18564 1.9437 4.53889C1.938 4.21598 1.96363 4.17799 2.28819 4.12196C2.98762 4.0023 3.688 3.88928 4.38837 3.77341C4.4638 3.75913 4.54184 3.77298 4.60776 3.81235C4.67368 3.85172 4.72291 3.91388 4.74615 3.9871C4.95114 4.49614 5.21497 4.99949 5.31556 5.53133C5.51581 6.59786 5.63159 7.68053 5.76255 8.76035C5.82139 9.24186 5.83468 9.72907 5.9163 10.2277C5.97324 10.1213 6.02733 10.013 6.08807 9.90951C6.27787 9.58851 6.46768 9.27321 6.64704 8.94651C6.71941 8.82735 6.76023 8.6917 6.76567 8.55237C6.69449 6.40317 6.29116 4.3233 5.39528 2.3574C5.15708 1.83411 5.18935 1.78757 5.69992 1.59098C6.12603 1.42288 6.5436 1.23483 6.96496 1.05629C7.2155 0.94897 7.32369 0.988865 7.43947 1.23009C8.14881 2.77271 8.61095 4.4175 8.80891 6.10401C8.8146 6.28351 8.84023 6.46205 8.8649 6.6501ZM7.25916 8.07466C7.63877 7.72897 7.97757 7.41936 8.31162 7.09836C8.33071 7.06996 8.34384 7.03798 8.3502 7.00435C8.35657 6.97072 8.35603 6.93614 8.34864 6.90272C8.20438 5.98625 8.10568 5.05743 7.89026 4.1571C7.70045 3.35744 7.37968 2.58723 7.10732 1.80751C7.08359 1.74103 6.96591 1.64131 6.9289 1.65461C6.56922 1.78757 6.21809 1.93953 5.84797 2.09718C6.69165 4.01275 7.1301 5.99289 7.25916 8.07466ZM10.9822 5.76117C11.2679 5.69657 11.5568 5.64711 11.8477 5.61301C12.0821 5.59591 12.1324 5.50285 12.0811 5.30246C11.8543 4.44772 11.6379 3.57968 11.3921 2.72589C11.2859 2.35835 11.1169 2.00885 10.966 1.62421L9.85947 2.09907C10.2372 3.34699 10.6026 4.54743 10.9822 5.76117Z"/>
</mask>
<path d="M8.8649 6.6501C9.36314 6.41932 9.8367 6.20753 10.2998 5.9758C10.353 5.94921 10.3843 5.79536 10.3634 5.71748C10.1138 4.82285 9.86232 3.92822 9.58806 3.04024C9.47764 2.73659 9.34865 2.44004 9.2018 2.15226C9.11449 1.95662 9.16194 1.81701 9.36124 1.73153C9.8832 1.50835 10.4052 1.28897 10.93 1.06673C11.1274 0.982209 11.2593 1.04299 11.3494 1.23769C11.927 2.49242 12.3416 3.816 12.5832 5.17614C12.6477 5.52753 12.643 5.52754 13.0036 5.53703C13.1934 5.53703 13.3832 5.56363 13.573 5.55128C13.7827 5.53799 13.8852 5.60921 13.8786 5.82669C13.8814 5.91323 13.8897 5.99951 13.9033 6.08502C13.7666 6.07552 13.6442 6.06413 13.5236 6.05938C10.3397 5.92262 8.044 7.3244 6.57017 10.1099C6.29591 10.6294 6.11464 11.1983 5.90586 11.7501C5.84417 11.9096 5.79577 12.0568 5.59078 12.035C5.38579 12.0131 5.36112 11.8583 5.35448 11.6864C5.30797 10.5192 5.2852 9.34918 5.19979 8.18483C5.11912 7.10026 4.98341 6.01854 4.63607 4.97765C4.4064 4.28721 4.38837 4.28341 3.67471 4.41827C3.3416 4.48095 3.01039 4.54078 2.67064 4.58162C2.51595 4.60061 2.4742 4.66235 2.48084 4.80955C2.49033 5.3148 2.52829 5.82384 2.48084 6.32909C2.36791 7.58461 2.24454 8.84108 2.07466 10.09C1.86018 11.6674 1.53657 13.2297 1.52803 14.8319C1.51569 17.2185 2.44099 19.1607 4.22894 20.7201C5.73788 22.0373 7.44706 22.9348 9.43242 23.2767C9.77786 23.3365 10.128 23.3717 10.4763 23.4125L10.5456 23.3062C10.4601 23.2561 10.3783 23.1999 10.3008 23.1381C9.50359 22.4115 8.76051 21.6347 8.22052 20.6925C8.03072 20.3601 7.91209 19.986 7.74601 19.6393C7.69458 19.5337 7.60988 19.4479 7.50495 19.3952C7.13768 19.2319 6.75333 19.1103 6.38986 18.9365C6.33 18.9045 6.26201 18.8909 6.19444 18.8975C6.12688 18.9041 6.06279 18.9305 6.01025 18.9736C5.40193 19.3667 4.7528 19.4047 4.08374 19.1635C3.98357 19.1263 3.90164 19.0518 3.85503 18.9555C3.781 18.7437 3.99453 18.5946 4.24982 18.683C4.58248 18.8138 4.94816 18.8351 5.29374 18.7437C5.41806 18.7067 5.53479 18.6488 5.69233 18.5785C5.59743 18.5044 5.53763 18.456 5.47595 18.4113C4.99385 18.0609 4.65599 17.6307 4.53262 17.0191C4.40925 16.4074 4.06286 15.868 3.60828 15.4207C3.47067 15.2858 3.37577 15.1481 3.51338 14.9705C3.61872 14.8376 3.79808 14.8756 3.98219 15.057C4.37832 15.4566 4.69093 15.9312 4.90179 16.453C4.92836 16.5176 4.95589 16.5812 5.00239 16.6905C5.06263 16.6229 5.11843 16.5515 5.16942 16.4768C5.35014 16.1764 5.42186 15.8229 5.37251 15.4758C5.36397 15.414 5.35922 15.3504 5.35637 15.2858C5.34878 15.1301 5.41237 15.0218 5.5737 15.0009C5.60673 14.9941 5.64084 14.9944 5.67376 15.0017C5.70667 15.0091 5.73764 15.0235 5.76458 15.0438C5.79153 15.0641 5.81383 15.0899 5.83001 15.1195C5.84619 15.1492 5.85587 15.1819 5.85841 15.2156C5.97719 15.7457 5.88494 16.3013 5.60122 16.7645C5.52963 16.8781 5.44868 16.9855 5.35922 17.0855C5.13051 17.3448 5.12291 17.36 5.35922 17.6259C5.79482 18.1217 6.38227 18.3857 6.97256 18.6383C7.1728 18.7266 7.38348 18.7912 7.64731 18.8871C7.66819 18.3173 7.71943 17.7959 7.70045 17.2726C7.65949 16.0526 7.32725 14.86 6.73151 13.7948C6.65179 13.6504 6.66413 13.5099 6.81407 13.4253C6.98964 13.3237 7.11206 13.4149 7.20127 13.5716C7.5868 14.2701 7.86786 15.0214 8.03546 15.8015C8.25279 16.7655 8.26607 17.737 8.17117 18.72C8.11233 19.3278 8.34389 19.8767 8.6713 20.4105C9.22269 20.0809 9.7437 19.74 10.1641 19.2708C10.382 19.0136 10.5805 18.7406 10.7582 18.4541C10.8531 18.3145 10.8057 18.2081 10.651 18.1103C10.0312 17.718 9.73326 17.1321 9.68011 16.4112C9.66683 16.2336 9.71048 16.0826 9.91262 16.0655C10.1148 16.0485 10.185 16.1909 10.1973 16.3676C10.2277 16.7816 10.3539 17.1549 10.6538 17.4559C10.7088 17.5033 10.7664 17.5473 10.8265 17.5879C10.8423 17.4242 10.8722 17.2622 10.9157 17.1036C11.0894 16.6411 11.2726 16.1824 11.47 15.7293C11.5421 15.5612 11.6911 15.4615 11.8733 15.5812C12.0555 15.7009 12.0033 15.8481 11.9103 15.9962C11.5221 16.5975 11.3282 17.3037 11.3551 18.0191C11.3572 18.3612 11.2549 18.6959 11.0619 18.9783C11.0125 19.0581 10.9613 19.135 10.893 19.2404C11.2384 19.3497 11.5383 19.2699 11.823 19.1398C11.984 19.0563 12.1366 18.9573 12.2785 18.8444C12.419 18.7437 12.5566 18.7124 12.6762 18.8587C12.7957 19.0049 12.736 19.1436 12.6069 19.2509C12.0375 19.7409 11.3855 19.9157 10.6443 19.7438C10.565 19.721 10.48 19.7288 10.4061 19.7656C9.93635 20.1246 9.47607 20.496 8.98258 20.8844C9.02434 20.948 9.07749 21.0411 9.14012 21.1247C9.7614 21.9148 10.4701 22.632 11.2526 23.2625C11.3383 23.3252 11.444 23.3543 11.5497 23.3441C13.5037 23.1153 14.6919 21.9652 15.3201 20.1692C15.7453 18.9536 15.7491 17.7 15.5299 16.4521C15.08 13.8964 13.8985 11.6598 12.4731 9.53247C12.4513 9.50018 12.4247 9.47169 12.3782 9.41185C12.2719 9.53152 12.1694 9.63599 12.0792 9.75091C11.3883 10.6275 10.9803 11.6418 10.6557 12.695C10.6367 12.7548 10.6367 12.8403 10.5959 12.8707C10.501 12.9381 10.3786 13.0341 10.2951 13.0122C10.2116 12.9904 10.1347 12.8413 10.1176 12.7377C10.1005 12.6342 10.166 12.526 10.1983 12.4215C10.558 11.2761 11.0258 10.184 11.8116 9.25895C12.345 8.63214 12.9799 8.15064 13.7989 7.95785C13.9061 7.93316 14.0152 7.91891 14.1595 7.89327L14.2345 8.39567C13.7015 8.47725 13.2005 8.70136 12.7844 9.04432C12.8403 9.13169 12.8935 9.21622 12.9485 9.29789C13.5673 10.2153 14.1937 11.1318 14.6378 12.147C15.0297 13.0426 15.4198 13.9458 15.7092 14.8765C16.0567 15.945 16.2207 17.0648 16.1942 18.1882C16.1429 19.6678 15.7444 21.0373 14.7925 22.2035C13.9592 23.2264 12.8603 23.7782 11.5601 23.8779C9.17429 24.0612 7.0238 23.365 5.06977 22.0212C3.8797 21.2035 2.82249 20.25 2.06612 19.0011C1.46702 17.994 1.1136 16.8598 1.03453 15.6904C0.921601 14.3314 1.10476 12.997 1.30785 11.6627C1.57073 9.9399 1.89814 8.22566 1.97217 6.48009C1.99969 5.83429 1.95509 5.18564 1.9437 4.53889C1.938 4.21598 1.96363 4.17799 2.28819 4.12196C2.98762 4.0023 3.688 3.88928 4.38837 3.77341C4.4638 3.75913 4.54184 3.77298 4.60776 3.81235C4.67368 3.85172 4.72291 3.91388 4.74615 3.9871C4.95114 4.49614 5.21497 4.99949 5.31556 5.53133C5.51581 6.59786 5.63159 7.68053 5.76255 8.76035C5.82139 9.24186 5.83468 9.72907 5.9163 10.2277C5.97324 10.1213 6.02733 10.013 6.08807 9.90951C6.27787 9.58851 6.46768 9.27321 6.64704 8.94651C6.71941 8.82735 6.76023 8.6917 6.76567 8.55237C6.69449 6.40317 6.29116 4.3233 5.39528 2.3574C5.15708 1.83411 5.18935 1.78757 5.69992 1.59098C6.12603 1.42288 6.5436 1.23483 6.96496 1.05629C7.2155 0.94897 7.32369 0.988865 7.43947 1.23009C8.14881 2.77271 8.61095 4.4175 8.80891 6.10401C8.8146 6.28351 8.84023 6.46205 8.8649 6.6501ZM7.25916 8.07466C7.63877 7.72897 7.97757 7.41936 8.31162 7.09836C8.33071 7.06996 8.34384 7.03798 8.3502 7.00435C8.35657 6.97072 8.35603 6.93614 8.34864 6.90272C8.20438 5.98625 8.10568 5.05743 7.89026 4.1571C7.70045 3.35744 7.37968 2.58723 7.10732 1.80751C7.08359 1.74103 6.96591 1.64131 6.9289 1.65461C6.56922 1.78757 6.21809 1.93953 5.84797 2.09718C6.69165 4.01275 7.1301 5.99289 7.25916 8.07466ZM10.9822 5.76117C11.2679 5.69657 11.5568 5.64711 11.8477 5.61301C12.0821 5.59591 12.1324 5.50285 12.0811 5.30246C11.8543 4.44772 11.6379 3.57968 11.3921 2.72589C11.2859 2.35835 11.1169 2.00885 10.966 1.62421L9.85947 2.09907C10.2372 3.34699 10.6026 4.54743 10.9822 5.76117Z" fill="#667580"/>
<path d="M8.8649 6.6501C9.36314 6.41932 9.8367 6.20753 10.2998 5.9758C10.353 5.94921 10.3843 5.79536 10.3634 5.71748C10.1138 4.82285 9.86232 3.92822 9.58806 3.04024C9.47764 2.73659 9.34865 2.44004 9.2018 2.15226C9.11449 1.95662 9.16194 1.81701 9.36124 1.73153C9.8832 1.50835 10.4052 1.28897 10.93 1.06673C11.1274 0.982209 11.2593 1.04299 11.3494 1.23769C11.927 2.49242 12.3416 3.816 12.5832 5.17614C12.6477 5.52753 12.643 5.52754 13.0036 5.53703C13.1934 5.53703 13.3832 5.56363 13.573 5.55128C13.7827 5.53799 13.8852 5.60921 13.8786 5.82669C13.8814 5.91323 13.8897 5.99951 13.9033 6.08502C13.7666 6.07552 13.6442 6.06413 13.5236 6.05938C10.3397 5.92262 8.044 7.3244 6.57017 10.1099C6.29591 10.6294 6.11464 11.1983 5.90586 11.7501C5.84417 11.9096 5.79577 12.0568 5.59078 12.035C5.38579 12.0131 5.36112 11.8583 5.35448 11.6864C5.30797 10.5192 5.2852 9.34918 5.19979 8.18483C5.11912 7.10026 4.98341 6.01854 4.63607 4.97765C4.4064 4.28721 4.38837 4.28341 3.67471 4.41827C3.3416 4.48095 3.01039 4.54078 2.67064 4.58162C2.51595 4.60061 2.4742 4.66235 2.48084 4.80955C2.49033 5.3148 2.52829 5.82384 2.48084 6.32909C2.36791 7.58461 2.24454 8.84108 2.07466 10.09C1.86018 11.6674 1.53657 13.2297 1.52803 14.8319C1.51569 17.2185 2.44099 19.1607 4.22894 20.7201C5.73788 22.0373 7.44706 22.9348 9.43242 23.2767C9.77786 23.3365 10.128 23.3717 10.4763 23.4125L10.5456 23.3062C10.4601 23.2561 10.3783 23.1999 10.3008 23.1381C9.50359 22.4115 8.76051 21.6347 8.22052 20.6925C8.03072 20.3601 7.91209 19.986 7.74601 19.6393C7.69458 19.5337 7.60988 19.4479 7.50495 19.3952C7.13768 19.2319 6.75333 19.1103 6.38986 18.9365C6.33 18.9045 6.26201 18.8909 6.19444 18.8975C6.12688 18.9041 6.06279 18.9305 6.01025 18.9736C5.40193 19.3667 4.7528 19.4047 4.08374 19.1635C3.98357 19.1263 3.90164 19.0518 3.85503 18.9555C3.781 18.7437 3.99453 18.5946 4.24982 18.683C4.58248 18.8138 4.94816 18.8351 5.29374 18.7437C5.41806 18.7067 5.53479 18.6488 5.69233 18.5785C5.59743 18.5044 5.53763 18.456 5.47595 18.4113C4.99385 18.0609 4.65599 17.6307 4.53262 17.0191C4.40925 16.4074 4.06286 15.868 3.60828 15.4207C3.47067 15.2858 3.37577 15.1481 3.51338 14.9705C3.61872 14.8376 3.79808 14.8756 3.98219 15.057C4.37832 15.4566 4.69093 15.9312 4.90179 16.453C4.92836 16.5176 4.95589 16.5812 5.00239 16.6905C5.06263 16.6229 5.11843 16.5515 5.16942 16.4768C5.35014 16.1764 5.42186 15.8229 5.37251 15.4758C5.36397 15.414 5.35922 15.3504 5.35637 15.2858C5.34878 15.1301 5.41237 15.0218 5.5737 15.0009C5.60673 14.9941 5.64084 14.9944 5.67376 15.0017C5.70667 15.0091 5.73764 15.0235 5.76458 15.0438C5.79153 15.0641 5.81383 15.0899 5.83001 15.1195C5.84619 15.1492 5.85587 15.1819 5.85841 15.2156C5.97719 15.7457 5.88494 16.3013 5.60122 16.7645C5.52963 16.8781 5.44868 16.9855 5.35922 17.0855C5.13051 17.3448 5.12291 17.36 5.35922 17.6259C5.79482 18.1217 6.38227 18.3857 6.97256 18.6383C7.1728 18.7266 7.38348 18.7912 7.64731 18.8871C7.66819 18.3173 7.71943 17.7959 7.70045 17.2726C7.65949 16.0526 7.32725 14.86 6.73151 13.7948C6.65179 13.6504 6.66413 13.5099 6.81407 13.4253C6.98964 13.3237 7.11206 13.4149 7.20127 13.5716C7.5868 14.2701 7.86786 15.0214 8.03546 15.8015C8.25279 16.7655 8.26607 17.737 8.17117 18.72C8.11233 19.3278 8.34389 19.8767 8.6713 20.4105C9.22269 20.0809 9.7437 19.74 10.1641 19.2708C10.382 19.0136 10.5805 18.7406 10.7582 18.4541C10.8531 18.3145 10.8057 18.2081 10.651 18.1103C10.0312 17.718 9.73326 17.1321 9.68011 16.4112C9.66683 16.2336 9.71048 16.0826 9.91262 16.0655C10.1148 16.0485 10.185 16.1909 10.1973 16.3676C10.2277 16.7816 10.3539 17.1549 10.6538 17.4559C10.7088 17.5033 10.7664 17.5473 10.8265 17.5879C10.8423 17.4242 10.8722 17.2622 10.9157 17.1036C11.0894 16.6411 11.2726 16.1824 11.47 15.7293C11.5421 15.5612 11.6911 15.4615 11.8733 15.5812C12.0555 15.7009 12.0033 15.8481 11.9103 15.9962C11.5221 16.5975 11.3282 17.3037 11.3551 18.0191C11.3572 18.3612 11.2549 18.6959 11.0619 18.9783C11.0125 19.0581 10.9613 19.135 10.893 19.2404C11.2384 19.3497 11.5383 19.2699 11.823 19.1398C11.984 19.0563 12.1366 18.9573 12.2785 18.8444C12.419 18.7437 12.5566 18.7124 12.6762 18.8587C12.7957 19.0049 12.736 19.1436 12.6069 19.2509C12.0375 19.7409 11.3855 19.9157 10.6443 19.7438C10.565 19.721 10.48 19.7288 10.4061 19.7656C9.93635 20.1246 9.47607 20.496 8.98258 20.8844C9.02434 20.948 9.07749 21.0411 9.14012 21.1247C9.7614 21.9148 10.4701 22.632 11.2526 23.2625C11.3383 23.3252 11.444 23.3543 11.5497 23.3441C13.5037 23.1153 14.6919 21.9652 15.3201 20.1692C15.7453 18.9536 15.7491 17.7 15.5299 16.4521C15.08 13.8964 13.8985 11.6598 12.4731 9.53247C12.4513 9.50018 12.4247 9.47169 12.3782 9.41185C12.2719 9.53152 12.1694 9.63599 12.0792 9.75091C11.3883 10.6275 10.9803 11.6418 10.6557 12.695C10.6367 12.7548 10.6367 12.8403 10.5959 12.8707C10.501 12.9381 10.3786 13.0341 10.2951 13.0122C10.2116 12.9904 10.1347 12.8413 10.1176 12.7377C10.1005 12.6342 10.166 12.526 10.1983 12.4215C10.558 11.2761 11.0258 10.184 11.8116 9.25895C12.345 8.63214 12.9799 8.15064 13.7989 7.95785C13.9061 7.93316 14.0152 7.91891 14.1595 7.89327L14.2345 8.39567C13.7015 8.47725 13.2005 8.70136 12.7844 9.04432C12.8403 9.13169 12.8935 9.21622 12.9485 9.29789C13.5673 10.2153 14.1937 11.1318 14.6378 12.147C15.0297 13.0426 15.4198 13.9458 15.7092 14.8765C16.0567 15.945 16.2207 17.0648 16.1942 18.1882C16.1429 19.6678 15.7444 21.0373 14.7925 22.2035C13.9592 23.2264 12.8603 23.7782 11.5601 23.8779C9.17429 24.0612 7.0238 23.365 5.06977 22.0212C3.8797 21.2035 2.82249 20.25 2.06612 19.0011C1.46702 17.994 1.1136 16.8598 1.03453 15.6904C0.921601 14.3314 1.10476 12.997 1.30785 11.6627C1.57073 9.9399 1.89814 8.22566 1.97217 6.48009C1.99969 5.83429 1.95509 5.18564 1.9437 4.53889C1.938 4.21598 1.96363 4.17799 2.28819 4.12196C2.98762 4.0023 3.688 3.88928 4.38837 3.77341C4.4638 3.75913 4.54184 3.77298 4.60776 3.81235C4.67368 3.85172 4.72291 3.91388 4.74615 3.9871C4.95114 4.49614 5.21497 4.99949 5.31556 5.53133C5.51581 6.59786 5.63159 7.68053 5.76255 8.76035C5.82139 9.24186 5.83468 9.72907 5.9163 10.2277C5.97324 10.1213 6.02733 10.013 6.08807 9.90951C6.27787 9.58851 6.46768 9.27321 6.64704 8.94651C6.71941 8.82735 6.76023 8.6917 6.76567 8.55237C6.69449 6.40317 6.29116 4.3233 5.39528 2.3574C5.15708 1.83411 5.18935 1.78757 5.69992 1.59098C6.12603 1.42288 6.5436 1.23483 6.96496 1.05629C7.2155 0.94897 7.32369 0.988865 7.43947 1.23009C8.14881 2.77271 8.61095 4.4175 8.80891 6.10401C8.8146 6.28351 8.84023 6.46205 8.8649 6.6501ZM7.25916 8.07466C7.63877 7.72897 7.97757 7.41936 8.31162 7.09836C8.33071 7.06996 8.34384 7.03798 8.3502 7.00435C8.35657 6.97072 8.35603 6.93614 8.34864 6.90272C8.20438 5.98625 8.10568 5.05743 7.89026 4.1571C7.70045 3.35744 7.37968 2.58723 7.10732 1.80751C7.08359 1.74103 6.96591 1.64131 6.9289 1.65461C6.56922 1.78757 6.21809 1.93953 5.84797 2.09718C6.69165 4.01275 7.1301 5.99289 7.25916 8.07466ZM10.9822 5.76117C11.2679 5.69657 11.5568 5.64711 11.8477 5.61301C12.0821 5.59591 12.1324 5.50285 12.0811 5.30246C11.8543 4.44772 11.6379 3.57968 11.3921 2.72589C11.2859 2.35835 11.1169 2.00885 10.966 1.62421L9.85947 2.09907C10.2372 3.34699 10.6026 4.54743 10.9822 5.76117Z" stroke="#667580" stroke-width="0.4" mask="url(#path-1-outside-1_5883_1526)"/>
</svg>
