<svg width="144" height="128" viewBox="0 0 144 128" fill="none" xmlns="http://www.w3.org/2000/svg">
<g clip-path="url(#clip0_5228_7675)">
<path d="M141.584 20.0569C141.584 23.9942 140.416 27.8442 138.228 31.1163C136.04 34.3914 132.93 36.941 129.294 38.4491C125.657 39.9572 121.654 40.3516 117.792 39.5809C113.93 38.8133 110.384 36.9169 107.599 34.1325C104.815 31.3481 102.918 27.8021 102.151 23.94C101.383 20.0779 101.778 16.0744 103.283 12.4381C104.791 8.80176 107.34 5.69223 110.616 3.50382C113.891 1.31541 117.738 0.147461 121.675 0.147461C126.952 0.153481 132.012 2.25158 135.745 5.98422C139.477 9.71685 141.575 14.777 141.581 20.0538L141.584 20.0569Z" stroke="black" stroke-width="0.301019"/>
<path d="M143.734 106.808C143.734 110.811 142.548 114.725 140.323 118.051C138.098 121.377 134.938 123.975 131.241 125.504C127.542 127.036 123.475 127.437 119.547 126.657C115.621 125.874 112.015 123.948 109.183 121.118C106.353 118.289 104.423 114.682 103.644 110.754C102.864 106.829 103.265 102.759 104.797 99.0595C106.329 95.36 108.924 92.1993 112.25 89.9748C115.579 87.7502 119.492 86.5642 123.493 86.5642C128.86 86.5702 134.005 88.7045 137.797 92.4973C141.59 96.2931 143.728 101.438 143.734 106.802V106.808Z" stroke="black" stroke-width="0.301019"/>
<path d="M64.8214 97.5604C58.7439 92.2022 56.5434 85.7032 56.5434 81.7328V81.7208C56.6006 80.2428 56.8775 78.7828 57.3622 77.3831C58.0575 75.0351 58.8281 72.4223 57.9552 68.2381C56.5856 61.6187 56.6277 54.9481 58.1027 49.9241C58.4067 48.8886 58.6897 47.835 58.9425 46.7604L59.0148 46.4594L58.8161 46.2366M64.8244 97.5604C67.7805 100.161 72.0339 102.323 76.3715 103.837C80.7092 105.348 85.1613 106.221 88.5297 106.221C90.3388 106.221 91.9794 105.269 93.4092 103.581C94.839 101.895 96.0792 99.4478 97.0997 96.3864C99.1406 90.2607 100.327 81.6064 100.327 71.441C100.327 45.5232 83.1114 27.6337 79.6617 24.3074C75.1464 19.9667 70.8448 19.0305 68.0122 19.0305C65.1796 19.0305 62.3139 20.0389 60.5831 21.7758C58.8823 23.4736 58.2502 25.6289 58.193 27.9046C58.1358 30.1712 58.6505 32.5824 59.2616 34.831C59.683 36.4716 59.8907 38.1603 59.8727 39.852V41.023L58.9546 40.3036C57.1635 38.9068 55.5561 37.2904 54.1654 35.4933C53.0155 33.9852 52.4435 31.9142 52.4435 29.0996V5.97835C52.4435 5.74958 52.3352 5.56295 52.1937 5.42448C52.0552 5.28601 51.8716 5.18366 51.6789 5.10239C51.2906 4.94285 50.797 4.86157 50.3274 4.86157C49.8578 4.86157 49.3641 4.94586 48.9758 5.10239C48.7831 5.18065 48.5995 5.28601 48.4611 5.42448C48.3196 5.56295 48.2112 5.75259 48.2112 5.97835V29.0966C48.2112 31.9111 47.6333 33.9852 46.4894 35.4903C45.0987 37.2873 43.4882 38.9038 41.6972 40.3005L40.779 41.017V39.852C40.758 38.1483 40.9687 36.4505 41.3991 34.8069C42.0072 32.5583 42.5189 30.1442 42.4617 27.8745C42.4045 25.5988 41.7694 23.4465 40.0686 21.7457C38.3408 20.0149 35.5654 19.0034 32.6485 19.0034C29.7317 19.0034 25.5084 19.9396 20.975 24.3164C17.5163 27.6457 0.301025 45.5353 0.301025 71.453C0.301025 81.6244 1.48403 90.2817 3.52795 96.4075C4.5484 99.4688 5.7886 101.916 7.21844 103.605C8.64828 105.294 10.2918 106.245 12.101 106.245C15.4664 106.245 19.9214 105.372 24.2591 103.861C28.5968 102.35 32.8502 100.185 35.8062 97.5845C41.9018 92.2203 44.0842 85.7273 44.0842 81.7569V81.7448C44.024 80.2668 43.7471 78.8069 43.2625 77.4072L43.2444 77.35C42.5521 75.0171 41.7814 72.4102 42.6664 68.2652C44.0451 61.6428 44 54.9692 42.525 49.9482C42.2209 48.8976 41.938 47.8441 41.6851 46.7845L41.6129 46.4835L41.8146 46.2607C42.543 45.445 43.8193 44.0482 45.2973 42.5793L46.083 41.7816L55.3303 42.5492L54.5627 41.7755C53.5964 40.8002 52.8409 40.0387 52.1606 39.5179C51.4833 39.0001 50.9144 38.7503 50.3244 38.7503C49.7344 38.7503 49.1654 39.0001 48.4881 39.5179C47.8078 40.0387 47.0493 40.8002 46.083 41.7785M55.3303 42.5461C56.8023 44.0181 58.0816 45.4118 58.8161 46.2306L55.3303 42.5461Z" stroke="black" stroke-width="0.602038"/>
<path d="M93.6199 80.7093C93.0419 80.7093 91.7475 80.7093 91.7084 80.4835C91.7024 80.4052 91.7295 80.33 91.7776 80.2698C92.0155 79.8784 92.2322 79.4871 92.4941 79.1018C92.6024 78.9573 92.6596 78.7827 92.6626 78.6021C92.5633 78.575 92.473 78.6653 92.4038 78.7466C91.9462 79.3426 91.3773 79.8393 90.7271 80.2126C90.1341 80.5256 89.4899 80.7273 88.8246 80.8086C87.6748 80.9561 86.5098 80.8297 85.4171 80.4444C83.1836 79.6436 81.251 78.2018 79.463 76.6305C78.0572 75.3993 76.7628 74.0507 75.5888 72.5968C74.6737 71.4529 73.8399 70.2488 73.0964 68.9846C72.7141 68.4156 72.4011 67.8076 72.1572 67.1664C71.9194 66.4078 71.7448 65.6312 71.6335 64.8456C71.5552 64.3158 71.513 63.783 71.501 63.2471V62.4795C71.501 62.3712 71.5311 61.7721 71.4559 61.7119C73.3764 63.1869 75.4203 64.686 76.4528 66.9527C77.6117 69.4632 77.5033 72.8316 79.8784 74.6016C79.9958 74.6919 80.0469 74.424 79.9596 74.3547C78.7345 73.3644 78.4545 71.9075 78.3161 70.3753C78.2619 68.9846 78.009 67.6059 77.5605 66.2874C78.4485 67.0912 79.2462 67.9912 79.9416 68.9665C80.2878 69.397 80.655 69.7973 81.0403 70.1947C81.4075 70.577 81.7928 70.9382 82.1992 71.2813C82.5905 71.6004 82.9849 71.9075 83.3762 72.2295C83.4996 72.3259 83.5357 72.0489 83.4575 71.9707C83.0662 71.5884 82.7019 71.182 82.3618 70.7546C82.0216 70.3 81.6483 69.9057 81.3082 69.4692C81.0252 69.105 80.7302 68.7468 80.4533 68.3825L80.2667 68.1267C81.6544 68.9755 83.1986 69.5384 84.809 69.7793C84.8873 69.7793 84.8963 69.6197 84.8361 69.5896C84.0896 69.2043 83.313 68.8943 82.5635 68.509C81.8139 68.1236 81.1366 67.7233 80.4473 67.2928C79.7399 66.8534 79.0566 66.3777 78.4034 65.863C77.717 65.3212 77.0398 64.7763 76.3865 64.1743C75.7333 63.5722 75.1795 62.9491 74.5383 62.3802C73.5118 61.4711 72.4131 60.6825 71.3595 59.8456C71.3204 59.8246 71.2813 59.8035 71.2421 59.7854C71.0495 58.4971 70.7153 57.2358 70.2427 56.0257C69.3848 53.9938 68.247 52.0884 66.8623 50.3695C67.9791 50.6555 69.132 50.7248 70.2458 50.9234C71.2211 51.101 72.1301 51.5405 72.8706 52.1997C73.5991 52.865 74.2824 53.5814 74.9146 54.34C75.9862 55.5742 76.9585 56.8746 78.0632 58.0726C79.0536 59.1443 80.1252 60.1316 81.2119 61.1039C81.4888 61.3537 81.7748 61.6036 82.0607 61.8534C82.1932 62.0039 82.3256 62.1575 82.443 62.308C82.7471 62.7143 83.021 63.1448 83.2618 63.5933C83.7675 64.5144 84.1167 65.5138 84.2973 66.5493C84.3515 66.8443 84.6465 66.7661 84.6074 66.4711C84.4388 65.3633 84.0926 64.2887 83.5779 63.2923C83.5327 63.214 83.4725 63.1478 83.4334 63.0635C84.8632 64.2826 86.1787 65.6312 87.3677 67.0881C87.44 67.1845 87.5002 66.9617 87.458 66.8925C85.974 64.5445 84.0505 62.6782 82.0066 60.848C80.962 59.9088 79.9175 58.9636 78.9452 57.9462C78.6532 57.6361 78.3853 57.311 78.1084 56.992C78.7857 57.4736 79.472 57.9372 80.1794 58.3556C82.124 59.5597 84.1709 60.559 86.2058 61.5855C88.2407 62.612 90.8204 63.4849 91.9914 65.6734C92.1509 65.9684 92.4098 65.6944 92.2683 65.4506C91.0432 63.3164 88.8608 62.1454 86.8169 61.0316L85.685 60.3995L85.9409 60.4326C86.7296 60.5109 87.5182 60.5741 88.3039 60.6313L89.5351 60.7216C89.6434 60.7216 89.9896 60.8179 90.0799 60.7547C90.1702 60.6915 90.0799 60.541 89.9565 60.5139C88.7133 60.249 87.449 60.1105 86.1998 59.8787C85.1763 59.7072 84.1739 59.4152 83.2167 59.0118C82.7862 58.7921 82.3678 58.5452 81.9674 58.2773C81.5129 57.9974 81.0192 57.7084 80.5557 57.4134C78.4756 56.125 76.5822 54.5567 74.9266 52.7536C74.1921 51.8144 73.3493 50.9656 72.4161 50.2251C73.4877 49.8909 74.5202 49.4454 75.4985 48.8976C76.2089 48.5123 76.9765 48.2353 77.7712 48.0758C78.5208 47.9494 79.2914 48.0186 80.0048 48.2805C81.9855 48.9036 84.201 50.0414 85.0589 52.1215C85.2064 52.4917 85.3208 52.874 85.396 53.2654C85.4382 53.4731 85.4683 53.6868 85.4924 53.9005C85.5134 54.1142 85.5134 54.3972 85.5646 54.638C85.5887 54.7524 85.7151 54.7975 85.7512 54.6651C85.7994 54.4303 85.8084 54.1895 85.7844 53.9517C85.7844 53.7169 85.7844 53.4971 85.7332 53.2443C85.688 52.7446 85.5827 52.2509 85.4141 51.7783C85.2937 51.4803 85.1432 51.1973 84.9596 50.9325C86.1907 51.7151 87.4038 52.5188 88.5628 53.3858C88.635 53.4369 88.6711 53.2443 88.623 53.1991C86.7627 51.4532 84.7187 49.918 82.5273 48.6146C82.0246 48.3166 81.5039 48.0487 80.9681 47.8109L81.2329 47.85C82.5153 48.0969 83.7946 48.3407 85.077 48.5996C85.8355 48.7531 86.579 48.9698 87.3015 49.2437C87.6657 49.3852 88.0179 49.5357 88.3701 49.6983C88.4604 49.7434 88.7283 49.9421 88.8246 49.8969C88.8457 49.8879 88.8638 49.8729 88.8758 49.8578C88.8909 49.8398 88.8999 49.8217 88.9029 49.7976C88.9059 49.7765 88.9059 49.7525 88.9029 49.7314C88.8969 49.7103 88.8848 49.6892 88.8728 49.6742C88.623 49.4304 88.337 49.2287 88.0269 49.0691C87.6988 48.8735 87.3647 48.6869 87.0276 48.5153C86.9373 48.4701 86.8409 48.437 86.7446 48.3919C87.5664 48.2684 88.3761 48.0607 89.1558 47.7778C89.2611 47.7417 89.237 47.4768 89.1196 47.4828C88.0691 47.537 87.0336 47.6875 85.986 47.7116C86.0733 47.6694 86.1576 47.6243 86.2419 47.5761C86.6031 47.3112 86.9192 46.9921 87.1781 46.6279C87.458 46.3479 87.7109 46.0439 87.9336 45.7188C87.9667 45.6496 87.9336 45.3967 87.8253 45.4629C87.6597 45.5773 87.5062 45.7098 87.3707 45.8573C87.2353 45.9837 87.0908 46.1011 86.9403 46.2065C86.6001 46.4322 86.26 46.6911 85.8957 46.8868C84.8091 47.3834 83.5929 47.5038 82.431 47.2359C81.9765 47.1547 81.546 46.956 81.1005 46.8356C79.9386 46.4804 78.7164 46.378 77.5124 46.5406C77.0819 46.6189 76.6605 46.7423 76.2541 46.9078C76.0404 46.9951 75.8357 47.0854 75.631 47.1848C75.5497 47.2269 75.1764 47.4768 75.2758 47.1848C75.5557 46.3479 75.8357 45.5081 76.1126 44.6743C76.3504 43.7833 76.7628 42.9464 77.3257 42.2119C77.9308 41.5647 78.578 40.9567 79.2613 40.3938C79.484 40.1891 79.7158 39.9904 79.9506 39.8068C80.5466 39.3944 81.1878 39.0482 81.8591 38.7713C82.2474 38.5967 82.6538 38.4612 83.0722 38.3709C83.1775 38.3709 83.2799 38.3258 83.3913 38.3107C83.7194 38.2656 84.0505 38.1602 83.5418 38.0458C83.2438 37.9856 82.9367 37.9646 82.6327 37.9826C82.0577 38.0217 81.4918 38.1662 80.965 38.404C80.8597 38.4552 80.7543 38.5094 80.646 38.5546C80.7242 38.4191 80.7935 38.2806 80.8537 38.1361C81.1998 37.2542 81.5912 36.1464 81.4978 35.1831C81.4978 35.0657 81.3443 34.9423 81.2992 35.1139C81.2059 35.6407 81.0674 36.1584 80.8868 36.6642C80.6309 37.1638 80.3179 37.6304 79.9506 38.0549C79.2854 38.9037 78.5509 39.6954 77.7562 40.4269C77.1873 40.9085 76.6605 41.4383 76.1849 42.0133V41.0048L76.2119 40.6466C76.2481 40.1319 76.3444 39.6232 76.4949 39.1295C76.8652 38.2054 77.1692 37.2542 77.404 36.2849C77.7712 34.3403 77.5726 32.2753 77.404 30.3157C77.404 30.1892 77.2505 30.111 77.2354 30.2795C77.1541 32.2301 76.8923 34.1717 76.4588 36.0742C76.3053 36.622 76.1216 37.1578 75.9079 37.6876C75.7092 36.5769 75.3721 35.4932 74.8995 34.4667C74.2945 33.1663 73.7586 31.8358 72.8646 30.725C72.7924 30.6378 72.7412 30.8244 72.7653 30.8756C73.4095 32.2723 73.8911 33.7382 74.2042 35.2464C74.5172 36.7545 74.7339 38.2776 74.8544 39.8098C74.9507 42.2842 74.8544 45.4389 73.3071 47.4677C72.4763 48.5394 71.1578 48.8313 69.8966 48.9036C68.6323 48.9758 67.1723 47.9945 66.185 47.1818C65.1646 46.3088 64.2013 45.3726 63.2952 44.3793C62.2146 43.2565 59.3067 40.5774 58.1659 39.5329C57.618 39.0843 57.1063 38.5937 56.6337 38.0669C55.9744 39.3523 55.3814 40.6677 54.8577 42.0133C58.0364 44.7074 58.1779 45.0385 60.1345 46.7995C62.1875 48.6447 64.421 50.7458 65.586 52.0402C66.7479 53.3346 68.0242 54.8608 68.6895 56.5826C69.9146 59.7222 69.9718 63.1448 69.8394 66.4801C69.7521 68.7197 69.5925 70.9713 69.6076 73.2199C68.1717 73.4667 66.7991 73.9995 65.5739 74.7912C64.9659 75.2127 64.397 75.6883 63.8702 76.209C63.6023 76.4679 63.3283 76.7268 63.0785 77.0037C62.7684 77.4011 62.4343 77.7803 62.0761 78.1355C62.049 78.1566 62.034 78.28 62.0761 78.259C62.2417 78.2048 62.4072 78.1416 62.5668 78.0693C62.7293 77.979 62.8858 77.8797 63.0213 77.7803C63.3524 77.5576 63.6655 77.3108 63.9605 77.0459C64.5414 76.5642 65.1706 76.1428 65.8358 75.7876C65.9261 75.7364 66.0225 75.7063 66.1128 75.6612C65.8298 76.1187 65.583 76.6003 65.3723 77.097C65.0532 77.9098 64.8154 78.7526 64.6679 79.6136C64.6318 79.7942 64.8635 80.0681 64.9237 79.7821C65.1134 78.9724 65.4084 78.1897 65.7997 77.4552C66.0887 76.8081 66.48 76.209 66.9586 75.6852C67.3981 75.2819 67.946 75.011 68.536 74.9086C68.7738 74.8635 69.1621 74.7822 69.2825 75.0772C69.3999 75.3722 69.1199 75.6822 68.9965 75.8899L66.6937 79.9417C66.3536 80.5678 65.9773 81.1758 65.5679 81.7598C64.4903 83.2258 63.1658 84.463 62.1875 86.0102C62.1604 86.0523 62.1483 86.1035 62.1483 86.1547C62.1483 86.2059 62.1604 86.254 62.1875 86.2992C62.2236 86.3624 62.3139 86.4226 62.3741 86.3443C63.0032 85.5105 63.7708 84.7941 64.6468 84.2222L64.7823 84.1318C64.406 85.7995 64.3277 87.8284 65.4686 89.0053C65.5047 89.0415 65.5318 88.9632 65.5228 88.9361C65.2398 87.8886 65.1405 86.7989 65.2278 85.7152C65.3843 84.6255 65.7275 83.5689 66.2452 82.5936C66.4048 82.2655 66.5854 81.9495 66.7569 81.6304C66.5071 84.0686 67.2657 86.4828 67.7593 88.8699C67.8406 89.2522 68.3373 89.2883 68.25 88.8338C67.7473 86.1487 67.5426 83.1204 68.3222 80.4624C68.7407 79.0536 69.439 77.7382 69.9718 76.3746C69.9718 76.3324 70.014 76.2843 70.0591 76.2752C70.1043 76.2662 70.1765 76.3836 70.1675 76.4739C70.017 78.9212 70.4324 81.3203 70.5498 83.7646C70.604 84.8603 70.6461 85.953 70.7033 87.0427C70.7033 88.2468 70.7755 89.4509 70.917 90.6489C70.917 90.7362 71.0314 90.7844 71.0615 90.679C71.2963 89.6074 71.4077 88.5117 71.3926 87.413C71.4528 86.251 71.4528 85.0861 71.3926 83.9241C71.3926 83.3974 71.3204 82.8766 71.2873 82.3468C71.7599 83.5479 72.2927 84.7218 72.8857 85.8687C74.2493 88.5448 76.2752 91.1275 79.0536 92.2864C79.2131 92.3497 79.2131 91.9644 79.0536 91.9042C76.1247 90.6308 74.6798 87.5635 73.4937 84.6737C72.1602 81.5551 71.3776 78.2258 71.1819 74.8394C71.1217 72.8918 71.1578 70.9412 71.2963 68.9996C72.5425 71.2392 74.0687 73.3132 75.8387 75.1675C76.1247 75.7274 76.5431 76.2361 76.823 76.793C77.1903 77.5094 77.5033 78.259 77.8074 79.0055C78.3673 80.4684 79.0596 81.8772 79.8844 83.2107C80.3811 84.0054 80.944 84.7519 81.5731 85.4443C82.0276 85.9349 82.3949 86.4979 82.6628 87.1119C82.9578 87.6959 83.1745 88.316 83.307 88.9572C83.4394 89.7759 83.4966 90.5977 83.6441 91.4105C83.7164 91.8289 83.8217 92.2443 83.9632 92.6447C83.9933 92.744 84.0956 93.1353 84.204 93.1534C84.3124 93.1714 84.3395 92.8945 84.3214 92.8042C84.0324 91.5188 83.8398 90.2124 83.7495 88.897C83.7043 88.4424 83.611 87.9939 83.4665 87.5605C84.5201 88.6291 85.6188 89.6465 86.7416 90.6399C86.8108 90.7001 86.85 90.5405 86.8108 90.4954C84.5381 88.0662 82.2685 85.4985 80.6189 82.5244C79.8964 81.1247 79.2553 79.6858 78.6924 78.2138C78.6141 78.0332 78.5328 77.8375 78.4545 77.6359C82.3437 80.917 86.9613 83.2168 91.9221 84.3456C92.0576 84.3727 92.0666 84.1048 91.9643 84.0626C90.2876 83.3673 88.6832 82.5726 87.0757 81.7478C87.0246 81.7237 86.9704 81.6695 86.9944 81.6213C87.9728 81.6966 88.9601 81.6545 89.9294 81.4979C90.2966 81.4166 90.6548 81.3023 91.0281 81.233C92.0034 81.0614 93.0479 81.233 93.963 80.8327C93.9901 80.7695 93.8938 80.7273 93.8276 80.7243L93.6289 80.6972L93.6199 80.7093Z" fill="#263238"/>
<path d="M7.16126 80.7092C7.73319 80.7092 9.03359 80.7092 9.07273 80.4834C9.07273 80.4052 9.05166 80.3299 9.00349 80.2697C8.76268 79.8784 8.54895 79.4871 8.28707 79.1018C8.1787 78.9573 8.1185 78.7827 8.1185 78.6021C8.21783 78.575 8.30513 78.6653 8.37436 78.7466C8.83191 79.3396 9.40084 79.8393 10.051 80.2125C10.644 80.5256 11.2852 80.7243 11.9505 80.8086C13.1004 80.9561 14.2683 80.8296 15.361 80.4443C17.5946 79.6436 19.5211 78.2017 21.3152 76.6304C22.7209 75.4022 24.0153 74.0507 25.1863 72.5967C26.1044 71.4559 26.9382 70.2488 27.6787 68.9845C28.064 68.4186 28.3801 67.8075 28.6239 67.1664C28.8587 66.4078 29.0333 65.6312 29.1477 64.8455C29.2229 64.3157 29.2681 63.7829 29.2801 63.2471V62.4795C29.2801 62.3711 29.247 61.7721 29.3253 61.7119C27.4048 63.1869 25.3639 64.686 24.3284 66.9526C23.1694 69.4631 23.2748 72.8315 20.9028 74.6015C20.7854 74.6918 20.7342 74.4239 20.8215 74.3547C22.0466 73.3643 22.3236 71.9074 22.4651 70.3752C22.5192 68.9845 22.7691 67.6059 23.2146 66.2874C22.3296 67.0941 21.5319 67.9912 20.8396 68.9665C20.4904 69.3969 20.1261 69.7973 19.7408 70.1916C19.3736 70.5739 18.9883 70.9351 18.5819 71.2783C18.1906 71.5974 17.7902 71.9044 17.4019 72.2265C17.2845 72.3228 17.2424 72.0459 17.3206 71.9676C17.715 71.5883 18.0792 71.182 18.4164 70.7515C18.7625 70.297 19.1298 69.9026 19.4699 69.4662C19.7559 69.1019 20.0479 68.7437 20.3278 68.3795C20.388 68.2922 20.4512 68.2109 20.5145 68.1236C19.1268 68.9725 17.5825 69.5354 15.9721 69.7762C15.8938 69.7762 15.8908 69.6167 15.945 69.5866C16.6885 69.2013 17.4712 68.8912 18.2147 68.5059C18.9582 68.1206 19.6445 67.7202 20.3369 67.2898C21.0443 66.8503 21.7246 66.3747 22.3748 65.8599C23.0641 65.3181 23.7384 64.7733 24.3916 64.1712C25.0448 63.5662 25.5987 62.9461 26.2459 62.3772C27.2693 61.4681 28.3711 60.6794 29.4246 59.8426C29.4668 59.8155 29.5059 59.8065 29.548 59.7824C29.7377 58.494 30.0718 57.2327 30.5474 56.0226C31.4053 53.9908 32.5402 52.0883 33.9218 50.3665C32.8081 50.6525 31.6522 50.7217 30.5414 50.9204C29.5661 51.098 28.657 51.5375 27.9165 52.1967C27.188 52.8619 26.5017 53.5784 25.8696 54.3369C24.798 55.5711 23.8317 56.8715 22.7209 58.0696C21.7366 59.1412 20.6589 60.1285 19.5783 61.1008L18.7655 61.8413C18.6331 61.9918 18.5006 62.1454 18.3802 62.2959C18.0732 62.7023 17.7932 63.1327 17.5494 63.5812C17.0407 64.5054 16.6825 65.5047 16.4959 66.5433C16.4417 66.8383 16.1467 66.76 16.1918 66.465C16.3604 65.3572 16.7066 64.2826 17.2213 63.2862C17.2635 63.208 17.3206 63.1417 17.3658 63.0575C15.936 64.2766 14.6175 65.6221 13.4315 67.0821C13.3532 67.1784 13.296 66.9557 13.3352 66.8864C14.8252 64.5385 16.7457 62.6721 18.7866 60.842C19.8311 59.9028 20.8727 58.9576 21.842 57.9401C22.1339 57.6301 22.4049 57.305 22.6788 56.9859C22.0015 57.4675 21.3152 57.9311 20.6108 58.3495C18.6632 59.5536 16.6133 60.553 14.5784 61.5795C12.5435 62.6059 9.96675 63.4789 8.79579 65.6673C8.63625 65.9623 8.37737 65.6914 8.51283 65.4445C9.73798 63.3103 11.9234 62.1363 13.9643 61.0256L15.0961 60.3934L14.8372 60.4235C14.0516 60.5018 13.2659 60.565 12.4742 60.6222L11.2431 60.7125C11.1347 60.7125 10.7885 60.8088 10.6982 60.7456C10.6079 60.6824 10.6982 60.5319 10.8247 60.5048C12.0649 60.2399 13.3321 60.1014 14.5814 59.8697C15.6048 59.6981 16.6072 59.4061 17.5645 59.0027C17.9949 58.78 18.4103 58.5362 18.8137 58.2682C19.2682 57.9883 19.7589 57.6993 20.2255 57.4043C22.3025 56.116 24.1959 54.5476 25.8485 52.7445C26.586 51.8054 27.4289 50.9565 28.365 50.216C27.2934 49.8788 26.2579 49.4363 25.2766 48.8885C24.5662 48.5032 23.7986 48.2232 23.0069 48.0667C22.2574 47.9373 21.4868 48.0095 20.7733 48.2714C18.7926 48.8945 16.5771 50.0324 15.7162 52.1124C15.5657 52.4827 15.4543 52.865 15.3791 53.2563C15.3339 53.467 15.3008 53.6777 15.2797 53.8914C15.2526 54.1383 15.2557 54.3881 15.2075 54.6289C15.1834 54.7433 15.057 54.7885 15.0209 54.656C14.9787 54.4212 14.9697 54.1804 14.9938 53.9426C14.9938 53.7048 14.9938 53.4881 15.0389 53.2352C15.0841 52.7355 15.1924 52.2418 15.358 51.7692C15.4784 51.4712 15.6319 51.1883 15.8125 50.9234C14.5814 51.706 13.3683 52.5098 12.2063 53.3767C12.1371 53.4279 12.101 53.2352 12.1461 53.1901C14.0064 51.4472 16.0534 49.9089 18.2478 48.6055C18.7505 48.3075 19.2682 48.0396 19.801 47.8018L19.5422 47.844C18.2598 48.0908 16.9745 48.3346 15.6982 48.5935C14.9396 48.747 14.1961 48.9607 13.4736 49.2377C13.1094 49.3792 12.7512 49.5297 12.402 49.6922C12.3117 49.7374 12.0468 49.939 11.9475 49.8909C11.9264 49.8819 11.9113 49.8668 11.8963 49.8487C11.8842 49.8307 11.8752 49.8096 11.8692 49.7885C11.8662 49.7675 11.8692 49.7434 11.8722 49.7223C11.8782 49.7012 11.8903 49.6832 11.9053 49.6651C12.1552 49.4213 12.4411 49.2196 12.7512 49.0601C13.0793 48.8644 13.4104 48.6778 13.7506 48.5062C13.8409 48.461 13.9372 48.4279 14.0275 48.3828C13.2057 48.2594 12.396 48.0517 11.6163 47.7687C11.517 47.7326 11.5381 47.4677 11.6525 47.4737C12.706 47.5279 13.7415 47.6784 14.7921 47.6995C14.7048 47.6603 14.6205 47.6152 14.5362 47.564C14.175 47.2991 13.8589 46.98 13.6001 46.6158C13.3201 46.3389 13.0672 46.0348 12.8445 45.7067C12.8084 45.6375 12.8234 45.3846 12.9499 45.4509C13.1184 45.5622 13.2689 45.6977 13.4044 45.8452C13.5398 45.9716 13.6843 46.089 13.8348 46.1944C14.181 46.4201 14.5152 46.679 14.8854 46.8747C15.9721 47.3714 17.1882 47.4918 18.3501 47.2239C18.8047 47.1426 19.2321 46.9439 19.6806 46.8235C20.8426 46.4683 22.0647 46.366 23.2688 46.5285C23.6992 46.6068 24.1207 46.7302 24.527 46.8957C24.7347 46.983 24.9455 47.0733 25.1441 47.1727C25.2314 47.2148 25.5987 47.4647 25.4993 47.1727C25.2224 46.3359 24.9455 45.496 24.6625 44.6622C24.4247 43.7682 24.0123 42.9313 23.4494 42.1998C22.8474 41.5527 22.2032 40.9446 21.5199 40.3817C21.2941 40.177 21.0653 39.9783 20.8245 39.7947C20.2285 39.3823 19.5903 39.0331 18.9221 38.7592C18.5338 38.5846 18.1274 38.4492 17.709 38.3588C17.6036 38.3588 17.4952 38.3137 17.3899 38.2986C17.0588 38.2535 16.7276 38.1481 17.2364 38.0337C17.5344 37.9735 17.8414 37.9525 18.1454 37.9705C18.7204 38.0097 19.2833 38.1542 19.8071 38.392C19.9154 38.4431 20.0208 38.4973 20.1292 38.5425C20.0509 38.407 19.9817 38.2685 19.9215 38.1241C19.5723 37.2421 19.1809 36.1343 19.2712 35.1711C19.2712 35.0537 19.4248 34.9302 19.4759 35.1018C19.5693 35.6286 19.7077 36.1464 19.8883 36.6521C20.1412 37.1518 20.4543 37.6183 20.8245 38.0428C21.4868 38.8916 22.2212 39.6833 23.0129 40.4148C23.5818 40.8964 24.1116 41.4262 24.5903 42.0012C24.5903 41.664 24.5692 41.3299 24.5903 40.9928C24.5903 40.8754 24.5903 40.7519 24.5571 40.6346C24.521 40.1198 24.4277 39.6111 24.2742 39.1174C23.9069 38.1903 23.6029 37.2421 23.3651 36.2728C22.9918 34.3282 23.1935 32.2632 23.3651 30.3036C23.3651 30.1771 23.5247 30.0989 23.5367 30.2675C23.63 32.215 23.9009 34.1476 24.3464 36.044C24.503 36.5919 24.6866 37.1277 24.9003 37.6575C25.096 36.5437 25.4361 35.463 25.9087 34.4366C26.5077 33.1362 27.0496 31.8057 27.9436 30.6949C28.0128 30.6076 28.067 30.7942 28.0429 30.8454C27.3958 32.2421 26.9141 33.7081 26.6041 35.2162C26.291 36.7243 26.0713 38.2475 25.9509 39.7827C25.8606 42.257 25.9509 45.4117 27.5041 47.4406C28.3349 48.5122 29.6534 48.8042 30.9117 48.8764C32.1699 48.9487 33.6359 47.9674 34.6262 47.1546C35.6467 46.2817 36.6099 45.3455 37.516 44.3521C38.5967 43.2293 41.4985 40.5503 42.6454 39.5057C43.1902 39.0572 43.702 38.5665 44.1715 38.0398C44.8338 39.3221 45.4298 40.6406 45.9536 41.9861C42.7748 44.6802 42.6273 45.0114 40.6767 46.7723C38.6238 48.6176 36.3902 50.7187 35.2253 52.0131C34.0633 53.3074 32.787 54.8336 32.1218 56.5554C30.8966 59.6951 30.8394 63.1177 30.9688 66.4529C31.0561 68.6925 31.2187 70.9442 31.2036 73.1928C32.6395 73.4396 34.0091 73.9724 35.2313 74.7641C35.8423 75.1855 36.4143 75.6581 36.9381 76.1819C37.206 76.4408 37.4799 76.6996 37.7237 76.9766C38.0338 77.3769 38.3709 77.7532 38.7321 78.1084C38.7532 78.1325 38.7743 78.2529 38.7321 78.2318C38.5636 78.1776 38.398 78.1144 38.2354 78.0422C38.0759 77.9519 37.9164 77.8525 37.7809 77.7502C37.4528 77.5244 37.1397 77.2776 36.8417 77.0157C36.2608 76.5311 35.6346 76.1096 34.9664 75.7574C34.8761 75.7063 34.7858 75.6762 34.6955 75.631C34.9754 76.0916 35.2253 76.5702 35.436 77.0669C35.7551 77.8796 35.9898 78.7225 36.1404 79.5834C36.1735 79.764 35.9447 80.0379 35.8845 79.752C35.6918 78.9422 35.3968 78.1626 35.0085 77.4251C34.7135 76.7779 34.3252 76.1819 33.8496 75.6521C33.4071 75.2487 32.8592 74.9778 32.2693 74.8755C32.0375 74.8303 31.6461 74.749 31.5227 75.044C31.3993 75.339 31.6913 75.6491 31.8087 75.8568C32.5733 77.2114 33.3439 78.5599 34.1175 79.9085C34.4546 80.5346 34.8309 81.1427 35.2403 81.7267C36.318 83.1926 37.6485 84.4298 38.6238 85.977C38.6478 86.0192 38.6629 86.0704 38.6629 86.1215C38.6629 86.1727 38.6478 86.2209 38.6238 86.266C38.5876 86.3292 38.4973 86.3894 38.4371 86.3112C37.805 85.4804 37.0374 84.7639 36.1674 84.189L36.026 84.0987C36.4022 85.7663 36.4805 87.7952 35.3396 88.9722C35.3035 89.0083 35.2794 88.93 35.2855 88.9029C35.5744 87.8554 35.6738 86.7657 35.5865 85.682C35.4269 84.5924 35.0838 83.5358 34.569 82.5605C34.4065 82.2324 34.2289 81.9163 34.0513 81.5972C34.3011 84.0355 33.5486 86.4466 33.0489 88.8367C32.9706 89.219 32.477 89.2551 32.5582 88.8006C33.0609 86.1155 33.2716 83.0873 32.486 80.4293C32.0676 79.0205 31.3722 77.705 30.8364 76.3414C30.8364 76.2993 30.7943 76.2511 30.7551 76.2421C30.713 76.2331 30.6377 76.3505 30.6407 76.4408C30.7912 78.888 30.3819 81.2872 30.2645 83.7314C30.2103 84.8272 30.1651 85.9198 30.1109 87.0095C30.1079 88.2136 30.0327 89.4177 29.8942 90.6157C29.8942 90.703 29.7858 90.7512 29.7497 90.6489C29.5149 89.5772 29.4036 88.4815 29.4186 87.3828C29.3584 86.2299 29.3825 85.0469 29.4186 83.894C29.4457 83.3672 29.4908 82.8434 29.527 82.3167C29.0544 83.5177 28.5186 84.6917 27.9225 85.8356C26.5589 88.5116 24.5391 91.0944 21.7577 92.2533C21.5951 92.3165 21.5951 91.9312 21.7577 91.871C24.6926 90.5977 26.1375 87.5273 27.3235 84.6405C28.657 81.522 29.4397 78.1927 29.6353 74.8062C29.6955 72.8586 29.6564 70.908 29.5179 68.9665C28.2687 71.206 26.7425 73.2771 24.9756 75.1343C24.6866 75.6942 24.2712 76.203 23.9852 76.7598C23.618 77.4763 23.3079 78.2258 23.0009 78.9723C22.441 80.4353 21.7486 81.8441 20.9238 83.1776C20.4302 83.9723 19.8673 84.7188 19.2381 85.4111C18.7836 85.9018 18.4133 86.4647 18.1424 87.0788C17.8504 87.6628 17.6367 88.2829 17.5013 88.924C17.3658 89.7428 17.3056 90.5646 17.1611 91.3773C17.0919 91.7988 16.9865 92.2111 16.848 92.6115C16.8119 92.7108 16.7156 93.1022 16.6042 93.1202C16.4898 93.1383 16.4688 92.8614 16.4898 92.771C16.7788 91.4857 16.9715 90.1793 17.0618 88.8638C17.1009 88.4093 17.1942 87.9608 17.3387 87.5273C16.2882 88.5959 15.1894 89.6134 14.0636 90.6067C13.9944 90.6669 13.9553 90.5074 14.0004 90.4622C16.2701 88.033 18.5428 85.4653 20.1924 82.4912C20.9148 81.0915 21.556 79.6526 22.1189 78.1807C22.1972 78 22.2724 77.8044 22.3567 77.6027C18.4675 80.8838 13.8469 83.1866 8.8861 84.3124C8.75365 84.3395 8.74161 84.0716 8.84997 84.0325C10.5206 83.3371 12.1251 82.5424 13.7325 81.7146C13.7837 81.6935 13.8409 81.6364 13.8138 81.5882C12.8355 81.6634 11.8481 81.6213 10.8788 81.4648C10.5146 81.3835 10.1534 81.2691 9.78313 81.1999C8.80783 81.0283 7.76329 81.1999 6.84519 80.7995C6.8211 80.7363 6.91442 80.6942 6.98065 80.6912L7.16126 80.6851V80.7092Z" fill="#263238"/>
<path d="M72.5094 50.1378C72.5094 50.3274 72.2144 50.4779 71.8472 50.4779C71.4799 50.4779 71.1849 50.3274 71.1849 50.1378C71.1849 49.9481 71.4799 49.7976 71.8472 49.7976C72.2144 49.7976 72.5094 49.9511 72.5094 50.1378Z" stroke="#263238" stroke-width="0.301019" stroke-miterlimit="10"/>
<path d="M72.4583 49.9241L102.994 27.5493" stroke="#263238" stroke-width="0.301019" stroke-miterlimit="10"/>
<path d="M130.052 29.7167C122.063 30.1381 113.292 25.4994 108.018 22.1069C107.37 21.6915 106.814 21.1497 106.377 20.5176C105.944 19.8824 105.64 19.169 105.486 18.4164C105.33 17.6609 105.33 16.8843 105.48 16.1317C105.631 15.3792 105.932 14.6627 106.365 14.0246L106.504 13.8169C107.268 12.7091 108.394 11.8994 109.691 11.5321C110.986 11.1649 112.367 11.2612 113.599 11.8061C114.757 12.3088 115.962 12.7031 117.193 12.9861C121.771 14.0125 130.143 14.0306 130.143 14.0306C125.811 14.0306 122.298 17.5435 122.298 21.8751C122.298 26.2068 125.763 29.6715 130.052 29.7167Z" stroke="#263238" stroke-width="0.301019" stroke-miterlimit="10"/>
<path d="M132.987 21.8751C132.987 22.4381 132.822 22.9859 132.509 23.4555C132.195 23.9221 131.753 24.2893 131.232 24.503C130.711 24.7168 130.14 24.774 129.589 24.6656C129.038 24.5572 128.532 24.2863 128.132 23.886C127.731 23.4856 127.463 22.9829 127.355 22.429C127.244 21.8782 127.301 21.3062 127.518 20.7855C127.734 20.2647 128.099 19.8222 128.565 19.5091C129.032 19.1961 129.583 19.0305 130.146 19.0305C130.901 19.0305 131.624 19.3315 132.156 19.8643C132.689 20.3971 132.99 21.1196 132.99 21.8751H132.987Z" stroke="#263238" stroke-width="0.301019" stroke-miterlimit="10"/>
<path d="M131.792 21.8992V21.8481L132.481 21.225C132.53 21.1828 132.563 21.1226 132.578 21.0594C132.593 20.9962 132.584 20.93 132.56 20.8698C132.536 20.8096 132.494 20.7584 132.439 20.7253C132.385 20.6892 132.322 20.6741 132.256 20.6741L131.347 20.7253L131.311 20.6892L131.356 19.7801C131.359 19.7169 131.344 19.6506 131.307 19.5965C131.271 19.5423 131.223 19.5001 131.163 19.473C131.103 19.449 131.037 19.4429 130.973 19.455C130.91 19.47 130.853 19.5031 130.811 19.5513L130.167 20.2135H130.115L129.492 19.5242C129.45 19.476 129.393 19.4399 129.33 19.4279C129.267 19.4128 129.2 19.4189 129.14 19.4429C129.08 19.467 129.029 19.5122 128.996 19.5664C128.963 19.6205 128.944 19.6868 128.951 19.753L128.996 20.6621L128.96 20.6982L128.05 20.647C127.984 20.647 127.921 20.6621 127.867 20.6982C127.813 20.7343 127.768 20.7825 127.743 20.8427C127.719 20.9029 127.713 20.9691 127.728 21.0323C127.743 21.0955 127.777 21.1527 127.825 21.1949L128.514 21.818V21.8691L127.825 22.4923C127.777 22.5344 127.74 22.5916 127.725 22.6578C127.71 22.721 127.716 22.7903 127.74 22.8505C127.764 22.9107 127.81 22.9618 127.864 22.998C127.921 23.0341 127.984 23.0491 128.05 23.0431L128.96 22.9919V22.8565L129.002 23.0281L128.957 23.9582C128.954 24.0214 128.969 24.0877 129.005 24.1418C129.038 24.196 129.089 24.2382 129.149 24.2653C129.209 24.2893 129.276 24.2954 129.339 24.2833C129.402 24.2683 129.459 24.2352 129.501 24.187L130.124 23.4977L130.019 23.4013L130.173 23.4977L130.799 24.187C130.829 24.2201 130.862 24.2472 130.904 24.2653C130.943 24.2833 130.988 24.2923 131.031 24.2923C131.073 24.2923 131.112 24.2833 131.148 24.2653C131.208 24.2412 131.259 24.199 131.295 24.1449C131.332 24.0907 131.347 24.0244 131.344 23.9612L131.298 23.0311H131.157L131.335 22.9859L132.244 23.0371C132.307 23.0401 132.373 23.0251 132.427 22.9889C132.481 22.9528 132.524 22.9016 132.548 22.8414C132.575 22.7812 132.581 22.715 132.566 22.6518C132.551 22.5886 132.518 22.5314 132.469 22.4862L131.792 21.8992Z" stroke="#263238" stroke-width="0.301019" stroke-miterlimit="10"/>
<path d="M131.344 22.6969L132.253 22.7421L131.554 22.1431C131.518 22.11 131.488 22.0678 131.467 22.0227C131.446 21.9775 131.434 21.9263 131.434 21.8752C131.434 21.824 131.446 21.7728 131.467 21.7277C131.488 21.6825 131.518 21.6404 131.557 21.6072L132.247 20.9811L131.338 21.0534C131.286 21.0564 131.235 21.0504 131.187 21.0323C131.139 21.0142 131.097 20.9872 131.061 20.951C131.025 20.9149 130.998 20.8728 130.979 20.8246C130.961 20.7764 130.955 20.7253 130.958 20.6741L131.004 19.765L130.405 20.4634C130.371 20.4995 130.329 20.5296 130.284 20.5507C130.239 20.5717 130.188 20.5808 130.14 20.5838C130.088 20.5838 130.04 20.5717 129.992 20.5537C129.947 20.5326 129.905 20.5025 129.872 20.4664L129.264 19.768L129.333 20.6771C129.333 20.7283 129.327 20.7794 129.309 20.8276C129.291 20.8758 129.264 20.9179 129.228 20.954C129.191 20.9902 129.146 21.0173 129.098 21.0353C129.05 21.0534 128.999 21.0624 128.951 21.0594L128.042 21.0082L128.74 21.6133C128.779 21.6464 128.809 21.6885 128.827 21.7337C128.848 21.7788 128.857 21.83 128.857 21.8812C128.857 21.9324 128.848 21.9805 128.827 22.0287C128.806 22.0738 128.776 22.116 128.74 22.1491L128.051 22.7722L128.96 22.703C129.008 22.703 129.059 22.712 129.104 22.7331C129.149 22.7511 129.191 22.7812 129.225 22.8173C129.258 22.8535 129.285 22.8956 129.303 22.9408C129.321 22.9859 129.327 23.0371 129.324 23.0853L129.273 23.9943L129.878 23.296C129.911 23.2598 129.953 23.2297 129.998 23.2087C130.043 23.1876 130.094 23.1786 130.146 23.1786C130.197 23.1786 130.245 23.1906 130.293 23.2117C130.338 23.2328 130.38 23.2629 130.414 23.299L131.037 23.9883L130.967 23.0792C130.967 23.0281 130.973 22.9799 130.991 22.9317C131.01 22.8836 131.037 22.8414 131.073 22.8053C131.109 22.7692 131.154 22.7391 131.202 22.724C131.25 22.706 131.302 22.6999 131.356 22.706L131.344 22.6969Z" stroke="#263238" stroke-width="0.301019" stroke-miterlimit="10"/>
<path d="M137.987 21.8751C137.987 26.2067 134.474 29.7196 130.143 29.7196C130.112 29.7196 130.082 29.7196 130.052 29.7166C125.763 29.6715 122.298 26.1766 122.298 21.8751C122.298 17.5735 125.811 14.0305 130.143 14.0305C134.474 14.0305 137.987 17.5434 137.987 21.8751Z" stroke="#263238" stroke-width="0.301019" stroke-miterlimit="10"/>
<path d="M120.609 13.7115C120.609 13.7115 113.454 17.4531 117.298 27.0526C117.298 27.0526 117.719 28.0189 118.174 27.3898C118.174 27.3898 114.803 18.1064 121.723 13.7627C121.723 13.7476 121.527 13.0914 120.609 13.7115Z" stroke="#263238" stroke-width="0.301019" stroke-miterlimit="10"/>
<path d="M114.357 12.1824C114.357 12.1824 106.88 13.8862 108.608 22.4893C108.608 22.4893 108.812 23.3622 109.36 22.9438C109.36 22.9438 108.039 14.6869 115.396 12.4322C115.396 12.4232 115.335 11.8513 114.354 12.1824H114.357Z" stroke="#263238" stroke-width="0.301019" stroke-miterlimit="10"/>
<path d="M118.791 101.609C118.791 102.03 118.848 102.449 118.96 102.855L118.863 102.798L118.728 102.717C118.668 102.681 118.604 102.654 118.541 102.62L118.327 102.521L118.147 102.443L117.909 102.356L117.722 102.301L117.464 102.235L117.289 102.199C117.19 102.175 117.087 102.16 116.988 102.154L116.837 102.13C116.684 102.13 116.53 102.106 116.383 102.106C116.235 102.106 116.07 102.106 115.928 102.13L115.781 102.154C115.678 102.16 115.576 102.175 115.477 102.199L115.302 102.235C115.215 102.253 115.125 102.274 115.04 102.301L114.857 102.356L114.622 102.443L114.441 102.521L114.261 102.605C114.173 102.5 114.089 102.389 114.008 102.28C114.053 102.064 114.944 98.1323 118.355 98.0871C118.355 98.0871 118.361 98.06 118.355 98.0239C118.776 98.337 119.206 98.641 119.61 98.9119C119.077 99.7066 118.791 100.646 118.791 101.609Z" stroke="#263238" stroke-width="0.301019" stroke-miterlimit="10"/>
<path d="M114.008 102.28C113.924 102.172 113.842 102.061 113.761 101.949C112.795 100.613 112.03 99.2159 111.482 98.0841C111.338 97.7861 111.254 97.464 111.236 97.1329C111.221 96.8048 111.269 96.4736 111.38 96.1636C111.491 95.8535 111.663 95.5706 111.889 95.3268C112.112 95.0859 112.382 94.8903 112.683 94.7548L112.783 94.7067C113.31 94.4749 113.9 94.4327 114.453 94.5893C115.007 94.7428 115.492 95.086 115.82 95.5586C116.13 96.0011 116.482 96.4165 116.871 96.7927C117.211 97.1238 117.641 97.4791 118.099 97.8312C118.183 97.8945 118.27 97.9607 118.355 98.0239C118.361 98.06 118.355 98.0871 118.355 98.0871C114.944 98.1323 114.053 102.064 114.008 102.28Z" stroke="#263238" stroke-width="0.301019" stroke-miterlimit="10"/>
<path d="M118.355 98.0871C114.944 98.1323 114.053 102.064 114.008 102.28C114.005 102.286 114.005 102.289 114.005 102.289C113.701 102.422 113.758 101.967 113.758 101.967C113.758 101.961 113.761 101.955 113.761 101.949C114.508 97.5935 117.957 97.8253 117.957 97.8253C118.011 97.8223 118.06 97.8253 118.099 97.8313C118.306 97.8524 118.349 97.9577 118.355 98.0239C118.361 98.0601 118.355 98.0871 118.355 98.0871Z" stroke="#263238" stroke-width="0.301019" stroke-miterlimit="10"/>
<path d="M116.01 95.8656C116.01 95.8656 112.897 94.821 111.6 98.349C111.6 98.349 111.482 98.7162 111.777 98.6801C111.777 98.6801 113.141 95.3659 116.32 96.1816C116.338 96.1816 116.446 95.9589 116.01 95.8625V95.8656Z" stroke="#263238" stroke-width="0.301019" stroke-miterlimit="10"/>
<path d="M135.778 106.759C135.778 107.918 135.362 109.038 134.61 109.917C133.854 110.799 132.813 111.383 131.669 111.564C131.744 111.651 131.819 111.735 132.015 111.847L132.036 111.874C132.433 112.409 132.716 113.021 132.867 113.671C133.017 114.318 133.032 114.992 132.912 115.648C132.791 116.305 132.539 116.928 132.168 117.482C131.798 118.036 131.316 118.508 130.754 118.869C130.194 119.228 129.565 119.468 128.905 119.577C128.249 119.685 127.575 119.655 126.928 119.492C126.283 119.327 125.675 119.032 125.149 118.626C124.622 118.219 124.182 117.707 123.86 117.123C123.345 118.078 122.53 118.836 121.536 119.273C120.546 119.712 119.435 119.806 118.382 119.544C117.331 119.279 116.398 118.671 115.73 117.816C115.061 116.964 114.697 115.91 114.694 114.824C114.697 114.429 114.748 114.035 114.845 113.65C115.007 113.006 115.296 112.4 115.697 111.874L115.721 111.847L115.757 111.801C114.911 111.687 114.113 111.353 113.436 110.835C112.762 110.314 112.232 109.628 111.907 108.839C111.582 108.051 111.467 107.193 111.579 106.347C111.687 105.501 112.018 104.7 112.536 104.023V103.996C112.608 103.906 112.683 103.818 112.759 103.734L112.819 103.671C112.885 103.593 112.963 103.514 113.036 103.442L113.123 103.37L113.349 103.171L113.445 103.102C113.599 102.994 113.746 102.894 113.9 102.798L114.041 102.717C114.098 102.681 114.161 102.653 114.228 102.62L114.261 102.605L114.441 102.521L114.622 102.443L114.857 102.355L115.04 102.301C115.125 102.274 115.215 102.253 115.302 102.235L115.477 102.199C115.576 102.175 115.679 102.16 115.781 102.154L115.928 102.13C116.07 102.106 116.238 102.106 116.383 102.106C116.527 102.106 116.684 102.13 116.837 102.13L116.988 102.154C117.087 102.16 117.19 102.175 117.289 102.199L117.464 102.235L117.722 102.301L117.909 102.355L118.147 102.443L118.328 102.521L118.541 102.62C118.604 102.653 118.668 102.681 118.728 102.717L118.863 102.798L118.96 102.855C118.848 102.449 118.791 102.03 118.791 101.609C118.791 100.646 119.077 99.7065 119.61 98.9118C119.667 98.8245 119.727 98.7402 119.79 98.659V98.6288L120.007 98.3639C120.031 98.3429 120.052 98.3218 120.073 98.3007C120.14 98.2225 120.218 98.1472 120.29 98.078L120.377 97.9997L120.603 97.801L120.7 97.7288C120.853 97.6234 121.004 97.5241 121.154 97.4338L121.299 97.3465C121.359 97.3104 121.422 97.2833 121.479 97.2502L121.699 97.1508L121.88 97.0756L122.117 96.9883L122.298 96.9341C122.385 96.907 122.47 96.889 122.56 96.8649L122.734 96.8288C122.834 96.8107 122.933 96.7836 123.038 96.7836H123.189C123.33 96.7595 123.496 96.7595 123.644 96.7595C123.791 96.7595 123.942 96.7836 124.095 96.7836H124.246C124.348 96.7926 124.45 96.8288 124.547 96.8288L124.724 96.8649C124.808 96.889 124.902 96.907 124.986 96.9341L125.17 96.9883L125.404 97.0756L125.585 97.1508L125.799 97.2502C125.862 97.2833 125.928 97.3104 125.985 97.3465L126.13 97.4338C126.298 97.5241 126.446 97.6234 126.584 97.7288L126.681 97.801C126.762 97.8643 126.834 97.9335 126.913 97.9997L126.994 98.078C127.072 98.1472 127.144 98.2225 127.217 98.3007L127.277 98.37C127.352 98.4513 127.427 98.5385 127.494 98.6288C127.497 98.6379 127.497 98.6499 127.494 98.659C127.897 99.1857 128.189 99.7878 128.348 100.432C128.448 100.814 128.496 101.209 128.499 101.603C128.499 101.943 128.463 102.283 128.388 102.614L128.448 102.578C128.499 102.551 128.529 102.533 128.589 102.497C128.646 102.461 128.713 102.434 128.776 102.404L128.99 102.298L129.17 102.226L129.405 102.139L129.589 102.085C129.673 102.057 129.763 102.033 129.851 102.015L130.025 101.976L130.329 101.931H130.48C130.618 101.907 130.787 101.907 130.931 101.907C131.076 101.907 131.232 101.931 131.386 101.931H131.536L131.837 101.976L132.015 102.015L132.271 102.085L132.457 102.139L132.695 102.226L132.876 102.298L133.089 102.404C133.153 102.434 133.216 102.461 133.276 102.497L133.412 102.578C133.571 102.669 133.722 102.771 133.866 102.879C133.899 102.906 133.881 102.888 133.962 102.951C134.044 103.015 134.116 103.078 134.194 103.147L134.276 103.225C134.354 103.298 134.426 103.373 134.498 103.451L134.558 103.514C134.634 103.602 134.706 103.689 134.775 103.779V103.806C135.179 104.333 135.468 104.938 135.63 105.582C135.726 105.968 135.778 106.362 135.778 106.759Z" stroke="#263238" stroke-width="0.301019" stroke-miterlimit="10"/>
<path d="M123.598 111.248C124.808 111.248 125.793 110.266 125.793 109.053C125.793 107.84 124.811 106.859 123.598 106.859C122.385 106.859 121.404 107.84 121.404 109.053C121.404 110.266 122.385 111.248 123.598 111.248Z" stroke="#263238" stroke-width="0.301019" stroke-miterlimit="10"/>
<path d="M130.54 108.562C131.049 109.435 131.226 110.462 131.04 111.455C130.612 113.231 128.192 113.894 128.192 113.894" stroke="#263238" stroke-width="0.301019" stroke-miterlimit="10"/>
<path d="M118.361 113.508C117.391 113.219 116.56 112.59 116.016 111.738C115.107 110.149 116.419 108.009 116.419 108.009" stroke="#263238" stroke-width="0.301019" stroke-miterlimit="10"/>
<path d="M124.956 102.389C125.946 102.19 126.973 102.35 127.855 102.843C129.393 103.828 129.218 106.332 129.218 106.332" stroke="#263238" stroke-width="0.301019" stroke-miterlimit="10"/>
<path d="M120.296 114.017C120.531 114.748 120.998 115.384 121.627 115.82C122.256 116.26 123.014 116.479 123.779 116.446C125.697 116.446 126.223 114.408 126.223 114.408" stroke="#263238" stroke-width="0.301019" stroke-miterlimit="10"/>
<path d="M122.777 103.12C122.102 102.75 121.326 102.614 120.567 102.729C119.809 102.843 119.107 103.207 118.574 103.761C117.211 105.092 118.21 106.94 118.21 106.94" stroke="#263238" stroke-width="0.301019" stroke-miterlimit="10"/>
<path d="M82.2052 80.664C82.2835 80.5647 82.1119 80.2968 81.8169 80.059C81.5249 79.8212 81.2239 79.7098 81.1457 79.8091C81.0674 79.9055 81.242 80.1764 81.534 80.4142C81.826 80.652 82.127 80.7634 82.2083 80.664H82.2052Z" stroke="#263238" stroke-width="0.301019" stroke-miterlimit="10"/>
<path d="M82.1992 80.4624L105.628 96.7837" stroke="#263238" stroke-width="0.301019" stroke-miterlimit="10"/>
</g>
<defs>
<clipPath id="clip0_5228_7675">
<rect width="143.884" height="127.199" fill="white"/>
</clipPath>
</defs>
</svg>
