<svg width="179" height="137" viewBox="0 0 179 137" fill="none" xmlns="http://www.w3.org/2000/svg">
<mask id="mask0_5126_35564" style="mask-type:alpha" maskUnits="userSpaceOnUse" x="0" y="0" width="179" height="137">
<rect width="179" height="137" fill="#D9D9D9"/>
</mask>
<g mask="url(#mask0_5126_35564)">
<mask id="mask1_5126_35564" style="mask-type:luminance" maskUnits="userSpaceOnUse" x="7" y="0" width="165" height="137">
<path d="M171.849 0.880371H7.10089V136.93H171.849V0.880371Z" fill="white"/>
</mask>
<g mask="url(#mask1_5126_35564)">
<path d="M37.6297 13.8052C37.6014 13.7014 37.5637 13.5976 37.526 13.4938C36.1486 9.65414 29.7145 9.38999 29.7145 14.1165C29.7145 15.0222 27.5352 14.1165 26.7145 15.2957C25.8937 16.475 26.8088 17.2014 25.7144 17.5882C24.6201 17.9656 24.5352 17.0411 23.1672 17.1354C21.8087 17.2297 21.988 18.5034 21.5257 18.8618C21.0728 19.2203 21.0634 19.0411 20.0634 19.1354C19.8087 19.1354 19.554 19.2109 19.337 19.3524C19.1294 19.5034 18.9596 19.7109 18.8747 19.9468H42.7996C42.7996 19.9468 43.7147 17.2203 42.0732 16.2203C40.4317 15.2203 40.4317 16.5788 39.1581 16.041C38.1014 15.5788 37.9128 14.7203 37.6109 13.8146L37.6297 13.8052Z" stroke="#B2B2B2" stroke-width="0.301892" stroke-linecap="round" stroke-linejoin="round"/>
<path d="M137.726 13.8052L137.622 13.4938C136.235 9.65414 129.811 9.38999 129.811 14.1165C129.811 15.0222 127.622 14.1165 126.811 15.2957C125.99 16.475 126.905 17.2014 125.811 17.5882C124.716 17.9656 124.631 17.0411 123.263 17.1354C121.895 17.2297 122.084 18.5034 121.622 18.8618C121.169 19.2203 121.169 19.0411 120.169 19.1354C119.914 19.1354 119.659 19.2109 119.442 19.3524C119.235 19.5034 119.065 19.7109 118.98 19.9468H142.905C142.905 19.9468 143.811 17.2203 142.179 16.2203C140.537 15.2203 140.537 16.5788 139.273 16.041C138.216 15.5788 138.018 14.7203 137.726 13.8146V13.8052Z" stroke="#B2B2B2" stroke-width="0.301892" stroke-linecap="round" stroke-linejoin="round"/>
<path d="M35.875 84.8913C35.875 84.7592 35.7807 84.6649 35.6863 84.6838L30.224 85.8442C30.0259 85.8819 29.9504 85.5234 30.1296 85.4196L35.6297 82.3158C35.6297 82.3158 35.6958 82.2592 35.7146 82.2215C35.7335 82.1837 35.7429 82.1365 35.7335 82.0988C35.5071 78.1365 35.1486 73.7779 34.6863 69.3344C34.6863 69.2118 34.5825 69.1269 34.4882 69.1458L29.6579 70.3816C29.4787 70.4194 29.3843 70.1175 29.5353 70.0043L34.1957 65.7683C34.1957 65.7683 34.2429 65.7023 34.2523 65.674C34.2618 65.6363 34.2712 65.5985 34.2618 65.5608C34.0071 63.4192 33.7335 61.2683 33.441 59.155L33.0636 57.0418C33.0448 56.9097 32.9316 56.8342 32.8372 56.8908L30.0259 58.438C29.8655 58.5324 29.724 58.2493 29.8466 58.0795L32.6485 54.353C32.6863 54.2964 32.7052 54.221 32.6957 54.1455C32.1391 50.6737 31.5165 47.3624 30.8466 44.3906C30.8183 44.2491 30.6957 44.1925 30.6013 44.268L26.9786 47.2397C26.8277 47.3624 26.6579 47.1171 26.7617 46.919L29.9504 40.9755C29.9787 40.9094 29.9881 40.8339 29.9693 40.7679C29.4881 38.8716 28.8843 37.0037 28.1768 35.1829C28.139 35.0791 28.0447 35.0414 27.9692 35.0886L25.4503 36.5603C25.3182 36.6358 25.1862 36.4754 25.2239 36.2961L26.0164 33.1168C26.0164 33.0602 26.0824 32.8244 26.1484 32.6263L26.356 31.8055C25.7711 31.0885 25.1767 30.6923 24.5635 30.6923C23.9503 30.6923 23.271 31.1357 22.6578 31.9564L23.6012 36.2961C23.639 36.4754 23.5069 36.6358 23.3748 36.5603L21.1106 35.2395C21.1106 35.2395 21.0729 35.2206 21.0446 35.2206C21.0257 35.2206 20.9974 35.2206 20.9785 35.2301C20.9597 35.2301 20.9408 35.2489 20.9219 35.2678C20.9031 35.2867 20.8936 35.3055 20.8936 35.3244C20.1672 37.2301 19.554 39.1735 19.054 41.1547C19.0445 41.1924 19.0445 41.2207 19.054 41.2585C19.054 41.2962 19.0728 41.3245 19.0823 41.3528L22.054 46.8907C22.1578 47.0888 21.988 47.3341 21.837 47.2114L18.4785 44.4566C18.3841 44.3812 18.2615 44.4566 18.2332 44.5793C17.5634 47.5982 16.9407 50.9473 16.3841 54.4663C16.3841 54.504 16.3841 54.5417 16.3841 54.57C16.3841 54.6078 16.403 54.6361 16.4313 54.6644L18.9691 58.0512C19.1011 58.221 18.9691 58.5041 18.7898 58.4097L16.1954 56.9757C16.1011 56.9191 15.9879 57.004 15.969 57.1361C15.5445 59.9664 15.1671 62.8626 14.8275 65.7778C14.8275 65.8155 14.8275 65.8532 14.8275 65.891C14.8369 65.9287 14.8558 65.9665 14.8841 65.9853L19.2615 69.9665C19.4125 70.108 19.3181 70.4099 19.1389 70.3439L14.6105 69.2024C14.5162 69.1741 14.4313 69.259 14.4124 69.3816C13.9501 73.8628 13.5916 78.2497 13.3652 82.2403C13.3652 82.2781 13.3652 82.3252 13.3841 82.363C13.4029 82.4007 13.4312 82.4384 13.469 82.4573L18.6955 85.4007C18.8747 85.5045 18.7993 85.863 18.6106 85.8253L13.4501 84.7215C13.3558 84.7215 13.2709 84.797 13.2614 84.929C13.1576 87.2215 13.1105 89.3536 13.1105 91.2405C13.1105 92.4386 13.1293 93.5801 13.1765 94.6745C13.1765 94.7122 13.1765 94.7594 13.2048 94.7877C13.2237 94.8254 13.252 94.8537 13.2897 94.8726L18.7238 97.1651C18.8936 97.2406 18.8653 97.5802 18.686 97.5896L13.5256 98.033C13.4312 98.033 13.3652 98.1557 13.3746 98.2783C13.601 101.448 14.1671 104.58 15.0539 107.637C15.0916 107.741 15.1765 107.797 15.2615 107.76L18.4125 106.429C18.5728 106.354 18.7049 106.628 18.5823 106.788L16.1388 110.25C16.1388 110.25 16.1011 110.335 16.1011 110.382C16.1011 110.429 16.1105 110.477 16.1388 110.514C18.2143 115.118 21.2144 117.118 24.5541 117.118C27.8937 117.118 30.7712 115.213 32.8561 110.779C32.875 110.741 32.8938 110.694 32.8938 110.646C32.8938 110.599 32.8844 110.552 32.8561 110.514L30.2334 106.778C30.1202 106.618 30.2334 106.345 30.4032 106.42L33.8372 107.901C33.8372 107.901 33.8844 107.911 33.9033 107.901C33.9222 107.901 33.9505 107.901 33.9693 107.882C33.9882 107.873 34.0071 107.854 34.0165 107.835C34.0259 107.816 34.0354 107.797 34.0448 107.778C34.9599 104.703 35.5354 101.533 35.7618 98.3349C35.7618 98.2123 35.7052 98.0991 35.6014 98.0897L30.1296 97.5991C29.9504 97.5991 29.9126 97.2406 30.0919 97.1745L35.7712 94.7971C35.7712 94.7971 35.8278 94.7594 35.8467 94.7311C35.8656 94.7028 35.875 94.6745 35.8845 94.6368L35.9694 94.2311V94.1839C35.9977 93.2405 36.0165 92.2594 36.0165 91.2405C36.0165 89.3348 35.9694 87.1838 35.8561 84.863L35.875 84.8913Z" stroke="black" stroke-width="0.377365"/>
<path d="M25.0163 100.552L24.6672 80.6082L30.7994 75.5326L24.6201 78.0421L24.5068 71.5231L24.4597 71.6269L24.4974 70.674L24.337 61.306L29.4126 56.6172L24.4314 59.6078L24.3182 60.5984L24.12 48.985L24.0068 51.2775L23.4691 68.6363L23.2332 68.174L19.252 65.5796L23.4314 69.6457L22.7521 91.6461L16.4595 89.6649L22.6766 93.9386L22.2143 109.052L19.8464 108.58L22.1389 111.448L21.8842 119.694L21.5728 136.939H25.6578L25.054 102.363L30.0069 101.222L25.0257 100.561L25.0163 100.552Z" fill="#263238"/>
<path opacity="0.5" d="M25.0163 100.552L24.6672 80.6082L30.7994 75.5326L24.6201 78.0421L24.5068 71.5231L24.4597 71.6269L24.4974 70.674L24.337 61.306L29.4126 56.6172L24.4314 59.6078L24.3182 60.5984L24.12 48.985L24.0068 51.2775L23.4691 68.6363L23.2332 68.174L19.252 65.5796L23.4314 69.6457L22.7521 91.6461L16.4595 89.6649L22.6766 93.9386L22.2143 109.052L19.8464 108.58L22.1389 111.448L21.8842 119.694L21.5728 136.939H25.6578L25.054 102.363L30.0069 101.222L25.0257 100.561L25.0163 100.552Z" fill="white"/>
<path d="M167.311 92.4574C167.311 92.3442 167.236 92.2593 167.151 92.2782L162.481 93.2782C162.321 93.316 162.255 93.0046 162.405 92.9197L167.104 90.2687C167.104 90.2687 167.16 90.2216 167.17 90.1838C167.189 90.1555 167.189 90.1178 167.189 90.0801C166.99 86.6838 166.689 82.9667 166.302 79.1742C166.302 79.0704 166.217 78.995 166.132 79.0138L162 80.0704C161.849 80.1082 161.764 79.844 161.896 79.7308L165.877 76.1081C165.877 76.1081 165.915 76.0515 165.934 76.0232C165.943 75.9949 165.943 75.9572 165.934 75.9194C165.717 74.0892 165.481 72.259 165.236 70.4476L164.915 68.6457C164.896 68.5325 164.802 68.4759 164.726 68.5136L162.321 69.8439C162.179 69.9193 162.056 69.6835 162.17 69.5325L164.566 66.3438C164.604 66.2966 164.613 66.2306 164.604 66.1645C164.122 63.1928 163.594 60.372 163.028 57.8248C163 57.7021 162.896 57.655 162.821 57.721L159.726 60.2493C159.594 60.3531 159.453 60.1456 159.537 59.9758L162.264 54.9002C162.292 54.8436 162.302 54.787 162.283 54.7304C161.868 53.1077 161.358 51.5134 160.754 49.9567C160.754 49.9379 160.745 49.919 160.726 49.9096C160.717 49.8907 160.698 49.8812 160.679 49.8718C160.66 49.8718 160.641 49.8624 160.622 49.8624C160.604 49.8624 160.585 49.8624 160.566 49.8718L158.415 51.136C158.302 51.202 158.188 51.0605 158.226 50.9096L158.896 48.202C158.896 48.1548 158.962 47.9567 159.009 47.7774L159.188 47.0793C158.688 46.4661 158.179 46.1265 157.66 46.1265C157.141 46.1265 156.556 46.5038 156.028 47.202L156.83 50.9001C156.868 51.0605 156.754 51.1926 156.641 51.1265L154.707 49.985C154.707 49.985 154.669 49.9756 154.651 49.9756C154.632 49.9756 154.613 49.9756 154.594 49.985C154.575 49.985 154.556 50.0039 154.547 50.0228C154.537 50.0416 154.528 50.0511 154.519 50.0699C153.896 51.6926 153.377 53.353 152.952 55.0323C152.934 55.0889 152.934 55.1455 152.952 55.2021L155.5 59.9475C155.594 60.1173 155.443 60.3248 155.311 60.221L152.434 57.8625C152.349 57.7965 152.254 57.8625 152.226 57.9663C151.651 60.5418 151.122 63.4098 150.641 66.4098C150.641 66.4381 150.641 66.4664 150.641 66.5042C150.641 66.5325 150.66 66.5608 150.679 66.5891L152.858 69.4854C152.962 69.6269 152.858 69.8627 152.698 69.7967L150.481 68.5702C150.405 68.5231 150.301 68.5891 150.292 68.7118C149.934 71.1363 149.613 73.6175 149.32 76.0987C149.32 76.127 149.32 76.1647 149.32 76.193C149.33 76.2213 149.349 76.2496 149.368 76.2779L153.113 79.6836C153.235 79.7969 153.151 80.061 153.009 80.0233L149.132 79.0327C149.056 79.0138 148.981 79.0893 148.971 79.1931C148.594 83.0139 148.273 86.7687 148.075 90.1744C148.075 90.2121 148.075 90.2499 148.094 90.2782C148.113 90.3065 148.132 90.3348 148.16 90.3631L152.603 92.8726C152.764 92.9575 152.688 93.2499 152.528 93.231L148.132 92.3065C148.056 92.3065 147.971 92.3725 147.971 92.4858C147.886 94.448 147.839 96.2688 147.839 97.8821C147.839 98.901 147.858 99.8821 147.896 100.835C147.896 100.873 147.896 100.901 147.924 100.929C147.943 100.958 147.962 100.986 148 100.995L152.641 102.939C152.792 102.995 152.764 103.288 152.603 103.316L148.207 103.693C148.122 103.693 148.066 103.797 148.075 103.901C148.273 106.609 148.754 109.288 149.518 111.901C149.518 111.92 149.518 111.939 149.537 111.958C149.547 111.977 149.566 111.986 149.575 111.996C149.584 112.005 149.613 112.014 149.632 112.014C149.651 112.014 149.669 112.014 149.688 112.014L152.386 110.854C152.528 110.788 152.632 111.014 152.537 111.156L150.452 114.118C150.452 114.118 150.415 114.194 150.415 114.231C150.415 114.269 150.415 114.316 150.434 114.345C152.226 118.288 154.792 119.996 157.641 119.996C160.49 119.996 162.953 118.354 164.745 114.571C164.764 114.533 164.773 114.496 164.773 114.458C164.773 114.42 164.773 114.382 164.745 114.345L162.5 111.156C162.405 111.014 162.5 110.779 162.641 110.854L165.575 112.118C165.641 112.146 165.717 112.118 165.755 112.014C166.538 109.382 167.028 106.675 167.226 103.939C167.226 103.835 167.17 103.731 167.094 103.722L162.434 103.307C162.273 103.307 162.255 103.005 162.405 102.929L167.264 100.901C167.264 100.901 167.311 100.873 167.33 100.844C167.349 100.826 167.358 100.797 167.358 100.769L167.424 100.42V100.382C167.443 99.5708 167.462 98.7311 167.462 97.8632C167.453 96.2405 167.406 94.4103 167.321 92.4291L167.311 92.4574Z" stroke="black" stroke-width="0.377365"/>
<path d="M158.028 105.844L157.726 88.797L162.971 84.4573L157.688 86.5988L157.594 81.0327L157.556 81.127L157.585 80.3062L157.443 72.2967L161.783 68.2966L157.528 70.8438L157.434 71.6929L157.264 61.7682L157.169 63.7211L156.707 78.5515L156.509 78.1553L153.103 75.9477L156.679 79.4194L156.094 98.2216L150.717 96.5329L156.028 100.184L155.622 113.099L153.603 112.694L155.556 115.137L155.339 122.175L155.075 136.911H158.566L158.047 107.363L162.273 106.392L158.019 105.826L158.028 105.844Z" fill="#263238"/>
<path opacity="0.5" d="M158.028 105.844L157.726 88.797L162.971 84.4573L157.688 86.5988L157.594 81.0327L157.556 81.127L157.585 80.3062L157.443 72.2967L161.783 68.2966L157.528 70.8438L157.434 71.6929L157.264 61.7682L157.169 63.7211L156.707 78.5515L156.509 78.1553L153.103 75.9477L156.679 79.4194L156.094 98.2216L150.717 96.5329L156.028 100.184L155.622 113.099L153.603 112.694L155.556 115.137L155.339 122.175L155.075 136.911H158.566L158.047 107.363L162.273 106.392L158.019 105.826L158.028 105.844Z" fill="white"/>
<path fill-rule="evenodd" clip-rule="evenodd" d="M74.2813 34.0224C74.2813 34.0224 74.2908 33.9846 74.3096 33.9752C74.3285 33.9658 74.3379 33.9469 74.3474 33.9374C74.3662 33.9374 74.3851 33.928 74.3945 33.9186C74.4134 33.9186 74.4323 33.9186 74.4512 33.9186C74.47 33.9186 74.4889 33.9374 74.4983 33.9469C74.5078 33.9563 74.5266 33.9752 74.5361 33.9846C74.5361 34.0035 74.5455 34.0224 74.5549 34.0318C74.5549 34.0507 74.5549 34.0695 74.5549 34.0884C74.5549 34.0884 74.1587 35.4752 73.8096 38.0413C73.687 38.9092 73.5738 39.9187 73.47 41.0508C73.3851 41.9753 73.3096 42.9848 73.253 44.0697C73.253 44.0697 73.2058 45.0414 73.404 46.4848C73.5172 47.2867 73.6964 48.0886 73.9228 48.8622C73.9323 48.9 73.9228 48.9377 73.9228 48.9754C73.904 49.0132 73.8757 49.032 73.8379 49.0415C73.8002 49.0509 73.7625 49.0415 73.7247 49.0415C73.687 49.0226 73.6681 48.9943 73.6587 48.9566C73.3945 48.1735 73.1964 47.3622 73.0549 46.5509C72.8002 45.0697 72.8379 44.0603 72.8379 44.0603C72.8756 42.9659 72.9228 41.947 73.0077 41.013C73.0738 40.2866 73.1492 39.6168 73.2436 38.9941C73.3474 38.2394 73.4606 37.5696 73.5738 36.9847C73.9417 35.0412 74.2908 34.0129 74.2908 34.0129L74.2813 34.0224Z" fill="#263238"/>
<path fill-rule="evenodd" clip-rule="evenodd" d="M75.3946 49.2019C75.3946 49.2019 75.3663 49.2302 75.3568 49.2396C75.338 49.2396 75.3191 49.2585 75.3002 49.2585C75.2813 49.2585 75.2625 49.2585 75.2436 49.2585C75.2247 49.2585 75.2059 49.2396 75.1964 49.2302C75.1776 49.2208 75.1681 49.2019 75.1587 49.183C75.1587 49.1642 75.1493 49.1453 75.1398 49.1264C75.1398 49.1076 75.1398 49.0887 75.1398 49.0698C75.1398 49.051 75.1587 49.0321 75.1681 49.0227C75.1681 49.0227 76.9512 46.8434 79.0927 44.7113C79.555 44.2584 80.0267 43.7961 80.5079 43.3716C81.0079 42.9188 81.5173 42.4942 82.0079 42.1169C82.0456 42.0886 82.1022 42.0697 82.1494 42.0697C82.1966 42.0697 82.2532 42.0886 82.2909 42.1169C82.2909 42.1169 82.8475 42.5697 82.9985 43.2773C83.0739 43.6546 83.0456 44.1169 82.7437 44.6075C82.7437 44.6169 82.7343 44.6264 82.7249 44.6358C82.7249 44.6358 81.4135 46.183 80.1116 47.9C79.5361 48.6642 78.9607 49.4661 78.5078 50.1736C78.4889 50.2019 78.4512 50.2208 78.4229 50.2302C78.3852 50.2302 78.3474 50.2302 78.3191 50.2114C78.2908 50.1925 78.2625 50.1642 78.2531 50.1264C78.2531 50.0887 78.2531 50.051 78.2625 50.0227C78.7059 49.2868 79.2625 48.466 79.8286 47.6924C81.0267 46.032 82.2532 44.532 82.3852 44.3716C82.6022 43.9943 82.6305 43.6546 82.5645 43.3622C82.489 43.0697 82.3475 42.8056 82.1399 42.5886C81.706 42.9282 81.2626 43.3056 80.8192 43.7018C80.338 44.1263 79.8663 44.5697 79.4041 45.0131C77.2342 47.0981 75.3946 49.1925 75.3946 49.1925V49.2019Z" fill="#263238"/>
<path fill-rule="evenodd" clip-rule="evenodd" d="M71.5454 53.9755C71.5454 53.9755 71.5454 54.0132 71.536 54.0321C71.536 54.051 71.5171 54.0604 71.5077 54.0793C71.4982 54.0887 71.4794 54.0981 71.4605 54.1076C71.4416 54.1076 71.4228 54.117 71.4039 54.117C71.385 54.117 71.3662 54.117 71.3473 54.1076C71.3284 54.1076 71.319 54.0887 71.3001 54.0793C71.2907 54.0698 71.2813 54.051 71.2718 54.0321C71.2718 54.0132 71.2624 53.9944 71.2624 53.9755L71.2907 50.0698C71.2907 50.0698 71.2907 49.6075 72.1115 49.2584C72.5549 49.0698 73.2813 48.9094 74.4417 48.8905H74.47C74.47 48.8905 75.47 48.9943 76.5078 49.1358C76.9889 49.2018 77.47 49.2773 77.8663 49.3433C77.9229 49.3528 77.9701 49.3811 78.0078 49.4282C78.4229 49.9754 78.7908 50.5603 79.1305 51.1547C79.4701 51.7585 79.7625 52.3811 79.9984 53.0321C80.0173 53.0793 80.0173 53.1359 79.9984 53.1925C79.9795 53.2396 79.9324 53.2774 79.8852 53.2962C79.8852 53.2962 79.2814 53.551 78.3757 53.117C77.9229 52.9 77.3851 52.5038 76.8097 51.7868L75.1587 51.9472C75.0926 51.9849 74.8851 52.1453 74.7719 52.5226C74.6964 52.7868 74.6775 53.051 74.7058 53.3245C74.7058 53.3434 74.7058 53.3623 74.7058 53.3811C74.7058 53.4 74.6964 53.4189 74.6775 53.4283C74.6681 53.4472 74.6492 53.4566 74.6304 53.4661C74.6115 53.4661 74.5926 53.4849 74.5738 53.4849C74.5549 53.4849 74.536 53.4849 74.5172 53.4849C74.4983 53.4849 74.4794 53.4661 74.47 53.4566C74.4511 53.4472 74.4417 53.4283 74.4323 53.4094C74.4228 53.3906 74.4228 53.3717 74.4134 53.3528C74.3662 52.8623 74.4228 52.5132 74.5266 52.2585C74.7153 51.7962 75.0266 51.6453 75.0266 51.6453C75.0455 51.6453 75.0643 51.6358 75.0738 51.6264L76.8474 51.4188C76.8474 51.4188 76.904 51.4189 76.9323 51.4283C76.9606 51.4377 76.9889 51.4566 77.0078 51.4849C77.5644 52.1736 78.0833 52.5604 78.5172 52.7585C78.9512 52.9566 79.3003 52.966 79.4984 52.9472C79.2814 52.4 79.0172 51.8811 78.7248 51.3717C78.404 50.8151 78.055 50.2868 77.6776 49.7773C77.3002 49.7113 76.8568 49.6452 76.4229 49.5792C75.4606 49.4377 74.5172 49.3245 74.404 49.315C73.5549 49.315 72.9511 49.3999 72.5266 49.5132C71.7341 49.7301 71.6492 50.0509 71.6398 50.0698L71.5171 53.9661L71.5454 53.9755Z" fill="#263238"/>
<path fill-rule="evenodd" clip-rule="evenodd" d="M73.3379 53.9378C73.3379 53.9378 73.3096 53.9567 73.2907 53.9567C73.2719 53.9567 73.253 53.9567 73.2341 53.9567C73.2153 53.9567 73.1964 53.9473 73.187 53.9378C73.1775 53.9284 73.1587 53.9095 73.1492 53.9001C73.1398 53.8812 73.1304 53.8718 73.1304 53.8529C73.1304 53.8341 73.1304 53.8152 73.1304 53.7963C73.1304 53.7775 73.1398 53.7586 73.1492 53.7492C73.1587 53.7303 73.1775 53.7209 73.187 53.7114C73.187 53.7114 73.7059 53.3624 74.8379 53.1926C75.4795 53.0982 76.3285 53.0699 77.3852 53.1926C77.4229 53.1926 77.4512 53.2114 77.4889 53.2303C77.7908 53.4567 78.0455 53.7397 78.2437 54.0699C78.4418 54.4001 78.555 54.768 78.5833 55.1548C78.5833 55.1737 78.5833 55.1832 78.5833 55.202C78.5833 55.202 78.5078 55.702 78.2059 56.4002C78.0361 56.7775 77.838 57.136 77.6116 57.4851C77.5927 57.5134 77.5644 57.5322 77.5361 57.5511C77.5078 57.5606 77.4701 57.57 77.4418 57.57C77.4418 57.57 76.8946 57.4945 76.5738 57.1077C76.3946 56.8907 76.2719 56.5888 76.3757 56.1454C76.3757 56.1077 76.404 56.0794 76.4418 56.0605C76.4701 56.0417 76.5078 56.0322 76.5455 56.0417C76.5833 56.0417 76.6116 56.07 76.6304 56.0983C76.6493 56.1266 76.6587 56.1643 76.6493 56.202C76.5927 56.5228 76.6776 56.7492 76.8097 56.9002C76.9795 57.0888 77.2248 57.1643 77.3757 57.1926C77.555 56.8907 77.7154 56.5794 77.838 56.2492C77.9795 55.9001 78.0833 55.5416 78.1493 55.1737C78.121 54.8718 78.0172 54.5794 77.8569 54.3152C77.7059 54.0605 77.5078 53.8341 77.272 53.6454C76.2908 53.4944 75.4983 53.5039 74.8851 53.5605C73.8379 53.6643 73.3379 53.9473 73.3379 53.9473V53.9378Z" fill="#263238"/>
<path fill-rule="evenodd" clip-rule="evenodd" d="M71.3379 51.9568C71.3379 51.9568 71.4039 51.9285 71.4417 51.9379C71.4794 51.9379 71.5077 51.9662 71.5266 51.9945C71.5454 52.0228 71.5549 52.0605 71.5455 52.0983C71.5455 52.136 71.5171 52.1643 71.4888 52.1832C71.4888 52.1832 70.819 52.6643 70.0077 53.2115C69.6775 53.4285 69.3284 53.6549 68.9982 53.8719C68.9982 53.8719 68.9888 53.8719 68.9794 53.8719C68.7624 53.9945 68.5737 54.1644 68.4322 54.3719C68.2907 54.57 68.1963 54.8059 68.1586 55.0512C68.1586 55.1455 68.1114 55.7776 68.0548 56.4097C68.0265 56.7304 67.9982 57.0606 67.9699 57.3248C67.9227 57.6172 67.8567 57.9003 67.7812 58.1739C67.7058 58.4474 67.6114 58.721 67.5076 58.9852C67.4888 59.0229 67.4699 59.0418 67.4322 59.0607C67.3944 59.0701 67.3567 59.0795 67.3284 59.0607C67.2907 59.0512 67.2624 59.0229 67.2529 58.9852C67.2341 58.9475 67.2341 58.9097 67.2529 58.8814C67.3473 58.6267 67.4227 58.3625 67.4793 58.0889C67.5737 57.6738 67.6114 57.3437 67.6209 57.287L67.7341 55.004C67.7341 55.004 67.7341 54.9946 67.7341 54.9851C67.7718 54.6644 67.8944 54.353 68.0831 54.0889C68.2718 53.8247 68.5171 53.6077 68.8096 53.4568C69.2341 53.2115 69.6775 52.9474 70.0832 52.7021C70.8002 52.2681 71.3662 51.9285 71.3662 51.9285L71.3379 51.9568Z" fill="#263238"/>
<path fill-rule="evenodd" clip-rule="evenodd" d="M67.2718 69.457C67.2718 69.457 67.2529 69.5231 67.2246 69.5514C67.1963 69.5797 67.168 69.5891 67.1303 69.5891C67.0925 69.5891 67.0642 69.5797 67.0359 69.5514C67.0076 69.5231 66.9982 69.4948 66.9888 69.457L66.9605 66.9098C66.9039 66.74 66.5454 65.6834 65.9888 64.3437C65.6586 63.5701 65.2623 62.7022 64.8189 61.872C64.7529 61.7871 64.5359 61.4663 64.5831 60.7493C64.6114 60.372 64.7057 59.872 64.9604 59.2116C64.9982 59.0984 65.4699 57.5983 65.8284 56.1832C66.0265 55.3908 66.2057 54.6266 66.234 54.1455C66.234 54.1172 66.2435 54.0889 66.2623 54.0606C66.2718 54.0322 66.3001 54.0134 66.3189 53.9945C66.951 53.4851 67.5359 52.919 68.0643 52.2964C68.602 51.6832 69.0643 51.0039 69.4511 50.2869C69.4699 50.2492 69.5077 50.2209 69.5454 50.202C69.5454 50.202 70.2247 49.985 70.5926 50.5322C70.7718 50.7963 70.8756 51.2586 70.753 52.0511C70.753 52.07 70.753 52.0888 70.7341 52.1077C70.7247 52.1266 70.7152 52.136 70.6964 52.1454C70.6775 52.1549 70.6681 52.1643 70.6492 52.1737C70.6303 52.1737 70.6115 52.1737 70.5926 52.1737C70.5737 52.1737 70.5549 52.1737 70.536 52.1549C70.5171 52.1454 70.5077 52.136 70.4983 52.1171C70.4888 52.0983 70.4794 52.0888 70.47 52.07C70.47 52.0511 70.47 52.0322 70.47 52.0133C70.5643 51.3247 70.4888 50.9284 70.3379 50.7114C70.1492 50.4378 69.8473 50.4756 69.7152 50.5039C69.3379 51.2303 68.885 51.9096 68.3567 52.5417C67.8378 53.1643 67.2718 53.7492 66.6491 54.2681C66.6114 54.7681 66.451 55.5228 66.2623 56.2964C65.8944 57.787 65.4038 59.3625 65.4038 59.3625C65.1774 59.9758 65.0736 60.438 65.0453 60.7871C64.9982 61.3814 65.168 61.5984 65.168 61.5984C65.1868 61.6173 65.1963 61.6267 65.2057 61.6456C65.6586 62.5041 66.0454 63.4003 66.3661 64.2022C66.9605 65.6928 67.3001 66.8438 67.3001 66.8438C67.3001 66.8627 67.3001 66.8815 67.3001 66.891L67.2624 69.4665L67.2718 69.457Z" fill="#263238"/>
<path fill-rule="evenodd" clip-rule="evenodd" d="M76.1587 57.3625C76.1587 57.3625 76.1398 57.3247 76.1398 57.3059C76.1398 57.287 76.1398 57.2681 76.1398 57.2492C76.1398 57.2304 76.1587 57.2115 76.1682 57.2021C76.1776 57.1926 76.1964 57.1738 76.2153 57.1643C76.2342 57.1643 76.2531 57.1549 76.2719 57.1549C76.2908 57.1549 76.3097 57.1549 76.3285 57.1643C76.3474 57.1643 76.3663 57.1832 76.3757 57.1926C76.3851 57.2021 76.404 57.2209 76.404 57.2398L77.4701 59.438C77.4701 59.438 77.4889 59.4946 77.4889 59.5229C77.4889 59.5229 77.4795 61.1172 77.4135 63.0324C77.3852 63.7871 77.3474 64.589 77.3002 65.372C77.1965 67.0607 77.0644 68.6174 76.9229 69.2778C76.9229 69.2778 76.9229 69.2966 76.9229 69.3061C76.9229 69.3061 76.7625 69.74 76.4889 70.4193C76.3663 70.74 76.2153 71.1174 76.0455 71.5231C76.0455 71.5419 76.0266 71.5608 76.0172 71.5702C76.0078 71.5797 75.9889 71.5986 75.97 71.608C75.9512 71.608 75.9323 71.6174 75.9134 71.6174C75.8946 71.6174 75.8757 71.6174 75.8568 71.608C75.838 71.608 75.8191 71.5891 75.8096 71.5797C75.8002 71.5702 75.7813 71.5514 75.7813 71.5325C75.7813 71.5136 75.7719 71.4948 75.7719 71.4759C75.7719 71.457 75.7719 71.4382 75.7813 71.4193C75.9323 71.0042 76.0738 70.6268 76.187 70.3061C76.404 69.7023 76.5455 69.2872 76.5738 69.2023C76.6399 68.8155 76.6965 68.1268 76.7531 67.2966C76.8002 66.5985 76.838 65.7871 76.8663 64.9664C76.8851 64.4475 76.9134 63.9192 76.9323 63.4097C76.9606 62.8625 76.9795 62.3342 77.0078 61.8531C77.0644 60.6644 77.1116 59.7587 77.121 59.5606L76.1587 57.3625Z" fill="#263238"/>
<path fill-rule="evenodd" clip-rule="evenodd" d="M87.1589 51.5228C87.1589 51.5228 87.1117 51.5699 87.074 51.5794C87.0362 51.5794 86.9985 51.5794 86.9702 51.5605C86.9419 51.5416 86.923 51.5133 86.9136 51.4756C86.9136 51.4378 86.9136 51.4001 86.9324 51.3718C86.9324 51.3718 87.4513 50.5227 88.2438 49.9001C88.6023 49.6171 89.0174 49.3906 89.4513 49.2869C89.4702 49.2869 89.4891 49.2869 89.508 49.2869C89.508 49.2869 90.3759 49.3152 91.4703 49.6831C92.1023 49.9001 92.7061 50.1925 93.2627 50.5605C93.3005 50.5888 93.3288 50.6265 93.3476 50.6737C93.3476 50.6737 93.5269 51.2775 93.7439 52.1737C93.8477 52.6171 93.9609 53.136 94.0646 53.6926C94.0646 53.7303 94.0646 53.7681 94.0363 53.7964C94.0175 53.8247 93.9797 53.8435 93.9514 53.853C93.9137 53.853 93.876 53.853 93.8477 53.8341C93.8194 53.8152 93.791 53.7869 93.7816 53.7492C93.659 53.2115 93.5269 52.702 93.4042 52.2586C93.2156 51.5699 93.0458 51.051 92.9891 50.8624C92.4703 50.551 91.9137 50.2963 91.3382 50.1171C90.7438 49.9189 90.14 49.7869 89.5174 49.7208C89.1495 49.7963 88.791 49.985 88.4796 50.2114C87.706 50.7586 87.1683 51.5228 87.1683 51.5228H87.1589Z" fill="#263238"/>
<path fill-rule="evenodd" clip-rule="evenodd" d="M87.4702 52.1265C87.4702 52.1265 87.4042 52.1076 87.3759 52.0793C87.357 52.051 87.3381 52.0227 87.3381 51.9849C87.3381 51.9472 87.357 51.9189 87.3759 51.8906C87.4042 51.8623 87.4325 51.8529 87.4702 51.8529C87.8287 51.8434 88.1778 51.7963 88.5174 51.7019C88.7344 51.6453 88.9419 51.5604 89.1306 51.4378C89.1589 51.4189 89.1967 51.4095 89.2438 51.4C89.2816 51.4 89.3193 51.4 89.357 51.4283C89.357 51.4283 89.6589 51.5793 90.0646 51.8151C90.2816 51.9378 90.5174 52.0793 90.7627 52.2208C90.8005 52.2397 90.8288 52.268 90.8476 52.3057C90.8665 52.3434 90.8759 52.3812 90.8759 52.4189C90.8759 52.4189 90.8665 52.9661 90.8476 53.6548C90.8288 54.2491 90.8005 54.9473 90.7816 55.5039C90.7816 55.5416 90.7627 55.5699 90.7344 55.5982C90.7061 55.6265 90.6684 55.6359 90.6401 55.6359C90.6118 55.6359 90.5646 55.6265 90.5457 55.5982C90.5174 55.5699 90.508 55.5416 90.4986 55.5039C90.4797 54.9473 90.4608 54.2491 90.4514 53.6548C90.442 53.1736 90.4325 52.7585 90.4325 52.5604C90.225 52.4378 90.0269 52.3246 89.8476 52.2208C89.5835 52.0698 89.3665 51.9378 89.2533 51.8623C89.0551 51.9566 88.8382 52.0321 88.6212 52.0698C88.2438 52.1359 87.857 52.1548 87.4796 52.1359L87.4702 52.1265Z" fill="#263238"/>
<path fill-rule="evenodd" clip-rule="evenodd" d="M85.4419 45.4566C85.4419 45.4566 85.4041 45.4566 85.3947 45.4377C85.3758 45.4377 85.3664 45.4189 85.357 45.4C85.3475 45.3906 85.3381 45.3717 85.3287 45.3528C85.3192 45.334 85.3287 45.3151 85.3287 45.2962C85.3287 45.2774 85.3287 45.2585 85.3475 45.2491C85.3475 45.2302 85.3664 45.2208 85.3853 45.2113C85.3947 45.2019 85.4136 45.1925 85.4324 45.183C85.4513 45.183 85.4702 45.183 85.489 45.183C85.489 45.183 86.5174 45.2396 87.7627 45.2491C88.4985 45.2491 89.3004 45.2396 90.0268 45.1736C90.0363 45.1736 90.0551 45.1736 90.0646 45.1736C90.6495 45.2302 91.2344 45.3057 91.8099 45.4189C92.3854 45.5321 92.9609 45.6642 93.5175 45.834C94.2911 46.0698 95.0647 46.3812 95.6873 46.7679C95.7156 46.7868 95.7345 46.8057 95.7439 46.8246C95.7628 46.8529 95.7722 46.8717 95.7722 46.9L96.1213 49.985C96.1213 49.985 96.1213 50.0605 96.093 50.0888C96.0741 50.1171 96.0364 50.1359 95.9986 50.1359C95.9609 50.1359 95.9232 50.1359 95.8949 50.1076C95.8666 50.0888 95.8477 50.051 95.8383 50.0133L95.4043 47.0321C94.81 46.6925 94.093 46.4378 93.3854 46.2302C92.8005 46.0604 92.225 45.9377 91.7156 45.8434C90.8193 45.6736 90.1401 45.5981 90.0363 45.5887C89.4514 45.6264 88.8193 45.6264 88.2155 45.617C86.7532 45.5792 85.4607 45.4377 85.4607 45.4377L85.4419 45.4566Z" fill="#263238"/>
<path fill-rule="evenodd" clip-rule="evenodd" d="M85.3759 46.0038C85.3759 46.0038 85.357 45.9378 85.3759 45.9001C85.3853 45.8623 85.4136 45.834 85.4419 45.8246C85.4702 45.8057 85.508 45.8057 85.5457 45.8152C85.5834 45.8152 85.6117 45.8435 85.6306 45.8812C85.6306 45.8812 85.8759 46.2774 86.5174 46.5416C86.8759 46.6831 87.2533 46.7586 87.6401 46.768C88.074 46.7869 88.4986 46.8435 88.9231 46.9284C89.3476 47.0133 89.7627 47.1359 90.1684 47.2869C90.1684 47.2869 90.1779 47.2869 90.1873 47.2869C90.7722 47.5982 91.3382 47.9378 91.8854 48.3058C92.2722 48.5794 92.6496 48.8718 92.9232 49.1548C92.942 49.1737 92.9609 49.202 92.9609 49.2303C92.9609 49.2586 92.9609 49.2869 92.9609 49.3152L92.6873 50.3247C92.6873 50.3247 92.6779 50.3624 92.6685 50.3813C92.659 50.4001 92.6402 50.4096 92.6307 50.419C92.6119 50.4284 92.593 50.4379 92.5741 50.4379C92.5553 50.4379 92.5364 50.4379 92.5175 50.4379C92.4986 50.4379 92.4798 50.4284 92.4609 50.4096C92.442 50.4001 92.4326 50.3813 92.4232 50.3624C92.4137 50.3435 92.4043 50.3247 92.4043 50.3058C92.4043 50.2869 92.4043 50.2681 92.4043 50.2492L92.6119 49.3246C92.3194 49.0699 91.9986 48.8341 91.6684 48.6265C90.9043 48.1454 90.1024 47.7492 89.9986 47.6925C89.6212 47.551 89.225 47.4378 88.8288 47.3529C88.4325 47.268 88.0269 47.202 87.6212 47.1642C87.1872 47.1265 86.7721 47.0227 86.3759 46.8435C85.6306 46.485 85.3853 45.9944 85.3853 45.9944L85.3759 46.0038Z" fill="#263238"/>
<path fill-rule="evenodd" clip-rule="evenodd" d="M90.3571 56.2114C90.3571 56.2114 90.3665 56.1737 90.3854 56.1643C90.3948 56.1454 90.4137 56.136 90.4231 56.1265C90.442 56.1265 90.4609 56.1077 90.4797 56.1077C90.4986 56.1077 90.5175 56.1077 90.5363 56.1077C90.5552 56.1077 90.5741 56.1265 90.5835 56.136C90.593 56.1454 90.6118 56.1643 90.6213 56.1831C90.6213 56.202 90.6307 56.2209 90.6307 56.2397C90.6307 56.2586 90.6307 56.2775 90.6307 56.2963C90.6307 56.2963 90.3194 57.3718 90.2722 58.8719C90.2628 59.3058 90.2722 59.7304 90.3005 60.1643C90.3288 60.5889 90.3854 61.0228 90.4703 61.4379C90.4703 61.4663 90.5647 61.8436 90.7911 63.3531C90.8948 64.0418 91.0269 64.9757 91.2062 66.221C91.2062 66.2399 91.2062 66.2588 91.2062 66.2777C91.2062 66.2965 91.1967 66.3154 91.1873 66.3343C91.1779 66.3531 91.159 66.3626 91.1496 66.372C91.1307 66.3814 91.1118 66.3909 91.093 66.3909C91.0741 66.3909 91.0552 66.3909 91.0364 66.3909C91.0175 66.3909 90.9986 66.3814 90.9797 66.3626C90.9609 66.3531 90.9514 66.3343 90.942 66.3154C90.9326 66.2965 90.9231 66.2777 90.9231 66.2588C90.6401 64.7116 90.442 63.655 90.3005 62.938C90.0835 61.8059 90.0269 61.5229 90.0269 61.5229C89.9326 61.0794 89.876 60.6266 89.8477 60.1738C89.8194 59.7209 89.8288 59.2775 89.8571 58.8247C89.9703 57.2869 90.3665 56.1926 90.3665 56.1926L90.3571 56.2114Z" fill="#263238"/>
<path fill-rule="evenodd" clip-rule="evenodd" d="M100.838 66.6739C100.838 66.6739 100.838 66.7116 100.838 66.7305C100.838 66.7494 100.82 66.7588 100.81 66.7777C100.801 66.7871 100.782 66.806 100.763 66.806C100.744 66.806 100.725 66.8154 100.706 66.8154C100.687 66.8154 100.669 66.8154 100.65 66.8154C100.631 66.8154 100.621 66.7965 100.603 66.7871C100.593 66.7777 100.574 66.7588 100.574 66.7399C100.574 66.721 100.565 66.7022 100.565 66.6833L100.31 63.221C100.31 63.221 100.31 63.1832 100.31 63.1644C100.31 63.1644 100.499 62.1927 100.735 61.0983C101.008 59.8058 101.357 58.3435 101.423 58.0605L100.65 55.8341C100.65 55.8341 100.65 55.7963 100.65 55.7775C100.65 55.7586 100.65 55.7397 100.659 55.7209C100.659 55.702 100.678 55.6926 100.687 55.6737C100.697 55.6643 100.716 55.6548 100.735 55.6454C100.753 55.6454 100.772 55.6454 100.791 55.6454C100.81 55.6454 100.829 55.6454 100.848 55.6548C100.867 55.6643 100.876 55.6737 100.895 55.6831C100.904 55.6926 100.914 55.7114 100.923 55.7303L101.801 57.9756C101.801 57.9756 101.82 58.0417 101.801 58.0794C101.801 58.0794 101.48 59.7492 101.178 61.1832C100.97 62.1832 100.763 63.07 100.735 63.221L100.829 66.655L100.838 66.6739Z" fill="#263238"/>
<path fill-rule="evenodd" clip-rule="evenodd" d="M98.1214 50.2774C98.1214 50.2774 98.0931 50.2114 98.0931 50.1737C98.0931 50.1359 98.1214 50.1076 98.1497 50.0793C98.178 50.0605 98.2157 50.051 98.2535 50.051C98.2912 50.051 98.3195 50.0793 98.3478 50.1076C98.3478 50.1076 99.1591 51.0793 99.8478 51.9379C100.027 52.1548 100.197 52.3718 100.338 52.5511C100.621 52.919 100.82 53.1737 100.82 53.1737C100.848 53.2115 100.867 53.2586 100.867 53.3152L100.81 57.2021C100.81 57.2021 100.81 57.2398 100.81 57.2587C100.81 57.2776 100.791 57.2964 100.782 57.3059C100.772 57.3247 100.754 57.3342 100.735 57.3436C100.716 57.3436 100.697 57.353 100.678 57.353C100.659 57.353 100.64 57.353 100.621 57.3436C100.603 57.3436 100.584 57.3247 100.574 57.3153C100.565 57.3059 100.546 57.287 100.546 57.2681C100.546 57.2493 100.537 57.2304 100.537 57.2115C100.508 56.5983 100.47 55.9002 100.452 55.2587C100.423 54.3907 100.414 53.6266 100.414 53.3907C100.338 53.2964 100.178 53.0888 99.9799 52.8247C99.8384 52.636 99.678 52.419 99.5082 52.1926C98.8572 51.3058 98.1308 50.268 98.1308 50.268L98.1214 50.2774Z" fill="#263238"/>
<path fill-rule="evenodd" clip-rule="evenodd" d="M77.6022 60.0512C77.6022 60.0512 77.5833 59.9851 77.5927 59.9568C77.5927 59.9285 77.621 59.8908 77.6493 59.8719C77.6776 59.8531 77.7154 59.8436 77.7437 59.8531C77.7814 59.8531 77.8097 59.8719 77.8286 59.9002C78.4135 60.655 79.0456 61.372 79.7437 62.0324C80.206 62.4663 80.6871 62.8814 81.1966 63.2588C81.5362 63.5041 81.8853 63.7305 82.2532 63.938C82.8004 64.2494 83.3853 64.4947 83.9796 64.6267C83.9891 64.6267 84.0079 64.6267 84.0174 64.6362C84.0174 64.6362 84.8476 64.9758 86.6401 64.2399C87.5835 63.8437 88.7816 63.1644 90.2439 61.9852C90.2628 61.9757 90.2722 61.9663 90.2911 61.9569C90.3099 61.9569 90.3288 61.9569 90.3477 61.9569C90.3665 61.9569 90.3854 61.9569 90.4043 61.9757C90.4231 61.9757 90.4326 61.9946 90.4514 62.0135C90.4609 62.0324 90.4703 62.0418 90.4797 62.0607C90.4797 62.0795 90.4797 62.0984 90.4797 62.1173C90.4797 62.1361 90.4797 62.155 90.4609 62.1739C90.4609 62.1927 90.442 62.2022 90.4231 62.221C88.9514 63.4663 87.7533 64.2022 86.791 64.6173C84.9702 65.4192 84.0079 65.1362 83.857 65.0701C83.3192 64.9475 82.8004 64.7494 82.3192 64.4947C81.8381 64.2399 81.3664 63.938 80.9324 63.6078C80.4135 63.2116 79.923 62.7776 79.4701 62.3059C78.7814 61.6172 78.1588 60.8625 77.5927 60.0606L77.6022 60.0512Z" fill="#263238"/>
<path fill-rule="evenodd" clip-rule="evenodd" d="M82.2626 44.9471C82.2626 44.9471 82.2909 44.8811 82.3286 44.8622C82.3569 44.8433 82.3947 44.8433 82.4324 44.8528C82.4702 44.8528 82.4985 44.8811 82.5173 44.9188C82.5362 44.9565 82.5456 44.9848 82.5362 45.0226C82.5362 45.0226 82.4041 45.6264 82.1871 46.6735C82.1211 46.9943 82.0456 47.3622 81.9513 47.7679C81.8758 48.1264 81.7815 48.5226 81.6966 48.9377C81.6871 48.9849 81.6683 49.0226 81.6305 49.0509C81.4796 49.2019 81.3569 49.3811 81.272 49.5698C81.1588 49.8151 81.0833 50.117 81.2154 50.4378C81.4041 50.9 81.989 51.3623 83.3098 51.7397C83.3475 51.7491 83.3758 51.7774 83.3947 51.8057C83.4136 51.834 83.4136 51.8717 83.4041 51.9095C83.4041 51.9472 83.3758 51.9755 83.3381 51.9944C83.3098 52.0133 83.2721 52.0227 83.2343 52.0133C82.3852 51.8151 81.8003 51.5604 81.423 51.2868C81.1211 51.0698 80.9418 50.834 80.8286 50.6076C80.6211 50.1642 80.706 49.7302 80.8569 49.3811C80.9607 49.1547 81.0928 48.9472 81.2532 48.7679C81.3286 48.4472 81.4041 48.1358 81.4701 47.8528C81.555 47.5037 81.64 47.1735 81.7249 46.8811C82.0456 45.6641 82.2626 44.9471 82.2626 44.9471Z" fill="#263238"/>
<path fill-rule="evenodd" clip-rule="evenodd" d="M84.6966 50.9284C84.6966 50.9284 84.6211 50.9379 84.5928 50.9284C84.5551 50.9096 84.5362 50.8813 84.5173 50.8529C84.5079 50.8152 84.5079 50.7775 84.5173 50.7492C84.5362 50.7114 84.5645 50.6926 84.5928 50.6737C84.8004 50.5699 85.0173 50.485 85.2438 50.419C85.3192 50.4001 85.3947 50.3812 85.4702 50.3718C85.5457 50.3624 85.6211 50.3529 85.706 50.3435C85.8664 50.3435 86.0268 50.3435 86.1777 50.3624C86.4136 50.3907 86.6494 50.4661 86.8664 50.5794C86.8853 50.5794 86.9042 50.5982 86.9136 50.6077C86.923 50.6171 86.9419 50.636 86.9419 50.6548C86.9419 50.6737 86.9513 50.6926 86.9513 50.7114C86.9513 50.7303 86.9513 50.7492 86.9419 50.768C86.9419 50.7869 86.923 50.8058 86.9136 50.8152C86.9042 50.8246 86.8853 50.8435 86.8664 50.8435C86.8476 50.8435 86.8287 50.8529 86.8098 50.8529C86.791 50.8529 86.7721 50.8529 86.7532 50.8435C86.5551 50.7869 86.3475 50.768 86.1494 50.7775C86.0362 50.7775 85.9136 50.7869 85.8004 50.8058C85.7249 50.8058 85.6494 50.8246 85.5645 50.8246C85.4041 50.8435 85.2532 50.8529 85.1211 50.8718C84.857 50.9096 84.6777 50.9379 84.6777 50.9379L84.6966 50.9284Z" fill="#263238"/>
<path fill-rule="evenodd" clip-rule="evenodd" d="M85.423 42.8339C85.423 42.8339 85.423 42.7961 85.4325 42.7773C85.4325 42.7584 85.4513 42.749 85.4608 42.7301C85.4702 42.7206 85.4891 42.7112 85.5079 42.7018C85.5268 42.7018 85.5457 42.7018 85.5646 42.7018C85.5834 42.7018 85.6023 42.7018 85.6212 42.7112C85.64 42.7112 85.6495 42.7301 85.6683 42.749C85.6778 42.7584 85.6872 42.7773 85.6966 42.7961C85.6966 42.815 85.6966 42.8339 85.6966 42.8527C85.6966 42.8527 85.7155 43.1074 85.7815 43.4565C85.8004 43.5792 85.8287 43.7112 85.8664 43.8433C85.8853 43.9282 85.9136 44.0131 85.9325 44.098C85.9702 44.2207 86.008 44.3433 86.0551 44.466C86.1778 44.7867 86.3664 45.0886 86.6872 45.249C86.7061 45.249 86.7249 45.2679 86.7344 45.2773C86.7533 45.2867 86.7627 45.3056 86.7721 45.3245C86.7721 45.3433 86.7816 45.3622 86.7816 45.3811C86.7816 45.3999 86.7816 45.4188 86.7721 45.4377C86.7721 45.4565 86.7533 45.4754 86.7438 45.4848C86.7344 45.4943 86.7155 45.5132 86.6966 45.5132C86.6778 45.5132 86.6589 45.5226 86.64 45.5226C86.6212 45.5226 86.6023 45.5226 86.5834 45.5132C86.1495 45.3716 85.857 45.0414 85.6589 44.6452C85.5929 44.5131 85.5363 44.3716 85.4985 44.2207C85.4702 44.1263 85.4513 44.032 85.4419 43.9282C85.423 43.7867 85.4042 43.6358 85.4042 43.4942C85.4042 43.2773 85.4042 43.0603 85.4419 42.8433L85.423 42.8339Z" fill="#263238"/>
<path fill-rule="evenodd" clip-rule="evenodd" d="M86.0363 42.9093C86.0363 42.9093 86.008 42.8904 85.9891 42.8716C85.9797 42.8621 85.9702 42.8433 85.9608 42.8244C85.9608 42.8055 85.9608 42.7867 85.9608 42.7678C85.9608 42.7489 85.9608 42.73 85.9797 42.7112C85.9797 42.6923 85.9985 42.6829 86.0174 42.6734C86.0363 42.664 86.0457 42.6546 86.0646 42.6451C86.0835 42.6451 86.1023 42.6451 86.1212 42.6451C86.1401 42.6451 86.1589 42.6451 86.1684 42.664C86.1684 42.664 86.6023 42.8716 87.2533 43.1923C87.5741 43.3433 87.942 43.5319 88.3288 43.7301C88.5363 43.8338 88.7533 43.947 88.9703 44.0697C89.1873 44.1829 89.3948 44.2961 89.6024 44.4188C90.2628 44.7867 90.9326 45.1546 91.5081 45.4565C91.5458 45.4754 91.5647 45.5037 91.5836 45.5414C91.593 45.5792 91.593 45.6169 91.5836 45.6546C91.5647 45.6924 91.5364 45.7112 91.4986 45.7301C91.4609 45.7395 91.4232 45.7395 91.3854 45.7301C90.8854 45.5037 90.3099 45.249 89.7345 44.9754C89.376 44.7961 88.9986 44.6169 88.6495 44.4376C88.4703 44.3433 88.291 44.2489 88.1118 44.1546C87.9325 44.0508 87.7533 43.9565 87.5835 43.8621C86.6778 43.3338 86.0269 42.9282 86.0269 42.9282L86.0363 42.9093Z" fill="#263238"/>
<path fill-rule="evenodd" clip-rule="evenodd" d="M65.9887 70.2967C65.9887 70.2967 65.9604 70.3155 65.9415 70.325C65.9227 70.325 65.9038 70.325 65.8849 70.325C65.8661 70.325 65.8472 70.3249 65.8283 70.3061C65.8095 70.3061 65.8 70.2872 65.7906 70.2683C65.7812 70.2495 65.7717 70.24 65.7717 70.2212C65.7717 70.2023 65.7717 70.1834 65.7717 70.1646C65.7717 70.1457 65.7812 70.1268 65.7906 70.1174C65.8 70.0985 65.8189 70.0891 65.8283 70.0797C65.8283 70.0797 66.5453 69.5042 68.4039 69.4948C69.0548 69.4948 69.7152 69.5514 70.3567 69.674C70.9982 69.7872 71.6209 69.9476 72.2435 70.1363C72.3945 70.1646 73.8568 70.4665 75.1493 71.0419C75.8379 71.3438 76.4795 71.7306 76.8757 72.1835C76.8851 72.1929 76.904 72.2118 76.904 72.2306C76.904 72.2495 76.9134 72.2684 76.9134 72.2873C76.9134 72.3061 76.9134 72.325 76.904 72.3439C76.904 72.3627 76.8851 72.3816 76.8663 72.391C76.8474 72.4005 76.838 72.4099 76.8191 72.4193C76.8002 72.4193 76.7814 72.4193 76.7625 72.4193C76.7436 72.4193 76.7248 72.4193 76.7059 72.4005C76.687 72.4005 76.6776 72.3816 76.6587 72.3627C76.2813 71.9571 75.6587 71.6269 75.0077 71.3627C73.6587 70.8155 72.1492 70.5608 72.1492 70.5608H72.1303C71.5171 70.3816 70.9039 70.2306 70.2812 70.1174C69.6586 69.9948 69.0359 69.9193 68.4039 69.891C66.6868 69.8344 65.9981 70.2967 65.9981 70.2967H65.9887Z" fill="#263238"/>
<path fill-rule="evenodd" clip-rule="evenodd" d="M65.385 71.2873C65.385 71.2873 65.4227 71.2213 65.451 71.2024C65.4793 71.1835 65.517 71.1835 65.5548 71.193C65.5925 71.2024 65.6208 71.2213 65.6397 71.259C65.6585 71.2873 65.668 71.325 65.6585 71.3628C65.6585 71.3628 64.7812 74.7025 63.6302 78.8346C63.1868 80.4195 62.7057 82.1271 62.2245 83.797C61.8943 84.9196 61.5736 86.0423 61.2528 87.0989C60.6773 88.9952 60.1301 90.7122 59.6773 92.0141C59.6207 92.2216 58.583 96.0802 57.5452 100.354C57.0924 102.231 56.6395 104.194 56.2716 105.958C56.2716 105.995 56.2433 106.024 56.2055 106.043C56.1772 106.061 56.1395 106.071 56.1018 106.061C56.064 106.061 56.0357 106.033 56.0074 106.005C55.9886 105.977 55.9791 105.939 55.9886 105.901C56.4225 103.684 56.9886 101.165 57.5263 98.8727C58.4226 95.0613 59.2528 91.8914 59.2528 91.8914V91.8726C59.7056 90.5801 60.2339 88.8536 60.8094 86.9574C61.1302 85.9008 61.4604 84.7875 61.8 83.6649C62.3 81.995 62.7906 80.2969 63.2528 78.712C64.451 74.5987 65.3944 71.2779 65.3944 71.2779L65.385 71.2873Z" fill="#263238"/>
<path fill-rule="evenodd" clip-rule="evenodd" d="M76.47 74.5041C76.47 74.5041 76.47 74.4664 76.4889 74.4475C76.4889 74.4287 76.5078 74.4192 76.5266 74.4004C76.5455 74.3909 76.5549 74.3815 76.5738 74.3721C76.5927 74.3721 76.6115 74.3721 76.6304 74.3721C76.6493 74.3721 76.6681 74.3721 76.687 74.3909C76.7059 74.4004 76.7153 74.4098 76.7247 74.4287C76.7342 74.4475 76.7436 74.457 76.7436 74.4758C76.7436 74.4947 76.7436 74.5136 76.7436 74.5324C76.7436 74.5324 75.97 80.8627 74.8474 88.5893C74.4134 91.5893 73.9228 94.8064 73.4039 97.9385C73.0549 100.08 72.6869 102.184 72.319 104.146C71.6115 107.91 70.8945 111.193 70.2435 113.382C70.1963 113.684 69.1774 119.08 66.0076 122.203C64.5076 123.684 62.5264 124.665 59.932 124.373C59.9131 124.373 59.8943 124.373 59.8754 124.354C59.8565 124.354 59.8471 124.335 59.8282 124.316C59.8188 124.307 59.8094 124.288 59.7999 124.269C59.7999 124.25 59.7999 124.231 59.7999 124.213C59.7999 124.194 59.7999 124.175 59.8188 124.156C59.8282 124.137 59.8377 124.128 59.8565 124.109C59.8754 124.099 59.8848 124.09 59.9037 124.08C59.9226 124.08 59.9414 124.08 59.9603 124.08C62.4415 124.345 64.3377 123.392 65.7623 121.958C68.9227 118.788 69.8378 113.288 69.8378 113.288C69.8378 113.288 69.8378 113.269 69.8378 113.26C70.4794 111.09 71.168 107.797 71.8567 104.052C72.2152 102.08 72.5832 99.9857 72.9417 97.8442C73.4605 94.712 73.97 91.5044 74.4228 88.5138C75.6021 80.8061 76.4512 74.4853 76.4512 74.4853L76.47 74.5041Z" fill="#263238"/>
<path fill-rule="evenodd" clip-rule="evenodd" d="M89.0269 67.589C89.0269 67.589 89.0269 67.5512 89.0269 67.5324C89.0269 67.5135 89.0363 67.4946 89.0552 67.4852C89.0646 67.4758 89.0835 67.4569 89.0929 67.4475C89.1118 67.4475 89.1306 67.438 89.1401 67.4286C89.1589 67.4286 89.1778 67.4286 89.1967 67.4286C89.2155 67.4286 89.2344 67.438 89.2438 67.4569C89.2533 67.4663 89.2721 67.4852 89.2816 67.4946C89.2816 67.5135 89.291 67.5324 89.3004 67.5418C89.3004 67.5418 90.3948 77.6269 91.4609 87.7874C91.9703 92.6366 92.4703 97.4951 92.8477 101.288V101.307C92.8477 101.307 92.9609 108.165 94.0741 114.175C94.6873 117.514 95.6024 120.609 96.9987 122.062C97.1308 122.175 99.0365 123.797 101.706 124.816C103.999 125.694 106.857 126.128 109.64 124.76C112.471 123.373 115.225 120.156 117.263 113.741C117.282 113.675 120.518 103.448 122.065 92.4101C122.763 87.4478 123.122 82.3251 122.697 77.8816C122.697 77.8627 122.697 77.8439 122.697 77.825C122.697 77.8061 122.707 77.7873 122.726 77.7778C122.735 77.759 122.754 77.7495 122.773 77.7401C122.792 77.7401 122.81 77.7212 122.829 77.7212C122.848 77.7212 122.867 77.7212 122.886 77.7212C122.905 77.7212 122.924 77.7401 122.933 77.7495C122.952 77.759 122.961 77.7778 122.971 77.7967C122.971 77.8156 122.98 77.8344 122.99 77.8533C123.433 82.3156 123.093 87.4667 122.414 92.4573C120.895 103.571 117.669 113.873 117.669 113.873C115.593 120.458 112.744 123.741 109.848 125.165C106.933 126.599 103.942 126.156 101.555 125.25C98.6968 124.165 96.6968 122.401 96.6968 122.401H96.6874C95.2439 120.892 94.2722 117.712 93.6496 114.25C92.5647 108.326 92.4514 101.58 92.4514 101.316C92.0929 97.5234 91.6024 92.6649 91.1212 87.8157C90.1023 77.6552 89.0646 67.5607 89.0646 67.5607L89.0269 67.589Z" fill="#263238"/>
<path fill-rule="evenodd" clip-rule="evenodd" d="M102.008 64.872C102.008 64.872 101.952 64.8343 101.942 64.7966C101.933 64.7682 101.933 64.7305 101.942 64.6928C101.952 64.6645 101.98 64.6362 102.008 64.6173C102.037 64.5984 102.074 64.5984 102.103 64.6173C102.103 64.6173 104.499 65.5702 108.027 66.089C109.235 66.2683 110.452 66.372 111.678 66.4098C112.471 66.4287 113.282 66.4287 114.122 66.372C114.159 66.372 114.197 66.3721 114.225 66.3909C114.225 66.3909 114.829 66.6645 115.641 67.1173C116.037 67.3438 116.48 67.6079 116.933 67.9098C117.292 67.9098 118.782 68.0702 120.235 69.9193C121.084 71.0042 121.924 72.674 122.509 75.2779C122.509 75.2967 122.509 75.3156 122.509 75.3345C122.509 75.3533 122.499 75.3722 122.49 75.3911C122.48 75.4099 122.471 75.4194 122.452 75.4288C122.433 75.4382 122.424 75.4477 122.405 75.4477C122.386 75.4477 122.367 75.4477 122.348 75.4477C122.329 75.4477 122.31 75.4382 122.292 75.4288C122.273 75.4194 122.263 75.4099 122.254 75.3911C122.244 75.3722 122.235 75.3628 122.235 75.3439C121.622 72.825 120.782 71.2023 119.933 70.1551C118.395 68.2589 116.876 68.3438 116.876 68.3438C116.829 68.3438 116.782 68.3343 116.744 68.306C116.282 67.9947 115.82 67.7306 115.414 67.5041C114.754 67.1457 114.244 66.9004 114.084 66.8249C113.254 66.8721 112.442 66.8815 111.659 66.8532C110.423 66.806 109.188 66.6834 107.961 66.4758C104.395 65.8909 101.989 64.8532 101.989 64.8532L102.008 64.872Z" fill="#263238"/>
<path fill-rule="evenodd" clip-rule="evenodd" d="M65.0736 65.4948C65.0736 65.4948 65.1114 65.4948 65.1302 65.4948C65.1491 65.4948 65.168 65.5042 65.1774 65.5136C65.1963 65.5231 65.2057 65.5419 65.2152 65.5514C65.2246 65.5702 65.234 65.5891 65.234 65.5985C65.234 65.6174 65.234 65.6363 65.234 65.6551C65.234 65.674 65.2246 65.6929 65.2057 65.7023C65.1963 65.7212 65.1774 65.7306 65.168 65.74C65.1491 65.74 65.1303 65.7589 65.1114 65.7589L56.4697 67.325C56.2433 67.5137 54.8282 68.6929 53.4791 70.6647C52.7149 71.7779 51.9696 73.1364 51.4696 74.7119C51.4696 74.7213 51.4696 74.7308 51.4602 74.7402C51.4602 74.7402 49.5073 78.7403 48.5639 86.1366C48.1394 89.4197 47.9224 93.3726 48.1488 97.9387C48.479 104.458 49.7243 112.222 52.6678 121.109C52.8565 121.684 53.4414 122.326 54.432 122.854C55.3376 123.345 56.5829 123.741 58.1867 123.939C58.2245 123.939 58.2528 123.967 58.2811 123.996C58.2999 124.024 58.3094 124.062 58.3094 124.1C58.3094 124.137 58.2905 124.175 58.2528 124.194C58.2245 124.222 58.1867 124.232 58.149 124.222C56.498 124.034 55.215 123.618 54.281 123.128C53.1866 122.543 52.564 121.835 52.3564 121.203C49.3564 112.297 48.0545 104.495 47.7054 97.9576C47.4601 93.3632 47.6771 89.382 48.1111 86.08C49.0451 78.844 50.9602 74.8345 51.0923 74.5798C51.6206 72.976 52.3847 71.5892 53.1772 70.4571C54.7055 68.2684 56.2999 67.0325 56.2999 67.0325C56.3188 67.0136 56.3471 67.0042 56.3754 66.9948L65.0736 65.4948Z" fill="#263238"/>
<path fill-rule="evenodd" clip-rule="evenodd" d="M89.9137 67.306C89.9137 67.306 89.8854 67.3343 89.8665 67.3343C89.8476 67.3343 89.8288 67.3437 89.8099 67.3437C89.791 67.3437 89.7722 67.3438 89.7533 67.3343C89.7344 67.3343 89.725 67.3155 89.7061 67.306C89.6873 67.2966 89.6873 67.2777 89.6778 67.2588C89.6778 67.24 89.6684 67.2211 89.6684 67.2022C89.6684 67.1834 89.6684 67.1645 89.6778 67.1456C89.6778 67.1268 89.6967 67.1173 89.7061 67.0985C89.7061 67.0985 90.3948 66.4098 92.2816 65.8249C93.3005 65.5135 94.6685 65.2305 96.4704 65.0984C96.5459 65.089 97.1874 65.023 98.6119 65.589C99.3384 65.8815 100.282 66.3437 101.461 67.0702C101.499 67.0985 101.527 67.1268 101.546 67.1739L102.461 69.7683C102.461 69.7683 102.461 69.7872 102.471 69.8061C102.471 69.8061 103.103 73.5231 103.971 78.9949C104.404 81.7119 104.886 84.8535 105.395 88.1932C106.301 94.1838 107.254 100.797 108.018 106.627C108.018 106.665 108.018 106.703 107.989 106.731C107.971 106.76 107.933 106.778 107.895 106.788C107.857 106.788 107.82 106.788 107.791 106.76C107.763 106.731 107.744 106.703 107.735 106.665C107.084 102.014 106.31 96.8726 105.546 91.9385C104.801 87.0988 104.055 82.4667 103.461 78.7024C102.659 73.6457 102.103 70.1646 102.055 69.9004L101.187 67.3815C100.065 66.6834 99.1686 66.2305 98.4704 65.9475C97.0836 65.3815 96.5176 65.4569 96.5176 65.4569C96.5176 65.4569 96.5081 65.4569 96.4987 65.4569C94.7251 65.5607 93.3666 65.8249 92.3666 66.1268C90.5646 66.6645 89.8948 67.306 89.8948 67.306H89.9137Z" fill="#263238"/>
<path fill-rule="evenodd" clip-rule="evenodd" d="M84.5456 18.4468C84.5456 18.4468 84.5739 18.4656 84.5834 18.4845C84.5928 18.5034 84.6022 18.5128 84.6117 18.5317C84.6117 18.5505 84.6117 18.5694 84.6117 18.5883C84.6117 18.6072 84.6117 18.626 84.5928 18.6449C84.5928 18.6638 84.5739 18.6732 84.5551 18.6826C84.5362 18.6921 84.5268 18.7015 84.5079 18.7015C84.489 18.7015 84.4702 18.7015 84.4513 18.7015C84.4324 18.7015 84.4135 18.6921 84.4041 18.6826C84.4041 18.6826 83.0267 17.8902 81.0361 18.7109C79.8852 19.1826 78.5267 20.2015 77.1115 22.1921C77.1115 22.1921 77.1021 22.211 77.0927 22.211C77.0927 22.211 75.7813 23.5978 74.2058 26.1073C73.3473 27.4847 72.5737 28.9092 71.9039 30.3809C70.7246 32.9659 69.6491 36.098 69.1303 39.6736C69.1303 39.6736 68.668 42.8434 68.2152 46.1925C68.017 47.6926 67.8095 49.2398 67.6585 50.5417C67.6585 50.5605 67.6585 50.5794 67.6397 50.5983C67.6208 50.6171 67.6208 50.6266 67.6019 50.6454C67.5831 50.6549 67.5736 50.6643 67.5548 50.6737C67.5359 50.6737 67.517 50.6737 67.4982 50.6737C67.4793 50.6737 67.4604 50.6737 67.4416 50.6549C67.4227 50.6454 67.4133 50.636 67.3944 50.6171C67.385 50.5983 67.3755 50.5888 67.3661 50.57C67.3661 50.5511 67.3661 50.5322 67.3661 50.5134C67.5076 49.202 67.6868 47.6548 67.8755 46.1454C68.2906 42.7868 68.7246 39.6075 68.7246 39.6075C69.1869 36.3527 70.1114 33.1734 71.4794 30.1828C72.1586 28.6922 72.9511 27.2394 73.8285 25.862C75.3757 23.4374 76.6776 22.06 76.7908 21.9374C78.2908 19.8996 79.7059 18.8713 80.9041 18.3996C83.0645 17.5411 84.5362 18.4373 84.5362 18.4373L84.5456 18.4468Z" fill="#263238"/>
<path fill-rule="evenodd" clip-rule="evenodd" d="M105.178 41.815C105.178 41.815 105.178 41.7396 105.206 41.7113C105.225 41.683 105.263 41.6641 105.301 41.6547C105.338 41.6547 105.376 41.6547 105.405 41.683C105.433 41.7018 105.452 41.7396 105.461 41.7773C105.838 44.0792 106.159 46.2396 106.386 48.5227C106.461 49.2586 106.518 50.0133 106.565 50.7869C106.612 51.5228 106.65 52.2775 106.669 53.0605C106.706 54.4756 106.716 55.9757 106.678 57.6078C106.631 59.6455 106.527 61.8814 106.348 64.4098C106.348 64.4475 106.329 64.4852 106.301 64.5041C106.272 64.523 106.235 64.5419 106.197 64.5419C106.159 64.5419 106.122 64.523 106.103 64.4947C106.074 64.4664 106.065 64.4286 106.065 64.3909C106.188 61.872 106.254 59.6361 106.263 57.5983C106.272 55.9757 106.254 54.4851 106.206 53.0794C106.178 52.3058 106.14 51.5511 106.103 50.8246C106.055 50.051 106.008 49.3057 105.952 48.5699C105.772 46.2868 105.508 44.117 105.188 41.8245L105.178 41.815Z" fill="#263238"/>
<path fill-rule="evenodd" clip-rule="evenodd" d="M77.2814 69.9571C77.2814 69.9571 77.2625 69.9194 77.2625 69.9005C77.2625 69.8816 77.2625 69.8628 77.2625 69.8439C77.2625 69.825 77.2719 69.8062 77.2908 69.7967C77.3002 69.7873 77.3191 69.7684 77.338 69.759C77.3569 69.759 77.3757 69.7495 77.3946 69.7401C77.4135 69.7401 77.4323 69.7401 77.4512 69.7401C77.4701 69.7401 77.4889 69.759 77.4984 69.7684C77.5078 69.7778 77.5267 69.7967 77.5361 69.8156C77.5361 69.8156 78.0927 70.7967 80.055 71.5137C80.7909 71.7779 81.555 71.9666 82.3381 72.0798C83.1211 72.2024 83.9041 72.2779 84.6872 72.2968C85.4985 72.259 86.3098 72.1836 87.1117 72.0515C87.9231 71.9288 88.7155 71.7496 89.4986 71.5043C89.5363 71.4949 89.574 71.5043 89.6023 71.5043C89.6401 71.5232 89.659 71.5515 89.6684 71.5892C89.6778 71.6269 89.6778 71.6647 89.6684 71.693C89.6495 71.7307 89.6212 71.7496 89.5929 71.7685C88.8099 72.042 87.9985 72.259 87.1778 72.41C86.357 72.5704 85.5362 72.6741 84.6966 72.7307H84.6872C83.8758 72.7213 83.0645 72.6553 82.2626 72.5326C81.4607 72.41 80.6682 72.193 79.9041 71.8911C77.8286 71.0515 77.2908 69.9382 77.2908 69.9382L77.2814 69.9571Z" fill="#263238"/>
<path fill-rule="evenodd" clip-rule="evenodd" d="M60.149 125.307C60.149 125.307 60.1679 125.241 60.1962 125.213C60.2245 125.194 60.2622 125.175 60.2905 125.184C60.3283 125.184 60.3566 125.203 60.3849 125.232C60.4132 125.26 60.4226 125.298 60.4226 125.326C60.4226 125.326 60.1679 128.496 59.9415 132.505C59.8094 134.779 59.6962 137.317 59.6301 139.694C59.6301 139.694 59.6301 139.713 59.6301 139.722C59.6301 139.722 57.9037 149.798 62.4038 156.562C64.2906 159.402 67.2906 161.647 71.9794 162.308C71.9794 162.308 79.3852 163.393 88.4986 163.081C93.7345 162.902 99.5365 162.27 104.82 160.704C112.235 158.496 118.631 154.449 120.952 147.204C121.263 146.213 121.112 145.534 120.707 144.656C119.914 142.949 118.225 140.553 117.046 134.184C116.424 130.835 115.952 126.382 115.839 120.354C115.839 120.335 115.839 120.316 115.839 120.297C115.839 120.279 115.858 120.26 115.867 120.25C115.876 120.241 115.895 120.222 115.914 120.213C115.933 120.213 115.952 120.203 115.971 120.203C115.99 120.203 116.008 120.203 116.027 120.213C116.046 120.213 116.065 120.231 116.074 120.241C116.084 120.25 116.103 120.269 116.103 120.288C116.103 120.307 116.112 120.326 116.103 120.345C116.244 126.354 116.725 130.788 117.358 134.118C118.546 140.43 120.235 142.798 121.027 144.496C121.48 145.468 121.641 146.222 121.292 147.317C118.952 154.704 112.471 158.864 104.933 161.119C99.6214 162.713 93.7722 163.364 88.4986 163.543C79.3758 163.855 71.9511 162.76 71.8945 162.751C67.0548 162.053 63.9793 159.723 62.0358 156.798C57.5735 150.043 59.1962 140.071 59.2622 139.685C59.3377 137.307 59.4698 134.769 59.6018 132.496C59.8471 128.486 60.1113 125.307 60.1113 125.307H60.149Z" fill="#263238"/>
<path fill-rule="evenodd" clip-rule="evenodd" d="M79.9418 55.3247C79.9418 55.3247 79.9041 55.3342 79.8946 55.3436C79.8758 55.3436 79.8569 55.3436 79.838 55.3436C79.8192 55.3436 79.8097 55.3247 79.7909 55.3153C79.7814 55.3059 79.7626 55.287 79.7531 55.2775C79.7531 55.2587 79.7437 55.2398 79.7343 55.2304C79.7343 55.2115 79.7343 55.1926 79.7343 55.1738C79.7343 55.1549 79.7531 55.1455 79.7626 55.1266C79.772 55.1172 79.7909 55.0983 79.8003 55.0983C79.8003 55.0983 80.5645 54.6832 81.8003 54.4757C82.489 54.3719 83.1966 54.3436 83.8947 54.419H83.9136C83.9136 54.419 84.1777 54.4662 84.7155 54.4002C85.14 54.3436 85.5551 54.2492 85.9608 54.1172C86.0457 54.0889 86.6872 53.8719 87.7533 53.919C88.3476 53.9473 88.9325 54.0417 89.508 54.2021C89.5457 54.2115 89.574 54.2398 89.5929 54.2681C89.6118 54.2964 89.6118 54.3341 89.6118 54.3719C89.6118 54.4096 89.5835 54.4379 89.5552 54.4568C89.5269 54.4757 89.4891 54.4851 89.4514 54.4757C88.8948 54.353 88.3287 54.2775 87.7627 54.2775C86.7155 54.2775 86.1306 54.5134 86.1306 54.5134H86.1212C85.6872 54.6643 85.2532 54.7775 84.8004 54.8436C84.2155 54.9285 83.9041 54.8719 83.8475 54.8624C83.1966 54.7775 82.5268 54.7775 81.8758 54.8624C80.6965 54.9945 79.9512 55.3342 79.9512 55.3342L79.9418 55.3247Z" fill="#263238"/>
<path fill-rule="evenodd" clip-rule="evenodd" d="M76.8568 69.589C76.8568 69.589 76.7814 69.5796 76.7625 69.5513C76.7436 69.523 76.7248 69.4947 76.7153 69.457C76.7153 69.4192 76.7248 69.3815 76.7531 69.3626C76.7814 69.3343 76.8097 69.3154 76.8474 69.3154C76.8474 69.3154 77.5267 69.24 78.2248 68.6079C78.5456 68.3154 78.8569 67.9003 79.121 67.3154C79.2531 67.023 79.3663 66.7211 79.4512 66.4097C79.5361 66.0984 79.6116 65.7776 79.6588 65.4569C79.7909 64.6456 79.838 63.6738 79.7626 62.4946C79.7626 62.4568 79.772 62.4191 79.8003 62.3908C79.8286 62.3625 79.8569 62.3436 79.8946 62.3436C79.9324 62.3436 79.9701 62.3436 79.9984 62.3719C80.0267 62.3908 80.0456 62.4285 80.055 62.4663C80.1965 63.6738 80.1965 64.6833 80.0928 65.5229C80.055 65.8626 79.989 66.2022 79.9041 66.5418C79.8192 66.8814 79.6965 67.2116 79.555 67.523C79.2437 68.1645 78.8663 68.6079 78.4984 68.9192C77.6776 69.5985 76.8851 69.6079 76.8851 69.6079L76.8568 69.589Z" fill="#263238"/>
<path fill-rule="evenodd" clip-rule="evenodd" d="M62.1962 66.2399C62.1962 66.2399 62.1396 66.2777 62.1019 66.2777C62.0642 66.2777 62.0359 66.2682 62.0076 66.2399C61.9793 66.2211 61.9604 66.1833 61.9604 66.1456C61.9604 66.1079 61.9604 66.0796 61.9887 66.0513C61.9887 66.0513 62.2906 65.655 62.6962 65.0418C62.8283 64.8343 62.9793 64.5984 63.1397 64.3437C63.234 64.1927 63.3283 64.0323 63.4227 63.872C63.5548 63.6455 63.6963 63.4097 63.8283 63.1644C64.1868 62.504 64.5076 61.787 64.6585 61.07C64.6585 61.0323 64.6868 61.004 64.7152 60.9757C64.7435 60.9568 64.7812 60.9474 64.8189 60.9568C64.8567 60.9568 64.885 60.9851 64.9133 61.0134C64.9321 61.0417 64.9416 61.0795 64.9321 61.1172C64.8378 61.7021 64.6774 62.2776 64.451 62.8153C64.3001 63.1738 64.1302 63.5323 63.9416 63.872C63.8472 64.0512 63.7434 64.2116 63.6397 64.372C63.5265 64.5418 63.4227 64.7022 63.3095 64.8531C62.9698 65.3248 62.5925 65.7777 62.1962 66.2116V66.2399Z" fill="#263238"/>
<path fill-rule="evenodd" clip-rule="evenodd" d="M94.5835 34.8526C94.5835 34.8526 94.5647 34.8243 94.5552 34.8055C94.5552 34.7866 94.5552 34.7677 94.5552 34.7489C94.5552 34.73 94.5552 34.7111 94.5741 34.6923C94.5741 34.6734 94.593 34.664 94.6118 34.6545C94.6307 34.6451 94.6401 34.6357 94.659 34.6262C94.6779 34.6262 94.6967 34.6262 94.7156 34.6262C94.7345 34.6262 94.7533 34.6262 94.7722 34.6451C94.7911 34.664 94.8005 34.664 94.81 34.6828C95.6779 35.7772 96.4421 36.947 97.0836 38.1923C97.4043 38.815 97.6874 39.4565 97.9327 40.1169C98.1779 40.7773 98.3478 41.466 98.461 42.1641C98.461 42.183 98.461 42.2113 98.461 42.2301C98.461 42.2301 98.3478 42.9566 99.027 43.249C99.3289 43.3811 99.7817 43.4377 100.433 43.3339C100.386 43.3339 100.338 43.3717 100.301 43.4094C100.272 43.4471 100.253 43.5037 100.253 43.5509C100.253 43.5981 100.282 43.6547 100.319 43.683C100.357 43.7207 100.404 43.7396 100.461 43.7396L100.433 43.3339C100.489 43.2962 100.536 43.249 100.574 43.1924C100.706 42.9943 100.867 42.5981 100.989 41.8433C101.093 41.2018 101.159 40.3056 101.169 39.0603C101.169 39.0225 101.187 38.9942 101.216 38.9659C101.244 38.9376 101.282 38.9282 101.31 38.9282C101.348 38.9282 101.386 38.9376 101.404 38.9659C101.433 38.9942 101.442 39.0225 101.452 39.0603C101.489 40.6641 101.395 41.7018 101.272 42.3716C101.15 43.0132 100.98 43.3339 100.848 43.5037C100.678 43.7207 100.527 43.7396 100.48 43.7396C99.4798 43.9094 98.8949 43.7396 98.5459 43.466C97.9798 43.0415 97.9987 42.3622 98.0176 42.1924C97.9138 41.532 97.744 40.881 97.5176 40.2584C97.2911 39.6169 97.027 38.9848 96.7251 38.3716C96.1213 37.1357 95.4137 35.9564 94.6024 34.8526H94.5835Z" fill="#263238"/>
<path fill-rule="evenodd" clip-rule="evenodd" d="M102.404 38.3999C102.404 38.3999 102.329 38.3999 102.301 38.3716C102.272 38.3528 102.253 38.315 102.253 38.2773C102.253 38.2395 102.253 38.2018 102.282 38.1735C102.301 38.1452 102.338 38.1263 102.376 38.1169C102.376 38.1169 104.159 37.8716 104.527 39.7301C104.631 40.249 104.621 40.9377 104.414 41.8434C104.254 42.5226 104.037 43.183 103.772 43.8245C103.669 44.0793 103.48 44.768 103.178 45.5793C102.876 46.3906 102.452 47.3246 101.876 48.1076C101.206 49.0227 100.338 49.7209 99.2251 49.7869C99.2063 49.7869 99.1874 49.7869 99.1685 49.7869C99.1497 49.7869 99.1308 49.768 99.1214 49.7586C99.1025 49.7492 99.0931 49.7303 99.0836 49.7114C99.0742 49.6926 99.0742 49.6737 99.0648 49.6548C99.0648 49.636 99.0648 49.6171 99.0648 49.5982C99.0648 49.5794 99.0836 49.5605 99.0931 49.5511C99.1025 49.5322 99.1214 49.5228 99.1402 49.5133C99.1591 49.5133 99.178 49.5039 99.1968 49.5039C100.206 49.4095 100.97 48.7397 101.565 47.8907C102.093 47.1265 102.47 46.2208 102.754 45.4283C103.046 44.6076 103.225 43.9189 103.338 43.6547C103.603 43.0321 103.81 42.4 103.98 41.749C104.187 40.9094 104.225 40.2867 104.15 39.8056C103.895 38.249 102.404 38.3999 102.404 38.3999Z" fill="#263238"/>
<path fill-rule="evenodd" clip-rule="evenodd" d="M103.961 40.1829C103.961 40.1829 103.961 40.2489 103.942 40.2772C103.923 40.3055 103.895 40.3244 103.867 40.3433C103.838 40.3527 103.801 40.3527 103.772 40.3433C103.744 40.3338 103.716 40.3055 103.706 40.2772C103.631 40.0791 103.518 39.8999 103.376 39.7395C103.263 39.6074 103.121 39.5036 102.933 39.5225C102.82 39.5414 102.706 39.6074 102.574 39.7301C102.404 39.8999 102.263 40.0886 102.15 40.2961C102.131 40.4093 102.084 40.7584 102.065 41.3339C102.055 41.6358 102.046 42.0037 102.055 42.4282C102.074 43.1641 102.131 43.8905 102.235 44.6169C102.235 44.6547 102.235 44.6924 102.216 44.7207C102.197 44.749 102.159 44.7773 102.121 44.7773C102.084 44.7773 102.046 44.7773 102.018 44.7584C101.989 44.7396 101.961 44.7018 101.961 44.6641C101.81 43.9282 101.706 43.1924 101.65 42.4471C101.621 42.0131 101.612 41.6358 101.621 41.3244C101.64 40.5886 101.725 40.1829 101.725 40.1829C101.725 40.1546 101.744 40.1263 101.753 40.1074C102.206 39.3999 102.603 39.164 102.904 39.1357C103.216 39.1168 103.461 39.2867 103.64 39.5131C103.782 39.7112 103.895 39.9376 103.97 40.1735L103.961 40.1829Z" fill="#263238"/>
<path fill-rule="evenodd" clip-rule="evenodd" d="M98.6025 44.0414C98.6025 44.0414 98.6025 44.0037 98.6025 43.9848C98.6025 43.966 98.6214 43.9471 98.6308 43.9377C98.6402 43.9282 98.6591 43.9094 98.678 43.8999C98.6969 43.8999 98.7157 43.8905 98.7346 43.8905C98.7535 43.8905 98.7723 43.8905 98.7912 43.8905C98.8101 43.8905 98.8289 43.9094 98.8384 43.9188C98.8478 43.9282 98.8667 43.9471 98.8667 43.966C98.8667 43.9848 98.8761 44.0037 98.8761 44.0226C98.8761 44.0226 98.9516 44.8622 98.9893 46.0037C98.9893 46.2113 98.9987 46.4377 98.9987 46.6641C98.9987 46.8811 98.9987 47.0981 98.9987 47.3245C98.9893 47.7585 98.961 48.2113 98.9233 48.6453C98.8761 49.3057 98.7912 49.9661 98.6685 50.617C98.6685 50.6359 98.6591 50.6548 98.6497 50.6736C98.6402 50.6925 98.6308 50.7019 98.6119 50.7114C98.5931 50.7208 98.5836 50.7302 98.5648 50.7302C98.5459 50.7302 98.527 50.7302 98.5082 50.7302C98.4893 50.7302 98.4704 50.7208 98.4516 50.7114C98.4327 50.7019 98.4233 50.6925 98.4138 50.6736C98.4044 50.6548 98.395 50.6453 98.395 50.6265C98.395 50.6076 98.395 50.5887 98.395 50.5699C98.4704 50.0038 98.5082 49.3246 98.527 48.617C98.5365 48.2585 98.5365 47.8811 98.5459 47.5226C98.5459 47.2774 98.5459 47.0321 98.5553 46.7868C98.5553 46.4 98.5742 46.0226 98.5742 45.683C98.5931 44.7113 98.6025 44.032 98.6025 44.032V44.0414Z" fill="#263238"/>
<path fill-rule="evenodd" clip-rule="evenodd" d="M85.2626 41.9943C85.2626 41.9943 85.1966 41.9754 85.1589 41.9566C85.1211 41.9377 85.1023 41.9094 85.0834 41.8811C85.0645 41.8528 85.0457 41.815 85.0457 41.7867C85.0457 41.749 85.0457 41.7113 85.0457 41.683C85.0457 41.6452 85.0645 41.6169 85.0834 41.5792C85.1023 41.5509 85.1306 41.5226 85.1589 41.5037C85.1872 41.4848 85.2249 41.466 85.2532 41.466C85.2909 41.466 85.3287 41.466 85.357 41.466C85.357 41.466 86.0174 41.5226 87.1966 41.3622C87.6683 41.2962 88.225 41.2018 88.857 41.0603C89.1967 40.9848 89.5646 40.9188 89.9514 40.815C90.0835 40.7679 90.4891 40.6452 91.2627 40.6263C91.8948 40.6075 92.5363 40.6452 93.159 40.7301C93.2345 40.7301 93.3005 40.7679 93.3571 40.8245C93.4043 40.8811 93.4326 40.9565 93.4232 41.032C93.4232 41.1075 93.3854 41.1735 93.3288 41.2301C93.2722 41.2773 93.1967 41.3056 93.1213 41.2962C92.5175 41.2867 91.9231 41.315 91.3288 41.3905C90.5741 41.4848 90.2627 41.6358 90.2627 41.6358C90.2439 41.6358 90.225 41.6547 90.2061 41.6547C89.7816 41.7867 89.3854 41.9 89.008 41.9754C88.6023 42.0603 88.1872 42.1169 87.7721 42.1452C86.1589 42.2679 85.2626 42.0037 85.2626 42.0037V41.9943Z" fill="#263238"/>
<path fill-rule="evenodd" clip-rule="evenodd" d="M80.8852 42.0038C80.9513 41.9755 81.0267 41.9849 81.0928 42.0132C81.1588 42.0415 81.206 42.0981 81.2343 42.1736C81.2626 42.2396 81.2532 42.3151 81.2248 42.3811C81.1965 42.4472 81.1399 42.4943 81.0645 42.5226C81.0645 42.5226 80.7814 42.7019 79.2059 42.5415C78.8474 42.5038 78.4229 42.4566 77.9135 42.3528C77.5455 42.2774 77.1304 42.1641 76.6682 42.0509C76.338 42.0226 75.9983 42.0226 75.6681 42.0509C75.3096 42.0698 74.9512 42.1264 74.6021 42.2019C74.5266 42.2208 74.4511 42.2208 74.3851 42.183C74.3191 42.1453 74.2719 42.0887 74.2436 42.0132C74.2247 41.9377 74.2247 41.8623 74.2625 41.7962C74.3002 41.7302 74.3568 41.683 74.4323 41.6547C74.8002 41.5132 75.1776 41.4094 75.5644 41.3339C75.9606 41.249 76.3663 41.2113 76.7719 41.2113C76.7908 41.2113 76.8097 41.2113 76.8285 41.2113C77.1304 41.2679 77.404 41.3151 77.6682 41.3622C77.9701 41.4189 78.2531 41.4755 78.4984 41.5321C78.8097 41.5981 79.0833 41.6641 79.3192 41.7207C79.6588 41.7962 79.9229 41.8528 80.1399 41.9C80.7343 42.0132 80.8663 42.0038 80.8663 42.0038H80.8852Z" fill="#263238"/>
<path fill-rule="evenodd" clip-rule="evenodd" d="M75.2908 44.7962C75.2908 44.7962 75.2247 44.7585 75.2153 44.7302C75.1964 44.7019 75.1964 44.6641 75.2058 44.6264C75.2058 44.5887 75.2341 44.5604 75.2625 44.5415C75.2908 44.5226 75.3285 44.5132 75.3662 44.5226C75.3662 44.5226 75.8568 44.6075 76.6493 44.5226C76.7813 44.5038 76.9229 44.4849 77.0738 44.466C77.2059 44.4472 77.3474 44.4189 77.4983 44.3905C77.7625 44.3434 78.0455 44.2773 78.338 44.183C78.7625 44.0604 79.1682 43.9 79.5644 43.7113C79.6021 43.6924 79.6399 43.6924 79.6682 43.7113C79.7059 43.7207 79.7342 43.749 79.7531 43.7773C79.772 43.8056 79.772 43.8528 79.7625 43.8811C79.7531 43.9188 79.7248 43.9471 79.6965 43.966C79.3097 44.2019 78.8946 44.4094 78.47 44.5698C78.187 44.683 77.8851 44.7679 77.5927 44.834C77.4417 44.8717 77.2814 44.8906 77.1398 44.9094C76.9795 44.9283 76.8191 44.9377 76.6776 44.9472C75.8191 44.966 75.2908 44.7962 75.2908 44.7962Z" fill="#263238"/>
<path fill-rule="evenodd" clip-rule="evenodd" d="M89.0268 44.4943C89.0268 44.4943 88.9891 44.4943 88.9797 44.4755C88.9608 44.4755 88.9514 44.4566 88.9419 44.4377C88.9325 44.4283 88.9231 44.4094 88.9136 44.3905C88.9136 44.3717 88.9136 44.3528 88.9136 44.3339C88.9136 44.3151 88.9136 44.2962 88.9325 44.2868C88.9325 44.2679 88.9514 44.2585 88.9702 44.249C88.9797 44.2396 88.9985 44.2302 89.0174 44.2207C89.0363 44.2207 89.0552 44.2207 89.074 44.2207C89.074 44.2207 89.3665 44.2207 89.8476 44.183C89.9986 44.1736 90.1684 44.1547 90.3571 44.1453C90.4703 44.1358 90.5835 44.1264 90.6967 44.117C90.8571 44.1075 91.0269 44.0887 91.2061 44.0698C91.6778 44.032 92.159 43.966 92.6212 43.8811C92.6401 43.8811 92.659 43.8811 92.6779 43.8811C92.6967 43.8811 92.7156 43.8811 92.7345 43.9C92.7533 43.9094 92.7628 43.9188 92.7816 43.9377C92.7911 43.9566 92.8005 43.966 92.8099 43.9849C92.8099 44.0037 92.8099 44.0226 92.8099 44.0415C92.8099 44.0604 92.8005 44.0792 92.7911 44.0981C92.7816 44.117 92.7722 44.1264 92.7533 44.1358C92.7345 44.1453 92.7156 44.1547 92.6967 44.1547C92.3477 44.2679 91.9892 44.3622 91.6212 44.4377C91.3665 44.4849 91.1212 44.5321 90.8948 44.5509C90.7722 44.5604 90.6401 44.5698 90.5269 44.5792C90.3948 44.5792 90.2721 44.5792 90.1589 44.5792C89.791 44.5792 89.4136 44.5415 89.0457 44.4849L89.0268 44.4943Z" fill="#263238"/>
<path d="M7.10089 136.732H171.849" stroke="black" stroke-width="0.5" stroke-linecap="round"/>
<path d="M61.9604 66.1551C61.9604 66.1551 64.0831 63.5418 64.9321 61.1361L66.602 65.155C66.602 65.155 65.7057 65.6362 61.9604 66.1551Z" fill="#263238"/>
<path d="M77.121 59.5605L76.7625 69.5513C76.7625 69.5513 80.2437 69.1456 80.0362 62.4568L77.121 59.5605Z" fill="#263238"/>
<path d="M104.405 41.8528L103.169 45.5887C103.169 45.5887 101.688 48.9095 101.197 48.8812C100.706 48.8529 99.5271 49.9945 98.6969 49.7963L98.6686 50.6171L100.621 52.919L100.923 55.7493L101.801 57.9946L100.744 63.24C100.744 63.24 99.8667 64.7589 103.395 65.1551L106.103 65.957L106.301 63.1079L106.423 54.0983L105.942 45.7963C105.942 45.7963 105.989 26.4752 98.6969 19.9373C98.6969 19.9373 92.876 16.1259 87.725 18.0316C87.725 18.0316 86.1023 18.7298 85.357 18.626L84.6117 18.5222C84.6117 18.5222 82.6117 17.409 80.9136 18.3996C79.2154 19.3902 74.9229 23.5317 72.7247 28.6922C70.5266 33.8527 70.2341 31.2583 69.3756 37.5697C68.5171 43.8811 67.2152 53.1738 67.2152 53.1738C67.2152 53.1738 69.3001 50.9662 69.3756 50.6171C69.4511 50.268 69.8568 49.9001 70.3285 50.6926L70.8002 51.485L70.6775 52.7398L71.5172 51.9851L71.536 49.768C71.536 49.768 72.4606 49.0793 73.8191 49.0416C73.8191 49.0416 71.5832 43.617 74.5361 34.098C74.5361 34.098 75.4795 32.1168 79.0928 32.7677C82.706 33.4187 84.14 33.4093 85.7344 33.4093C87.3288 33.4093 89.4609 32.9093 91.3005 33.3621C93.1402 33.8149 94.2534 33.947 94.8006 34.6734C95.3478 35.3999 97.7818 38.5886 97.5365 39.1358C97.2912 39.683 98.0082 41.4849 98.0082 41.4849L98.2912 42.6358C98.2912 42.6358 98.2535 43.7679 99.2535 43.6547C100.254 43.5415 100.801 43.5981 100.876 43.1547C100.952 42.7113 101.31 38.9282 101.31 38.9282C101.31 38.9282 101.971 37.6452 102.98 38.1358C103.989 38.6263 103.942 38.2112 104.263 39.2018C104.584 40.1924 104.518 41.4849 104.414 41.8339L104.405 41.8528Z" fill="#263238"/>
</g>
</g>
</svg>
