<svg width="17" height="24" viewBox="0 0 17 24" fill="none" xmlns="http://www.w3.org/2000/svg">
<path d="M13.0472 11.1477C12.4209 11.2624 11.9057 11.1008 11.5032 10.6375C11.0872 10.1589 11.0258 9.51043 11.3137 8.92974C11.3548 8.84947 11.3645 8.75669 11.3407 8.66965C10.7885 7.35926 11.6052 6.08681 13.031 6.04526C13.0527 6.04526 13.0752 6.03985 13.1294 6.03443V5.82129C13.1294 5.27221 13.1294 4.72403 13.1294 4.17495C13.1294 3.56446 12.6908 3.11381 12.1105 3.11291C11.5302 3.11201 11.0998 3.55092 11.0899 4.16954C11.0899 4.38718 11.0899 4.60573 11.0899 4.82338C11.0899 5.0943 10.9653 5.2388 10.7514 5.24151C10.5376 5.24422 10.4148 5.10243 10.413 4.8306C10.413 4.28874 10.4221 3.74688 10.413 3.20503C10.3959 2.45907 9.72808 1.98043 9.04404 2.21163C8.63433 2.3498 8.38075 2.70472 8.36631 3.17794C8.35728 3.47145 8.36631 3.76405 8.36631 4.05755C8.36631 4.32848 8.23997 4.47116 8.02699 4.46846C7.81402 4.46575 7.69129 4.31854 7.68948 4.04942C7.68948 3.50124 7.6958 2.95216 7.68407 2.40399C7.67428 2.13927 7.56174 1.88881 7.37036 1.7058C7.17898 1.52279 6.92385 1.42166 6.65915 1.42389C6.39445 1.42612 6.14106 1.53155 5.95279 1.71776C5.76452 1.90397 5.65621 2.1563 5.65088 2.42115C5.64366 2.75168 5.65088 3.08221 5.65088 3.41455C5.65088 3.46693 5.65088 3.52021 5.65088 3.57259C5.65065 3.6641 5.61428 3.7518 5.54971 3.81659C5.48514 3.88138 5.39759 3.918 5.30616 3.91847C5.26048 3.91749 5.21547 3.90722 5.17387 3.88831C5.13226 3.8694 5.09493 3.84224 5.06413 3.80847C5.03334 3.77469 5.00972 3.735 4.9947 3.69182C4.97968 3.64864 4.97358 3.60285 4.97677 3.55724C4.97135 2.9341 4.97676 2.31007 4.97135 1.68603C4.96658 1.45518 4.88442 1.23263 4.73804 1.05414C4.59166 0.875654 4.38957 0.751581 4.16424 0.701878C3.93892 0.652174 3.70344 0.679722 3.49564 0.780083C3.28784 0.880444 3.11978 1.0478 3.01848 1.25525C2.94675 1.42691 2.90964 1.61105 2.90928 1.79711C2.89845 2.76703 2.90477 3.73605 2.90477 4.70597C2.90477 4.76557 2.90477 4.82608 2.90477 4.88659C2.89665 5.11326 2.76399 5.26137 2.57087 5.26228C2.37775 5.26318 2.23246 5.11507 2.22975 4.89111C2.22344 4.41698 2.22975 3.94376 2.22975 3.47054V3.19962C1.80263 3.27528 1.41542 3.4981 1.13522 3.82947C0.855025 4.16083 0.699506 4.57986 0.695613 5.01393C0.690199 5.41942 0.695613 5.82671 0.695613 6.2313C0.695613 6.495 0.566565 6.6422 0.350882 6.63769C0.1352 6.63317 0.0169784 6.48867 0.0205881 6.23852C0.0278076 5.70569 0.00254403 5.16836 0.0648121 4.64095C0.183031 3.64755 0.953709 2.82031 1.92473 2.57286C2.01497 2.54848 2.11334 2.52951 2.23155 2.50152V1.80885C2.23155 0.919304 2.75406 0.225727 3.55182 0.0469148C4.39198 -0.141832 5.14101 0.2465 5.53717 1.07554C5.55012 1.09479 5.56428 1.11319 5.57959 1.13063C6.03802 0.791064 6.547 0.64566 7.11373 0.797379C7.68046 0.949099 8.05767 1.3284 8.28689 1.85942C9.24799 1.13694 10.6432 1.44942 11.0745 2.77877C11.3865 2.55354 11.761 2.43164 12.1457 2.43018C12.5829 2.43286 13.002 2.60571 13.3141 2.91215C13.6262 3.2186 13.8069 3.63457 13.8179 4.072C13.8324 5.40225 13.8179 6.73251 13.8179 8.06277C13.8179 8.3057 13.6798 8.45742 13.4777 8.45742C13.2756 8.45742 13.1438 8.30841 13.142 8.06277C13.142 7.62748 13.142 7.19218 13.142 6.76051C12.6222 6.61601 12.0167 7.02151 11.8858 7.58955C11.8135 7.84636 11.8436 8.12121 11.9697 8.35628C12.1502 8.66513 12.1277 8.94058 11.9382 9.24041C11.8526 9.38833 11.8153 9.55929 11.8315 9.72944C11.8476 9.89959 11.9165 10.0604 12.0284 10.1895C12.138 10.3196 12.2832 10.4145 12.4462 10.4627C12.6092 10.5109 12.7827 10.5101 12.9453 10.4605C13.0851 10.4189 13.1619 10.3539 13.1465 10.1895C13.1366 10.032 13.1366 9.87391 13.1465 9.71633C13.1537 9.49959 13.2801 9.36684 13.4732 9.36232C13.5185 9.36008 13.5638 9.36721 13.6063 9.38327C13.6488 9.39933 13.6875 9.42397 13.72 9.45566C13.7525 9.48736 13.7781 9.52542 13.7953 9.56747C13.8125 9.60952 13.8208 9.65467 13.8197 9.70008C13.8576 10.6854 13.7764 11.6526 13.3496 12.562C13.2322 12.813 13.1194 13.0659 12.9976 13.3341C13.0644 13.3567 13.1185 13.3775 13.1781 13.3937C16.389 14.2968 17.8184 18.0221 16.0262 20.8126C15.9937 20.8632 15.9621 20.9147 15.9251 20.9625C15.787 21.1432 15.5984 21.1847 15.436 21.0682C15.2736 20.9517 15.2555 20.7783 15.3611 20.5878C15.5353 20.2563 15.741 19.9357 15.8683 19.5871C16.879 16.8309 14.8061 13.8895 11.866 13.8977C9.62521 13.8977 7.805 15.6135 7.61639 17.8947C7.44222 20.017 9.03682 22.0174 11.1873 22.3587C12.2224 22.5333 13.2852 22.3125 14.1654 21.7401C14.2096 21.7121 14.2556 21.6814 14.298 21.6498C14.4948 21.5351 14.6888 21.5658 14.7953 21.7275C14.9017 21.8891 14.8611 22.0815 14.6716 22.2142C14.0548 22.649 13.3432 22.9301 12.596 23.0343C11.3517 23.2182 10.084 22.9203 9.05159 22.2012C8.01915 21.4822 7.29963 20.3961 7.03973 19.1645C6.41615 16.3432 8.49987 13.4958 11.3714 13.2492C11.6331 13.2276 11.8975 13.2375 12.1592 13.2221C12.2215 13.2221 12.319 13.186 12.3397 13.1418C12.5861 12.5304 12.8225 11.9154 13.0617 11.3013C13.0624 11.2497 13.0575 11.1983 13.0472 11.1477Z" fill="#667580"/>
<path d="M0.679125 9.21687C1.078 8.86196 1.49131 8.6696 1.97863 8.66327C2.3835 8.65562 2.77963 8.78156 3.10584 9.02167C3.43205 9.26177 3.6702 9.60267 3.7835 9.99172C3.79489 10.0559 3.8252 10.1153 3.87055 10.1621C3.9159 10.2089 3.97421 10.2411 4.03799 10.2545C4.45107 10.3801 4.81538 10.6302 5.08121 10.9707C5.2274 11.1513 5.21837 11.3391 5.06767 11.4719C4.91696 11.6046 4.72113 11.5839 4.57223 11.4105C4.34393 11.1381 4.03631 10.9439 3.69236 10.8551C3.38733 10.7738 3.23031 10.5543 3.1509 10.2518C2.92258 9.36588 1.89831 9.04257 1.22961 9.63861C0.868634 9.96011 0.77027 10.3304 0.976927 10.7639C1.12688 11.0827 1.30571 11.3871 1.51117 11.6733C1.93802 12.263 2.38563 12.8383 2.83684 13.4108C3.27248 13.9483 3.58763 14.5732 3.76094 15.2432C3.91283 15.1559 4.03379 15.0234 4.10705 14.8642C4.1803 14.7049 4.2022 14.5268 4.16974 14.3546C4.07949 13.9707 4.17606 13.6809 4.45943 13.4C4.63089 13.2284 4.73016 12.9755 4.83123 12.7443C4.9323 12.5132 5.07669 12.3912 5.28245 12.4526C5.47196 12.5095 5.55318 12.692 5.48821 12.9331C5.39246 13.2984 5.19975 13.6311 4.9305 13.8958C4.88628 13.9347 4.85362 13.985 4.83611 14.0412C4.8186 14.0975 4.81692 14.1574 4.83123 14.2146C4.88998 14.5465 4.84321 14.8885 4.69751 15.1925C4.5518 15.4964 4.31451 15.7469 4.01904 15.9088C3.96968 15.9309 3.9287 15.9683 3.90207 16.0154C3.87544 16.0625 3.86457 16.1169 3.87104 16.1707C3.87645 18.3345 3.87855 20.4986 3.87735 22.663C3.87735 22.9403 3.7465 23.1001 3.53262 23.0947C3.31875 23.0893 3.20052 22.9294 3.19962 22.6431C3.19962 20.5841 3.18969 18.525 3.19962 16.466C3.2194 15.5114 2.90136 14.5806 2.3017 13.838C1.83965 13.2546 1.39927 12.6577 0.942634 12.0679C0.317645 11.2611 -0.014591 10.2656 0.000491803 9.24486C0.000491803 8.81679 0.000491803 8.38783 0.000491803 7.95976C0.000491803 7.70238 0.139468 7.54343 0.346126 7.54795C0.552784 7.55246 0.67461 7.70509 0.676415 7.95073C0.680927 8.35532 0.679125 8.75991 0.679125 9.21687Z" fill="#667580"/>
<path d="M10.6646 19.3447H9.51217C9.13766 19.3447 9.03118 19.2354 9.03027 18.8597C9.03027 18.3937 9.03027 17.9277 9.03027 17.4617C9.03027 17.0878 9.13675 16.9831 9.51668 16.9813H10.6646C10.6646 16.5884 10.6646 16.2218 10.6646 15.856C10.6646 15.4451 10.7629 15.3467 11.1681 15.3467C11.6419 15.3467 12.1157 15.3467 12.5886 15.3467C12.908 15.3467 13.0272 15.4659 13.0299 15.7829C13.0299 16.1721 13.0299 16.5613 13.0299 16.9813H14.1254C14.5766 16.9813 14.6669 17.0653 14.6669 17.5231C14.6669 17.981 14.6669 18.4407 14.6669 18.8985C14.6669 19.2264 14.5469 19.3429 14.2157 19.3447C13.833 19.3447 13.4513 19.3447 13.0362 19.3447C13.0362 19.7267 13.0362 20.0924 13.0362 20.4573C13.0362 20.8817 12.9459 20.9748 12.5209 20.9748C12.0471 20.9748 11.5733 20.9748 11.0996 20.9748C10.7945 20.9748 10.6754 20.8573 10.6718 20.553C10.6619 20.1629 10.6646 19.7718 10.6646 19.3447ZM12.353 20.2893C12.353 19.8576 12.353 19.4458 12.353 19.034C12.353 18.7929 12.4749 18.6791 12.714 18.6728C12.8043 18.6728 12.8945 18.6728 12.9847 18.6728H13.9882V17.6649H13.0786C12.3566 17.6649 12.3566 17.6649 12.3566 16.9343V16.0412H11.3468V17.1502C11.3468 17.5836 11.2665 17.664 10.8342 17.6649H9.72514V18.6728H10.8378C11.2665 18.6728 11.3459 18.754 11.3468 19.1884V20.2947L12.353 20.2893Z" fill="#667580"/>
<path d="M5.55201 8.06848C5.23255 7.97817 4.91128 7.9267 4.6198 7.80207C4.20829 7.62777 4.06119 7.3153 4.11082 6.87459C4.15522 6.50988 4.33627 6.17563 4.61742 5.93934C4.89856 5.70305 5.25884 5.58234 5.62547 5.60161C5.99211 5.62087 6.33778 5.77866 6.59265 6.04311C6.84753 6.30756 6.99262 6.65896 6.99862 7.02631C7.00834 7.19332 6.96386 7.35899 6.87181 7.49863C6.77976 7.63827 6.64508 7.74439 6.48783 7.80116C6.19364 7.92579 5.87418 7.97907 5.55201 8.06848ZM5.55201 7.36497C5.75776 7.3144 5.9554 7.27466 6.14942 7.21777C6.1789 7.21108 6.2067 7.19844 6.23113 7.18062C6.25555 7.1628 6.27608 7.14016 6.29146 7.11412C6.30684 7.08808 6.31674 7.05917 6.32055 7.02916C6.32437 6.99915 6.32203 6.96868 6.31366 6.93961C6.28883 6.75404 6.19772 6.58374 6.05714 6.46021C5.91656 6.33667 5.73604 6.26824 5.54896 6.26758C5.36187 6.26692 5.18088 6.33407 5.03943 6.45661C4.89799 6.57915 4.80565 6.74881 4.77952 6.9342C4.75967 7.07508 4.80208 7.17713 4.93835 7.21506C5.14501 7.27195 5.35077 7.3153 5.55472 7.36497H5.55201Z" fill="#667580"/>
<path d="M9.71245 12.8447C9.48009 12.8053 9.25019 12.7525 9.0239 12.6867C8.53568 12.5115 8.36151 12.1448 8.50861 11.6481C8.58808 11.3745 8.76215 11.1381 8.99975 10.9811C9.23734 10.824 9.52297 10.7567 9.80563 10.791C10.0883 10.8253 10.3495 10.959 10.5428 11.1683C10.736 11.3776 10.8485 11.6488 10.8603 11.9335C10.873 12.2216 10.7575 12.4636 10.4994 12.5837C10.2428 12.6872 9.98 12.7744 9.71245 12.8447ZM9.67185 12.1367L10.0265 12.0653C10.1727 12.0364 10.2016 11.9497 10.1528 11.8188C10.123 11.7253 10.0667 11.6425 9.99075 11.5803C9.91485 11.5181 9.82258 11.4792 9.72509 11.4684C9.62803 11.4532 9.52867 11.4672 9.43953 11.5085C9.35039 11.5498 9.27547 11.6166 9.22423 11.7005C9.07533 11.9181 9.12587 12.0355 9.38577 12.0906C9.47602 12.1087 9.56626 12.1195 9.67185 12.1367Z" fill="#667580"/>
<path d="M5.70377 21.9359C5.42763 21.8528 5.15329 21.8004 4.90602 21.6884C4.61273 21.5548 4.4891 21.2956 4.51256 20.9659C4.53709 20.6645 4.67437 20.3834 4.89698 20.1788C5.11958 19.9742 5.41113 19.8612 5.71337 19.8623C6.0156 19.8635 6.30628 19.9787 6.52734 20.1849C6.7484 20.3912 6.88356 20.6733 6.90582 20.975C6.92658 21.3046 6.79843 21.5602 6.50513 21.6902C6.25606 21.8022 5.98172 21.8537 5.70377 21.9359ZM5.71371 21.2134C5.822 21.1935 5.94021 21.1745 6.05663 21.1511C6.21907 21.1186 6.26238 21.0292 6.1938 20.8747C6.1592 20.783 6.09875 20.7033 6.01978 20.6452C5.94081 20.5872 5.84671 20.5534 5.74889 20.5478C5.65113 20.5371 5.55242 20.5558 5.46532 20.6015C5.37821 20.6472 5.30667 20.7178 5.25978 20.8043C5.13163 21.0183 5.16953 21.1023 5.415 21.1655C5.50524 21.1881 5.60542 21.2007 5.71371 21.2161V21.2134Z" fill="#667580"/>
<path d="M6.04664 16.4834C6.04901 16.5291 6.04204 16.5749 6.02617 16.6179C6.0103 16.6609 5.98586 16.7002 5.95432 16.7334C5.92279 16.7666 5.88484 16.7931 5.84276 16.8112C5.80069 16.8293 5.75537 16.8386 5.70958 16.8386C5.66379 16.8386 5.61847 16.8293 5.5764 16.8112C5.53432 16.7931 5.49637 16.7666 5.46484 16.7334C5.4333 16.7002 5.40886 16.6609 5.39299 16.6179C5.37712 16.5749 5.37015 16.5291 5.37252 16.4834C5.37699 16.3969 5.41445 16.3155 5.47717 16.2559C5.53989 16.1963 5.62309 16.1631 5.70958 16.1631C5.79607 16.1631 5.87926 16.1963 5.94199 16.2559C6.00471 16.3155 6.04217 16.3969 6.04664 16.4834Z" fill="#667580"/>
<path d="M6.28768 15.6348C6.24267 15.6332 6.19842 15.6227 6.15749 15.6039C6.11655 15.5851 6.07973 15.5585 6.04912 15.5254C6.01852 15.4923 5.99474 15.4536 5.97915 15.4113C5.96356 15.369 5.95647 15.3241 5.95828 15.279C5.96435 15.1923 6.00356 15.1113 6.06778 15.0528C6.13201 14.9943 6.21628 14.9628 6.3031 14.9649C6.38991 14.967 6.47259 15.0025 6.53392 15.0641C6.59525 15.1256 6.63052 15.2084 6.6324 15.2953C6.63205 15.3402 6.62285 15.3847 6.60533 15.4261C6.58782 15.4674 6.56233 15.505 6.53032 15.5365C6.4983 15.568 6.4604 15.593 6.41877 15.6098C6.37713 15.6267 6.33259 15.6352 6.28768 15.6348Z" fill="#667580"/>
<path d="M8.94563 6.20994C8.90033 6.20823 8.85585 6.19745 8.81479 6.17825C8.77373 6.15904 8.73692 6.1318 8.70656 6.09812C8.67619 6.06445 8.65287 6.02503 8.63798 5.9822C8.62309 5.93936 8.61692 5.89397 8.61985 5.8487C8.62822 5.76338 8.6687 5.68443 8.73309 5.62787C8.79748 5.57131 8.88097 5.54136 8.9666 5.54412C9.05223 5.54688 9.13361 5.58212 9.19424 5.64271C9.25486 5.70329 9.29019 5.78469 9.29306 5.87038C9.29283 5.91559 9.28363 5.96031 9.26598 6.00194C9.24834 6.04356 9.22262 6.08126 9.19029 6.11285C9.15797 6.14444 9.11969 6.1693 9.07769 6.18596C9.03569 6.20263 8.9908 6.21078 8.94563 6.20994Z" fill="#667580"/>
<path d="M1.95045 6.27348C1.99548 6.27418 2.03992 6.28385 2.08118 6.3019C2.12244 6.31996 2.15969 6.34606 2.19077 6.37868C2.22185 6.41129 2.24613 6.44976 2.2622 6.49186C2.27827 6.53396 2.2858 6.57884 2.28435 6.62389C2.27866 6.71079 2.24033 6.79233 2.17706 6.85213C2.11379 6.91193 2.03026 6.94557 1.94324 6.9463C1.89828 6.94563 1.85393 6.93589 1.81283 6.91765C1.77173 6.89942 1.73473 6.87307 1.70406 6.84018C1.67338 6.80729 1.64966 6.76854 1.63431 6.72625C1.61897 6.68397 1.61231 6.63901 1.61475 6.59409C1.61735 6.50721 1.65403 6.42486 1.71686 6.36485C1.77969 6.30485 1.86361 6.27202 1.95045 6.27348Z" fill="#667580"/>
<path d="M5.85622 9.77156C5.85834 9.6846 5.89455 9.60197 5.95701 9.54148C6.01948 9.481 6.1032 9.44752 6.19011 9.44825C6.28091 9.45015 6.36725 9.48801 6.43018 9.55353C6.49312 9.61906 6.52752 9.70688 6.52583 9.79775C6.52391 9.8427 6.51294 9.8868 6.49358 9.92741C6.47422 9.96801 6.44687 10.0043 6.41317 10.0341C6.37946 10.0638 6.34008 10.0865 6.29741 10.1007C6.25474 10.1148 6.20966 10.1202 6.16485 10.1165C6.12177 10.1147 6.07948 10.1043 6.04049 10.0858C6.0015 10.0674 5.96661 10.0413 5.93784 10.0092C5.90908 9.97703 5.88703 9.93944 5.87301 9.89863C5.859 9.85782 5.85329 9.81461 5.85622 9.77156Z" fill="#667580"/>
<path d="M7.6317 9.46089C7.5409 9.46186 7.45343 9.42675 7.38847 9.36326C7.3235 9.29978 7.28635 9.21309 7.28516 9.12223C7.28492 9.03512 7.31914 8.95146 7.38036 8.88953C7.44157 8.82759 7.52479 8.79241 7.61184 8.7917C7.6548 8.78889 7.69789 8.79478 7.73852 8.80901C7.77916 8.82323 7.81651 8.84551 7.84835 8.87451C7.88019 8.90351 7.90587 8.93862 7.92385 8.97777C7.94182 9.01692 7.95172 9.0593 7.95296 9.10237C7.95601 9.14716 7.95007 9.1921 7.93547 9.23455C7.92087 9.27699 7.89792 9.31608 7.86797 9.34951C7.83802 9.38293 7.80168 9.41 7.7611 9.42913C7.72051 9.44826 7.67652 9.45907 7.6317 9.46089Z" fill="#667580"/>
<path d="M7.74127 10.5229C7.74187 10.5678 7.73361 10.6125 7.71697 10.6542C7.70033 10.696 7.67564 10.7341 7.6443 10.7663C7.61296 10.7985 7.57557 10.8242 7.5343 10.8419C7.49303 10.8597 7.44868 10.8691 7.40376 10.8697C7.3169 10.8685 7.23386 10.8338 7.17209 10.7726C7.11033 10.7115 7.07466 10.6288 7.07256 10.5419C7.06887 10.4548 7.09956 10.3699 7.15799 10.3053C7.21643 10.2407 7.2979 10.2018 7.3848 10.1969C7.42975 10.1942 7.47479 10.2006 7.51723 10.2156C7.55967 10.2307 7.59867 10.2541 7.6319 10.2845C7.66514 10.3149 7.69195 10.3517 7.71074 10.3926C7.72952 10.4336 7.7399 10.4779 7.74127 10.5229Z" fill="#667580"/>
<path d="M3.23357 7.66589C3.23405 7.75675 3.19851 7.84409 3.13473 7.90876C3.07096 7.97343 2.98415 8.01015 2.89336 8.01087C2.80646 8.01111 2.72299 7.97699 2.66113 7.91593C2.59926 7.85486 2.56402 7.7718 2.56307 7.68485C2.56051 7.64177 2.56662 7.59862 2.58104 7.55794C2.59547 7.51727 2.61791 7.4799 2.64702 7.44806C2.67614 7.41623 2.71135 7.39057 2.75056 7.3726C2.78978 7.35464 2.8322 7.34474 2.87531 7.34349C2.92011 7.34056 2.96504 7.34663 3.00746 7.36134C3.04989 7.37605 3.08893 7.39911 3.12232 7.42915C3.1557 7.45919 3.18275 7.49561 3.20185 7.53627C3.22096 7.57693 3.23174 7.621 3.23357 7.66589Z" fill="#667580"/>
<path d="M10.1221 6.8128C10.1205 6.90118 10.084 6.98531 10.0204 7.04671C9.95687 7.1081 9.87156 7.14172 9.78324 7.14017C9.69492 7.13861 9.61084 7.102 9.54949 7.0384C9.48814 6.97481 9.45455 6.88944 9.45611 6.80106C9.45766 6.71267 9.49424 6.62853 9.55778 6.56714C9.62133 6.50574 9.70665 6.47213 9.79497 6.47368C9.88329 6.47524 9.96737 6.51184 10.0287 6.57544C10.0901 6.63903 10.1237 6.72442 10.1221 6.8128Z" fill="#667580"/>
</svg>
