<svg width="24" height="23" viewBox="0 0 24 23" fill="none" xmlns="http://www.w3.org/2000/svg">
<path d="M8.72892 13.7773C8.36881 14.3404 7.97249 14.7761 7.45679 15.0964C7.42933 15.1173 7.40647 15.1437 7.38963 15.1738C7.3728 15.204 7.36235 15.2373 7.35893 15.2716C7.33251 16.0012 7.37458 16.7229 7.69163 17.3976C7.77331 17.5474 7.86519 17.6914 7.96662 17.8285C8.05958 17.9705 8.06448 18.1115 7.92552 18.2202C7.89815 18.2456 7.86549 18.2646 7.82991 18.2758C7.79434 18.2871 7.75671 18.2903 7.71975 18.2852C7.68279 18.2801 7.64742 18.267 7.61616 18.2466C7.58491 18.2262 7.55856 18.1991 7.539 18.1674C7.38047 17.9519 7.24541 17.7228 7.08003 17.4819C6.65338 18.0557 6.17683 18.6061 6.23359 19.4032C6.24041 19.4398 6.23959 19.4775 6.23117 19.5138C6.22276 19.5501 6.20695 19.5843 6.18471 19.6141C6.16247 19.644 6.13429 19.669 6.10195 19.6875C6.06961 19.7059 6.03381 19.7175 5.99678 19.7215C5.95828 19.731 5.91805 19.7312 5.87946 19.722C5.84087 19.7128 5.80501 19.6945 5.77493 19.6686C5.74486 19.6427 5.72142 19.61 5.70656 19.5732C5.6917 19.5364 5.68584 19.4966 5.6895 19.4571C5.7024 19.1107 5.75662 18.7672 5.85098 18.4337C6.03691 17.8697 6.4156 17.4133 6.7943 16.9648C6.85687 16.8801 6.888 16.7762 6.88236 16.671C6.85301 16.2676 6.80408 15.8641 6.76102 15.446C5.6846 15.7985 4.78434 16.3841 4.30289 17.4682C4.13829 17.8691 3.89847 18.2347 3.59637 18.5454C3.5393 18.6184 3.50766 18.7082 3.50633 18.8009C3.48284 19.1339 3.48186 19.4688 3.45642 19.8018C3.43587 20.0642 3.30474 20.1935 3.11588 20.1465C2.88592 20.0916 2.88006 19.9232 2.90648 19.7254C2.93682 19.4933 2.93877 19.2583 2.95541 18.9782C2.7597 19.0516 2.61389 19.1075 2.46613 19.1662C2.09623 19.3131 1.72633 19.4613 1.35643 19.6108C1.18518 19.6803 1.0433 19.6431 0.972843 19.4708C0.902387 19.2984 0.97872 19.1701 1.14997 19.1016L2.59822 18.514C3.06101 18.328 3.43761 17.9756 3.65409 17.5259C3.29202 17.3389 2.93975 17.3653 2.58551 17.4868C2.47004 17.5259 2.36045 17.5847 2.24987 17.6307C2.0933 17.7012 1.95042 17.6767 1.87018 17.5259C1.78993 17.3751 1.83887 17.2253 2.00425 17.1342C2.56007 16.8404 3.13547 16.7317 3.74511 16.9501L3.87133 16.9971C4.07976 16.7239 4.26275 16.4487 4.48489 16.199C5.01918 15.587 5.71103 15.209 6.46843 14.9553C7.47733 14.6185 8.11341 13.9144 8.51266 12.9606C8.52734 12.9243 8.53516 12.8861 8.55179 12.8313C8.21615 12.891 7.8991 12.989 7.58107 12.9939C7.14952 13.0007 6.93424 13.1466 6.75419 13.5814C6.42931 14.356 5.70126 14.6714 4.92037 14.8545C4.80949 14.8804 4.69702 14.899 4.58372 14.9103C4.54944 14.9178 4.51396 14.9179 4.47963 14.9107C4.4453 14.9034 4.41291 14.8889 4.38459 14.8682C4.35628 14.8474 4.3327 14.8209 4.31541 14.7903C4.29812 14.7598 4.28751 14.7259 4.2843 14.6909C4.25592 14.5176 4.343 14.4118 4.51033 14.3697C4.74616 14.311 4.98983 14.2718 5.21881 14.1925C5.77855 13.9966 6.21989 13.6627 6.40288 13.032C5.30591 12.8 4.27842 12.8519 3.41337 13.6274C3.1883 13.8302 3.0513 14.1396 2.89864 14.4109C2.80862 14.5724 2.71665 14.6909 2.52289 14.6165C2.32914 14.5421 2.31346 14.3942 2.37804 14.214C2.66378 13.413 3.24213 12.9126 4.01324 12.608C4.7315 12.325 5.46932 12.3064 6.22379 12.4249C6.57216 12.4797 6.92738 12.4925 7.27966 12.5228L7.30021 12.4455C7.24247 12.4171 7.18572 12.3847 7.12602 12.3622C6.62989 12.1732 6.23065 11.8785 5.98993 11.3829C5.92213 11.2383 5.82362 11.1101 5.70126 11.0075C5.57889 10.9048 5.43563 10.8301 5.28145 10.7885C5.15749 10.7462 5.02491 10.7357 4.89583 10.7579C4.76675 10.7802 4.64531 10.8345 4.54263 10.9158C4.38313 11.0382 4.22753 11.1039 4.0739 10.9158C3.95256 10.7709 4.01128 10.6074 4.22852 10.4507C4.77945 10.0502 5.57893 10.1236 6.10931 10.6328C6.23273 10.7397 6.33527 10.8685 6.41169 11.0128C6.68471 11.6131 7.19453 11.8589 7.79537 11.9725C8.09676 12.0302 8.40403 12.0586 8.72304 12.1027C8.73558 12.038 8.7444 11.9726 8.74946 11.9069C8.74946 10.7657 8.74946 9.62319 8.74946 8.4794C8.74914 8.34088 8.73999 8.20251 8.72206 8.06516C8.69858 7.87616 8.75339 7.73221 8.95399 7.70479C9.1546 7.67737 9.24756 7.81447 9.27007 7.99857C9.29355 8.22479 9.3092 8.45296 9.31116 8.68406C9.31605 9.37543 9.31116 10.0678 9.31116 10.7934C9.39238 10.7552 9.45011 10.7337 9.50099 10.7033C9.87285 10.485 10.2379 10.2538 10.6175 10.0492C10.8015 9.95124 10.8514 9.82884 10.8514 9.62515C10.8436 6.82246 10.8436 4.01913 10.8514 1.21514C10.8514 0.599174 11.1998 0.137934 11.7321 0.0262969C11.8898 -0.00861526 12.0532 -0.00876729 12.2109 0.0258546C12.3686 0.0604764 12.5169 0.129045 12.6455 0.22679C12.7741 0.324535 12.8799 0.449119 12.9555 0.59189C13.0311 0.734661 13.0748 0.892194 13.0835 1.05355C13.0913 1.14267 13.0884 1.23276 13.0884 1.32188C13.0884 4.08473 13.0884 6.8476 13.0884 9.61046C13.0792 9.68505 13.0944 9.76064 13.1318 9.82582C13.1692 9.891 13.2268 9.94223 13.2959 9.97181C13.7313 10.2029 14.156 10.4546 14.6277 10.7219C14.6277 10.3155 14.6199 9.96006 14.6277 9.60459C14.6443 9.04444 14.6052 8.47058 14.7089 7.92513C14.9398 6.72258 15.7188 5.96658 16.8852 5.6728C18.0517 5.37901 19.0645 5.71197 19.8209 6.63836C20.3565 7.30461 20.8469 8.00604 21.2887 8.73793C22.373 10.5104 23.2087 12.3926 23.6784 14.4295C23.9064 15.4176 23.9123 16.4164 23.9201 17.4172C23.925 18.1027 23.9583 18.7961 23.8506 19.4649C23.5629 21.2609 21.9649 22.5173 20.1507 22.4546C19.3121 22.4252 18.4734 22.4037 17.6348 22.3841C15.9076 22.3449 14.6394 21.0719 14.6306 19.3484C14.6218 17.523 14.6306 15.6966 14.6306 13.8713C14.6306 13.6754 14.5768 13.5716 14.384 13.5001C13.6384 13.221 12.9005 12.9126 12.1549 12.6374C12.038 12.5963 11.9106 12.5963 11.7938 12.6374C11.0373 12.9371 10.2907 13.2583 9.53427 13.5569C9.35813 13.6265 9.31214 13.7175 9.31214 13.8967C9.31866 15.7064 9.31866 17.5158 9.31214 19.3249C9.31214 20.6723 8.55082 21.7819 7.33251 22.2049C7.0327 22.3077 6.71955 22.3664 6.40288 22.3792C5.37049 22.4154 4.33323 22.4771 3.3028 22.4243C1.57075 22.3342 0.118562 20.8682 0.0461486 19.131C-0.0262649 17.3937 -0.0742115 15.6281 0.391584 13.9105C0.854145 12.255 1.52492 10.665 2.38784 9.1786C2.48569 9.01213 2.5992 8.90146 2.80079 8.99058C2.96323 9.06402 2.99062 9.24225 2.8683 9.45573C2.21076 10.5894 1.66446 11.7842 1.23705 13.0232C0.829968 14.2258 0.564784 15.4528 0.582398 16.7317C0.592184 17.4329 0.569677 18.1341 0.582398 18.8342C0.601969 20.5519 1.89367 21.8759 3.61104 21.8925C4.63692 21.9128 5.66316 21.8801 6.68567 21.7946C7.84037 21.6869 8.73283 20.6782 8.74653 19.5207C8.76903 17.6601 8.75534 15.8053 8.75632 13.9467C8.75045 13.8977 8.74066 13.8693 8.72892 13.7773ZM16.6924 12.4239L16.7042 12.5052C17.0535 12.4768 17.4058 12.4729 17.7503 12.4161C18.5909 12.276 19.405 12.3181 20.1859 12.6824C20.8582 12.9929 21.3602 13.4727 21.6039 14.1827C21.6385 14.2871 21.6339 14.4006 21.5911 14.5019C21.5643 14.5394 21.5284 14.5693 21.4868 14.589C21.4452 14.6088 21.3993 14.6175 21.3533 14.6145C21.2444 14.5734 21.1557 14.4916 21.1058 14.3864C20.8719 13.7753 20.4364 13.3787 19.8444 13.1339C19.1173 12.8342 18.3765 12.8401 17.5996 13.0183C17.679 13.3632 17.8847 13.6657 18.176 13.8664C18.538 14.1367 18.9588 14.2581 19.3933 14.3394C19.6457 14.3883 19.7612 14.5049 19.7172 14.6762C19.6575 14.9073 19.4804 14.9181 19.2895 14.8819C18.2131 14.6763 17.3324 14.2209 17.0389 13.08L15.4634 12.8362C15.4634 12.844 15.4526 12.8607 15.4565 12.8734C15.4686 12.9121 15.4829 12.95 15.4996 12.987C15.9086 13.9251 16.5418 14.6204 17.5428 14.9524C18.5214 15.2765 19.3424 15.821 19.9158 16.6994C19.9804 16.7974 20.044 16.8953 20.1115 16.9991C20.7711 16.7171 21.3837 16.8032 21.9855 17.1205C22.1411 17.2028 22.2262 17.3252 22.1391 17.4995C22.052 17.6738 21.9111 17.6953 21.7477 17.617C21.6733 17.5827 21.6009 17.5455 21.5256 17.5191C21.1439 17.3663 20.7603 17.3232 20.3513 17.5132C20.5761 17.9838 20.9757 18.3478 21.4649 18.5277C21.9365 18.7069 22.4014 18.9018 22.8672 19.0947C23.0198 19.1584 23.105 19.2779 23.0404 19.4453C22.9758 19.6128 22.8388 19.6705 22.6636 19.604L22.37 19.4884L21.0431 18.9567C21.0696 19.269 21.0911 19.5354 21.1136 19.8008C21.1283 19.979 21.0666 20.1142 20.8768 20.1367C20.6869 20.1592 20.5832 20.0534 20.5685 19.8703C20.5441 19.5139 20.5323 19.1555 20.5098 18.799C20.5049 18.7216 20.5098 18.6139 20.4599 18.5757C20.0391 18.231 19.8532 17.7394 19.6154 17.2772C19.1105 16.2979 18.2454 15.7652 17.2453 15.4371C17.1984 15.8807 17.1475 16.3067 17.1122 16.7347C17.1203 16.8197 17.1545 16.9001 17.2101 16.9648C17.4743 17.3448 17.7669 17.7071 18.0076 18.1008C18.2411 18.4685 18.3549 18.8995 18.3335 19.3347C18.3188 19.5981 18.2131 19.7479 18.0321 19.7264C17.7992 19.694 17.7796 19.5305 17.7816 19.3278C17.7904 18.5728 17.3451 18.0342 16.9253 17.4799C16.7698 17.7228 16.6396 17.9382 16.4967 18.1439C16.3871 18.3005 16.2306 18.3456 16.076 18.2212C15.9213 18.0969 15.9556 17.9588 16.0583 17.8099C16.1747 17.6536 16.2751 17.486 16.3578 17.3095C16.6298 16.6661 16.6787 15.9846 16.6513 15.2961C16.6426 15.2513 16.6248 15.2087 16.5991 15.171C16.5733 15.1333 16.5402 15.1012 16.5016 15.0768C16.0384 14.7695 15.6461 14.3669 15.3508 13.8958C15.3127 13.835 15.2726 13.7753 15.1953 13.6558C15.1953 15.6604 15.1806 17.5827 15.2011 19.505C15.2138 20.6655 16.1053 21.6751 17.2561 21.7828C18.2784 21.8669 19.3042 21.8996 20.3298 21.8808C22.0403 21.869 23.3437 20.5401 23.3633 18.8274C23.3731 17.9891 23.3819 17.1479 23.3437 16.3107C23.3223 15.7179 23.2497 15.1281 23.1265 14.548C22.509 11.7991 21.2261 9.36662 19.5303 7.14171C19.3234 6.86947 19.0687 6.63719 18.7787 6.45622C17.2581 5.53668 15.2461 6.63249 15.1982 8.41476C15.1669 9.58989 15.1894 10.7777 15.1884 11.9588C15.1944 12.0097 15.2042 12.0601 15.2178 12.1096C15.5652 12.0616 15.9027 12.0312 16.2374 11.9666C16.8187 11.854 17.3138 11.6101 17.5849 11.0333C17.6835 10.8552 17.8166 10.6984 17.9763 10.5721C18.2224 10.348 18.5382 10.2159 18.8704 10.1981C19.2026 10.1802 19.5308 10.2778 19.7994 10.4742C19.9481 10.5868 20.0567 10.7131 19.9374 10.9051C19.8395 11.0637 19.681 11.0715 19.4745 10.9197C19.3541 10.8281 19.2111 10.7706 19.0608 10.7534C18.9104 10.7361 18.7583 10.7598 18.6202 10.8218C18.3436 10.9293 18.1195 11.1399 17.9949 11.4094C17.7812 11.8269 17.4198 12.1498 16.9811 12.3152L16.6924 12.4239ZM9.31018 13.033C9.43543 12.9841 9.53231 12.9468 9.62821 12.9077C10.3269 12.6207 11.0227 12.3201 11.7272 12.0518C11.8752 12.0004 12.0359 11.9984 12.1852 12.0459C12.6833 12.2202 13.1706 12.4259 13.6628 12.6178C13.9632 12.7353 14.2646 12.8509 14.5944 12.9782C14.5944 12.4729 14.5944 11.9989 14.5944 11.5328C14.6014 11.4735 14.5891 11.4136 14.5593 11.3619C14.5295 11.3102 14.4838 11.2695 14.429 11.2459C13.9084 10.9599 13.3996 10.6524 12.8751 10.3763C12.6089 10.2362 12.514 10.0511 12.515 9.75344C12.5238 6.95173 12.5199 4.15002 12.5199 1.34832C12.5217 1.24238 12.5171 1.13642 12.5061 1.03103C12.4926 0.900143 12.4309 0.778967 12.3331 0.691025C12.2352 0.603082 12.1083 0.554646 11.9768 0.555107C11.8455 0.547845 11.7162 0.588988 11.6132 0.670739C11.5102 0.752489 11.4408 0.869178 11.418 0.998722C11.4005 1.11143 11.3933 1.22549 11.3965 1.33951C11.3965 4.17353 11.3965 7.00754 11.3965 9.84156C11.4072 9.95819 11.382 10.0753 11.3243 10.1772C11.2666 10.2791 11.1791 10.3608 11.0735 10.4115C10.5344 10.7131 10.0069 11.0363 9.47947 11.3594C9.40705 11.4035 9.31409 11.4926 9.31214 11.5641C9.30333 12.043 9.31018 12.5267 9.31018 13.033Z" fill="#667580"/>
<path d="M8.94621 6.38734C8.94493 6.85667 8.85116 7.32113 8.6703 7.75416C8.48943 8.18718 8.225 8.58025 7.89215 8.91089C7.55931 9.24152 7.16458 9.50323 6.73054 9.68102C6.29651 9.8588 5.83169 9.9492 5.36271 9.947C3.41733 9.947 1.8164 8.32728 1.81738 6.36579C1.83545 5.42987 2.22039 4.53856 2.88917 3.88407C3.55795 3.22959 4.45697 2.86438 5.39238 2.8672C6.32779 2.87003 7.22461 3.24067 7.88943 3.89918C8.55425 4.5577 8.9338 5.45133 8.94621 6.38734ZM5.36663 9.39273C6.97342 9.42407 8.35713 8.08344 8.39333 6.46176C8.40906 5.86405 8.24655 5.2752 7.92656 4.77026C7.60656 4.26533 7.14355 3.86719 6.59656 3.62662C6.04958 3.38605 5.44339 3.31394 4.85529 3.41948C4.26719 3.52502 3.72381 3.80344 3.29445 4.21923C2.86508 4.63502 2.56917 5.16935 2.44444 5.75409C2.31971 6.33884 2.37182 6.94751 2.59412 7.5025C2.81641 8.05749 3.19883 8.53367 3.69261 8.87032C4.18639 9.20696 4.76916 9.38883 5.36663 9.39273Z" fill="#667580"/>
<path d="M6.84026 6.06308C6.84026 6.28929 6.83341 6.44303 6.84026 6.59678C6.84026 6.65162 6.87059 6.73388 6.90973 6.75053C6.94887 6.76718 7.03403 6.7378 7.09861 6.73486C7.21702 6.72898 7.37552 6.681 7.44598 6.73486C7.51644 6.78872 7.53505 6.96402 7.51156 7.07272C7.47693 7.23169 7.41034 7.38195 7.31585 7.51436C7.28338 7.56088 7.24098 7.59959 7.19174 7.62771C7.14249 7.65582 7.08761 7.67263 7.03107 7.67692C6.94202 7.66517 6.8657 7.53395 6.79231 7.44777C6.74142 7.38902 6.71795 7.28717 6.65826 7.26171C6.61814 7.24506 6.53103 7.32242 6.4733 7.36747C6.39445 7.42487 6.32196 7.49052 6.25704 7.56332C6.23744 7.58441 6.22231 7.60925 6.21255 7.63635C6.2028 7.66344 6.19862 7.69224 6.20027 7.721C6.21053 7.74842 6.22714 7.77301 6.24875 7.79276C6.27035 7.8125 6.29634 7.82684 6.32455 7.83458C6.4821 7.85809 6.61812 7.93251 6.58778 8.09115C6.55123 8.21307 6.47159 8.3175 6.36371 8.38493C6.23411 8.47007 6.08749 8.52589 5.93411 8.54848C5.87793 8.55634 5.82071 8.55164 5.76656 8.53471C5.71242 8.51777 5.66269 8.48903 5.62097 8.45055C5.56911 8.38004 5.61412 8.23413 5.62097 8.1225C5.62782 8.05199 5.68261 7.96385 5.65619 7.9188C5.62977 7.87375 5.53093 7.84928 5.46048 7.84341C5.32348 7.83263 5.18551 7.84341 4.98099 7.84341C5.0042 7.93325 5.02153 8.02451 5.03286 8.11661C5.04167 8.22238 5.0759 8.36731 5.02208 8.42607C4.97961 8.46363 4.92925 8.49114 4.8747 8.50657C4.82016 8.52199 4.76283 8.52494 4.70699 8.51519C4.53166 8.47424 4.36565 8.40047 4.21771 8.29778C4.17134 8.26398 4.1335 8.21984 4.10717 8.16884C4.08084 8.11784 4.06675 8.06139 4.06603 8.004C4.08168 7.91782 4.22066 7.85124 4.30873 7.78073C4.36451 7.73666 4.46236 7.71022 4.47704 7.65832C4.49172 7.60642 4.43397 7.52612 4.39092 7.47226C4.3048 7.36454 4.20696 7.26758 4.06311 7.1109C4.00048 7.20883 3.95449 7.29697 3.89284 7.37335C3.83119 7.44973 3.76072 7.55843 3.6795 7.5692C3.62971 7.57398 3.57952 7.56648 3.53329 7.54736C3.48706 7.52824 3.44621 7.49809 3.41431 7.45953C3.30917 7.26677 3.22989 7.06098 3.17849 6.84748C3.1749 6.79746 3.18415 6.74734 3.20539 6.70191C3.22663 6.65649 3.25915 6.61726 3.29983 6.58797C3.38105 6.54586 3.50826 6.58797 3.61394 6.59972C3.6844 6.60951 3.77052 6.67022 3.81651 6.64574C3.86251 6.62126 3.88597 6.5204 3.89478 6.44989C3.91141 6.31377 3.91142 6.1757 3.92218 5.97005C3.82433 5.98572 3.73137 6.0053 3.64037 6.01117C3.52783 6.01803 3.38887 6.05231 3.31058 6.0004C3.27348 5.96209 3.24619 5.91536 3.23103 5.86421C3.21586 5.81306 3.21328 5.75899 3.2235 5.70662C3.27429 5.51775 3.3556 5.33846 3.46422 5.17585C3.49857 5.13499 3.54211 5.10286 3.59127 5.0821C3.64043 5.06133 3.69382 5.05251 3.74704 5.05638C3.83022 5.07499 3.89675 5.1974 3.95938 5.2826C4.01266 5.36335 4.06134 5.44704 4.10518 5.53329C4.27545 5.37856 4.39875 5.27183 4.51422 5.16019C4.53859 5.14306 4.55706 5.11878 4.56706 5.0907C4.57706 5.06263 4.5781 5.03214 4.57005 5.00345C4.56199 4.97475 4.54525 4.94926 4.5221 4.93051C4.49895 4.91175 4.47055 4.90064 4.44082 4.89872C4.27251 4.8713 4.13357 4.78414 4.16293 4.62648C4.18348 4.51288 4.31754 4.39929 4.42713 4.3327C4.54998 4.2516 4.69003 4.20031 4.83617 4.18288C4.89274 4.17843 4.94961 4.18599 5.00307 4.20506C5.05652 4.22413 5.10535 4.25428 5.14636 4.29354C5.19627 4.35523 5.14638 4.49721 5.13953 4.602C5.13072 4.68132 5.07885 4.77044 5.10331 4.83214C5.11897 4.87327 5.23445 4.88404 5.30686 4.89285C5.40442 4.90218 5.50243 4.9061 5.60043 4.9046C5.76385 4.9046 5.83822 4.791 5.74623 4.66271C5.65425 4.53443 5.6239 4.41104 5.73056 4.28667C5.83722 4.16231 5.98597 4.17601 6.12982 4.24554C6.26646 4.29445 6.39765 4.35746 6.52125 4.43356C6.56694 4.46821 6.60447 4.51249 6.63119 4.56325C6.65791 4.61402 6.67317 4.67004 6.67587 4.72735C6.66314 4.8145 6.52907 4.88599 6.44296 4.95747C6.38718 5.00252 6.28639 5.02407 6.27073 5.07499C6.25507 5.12592 6.31184 5.21013 6.3549 5.26399C6.44101 5.37171 6.53985 5.46866 6.6788 5.62045C6.73052 5.53842 6.78671 5.45931 6.84711 5.38347C6.92246 5.30023 7.00564 5.17292 7.09371 5.16606C7.14995 5.17249 7.20397 5.19173 7.25163 5.22228C7.29929 5.25283 7.33932 5.2939 7.36867 5.34233C7.45961 5.49653 7.52258 5.66561 7.55461 5.84176C7.56297 5.89499 7.55845 5.94945 7.54142 6.00057C7.5244 6.05169 7.49536 6.09798 7.45676 6.13554C7.37554 6.18353 7.23755 6.14338 7.12599 6.13554C7.02958 6.11625 6.93422 6.09207 6.84026 6.06308ZM6.30303 6.37938C6.30497 6.25893 6.28316 6.13927 6.23886 6.02725C6.19455 5.91524 6.12861 5.81307 6.04482 5.72657C5.96102 5.64008 5.86102 5.57096 5.75051 5.52318C5.64 5.47539 5.52117 5.44988 5.4008 5.44809C5.21699 5.44343 5.03595 5.49364 4.88077 5.59234C4.72559 5.69104 4.6033 5.83375 4.52948 6.00227C4.45566 6.17079 4.43366 6.3575 4.46629 6.53859C4.49892 6.71967 4.58471 6.88692 4.7127 7.01903C4.84069 7.15114 5.00507 7.24212 5.18492 7.28036C5.36478 7.3186 5.55193 7.30238 5.72253 7.23376C5.89314 7.16514 6.03948 7.04723 6.14287 6.89507C6.24625 6.74291 6.302 6.56338 6.30303 6.37938Z" fill="#667580"/>
</svg>
