<svg width="20" height="22" viewBox="0 0 20 22" fill="none" xmlns="http://www.w3.org/2000/svg">
<path d="M5.31957 3.49142C5.48286 3.49036 5.64601 3.50171 5.80759 3.52537C6.4574 3.66814 6.87844 4.06685 7.00544 4.72062C7.36384 6.57487 7.70137 8.43172 8.04933 10.2868C8.34336 11.8538 8.63739 13.4278 8.93663 15.0243H14.9494C15.7323 15.0243 16.1725 15.4648 16.1734 16.2483C16.1734 17.6098 16.1734 18.9713 16.1734 20.3329C16.1734 21.0807 15.7167 21.5386 14.9703 21.5394C11.6038 21.5394 8.23723 21.5142 4.87157 21.5516C3.5206 21.5664 2.36276 20.8012 2.08787 19.2212C1.43283 15.3908 0.714292 11.5752 0.0296767 7.75183C-0.0868905 7.0998 0.141024 6.56704 0.694284 6.19271C0.744245 6.16865 0.783193 6.12648 0.803225 6.07475C0.823257 6.02302 0.822873 5.96559 0.802152 5.91413C0.552489 4.80593 0.315006 3.696 0.0705623 2.5878C-0.0895002 1.86351 0.173211 1.33945 0.853477 1.04695L2.96561 0.139846C3.82681 -0.229263 4.57145 0.150293 4.77588 1.0661C4.94116 1.8078 5.10122 2.54601 5.26389 3.29119C5.28303 3.36084 5.30304 3.42874 5.31957 3.49142ZM12.5146 15.679H8.78179C8.4721 15.679 8.37815 15.605 8.32248 15.309C7.91072 13.11 7.49984 10.9119 7.08982 8.71465C6.84973 7.428 6.61486 6.1396 6.36084 4.85556C6.23819 4.23487 5.60751 3.96413 5.06991 4.28884C3.74881 5.08973 2.42771 5.89527 1.10662 6.70545C0.746478 6.9257 0.608163 7.25911 0.682105 7.67001C1.38325 11.534 2.0841 15.3984 2.78467 19.263C2.97691 20.3207 3.65892 20.8839 4.73499 20.8839H12.5146V15.679ZM13.1913 20.8883C13.809 20.8883 14.4022 20.8883 14.9946 20.8883C15.3548 20.8883 15.5244 20.7142 15.5253 20.3512C15.5253 18.9757 15.5253 17.5997 15.5253 16.2231C15.5253 15.8452 15.36 15.6816 14.9807 15.6807C14.446 15.6807 13.9105 15.6807 13.374 15.6807C13.3123 15.6807 13.2505 15.6894 13.1913 15.6946V20.8883ZM0.980483 3.6577L1.37281 3.46791C2.30187 3.01523 3.23093 2.56517 4.15651 2.10726C4.21827 2.07679 4.30004 1.98365 4.29134 1.93315C4.24161 1.63389 4.17598 1.33749 4.09474 1.04521C4.07717 0.972312 4.04411 0.904059 3.99783 0.845086C3.95154 0.786114 3.89311 0.737802 3.82651 0.703443C3.7599 0.669084 3.68669 0.64948 3.61184 0.645963C3.53699 0.642446 3.46226 0.655099 3.39273 0.683061C2.58372 1.013 1.78167 1.35947 0.981353 1.71203C0.870233 1.76063 0.779815 1.84692 0.726028 1.95568C0.672241 2.06445 0.658535 2.18873 0.687325 2.30662C0.777795 2.74624 0.876964 3.18325 0.980483 3.6577ZM1.43544 5.7348C2.5063 5.07929 3.54844 4.44204 4.58885 3.8022C4.62625 3.77869 4.67584 3.72298 4.67584 3.69251C4.61147 3.36432 4.53665 3.03787 4.46097 2.68966C3.36054 3.22504 2.29491 3.74214 1.23363 4.2662C1.20756 4.2849 1.18658 4.30983 1.1726 4.33872C1.15862 4.36761 1.15209 4.39953 1.15359 4.4316C1.23797 4.85468 1.3354 5.27603 1.43544 5.7348Z" fill="#667580"/>
<path d="M19.2677 15.2428C19.2206 15.3452 19.1622 15.4422 19.0937 15.5318C18.7046 15.9305 18.3111 16.3246 17.9133 16.714C17.7462 16.8794 17.5557 16.8811 17.4157 16.734C17.2887 16.5991 17.2982 16.4093 17.4548 16.2508C17.8454 15.8539 18.2377 15.4613 18.6362 15.0678C18.7466 14.9581 18.8815 14.8876 19.0241 14.9807C19.1165 15.057 19.1984 15.1451 19.2677 15.2428Z" fill="#667580"/>
<path d="M18.5272 18.5547C18.2532 18.5547 17.9783 18.5547 17.7034 18.5547C17.4694 18.5547 17.3442 18.4415 17.3381 18.2457C17.332 18.0498 17.466 17.907 17.7008 17.9053C18.257 17.9001 18.8134 17.9001 19.3702 17.9053C19.6059 17.9053 19.7425 18.0411 19.7373 18.2413C19.7321 18.4415 19.5998 18.5512 19.3728 18.5547C19.0944 18.5582 18.8091 18.5547 18.5272 18.5547Z" fill="#667580"/>
<path d="M19.2584 21.2183C19.1862 21.3053 19.1348 21.4351 19.047 21.4681C18.9591 21.5012 18.7764 21.5047 18.7094 21.4429C18.2623 21.0224 17.8282 20.588 17.4046 20.144C17.2811 20.0143 17.3063 19.8463 17.4368 19.7149C17.4677 19.6839 17.5048 19.6597 17.5455 19.6438C17.5863 19.6278 17.6299 19.6205 17.6737 19.6223C17.7174 19.6241 17.7603 19.635 17.7996 19.6542C17.8389 19.6734 17.8739 19.7006 17.9022 19.734C18.258 20.0822 18.6077 20.4383 18.9591 20.7908C19.0189 20.8442 19.0742 20.9025 19.1244 20.965C19.1741 21.0466 19.2189 21.1312 19.2584 21.2183Z" fill="#667580"/>
<path d="M2.86421 11.9825C3.05385 11.9982 3.1391 12.1357 3.17738 12.322C3.32178 13.0306 3.46676 13.7389 3.61233 14.447C3.75093 15.1266 3.88954 15.8068 4.02814 16.4875C4.07599 16.7234 3.99161 16.8906 3.80458 16.9359C3.60015 16.9855 3.44357 16.8749 3.39311 16.6312C3.10314 15.2435 2.81781 13.8553 2.53713 12.4665C2.47884 12.1775 2.6102 11.9781 2.86421 11.9825Z" fill="#667580"/>
<path d="M2.33475 9.03437C2.38781 9.09966 2.52352 9.19541 2.55571 9.31816C2.6627 9.72992 2.73665 10.1504 2.81668 10.5691C2.82656 10.6117 2.8279 10.6557 2.82062 10.6988C2.81335 10.7419 2.7976 10.7831 2.77429 10.82C2.75099 10.8569 2.72059 10.8888 2.68486 10.9139C2.64913 10.939 2.60878 10.9567 2.56614 10.9661C2.52374 10.9752 2.47994 10.9755 2.43739 10.9672C2.39484 10.9588 2.35442 10.9419 2.31857 10.9175C2.28272 10.8931 2.25218 10.8617 2.22879 10.8252C2.20541 10.7886 2.18967 10.7477 2.18252 10.7049C2.09553 10.2888 2.00245 9.87182 1.92155 9.45222C1.88414 9.21195 2.03811 9.02741 2.33475 9.03437Z" fill="#667580"/>
</svg>
