<svg width="179" height="137" viewBox="0 0 179 137" fill="none" xmlns="http://www.w3.org/2000/svg">
<mask id="mask0_5228_7711" style="mask-type:alpha" maskUnits="userSpaceOnUse" x="0" y="0" width="179" height="137">
<rect width="179" height="137" fill="#D9D9D9"/>
</mask>
<g mask="url(#mask0_5228_7711)">
<mask id="mask1_5228_7711" style="mask-type:luminance" maskUnits="userSpaceOnUse" x="11" y="0" width="157" height="138">
<path d="M167.144 0H11.3111V137.091H167.144V0Z" fill="white"/>
</mask>
<g mask="url(#mask1_5228_7711)">
<path d="M34.6873 120.688C35.4431 120.645 36.9348 119.849 36.9348 119.847C36.9348 119.844 36.1108 119.022 36.054 118.976C35.372 118.453 33.7439 117.836 32.9483 118.374C32.8176 118.468 32.7125 118.59 32.6329 118.726C32.5534 118.866 32.5022 119.019 32.488 119.178C32.471 119.338 32.488 119.5 32.5392 119.65C32.5903 119.804 32.6699 119.943 32.7778 120.06C33.2211 120.586 34.0479 120.722 34.6901 120.685L34.6873 120.688Z" fill="#808080"/>
<path d="M50.1274 113.293C50.1444 113.293 49.8944 112.15 49.8717 112.087C49.5904 111.271 48.576 109.858 47.6128 109.878C47.4536 109.886 47.2945 109.926 47.1525 109.997C47.0104 110.068 46.8825 110.171 46.7802 110.296C46.6779 110.421 46.6041 110.563 46.5614 110.719C46.5188 110.873 46.5103 111.035 46.5359 111.194C46.6154 111.868 47.2349 112.437 47.7889 112.764C48.4424 113.133 50.1274 113.293 50.1274 113.293Z" fill="#808080"/>
<path d="M35.4857 116.437V116.42C35.5766 116.682 35.6761 116.96 35.7869 117.262C36 117.816 36.2472 118.439 36.5626 119.101C36.8922 119.818 37.2672 120.512 37.6792 121.186C38.1367 121.942 38.6624 122.656 39.2477 123.321L39.2676 123.341C39.0232 123.196 38.3328 122.818 38.2788 122.792C37.4803 122.465 35.7499 122.3 35.1277 123.039C35.0282 123.165 34.9543 123.31 34.9146 123.463C34.8748 123.619 34.8663 123.782 34.8918 123.938C34.9174 124.094 34.9771 124.245 35.0652 124.379C35.1532 124.512 35.2697 124.626 35.4061 124.711C35.9687 125.098 36.8012 125.013 37.4093 124.802C38.0969 124.569 39.2477 123.5 39.3386 123.415C39.9524 124.074 40.6059 124.691 41.2992 125.263C41.7027 125.598 42.1175 125.925 42.538 126.244C42.3249 126.127 42.1317 126.025 42.1004 126.011C41.3077 125.684 39.5744 125.519 38.9522 126.258C38.8527 126.383 38.7789 126.528 38.7391 126.682C38.6993 126.838 38.6908 126.997 38.7192 127.157C38.7476 127.316 38.8044 127.466 38.8925 127.597C38.9806 127.728 39.0971 127.845 39.2335 127.93C39.7932 128.317 40.6258 128.231 41.2367 128.021C41.8476 127.811 42.8563 126.918 43.1148 126.679L43.6035 127.043C44.3878 127.623 45.172 128.2 45.925 128.786C46.1892 128.993 46.4421 129.207 46.6978 129.423C46.5074 129.317 46.3455 129.229 46.3199 129.221C45.5243 128.894 43.7911 128.729 43.1717 129.468C43.0722 129.593 42.9983 129.738 42.9585 129.892C42.9188 130.048 42.9102 130.207 42.9387 130.367C42.9642 130.526 43.0239 130.677 43.112 130.807C43.2001 130.941 43.3166 131.055 43.453 131.14C44.0155 131.527 44.8452 131.441 45.4561 131.231C46.067 131.021 46.9763 130.213 47.2888 129.932C47.5417 130.156 47.7974 130.384 48.0333 130.614C48.1896 130.773 48.3544 130.915 48.5021 131.089L48.951 131.581C49.2238 131.902 49.5108 132.235 49.7694 132.556C49.9541 132.778 50.1217 132.997 50.2922 133.213C50.0308 133.002 49.5108 132.61 49.4653 132.573C48.7237 132.13 47.0388 131.706 46.3142 132.34C46.1949 132.448 46.104 132.582 46.0386 132.727C45.9761 132.875 45.9449 133.034 45.9449 133.193C45.9449 133.352 45.9818 133.511 46.05 133.656C46.1182 133.801 46.2148 133.932 46.3341 134.037C46.8314 134.504 47.6696 134.541 48.3032 134.43C49.0022 134.31 50.2524 133.463 50.4087 133.358C50.69 133.716 50.9627 134.069 51.2128 134.404C51.8407 135.24 52.3664 135.994 52.7869 136.613H53.5598C53.0881 135.937 52.4488 135.055 51.6674 134.057C51.3662 133.691 51.065 133.304 50.7468 132.914C51.0707 132.55 51.3719 132.164 51.6504 131.763C52.3323 132.019 53.7416 132.004 53.9263 132.002C53.9633 132.459 53.9945 132.906 54.0201 133.321C54.094 134.654 54.1167 135.78 54.1167 136.616H54.5031L54.7589 136.488C54.739 135.661 54.6935 134.563 54.5912 133.284C54.5543 132.823 54.506 132.329 54.452 131.82C54.631 131.771 56.0915 131.37 56.6399 130.915C57.1371 130.506 57.6542 129.846 57.623 129.167C57.623 129.008 57.586 128.848 57.5178 128.703C57.4525 128.558 57.3559 128.428 57.2337 128.322C57.1144 128.217 56.9723 128.138 56.8217 128.089C56.6683 128.041 56.5091 128.027 56.35 128.044C55.3953 128.183 54.6196 129.738 54.4747 130.588C54.4747 130.64 54.4349 131.191 54.4207 131.544C54.3952 131.336 54.3781 131.134 54.3525 130.924C54.3042 130.503 54.2417 130.085 54.1792 129.633C54.1394 129.417 54.1025 129.201 54.0627 128.976C54.0229 128.755 53.9633 128.53 53.9121 128.302C53.7899 127.782 53.6393 127.259 53.4717 126.733C53.8382 126.69 55.1453 126.517 55.7022 126.184C56.2591 125.854 56.8643 125.28 56.9382 124.603C56.9609 124.444 56.9496 124.282 56.9069 124.128C56.8643 123.975 56.7876 123.83 56.6853 123.708C56.583 123.585 56.4552 123.486 56.3103 123.415C56.1653 123.344 56.0091 123.304 55.8499 123.301C54.8867 123.301 53.8809 124.714 53.6109 125.533C53.5967 125.584 53.466 126.193 53.4035 126.528C53.3012 126.227 53.2018 125.903 53.1023 125.584C52.7784 124.68 52.4204 123.779 52.0681 122.875C51.9601 122.599 51.855 122.317 51.7498 122.041C51.8805 122.027 53.4376 121.851 54.057 121.481C54.6083 121.151 55.222 120.577 55.293 119.9C55.3158 119.741 55.3044 119.582 55.2618 119.426C55.2192 119.272 55.1424 119.127 55.0401 119.005C54.9379 118.882 54.81 118.78 54.6679 118.712C54.5259 118.641 54.3667 118.601 54.2076 118.595C53.2415 118.595 52.2385 120.008 51.9686 120.827C51.9487 120.887 51.764 121.763 51.7271 121.99C51.4941 121.387 51.2696 120.765 51.0707 120.153C50.8008 119.326 50.582 118.482 50.4172 117.626C50.4797 117.626 52.105 117.444 52.7415 117.066C53.2927 116.733 53.9064 116.161 53.9775 115.485C54.0002 115.325 53.9917 115.163 53.9462 115.01C53.9036 114.856 53.8269 114.711 53.7246 114.589C53.6223 114.467 53.4944 114.367 53.3495 114.296C53.2046 114.225 53.0483 114.185 52.8892 114.182C51.9231 114.182 50.923 115.596 50.6502 116.414C50.6332 116.466 50.4911 117.134 50.4343 117.452H50.3774C50.2382 116.588 50.1757 115.712 50.1899 114.836C50.1899 114.356 50.2212 113.892 50.2581 113.446C50.5593 113.446 51.9601 113.423 52.571 113.145C53.1819 112.869 53.8269 112.374 53.9775 111.709C54.0173 111.552 54.0258 111.393 53.9974 111.234C53.9718 111.078 53.9121 110.927 53.8212 110.793C53.7331 110.66 53.6166 110.546 53.4831 110.461C53.3495 110.375 53.1961 110.318 53.037 110.296C52.0766 110.182 50.9315 111.501 50.5678 112.269C50.5508 112.312 50.4002 112.766 50.295 113.099C50.3121 112.897 50.332 112.687 50.3547 112.496C50.4428 111.774 50.5621 111.114 50.6758 110.534C50.744 110.202 50.8122 109.906 50.8775 109.63C51.1787 109.471 52.3806 108.82 52.7812 108.3C53.1819 107.779 53.5427 107.037 53.3637 106.377C53.3296 106.221 53.2614 106.073 53.1648 105.945C53.0682 105.817 52.946 105.712 52.8068 105.633C52.6676 105.556 52.5113 105.507 52.3522 105.493C52.1931 105.479 52.0311 105.499 51.8805 105.553C50.977 105.894 50.5536 107.58 50.5962 108.442C50.5962 108.516 50.7923 109.673 50.8065 109.664H50.8235C50.7553 109.929 50.6843 110.216 50.6133 110.529C50.4882 111.109 50.349 111.766 50.2467 112.491C50.1302 113.273 50.0563 114.06 50.0308 114.848C49.9967 115.732 50.0393 116.616 50.1643 117.492C50.1643 117.503 50.1643 117.512 50.1643 117.523C50.0421 117.27 49.6728 116.568 49.6387 116.52C49.1528 115.806 47.8003 114.714 46.8768 114.984C46.7234 115.033 46.5842 115.115 46.4648 115.223C46.3455 115.331 46.2517 115.462 46.1864 115.61C46.121 115.755 46.0869 115.914 46.0869 116.076C46.0869 116.235 46.121 116.395 46.1864 116.542C46.4421 117.171 47.1865 117.557 47.8088 117.722C48.5106 117.91 50.0592 117.651 50.1842 117.629C50.332 118.516 50.5365 119.394 50.8008 120.253C50.9514 120.756 51.102 121.257 51.2924 121.76C51.1815 121.544 51.0764 121.35 51.0622 121.325C50.5763 120.611 49.2238 119.519 48.2975 119.792C48.1441 119.841 48.0049 119.923 47.8855 120.028C47.7662 120.136 47.6724 120.267 47.6071 120.412C47.5417 120.557 47.5076 120.716 47.5076 120.876C47.5076 121.035 47.5417 121.194 47.6071 121.339C47.8628 121.97 48.6101 122.354 49.2295 122.522C49.8489 122.69 51.1872 122.493 51.5367 122.437L51.7385 122.997C52.0737 123.901 52.409 124.825 52.7131 125.729C52.8182 126.048 52.9119 126.366 53.0142 126.685C52.9119 126.491 52.8239 126.332 52.8097 126.309C52.3238 125.596 50.9713 124.504 50.0478 124.777C49.8944 124.825 49.7552 124.907 49.6358 125.013C49.5165 125.121 49.4227 125.252 49.3574 125.397C49.292 125.544 49.2579 125.701 49.2579 125.863C49.2579 126.022 49.292 126.181 49.3574 126.326C49.6131 126.958 50.3575 127.344 50.9798 127.509C51.6021 127.674 52.8068 127.509 53.2245 127.435C53.3126 127.762 53.3978 128.095 53.4689 128.416C53.5115 128.635 53.5683 128.846 53.5967 129.07C53.628 129.292 53.6649 129.514 53.699 129.73C53.7502 130.151 53.8041 130.586 53.8439 130.998C53.8752 131.299 53.8951 131.558 53.9178 131.831C53.8155 131.513 53.6024 130.893 53.5768 130.844C53.2245 130.173 52.7074 129.602 52.0737 129.19C52.0396 129.113 51.9942 129.039 51.943 128.971C51.8521 128.837 51.7356 128.726 51.6021 128.641C51.4657 128.555 51.3151 128.501 51.156 128.479C50.9968 128.456 50.8349 128.467 50.6815 128.513C50.528 128.558 50.386 128.632 50.2609 128.737C49.5421 129.383 49.7523 131.106 50.1018 131.896C50.1217 131.942 50.403 132.42 50.582 132.721L50.1814 132.243C49.9086 131.919 49.6245 131.601 49.3233 131.262L48.863 130.782C48.7124 130.62 48.5362 130.463 48.3686 130.304C47.9764 129.937 47.5616 129.585 47.1354 129.238C47.4195 128.996 48.4112 128.129 48.6925 127.549C48.9738 126.969 49.1641 126.153 48.8516 125.547C48.7834 125.402 48.6868 125.274 48.5646 125.169C48.4424 125.064 48.3004 124.987 48.1469 124.942C47.9935 124.896 47.8315 124.882 47.6724 124.905C47.5133 124.925 47.3627 124.979 47.2263 125.064C46.4165 125.587 46.3625 127.327 46.587 128.16C46.6012 128.211 46.8314 128.789 46.9621 129.107C46.7035 128.9 46.4478 128.695 46.1807 128.504C45.4107 127.93 44.6094 127.37 43.8166 126.807C43.5723 126.636 43.3308 126.46 43.0921 126.287C43.1944 126.201 44.3963 125.2 44.7088 124.546C44.9901 123.966 45.1805 123.15 44.8708 122.545C44.8026 122.4 44.7032 122.272 44.5838 122.167C44.4616 122.061 44.3196 121.985 44.1661 121.939C44.0127 121.894 43.8507 121.879 43.6916 121.902C43.5325 121.922 43.3791 121.976 43.2427 122.061C42.4357 122.584 42.3817 124.325 42.6091 125.158C42.6091 125.22 42.9557 126.062 43.0495 126.261C42.521 125.877 41.9925 125.49 41.4895 125.089C40.8076 124.549 40.1598 123.966 39.5517 123.344C39.6 123.304 40.8588 122.263 41.1798 121.595C41.4583 121.015 41.6515 120.199 41.3418 119.593C41.2736 119.448 41.1742 119.32 41.0548 119.215C40.9355 119.11 40.7906 119.033 40.6371 118.988C40.4837 118.942 40.3217 118.928 40.1626 118.951C40.0035 118.971 39.8501 119.025 39.7137 119.11C38.9039 119.633 38.8527 121.373 39.0744 122.206C39.0744 122.26 39.3415 122.897 39.4693 123.193L39.421 123.224C38.83 122.579 38.293 121.885 37.8242 121.146C37.5599 120.742 37.3297 120.341 37.1138 119.94C37.3695 119.77 38.5231 118.979 38.8783 118.41C39.2335 117.842 39.5006 117.074 39.2619 116.437C39.2108 116.287 39.1255 116.147 39.0175 116.031C38.9096 115.914 38.776 115.82 38.6283 115.758C38.4805 115.695 38.3214 115.664 38.1623 115.667C38.0032 115.669 37.844 115.706 37.6991 115.775C36.8382 116.207 36.5938 117.93 36.7274 118.786C36.7274 118.831 36.8609 119.292 36.9547 119.627C36.8609 119.445 36.7586 119.263 36.6705 119.09C36.3438 118.436 36.0682 117.819 35.8579 117.285C35.7329 116.983 35.6221 116.682 35.5255 116.42C35.6874 116.119 36.3267 114.913 36.3807 114.259C36.4347 113.602 36.3182 112.786 35.8096 112.334C35.6931 112.223 35.5567 112.138 35.4061 112.084C35.2555 112.03 35.0936 112.01 34.9345 112.022C34.7753 112.033 34.6191 112.081 34.4798 112.158C34.3378 112.235 34.2156 112.34 34.119 112.468C33.5535 113.247 34.119 114.893 34.6389 115.584C34.6787 115.613 35.4885 116.468 35.4885 116.454L35.4857 116.437Z" fill="#808080"/>
<path d="M131.888 104.859C132.539 105.502 134.468 106.193 134.468 106.193C134.468 106.193 134.537 104.783 134.531 104.686C134.449 103.648 133.679 101.689 132.545 101.419C132.354 101.379 132.158 101.382 131.971 101.422C131.78 101.464 131.604 101.544 131.448 101.658C131.292 101.771 131.161 101.919 131.067 102.087C130.971 102.255 130.914 102.442 130.894 102.636C130.786 103.458 131.337 104.308 131.891 104.854L131.888 104.859Z" fill="#808080"/>
<path d="M151.048 112.713C151.048 112.727 151.883 111.575 151.926 111.507C152.432 110.603 152.866 108.538 152.071 107.685C151.934 107.549 151.77 107.441 151.591 107.37C151.409 107.299 151.216 107.268 151.022 107.279C150.829 107.287 150.639 107.339 150.468 107.427C150.295 107.515 150.144 107.637 150.022 107.788C149.479 108.411 149.474 109.426 149.633 110.196C149.82 111.069 151.048 112.707 151.048 112.71V112.713Z" fill="#808080"/>
<path d="M159.413 107.978C158.376 107.447 156.521 108.433 155.785 109.184C155.722 109.247 154.838 110.355 154.861 110.364H154.881C154.58 110.518 154.279 110.685 153.935 110.876C153.313 111.234 152.611 111.643 151.878 112.141C151.082 112.667 150.318 113.241 149.59 113.858C148.769 114.544 148.013 115.303 147.329 116.122L147.309 116.156C147.434 115.837 147.763 114.95 147.78 114.868C148.028 113.856 147.908 111.754 146.911 111.146C146.743 111.049 146.556 110.99 146.363 110.97C146.169 110.95 145.976 110.97 145.791 111.032C145.607 111.092 145.439 111.191 145.294 111.322C145.149 111.453 145.036 111.612 144.959 111.788C144.601 112.531 144.862 113.512 145.217 114.197C145.618 114.976 147.11 116.156 147.229 116.25C146.553 117.103 145.933 117.998 145.377 118.931C145.05 119.474 144.734 120.031 144.428 120.594C144.53 120.318 144.618 120.068 144.626 120.031C144.874 119.019 144.754 116.918 143.76 116.309C143.592 116.213 143.405 116.153 143.211 116.133C143.018 116.113 142.825 116.133 142.64 116.193C142.456 116.253 142.288 116.352 142.143 116.483C141.998 116.614 141.885 116.773 141.808 116.949C141.453 117.694 141.711 118.672 142.066 119.357C142.422 120.043 143.68 121.092 144.013 121.359C143.899 121.578 143.783 121.791 143.666 122.01C143.115 123.054 142.569 124.097 142.004 125.104C141.805 125.459 141.595 125.803 141.387 126.147C141.478 125.9 141.552 125.69 141.558 125.658C141.805 124.643 141.686 122.545 140.691 121.934C140.523 121.837 140.336 121.777 140.143 121.757C139.95 121.737 139.756 121.757 139.572 121.82C139.387 121.879 139.219 121.979 139.074 122.11C138.929 122.241 138.816 122.4 138.739 122.576C138.384 123.315 138.642 124.299 138.998 124.984C139.353 125.67 140.501 126.616 140.884 126.938C140.663 127.282 140.438 127.626 140.208 127.953C140.043 128.169 139.907 128.394 139.725 128.601C139.54 128.809 139.387 129.022 139.219 129.227C138.887 129.616 138.54 130.014 138.202 130.387C137.969 130.645 137.742 130.887 137.514 131.132C137.716 130.782 138.097 130.085 138.117 130.023C138.435 129.164 138.526 128.237 138.381 127.33C138.421 127.233 138.452 127.131 138.475 127.029C138.52 126.841 138.526 126.645 138.492 126.454C138.458 126.264 138.384 126.082 138.273 125.923C138.165 125.763 138.023 125.627 137.858 125.525C137.693 125.422 137.509 125.357 137.318 125.331C136.156 125.203 134.781 126.798 134.358 127.74C134.335 127.796 134.133 128.436 134.008 128.843C134.045 128.593 134.079 128.351 134.113 128.092C134.181 127.586 134.235 127.077 134.298 126.528C134.315 126.264 134.338 125.997 134.355 125.724C134.372 125.454 134.372 125.169 134.386 124.891C134.386 124.239 134.386 123.583 134.338 122.92C134.784 122.977 136.367 123.165 137.117 122.943C137.867 122.724 138.75 122.232 139.04 121.462C139.114 121.282 139.151 121.089 139.145 120.896C139.14 120.702 139.094 120.512 139.012 120.336C138.929 120.159 138.81 120.006 138.662 119.881C138.515 119.756 138.341 119.662 138.157 119.608C137.031 119.306 135.432 120.674 134.869 121.55C134.832 121.604 134.503 122.278 134.324 122.656C134.301 122.255 134.278 121.857 134.238 121.45C134.13 120.287 133.983 119.116 133.841 117.947C133.798 117.589 133.758 117.231 133.718 116.875C133.877 116.898 135.753 117.16 136.591 116.912C137.338 116.693 138.225 116.201 138.515 115.431C138.588 115.252 138.625 115.058 138.62 114.865C138.614 114.672 138.569 114.481 138.486 114.305C138.404 114.131 138.284 113.975 138.137 113.85C137.989 113.725 137.818 113.631 137.631 113.577C136.506 113.276 134.903 114.643 134.341 115.519C134.298 115.584 133.821 116.557 133.713 116.81C133.622 116.022 133.542 115.237 133.494 114.458C133.426 113.409 133.426 112.354 133.494 111.305C133.565 111.305 135.523 111.607 136.384 111.345C137.131 111.126 138.017 110.634 138.307 109.864C138.381 109.684 138.418 109.491 138.412 109.298C138.407 109.104 138.361 108.914 138.279 108.738C138.196 108.564 138.077 108.408 137.929 108.283C137.782 108.158 137.611 108.064 137.424 108.01C136.298 107.708 134.696 109.076 134.133 109.952C134.096 110.011 133.73 110.751 133.568 111.106L133.502 111.092C133.596 110.037 133.787 108.991 134.065 107.97C134.213 107.407 134.386 106.872 134.565 106.361C134.923 106.452 136.568 106.847 137.367 106.702C138.165 106.557 139.069 106.179 139.444 105.442C139.538 105.272 139.594 105.084 139.611 104.891C139.628 104.697 139.603 104.504 139.54 104.319C139.478 104.137 139.376 103.969 139.242 103.827C139.108 103.685 138.949 103.574 138.77 103.5C137.682 103.082 135.937 104.259 135.287 105.07C135.25 105.115 134.937 105.604 134.716 105.974C134.801 105.741 134.883 105.505 134.969 105.286C135.284 104.464 135.628 103.728 135.935 103.082C136.114 102.715 136.281 102.386 136.443 102.081C136.841 101.985 138.441 101.581 139.074 101.095C139.705 100.606 140.344 99.8408 140.336 99.0191C140.342 98.8257 140.305 98.6295 140.231 98.4504C140.157 98.2713 140.043 98.1092 139.901 97.9756C139.759 97.8419 139.592 97.7396 139.407 97.677C139.222 97.6145 139.026 97.5889 138.833 97.6088C137.674 97.7367 136.673 99.5878 136.46 100.62C136.443 100.711 136.318 102.124 136.341 102.124H136.367C136.207 102.425 136.04 102.727 135.861 103.077C135.54 103.719 135.179 104.447 134.841 105.266C134.468 106.144 134.147 107.046 133.88 107.961C133.573 108.985 133.36 110.037 133.244 111.1C133.244 111.115 133.244 111.126 133.244 111.14C133.178 110.802 132.943 109.872 132.943 109.804C132.587 108.826 131.329 107.14 130.167 107.177C129.973 107.188 129.783 107.242 129.613 107.333C129.442 107.424 129.289 107.549 129.169 107.7C129.05 107.85 128.962 108.027 128.914 108.217C128.865 108.405 128.857 108.601 128.891 108.792C129.002 109.608 129.76 110.279 130.439 110.663C131.204 111.092 133.099 111.265 133.25 111.265C133.153 112.349 133.13 113.44 133.184 114.527C133.207 115.161 133.255 115.798 133.306 116.434C133.241 116.133 133.176 115.889 133.164 115.857C132.809 114.876 131.55 113.19 130.388 113.233C130.195 113.244 130.007 113.298 129.834 113.386C129.664 113.477 129.51 113.603 129.391 113.753C129.272 113.907 129.183 114.08 129.135 114.268C129.087 114.456 129.078 114.652 129.112 114.842C129.223 115.658 129.982 116.332 130.661 116.713C131.34 117.091 132.96 117.27 133.389 117.316C133.411 117.56 133.434 117.808 133.457 118.05C133.571 119.224 133.693 120.392 133.775 121.547C133.806 121.953 133.821 122.354 133.835 122.752C133.775 122.496 133.721 122.283 133.707 122.249C133.355 121.271 132.096 119.585 130.931 119.622C130.738 119.633 130.55 119.687 130.377 119.778C130.206 119.869 130.056 119.994 129.936 120.145C129.817 120.296 129.729 120.472 129.681 120.66C129.632 120.847 129.624 121.044 129.658 121.234C129.769 122.05 130.527 122.724 131.204 123.108C131.88 123.492 133.346 123.645 133.855 123.696V124.919C133.838 125.189 133.841 125.454 133.809 125.727C133.778 125.999 133.758 126.261 133.733 126.528C133.664 127.037 133.596 127.56 133.519 128.055C133.468 128.402 133.414 128.726 133.357 129.059C133.335 128.652 133.269 127.853 133.255 127.796C133.056 126.776 132.067 124.919 130.908 124.785C130.715 124.768 130.522 124.791 130.337 124.854C130.152 124.916 129.985 125.016 129.843 125.149C129.701 125.28 129.587 125.442 129.513 125.621C129.436 125.8 129.399 125.994 129.405 126.187C129.391 127.012 130.036 127.794 130.65 128.271C131.323 128.8 133.096 129.238 133.318 129.292C133.224 129.835 133.13 130.364 133.031 130.864C132.695 132.573 132.357 133.986 132.102 134.979L132.84 135.26C132.84 135.24 132.84 135.218 132.855 135.195C133.093 134.185 133.409 132.741 133.713 130.978C133.809 130.427 133.9 129.835 133.988 129.224C134.576 129.218 135.162 129.175 135.744 129.096C136.068 129.912 137.225 131.169 137.375 131.331C137 131.734 136.625 132.124 136.27 132.485C135.048 133.725 133.983 134.717 133.224 135.402L134.034 135.704C134.758 135.013 135.704 134.083 136.767 132.954C137.154 132.545 137.554 132.101 137.972 131.643C138.159 131.763 139.702 132.75 140.552 132.872C141.322 132.983 142.333 132.914 142.919 132.334C143.061 132.204 143.175 132.044 143.251 131.865C143.328 131.686 143.365 131.496 143.362 131.299C143.362 131.106 143.317 130.916 143.234 130.739C143.152 130.563 143.035 130.407 142.89 130.279C141.987 129.534 139.969 130.105 139.089 130.665C139.037 130.699 138.515 131.12 138.185 131.39L138.688 130.825C139.026 130.438 139.35 130.046 139.699 129.619L140.194 128.982C140.362 128.775 140.515 128.53 140.677 128.303C141.043 127.771 141.387 127.208 141.723 126.634C142.061 126.935 143.28 127.959 144.024 128.186C144.771 128.413 145.777 128.487 146.431 128.015C146.593 127.907 146.729 127.765 146.831 127.603C146.934 127.438 147.002 127.253 147.027 127.063C147.053 126.872 147.042 126.676 146.988 126.489C146.934 126.301 146.843 126.13 146.718 125.98C145.942 125.107 143.856 125.363 142.902 125.781C142.842 125.809 142.194 126.187 141.839 126.4C142.041 126.056 142.24 125.712 142.441 125.357C142.993 124.33 143.515 123.27 144.041 122.215C144.2 121.894 144.365 121.572 144.527 121.254C144.646 121.359 146.067 122.613 146.905 122.872C147.647 123.096 148.658 123.173 149.312 122.698C149.474 122.593 149.61 122.454 149.715 122.289C149.821 122.124 149.889 121.942 149.917 121.749C149.946 121.555 149.934 121.362 149.88 121.174C149.826 120.987 149.735 120.813 149.613 120.665C148.837 119.792 146.749 120.046 145.797 120.466C145.726 120.5 144.791 121.044 144.561 121.194C144.922 120.489 145.286 119.787 145.675 119.113C146.195 118.197 146.775 117.319 147.408 116.477C147.465 116.528 148.94 117.842 149.798 118.106C150.539 118.331 151.551 118.408 152.204 117.933C152.366 117.825 152.503 117.686 152.605 117.521C152.707 117.356 152.776 117.174 152.801 116.98C152.827 116.787 152.815 116.594 152.761 116.406C152.707 116.221 152.616 116.048 152.491 115.9C151.716 115.027 149.627 115.28 148.675 115.701C148.613 115.729 147.903 116.144 147.567 116.352L147.522 116.301C148.184 115.473 148.917 114.706 149.713 114.009C150.144 113.62 150.582 113.273 151.014 112.943C151.264 113.216 152.42 114.447 153.162 114.774C153.906 115.098 154.873 115.274 155.589 114.868C155.759 114.777 155.91 114.652 156.032 114.501C156.151 114.35 156.239 114.174 156.288 113.986C156.336 113.799 156.344 113.603 156.31 113.412C156.279 113.222 156.205 113.04 156.097 112.877C155.421 111.925 153.315 111.951 152.324 112.275C152.27 112.289 151.741 112.525 151.358 112.701C151.557 112.553 151.756 112.4 151.96 112.263C152.679 111.754 153.369 111.331 153.983 110.958C154.335 110.751 154.657 110.569 154.958 110.404C155.344 110.543 156.901 111.089 157.697 111.032C158.492 110.975 159.444 110.688 159.893 109.997C160.004 109.838 160.081 109.656 160.118 109.465C160.155 109.275 160.149 109.079 160.104 108.888C160.058 108.698 159.973 108.522 159.856 108.368C159.737 108.214 159.589 108.086 159.416 107.995L159.413 107.978Z" fill="#808080"/>
<path d="M47.1609 27.7822C47.1013 27.5832 47.0359 27.4069 46.9649 27.2192C44.4957 20.2843 32.971 19.8067 32.971 28.331C32.971 29.9716 29.0584 28.331 27.5894 30.4663C26.1204 32.6017 27.7514 33.9124 25.7965 34.5692C23.8388 35.2261 23.6768 33.5769 21.2332 33.7475C18.7896 33.9181 19.1136 36.2099 18.2952 36.8667C17.4769 37.5235 17.4798 37.1965 15.6868 37.3614C13.8939 37.5263 13.57 38.8371 13.57 38.8371H56.4495C56.4495 38.8371 58.0804 33.9124 55.1453 32.0984C52.2101 30.2843 52.2129 32.7552 49.9285 31.7686C48.0418 30.9639 47.6894 29.4171 47.1638 27.7822H47.1609Z" stroke="#808080" stroke-width="0.903614" stroke-linecap="round" stroke-linejoin="round"/>
<path d="M126.743 13.5457C126.694 13.395 126.643 13.2443 126.589 13.0936C124.586 7.52066 115.269 7.13397 115.269 13.9978C115.269 15.3171 112.104 13.9978 110.919 15.7151C109.734 17.4325 111.053 18.4845 109.47 19.0276C107.887 19.5707 107.754 18.2343 105.779 18.368C103.801 18.5016 104.066 20.3469 103.406 20.8729C102.747 21.399 102.747 21.1374 101.301 21.271C99.8546 21.4047 99.5818 22.4311 99.5818 22.4311H134.255C134.255 22.4311 135.574 18.4732 133.198 17.0117C130.823 15.5474 130.826 17.5377 128.985 16.7473C127.456 16.1075 127.169 14.865 126.743 13.5485V13.5457Z" stroke="#808080" stroke-width="0.903614" stroke-linecap="round" stroke-linejoin="round"/>
<path d="M144.413 59.9147C144.365 59.764 144.314 59.6133 144.26 59.4626C142.26 53.8897 132.94 53.503 132.94 60.3668C132.94 61.6861 129.774 60.3668 128.59 62.0842C127.405 63.8015 128.723 64.8536 127.138 65.3966C125.555 65.9397 125.427 64.6034 123.447 64.737C121.466 64.8706 121.736 66.716 121.074 67.242C120.415 67.768 120.415 67.5064 118.969 67.64C117.522 67.7737 117.252 68.8257 117.252 68.8257H151.934C151.934 68.8257 153.253 64.8678 150.877 63.4063C148.502 61.942 148.505 63.9323 146.664 63.1419C145.135 62.4765 144.848 61.234 144.41 59.9175L144.413 59.9147Z" stroke="#808080" stroke-width="0.903614" stroke-linecap="round" stroke-linejoin="round"/>
<path fill-rule="evenodd" clip-rule="evenodd" d="M68.8579 47.3813C68.8579 46.0563 69.0312 42.0102 70.1081 39.2323C70.8241 37.3955 71.8328 35.6838 73.0972 34.1683C73.9298 33.1589 74.8134 32.323 75.4073 31.6775C76.2966 30.7165 77.652 30.2246 78.709 30.0284C79.5557 29.8749 80.1695 29.9715 80.5161 29.6957C82.1925 28.3651 85.9347 26.9803 88.0458 26.9803C90.103 26.9889 92.1459 27.3528 94.0809 28.058C95.9704 28.7517 97.8145 29.8066 99.1926 31.2397C100.412 32.5078 101.264 34.191 101.903 35.8061C102.71 37.8447 103.173 39.8237 103.483 41.2965C104.094 44.1825 104.483 47.6485 103.906 50.4833C103.216 53.8641 101.216 56.3804 97.448 56.3804C95.1578 56.3804 84.7697 51.1942 80.6667 50.2132C79.0755 49.8322 77.4446 48.4532 76.2995 46.9292C74.6089 44.6801 73.7167 42.1438 73.4609 42.2604C72.9154 42.5078 71.938 46.2326 72.7023 49.4995C73.3444 52.2405 75.6715 54.6005 76.058 54.8962C76.5637 55.28 75.592 56.352 75.1288 56.3946C74.3588 56.4657 73.8218 56.4401 73.174 56.0875C72.6796 55.8174 70.844 54.646 70.0399 53.0878C68.9204 50.9155 68.855 48.1433 68.855 47.3841L68.8579 47.3813Z" fill="#263238"/>
<path fill-rule="evenodd" clip-rule="evenodd" d="M71.4038 68.7262C71.4038 68.7262 71.5004 66.0706 71.614 65.1379C71.7277 64.2053 72.08 63.0282 72.3841 62.161C72.6853 61.2909 73.0603 60.9554 73.3331 59.9403C73.5235 59.1869 73.6741 58.4248 73.782 57.6543C74.069 58.0495 74.2935 58.4902 74.4412 58.9565C74.714 59.7783 75.1004 61.0009 75.4414 61.8198C75.7824 62.6415 76.2114 63.7333 76.7257 64.4897C77.2428 65.246 76.9985 65.246 77.9646 66.1644C78.9306 67.0828 79.9734 68.0779 79.9734 68.0779C79.6353 68.3424 79.246 68.5329 78.8312 68.6409C78.172 68.803 77.544 69.0902 76.2569 68.8968C74.9697 68.7035 73.9241 68.8485 73.1853 68.7035C72.4466 68.5585 71.4009 68.7205 71.4009 68.7205L71.4038 68.7262Z" fill="#263238"/>
<path fill-rule="evenodd" clip-rule="evenodd" d="M101.244 72.4936C101.244 72.4936 101.451 70.7393 101.65 69.5508C101.849 68.3651 102.298 65.391 102.315 64.1172C102.332 62.8434 102.358 62.0245 102.153 60.7763C101.952 59.528 101.383 57.7964 101.383 57.7964L103.952 55.7322C103.952 55.7322 104.753 56.0108 105.407 56.8752C106.06 57.7396 106.782 58.6722 107.336 59.6787C107.89 60.6853 108.336 61.7572 108.473 62.795C108.595 63.7191 108.828 64.9872 109.061 66.1615C109.294 67.3358 109.521 69.1954 109.623 70.2303C109.723 71.2653 109.74 71.7999 109.822 72.6756C109.905 73.5513 110.018 74.7455 110.26 75.3512C110.501 75.9568 110.91 77.0202 110.91 77.0202C110.91 77.0202 110.337 76.6591 109.547 76.1871C108.754 75.7151 107.188 75.0839 106.342 74.72C105.495 74.356 104.233 73.6167 103.455 73.321C102.676 73.0253 101.241 72.4965 101.241 72.4965L101.244 72.4936Z" fill="#263238"/>
<path fill-rule="evenodd" clip-rule="evenodd" d="M88.9835 47.4269C90.2195 47.9557 90.927 47.7453 91.6998 47.7453C93.7229 47.751 95.7232 47.3359 97.5758 46.5255C99.2011 45.8062 100.781 44.9873 102.04 43.722C102.239 43.523 102.977 42.6131 103.347 42.8349C104.134 43.3069 104.097 45.8147 104.097 46.554C104.097 48.4789 104.174 51.4303 102.932 53.0481C102.162 54.049 100.747 54.8309 99.6046 55.2688C95.9903 56.6535 92.6148 55.6128 90.2308 52.6614C89.6853 51.9847 88.4635 49.7101 89.5745 48.894C90.0405 48.5528 88.2589 47.1198 88.9806 47.4297L88.9835 47.4269Z" fill="#263238"/>
<path fill-rule="evenodd" clip-rule="evenodd" d="M104.054 55.8828C104.711 55.9396 104.901 57.4097 105.02 57.9783C105.418 59.8151 104.696 62.7722 102.582 63.301C102.366 63.3551 102.474 61.2083 102.403 60.8927C102.258 60.2445 101.204 58.1546 101.633 57.6229C101.969 57.2049 102.807 57.0599 103.239 56.6988C103.557 56.4315 103.597 55.843 104.051 55.8828H104.054Z" fill="#263238"/>
<path d="M88.8868 45.4478C88.8584 45.4478 88.83 45.4449 88.8016 45.4364C87.8639 45.2004 86.5938 44.717 85.8607 43.7446C85.8039 43.6707 85.7812 43.5769 85.7954 43.483C85.8096 43.392 85.8579 43.3067 85.9318 43.2527C86.0056 43.1959 86.0994 43.1731 86.1932 43.1845C86.2841 43.1987 86.3693 43.247 86.4233 43.321C87.0626 44.174 88.293 44.5862 88.9721 44.754C89.0573 44.7739 89.1312 44.8251 89.1795 44.8962C89.2278 44.9673 89.2505 45.0526 89.2391 45.1407C89.2278 45.226 89.188 45.3056 89.1226 45.3625C89.0573 45.4193 88.9749 45.4506 88.8868 45.4478Z" fill="#263238"/>
<path d="M89.6085 44.6858C89.5801 44.6858 89.5517 44.683 89.5233 44.6745C88.6368 44.4527 88.0117 44.0148 87.3496 43.5513C87.1905 43.4404 87.0286 43.3267 86.8581 43.213C86.7842 43.159 86.7331 43.0793 86.716 42.9912C86.699 42.9002 86.716 42.8092 86.77 42.7325C86.8211 42.6557 86.8979 42.6017 86.9888 42.5846C87.0797 42.5647 87.1706 42.5846 87.2502 42.6301C87.4235 42.7467 87.5912 42.8604 87.7531 42.977C88.3867 43.4205 88.9323 43.8016 89.6938 43.9921C89.7762 44.012 89.8501 44.0631 89.8984 44.1342C89.9467 44.2053 89.9666 44.2906 89.958 44.3759C89.9467 44.4612 89.9069 44.538 89.8415 44.5948C89.779 44.6517 89.6938 44.683 89.6085 44.683V44.6858Z" fill="#263238"/>
<path d="M107.558 66.7273C107.475 66.7273 107.393 66.6988 107.33 66.6448C107.268 66.5908 107.225 66.5169 107.211 66.4344C107.129 65.9254 107.083 65.5985 107.049 65.371C107.002 65.0412 106.915 64.7066 106.79 64.3673C106.728 64.1995 106.648 63.9778 106.54 63.6735C106.523 63.6309 106.515 63.5825 106.515 63.5342C106.515 63.4859 106.526 63.4404 106.546 63.3949C106.566 63.3522 106.594 63.3124 106.628 63.2811C106.663 63.2499 106.705 63.2243 106.751 63.2072C106.796 63.193 106.844 63.1845 106.89 63.1873C106.938 63.1902 106.984 63.2044 107.026 63.2243C107.069 63.247 107.106 63.2755 107.137 63.3124C107.168 63.3494 107.188 63.392 107.202 63.4375C107.31 63.7389 107.39 63.9579 107.45 64.1228C107.657 64.6914 107.663 64.7113 107.742 65.2686C107.774 65.4933 107.819 65.8174 107.904 66.3207C107.918 66.4117 107.896 66.5055 107.842 66.5823C107.788 66.659 107.705 66.7102 107.614 66.7244C107.595 66.7244 107.578 66.7244 107.558 66.7244V66.7273Z" fill="#263238"/>
<path d="M96.1182 32.4083C96.0329 32.4083 95.9505 32.377 95.888 32.3202C95.476 32.0017 95.0441 31.7117 94.5924 31.453C94.5071 31.4757 94.4133 31.4672 94.3338 31.4245C94.2542 31.3819 94.1946 31.3108 94.1633 31.2283C94.132 31.1459 94.1292 31.0577 94.1548 30.9753C94.1803 30.8928 94.2343 30.8217 94.3054 30.7734C94.777 30.4549 96.3341 31.7799 96.3483 31.7941C96.4023 31.8425 96.4393 31.9022 96.4591 31.9733C96.4762 32.0415 96.4734 32.1154 96.4478 32.1837C96.4222 32.2519 96.3767 32.3088 96.3199 32.3486C96.2602 32.3884 96.1921 32.4112 96.121 32.4112L96.1182 32.4083Z" fill="#263238"/>
<path d="M97.1155 31.9449C97.0303 31.9449 96.9479 31.9136 96.8854 31.8567C96.2148 31.2653 95.6806 30.8189 94.8992 30.4379C94.8566 30.418 94.8197 30.3896 94.7913 30.3554C94.76 30.3213 94.7373 30.2815 94.7231 30.236C94.7089 30.1934 94.7003 30.1479 94.7032 30.0995C94.7032 30.0541 94.7174 30.0086 94.7373 29.9659C94.7572 29.9261 94.7856 29.8863 94.8197 29.8579C94.8538 29.8266 94.8936 29.8038 94.939 29.7896C94.9816 29.7754 95.0299 29.7697 95.0754 29.7726C95.1209 29.7726 95.1663 29.7868 95.2061 29.8067C96.0642 30.2247 96.6325 30.6995 97.3457 31.3279C97.3997 31.3734 97.4366 31.4359 97.4537 31.507C97.4707 31.5752 97.4679 31.6492 97.4423 31.7146C97.4167 31.7828 97.3712 31.8397 97.3144 31.8795C97.2548 31.9193 97.1866 31.942 97.1155 31.942V31.9449Z" fill="#263238"/>
<path d="M108.046 65.681C107.958 65.681 107.873 65.6469 107.811 65.59C107.745 65.5303 107.705 65.4478 107.697 65.3625L107.691 65.3028C107.614 64.4612 107.529 63.412 107.029 62.7637C106.998 62.7268 106.975 62.6841 106.961 62.6386C106.947 62.5931 106.944 62.5448 106.947 62.4993C106.95 62.4538 106.967 62.4055 106.989 62.3657C107.012 62.3259 107.043 62.2889 107.08 62.2605C107.117 62.232 107.163 62.2093 107.208 62.1979C107.254 62.1865 107.302 62.1837 107.35 62.1922C107.399 62.2007 107.441 62.2178 107.481 62.2406C107.521 62.2661 107.555 62.3003 107.583 62.3372C108.205 63.1504 108.305 64.3105 108.387 65.2431L108.393 65.3028C108.396 65.3483 108.393 65.3938 108.379 65.4393C108.365 65.482 108.342 65.5246 108.313 65.5587C108.285 65.5928 108.248 65.6241 108.205 65.644C108.163 65.6639 108.12 65.6781 108.075 65.681H108.044H108.046Z" fill="#263238"/>
<path d="M85.247 70.4948C84.7526 70.5005 84.2611 70.4607 83.7752 70.3725C79.8256 69.5451 76.1347 65.8545 74.8021 61.399C74.3418 59.8437 73.9099 58.7376 73.5348 57.7624C73.3473 57.2733 73.1683 56.8098 73.012 56.3578C72.9949 56.3151 72.9893 56.2668 72.9893 56.2184C72.9893 56.1701 73.0006 56.1246 73.0205 56.082C73.0404 56.0393 73.0688 56.0023 73.1029 55.9682C73.137 55.9369 73.1796 55.9142 73.2222 55.8971C73.2677 55.8829 73.3132 55.8744 73.3615 55.8801C73.4098 55.8801 73.4552 55.8943 73.495 55.917C73.5348 55.9398 73.5746 55.9682 73.6058 56.0023C73.6371 56.0365 73.6598 56.0791 73.674 56.1246C73.8275 56.5653 74.0008 57.0203 74.1883 57.5093C74.5691 58.4959 75.001 59.6162 75.4726 61.1971C76.7172 65.3512 80.2689 68.9224 83.9173 69.6845C84.2383 69.7527 91.8731 71.2227 96.9678 61.1914C97.0132 61.1118 97.0843 61.0521 97.1723 61.0265C97.2604 61.0009 97.3542 61.0095 97.4338 61.0493C97.5133 61.0891 97.5758 61.1601 97.6071 61.2483C97.6355 61.3336 97.6327 61.4274 97.5957 61.5099C93.5553 69.4627 87.9037 70.492 85.2499 70.492L85.247 70.4948Z" fill="#263238"/>
<path d="M98.8033 59.3489C98.7124 59.346 98.6271 59.3062 98.5646 59.2408C98.5021 59.1755 98.468 59.0873 98.468 58.9992C98.468 58.911 98.5021 58.8229 98.5646 58.7575C98.6271 58.6921 98.7124 58.6523 98.8033 58.6494C99.6813 58.6437 100.309 58.2457 100.983 57.6486C101.838 56.8923 102.722 55.9682 102.795 54.8536C102.915 53.0139 102.082 51.9761 101.258 51.7913C100.318 51.5809 99.3631 52.3856 98.7721 53.8897C98.7351 53.975 98.6698 54.0404 98.5845 54.0745C98.4993 54.1086 98.4055 54.1115 98.3203 54.0774C98.235 54.0432 98.1668 53.9778 98.1299 53.8954C98.093 53.8129 98.0901 53.7163 98.1185 53.631C98.988 51.4188 100.392 50.8729 101.412 51.1032C102.767 51.4075 103.628 52.9685 103.5 54.8991C103.409 56.2667 102.415 57.3216 101.454 58.1718C100.77 58.7774 99.974 59.3432 98.8118 59.3489H98.8033Z" fill="#263238"/>
<path d="M99.0818 56.6079C99.0335 56.6079 98.988 56.5937 98.9482 56.571C98.9085 56.5454 98.8744 56.5112 98.8516 56.4686C98.8289 56.4259 98.8175 56.3805 98.8204 56.3321C98.8204 56.2838 98.8374 56.2383 98.863 56.1985L98.9852 56.0108C99.3688 55.4166 99.9512 54.5152 100.767 53.9068C100.824 53.8641 100.892 53.847 100.963 53.8584C101.031 53.8698 101.093 53.9068 101.136 53.9608C101.179 54.0148 101.196 54.0859 101.184 54.157C101.173 54.2252 101.136 54.2878 101.082 54.3304C100.341 54.882 99.7921 55.735 99.4284 56.298L99.3034 56.4913C99.2807 56.5283 99.2466 56.5567 99.2096 56.5795C99.1727 56.5994 99.1272 56.6108 99.0846 56.6108L99.0818 56.6079Z" fill="#263238"/>
<path d="M82.7835 60.5488C82.7466 60.5488 82.7097 60.5403 82.6756 60.526C80.8599 59.7128 80.9508 58.9451 81.2833 57.9471C81.5134 57.2619 81.7237 56.6165 80.8628 55.7066C80.8144 55.6554 80.7889 55.5872 80.7917 55.5189C80.7917 55.4478 80.823 55.3825 80.8741 55.3341C80.9253 55.2858 80.9935 55.2602 81.0645 55.263C81.1355 55.263 81.2009 55.2943 81.2492 55.3455C82.3261 56.4828 82.0277 57.387 81.7862 58.1149C81.5276 58.894 81.3714 59.366 82.8943 60.0455C82.9512 60.0711 82.9938 60.1138 83.0222 60.1678C83.0506 60.2218 83.0563 60.2844 83.0449 60.3441C83.0307 60.4038 82.9995 60.455 82.9512 60.4948C82.9029 60.5317 82.846 60.5545 82.7835 60.5516H82.7779L82.7835 60.5488Z" fill="#263238"/>
<path d="M103.003 53.2812C102.938 53.2812 102.875 53.2641 102.818 53.23C102.761 53.1959 102.719 53.1476 102.687 53.0907C102.659 53.0338 102.645 52.9684 102.651 52.903C102.656 52.8376 102.679 52.7751 102.719 52.7239C105.824 48.4674 102.358 33.975 98.4652 31.106C98.2549 30.9525 98.0475 30.799 97.8486 30.6454C96.4307 29.582 95.2033 28.6636 93.3734 28.1973C90.0149 27.3415 81.9055 26.0733 79.1466 32.7125C79.1125 32.7978 79.0414 32.8661 78.9562 32.903C78.8709 32.9371 78.7743 32.9371 78.6891 32.903C78.6038 32.8661 78.5357 32.7978 78.4987 32.7125C78.4646 32.6272 78.4646 32.5306 78.4987 32.4424C81.4651 25.2971 90.0064 26.6164 93.5439 27.5178C95.513 28.0182 96.8513 29.0219 98.2691 30.0853C98.4709 30.2388 98.6754 30.3924 98.8829 30.5459C103.094 33.648 106.611 48.5868 103.287 53.1419C103.253 53.1845 103.21 53.2215 103.162 53.2442C103.114 53.267 103.057 53.2812 103.003 53.2783V53.2812Z" fill="#263238"/>
<path d="M73.2024 56.4601C73.1427 56.4601 73.0859 56.4459 73.0319 56.4146C66.329 52.6898 68.7158 41.109 70.361 38.1064L70.5059 37.8448C72.5574 34.0973 74.8816 29.8494 79.7603 29.5082C79.8058 29.5053 79.8512 29.511 79.8967 29.5252C79.9393 29.5394 79.9819 29.5622 80.016 29.5935C80.0501 29.6247 80.0785 29.6617 80.1013 29.7015C80.1211 29.7413 80.1354 29.7868 80.1382 29.8323C80.141 29.8778 80.1382 29.9233 80.1211 29.9688C80.1069 30.0114 80.0842 30.0541 80.053 30.0882C80.0217 30.1223 79.9848 30.1508 79.945 30.1707C79.9024 30.1906 79.8597 30.2048 79.8143 30.2076C75.3164 30.5261 73.0887 34.5949 71.1253 38.1832L70.9775 38.4419C69.4091 41.3023 67.0905 52.306 73.3728 55.7976C73.441 55.8346 73.495 55.8943 73.5234 55.9654C73.5547 56.0364 73.5604 56.1161 73.5405 56.1928C73.5206 56.2668 73.478 56.335 73.4155 56.3833C73.353 56.4317 73.2791 56.4573 73.1995 56.4573H73.2052L73.2024 56.4601Z" fill="#263238"/>
<path d="M80.8514 50.5488C80.8315 50.5488 80.8144 50.5488 80.7945 50.5431C77.5241 50.0057 75.8335 47.2249 74.6117 44.5835C74.4156 44.1541 73.4581 41.9449 74.0036 40.4919C74.0377 40.4066 74.103 40.3356 74.1883 40.2986C74.2735 40.2616 74.3701 40.2588 74.4554 40.2901C74.5435 40.3213 74.6117 40.3896 74.6514 40.472C74.6912 40.5573 74.6941 40.6512 74.6628 40.7393C74.336 41.6037 74.7225 43.1448 75.251 44.2878C76.4529 46.8894 77.9702 49.366 80.911 49.8522C80.9963 49.8664 81.073 49.9147 81.127 49.983C81.181 50.0512 81.2065 50.1394 81.198 50.2275C81.1923 50.3156 81.1525 50.3953 81.0872 50.455C81.0218 50.5147 80.9394 50.5488 80.8514 50.5488Z" fill="#263238"/>
<path d="M89.2789 49.2976H89.2647C83.1756 49.0588 79.4278 46.6533 77.1064 41.5097C77.0836 41.4671 77.0723 41.4216 77.0694 41.3732C77.0666 41.3249 77.0723 41.2794 77.0893 41.2339C77.1064 41.1884 77.1291 41.1486 77.1603 41.1117C77.1916 41.0775 77.2314 41.0491 77.274 41.0292C77.3166 41.0093 77.3649 40.9979 77.4104 40.9979C77.4587 40.9979 77.5042 41.0065 77.5496 41.0235C77.5922 41.0406 77.6349 41.069 77.6661 41.1003C77.7002 41.1344 77.7258 41.1742 77.7428 41.2197C79.9421 46.0932 83.5023 48.3678 89.2903 48.5982C89.3812 48.6038 89.4664 48.6436 89.5261 48.7119C89.5886 48.7773 89.6199 48.8654 89.6199 48.9564C89.6199 49.0474 89.5801 49.1327 89.5176 49.1981C89.4551 49.2635 89.367 49.3005 89.2761 49.3005L89.2789 49.2976Z" fill="#263238"/>
<path d="M96.7945 50.0967C96.7348 50.0967 96.678 50.0825 96.624 50.054C95.0811 49.2067 93.3621 48.8456 91.697 48.5016C88.9721 47.9358 86.1534 47.3472 84.173 44.5778C84.1474 44.5408 84.1275 44.4982 84.1162 44.4527C84.1048 44.4072 84.1048 44.3617 84.1105 44.3162C84.119 44.2707 84.1361 44.2281 84.1588 44.1883C84.1844 44.1484 84.2156 44.1143 84.2526 44.0887C84.2895 44.0631 84.3321 44.0432 84.3776 44.0319C84.423 44.0205 84.4685 44.0205 84.514 44.029C84.5594 44.0376 84.602 44.0518 84.6418 44.0774C84.6816 44.1001 84.7157 44.1342 84.7413 44.1712C86.5626 46.7188 89.1255 47.2477 91.8391 47.8135C93.5553 48.1689 95.3255 48.5386 96.9621 49.4399C97.0303 49.4769 97.0843 49.5366 97.1155 49.6076C97.1468 49.6787 97.1525 49.7583 97.1326 49.8351C97.1127 49.909 97.0701 49.9773 97.0076 50.0256C96.9451 50.074 96.8683 50.0995 96.7916 50.0995L96.7945 50.0967Z" fill="#263238"/>
<path d="M76.021 55.1351C75.95 55.1351 75.8818 55.1123 75.8221 55.0725C72.2761 52.6102 70.8014 45.7037 73.0546 42.1012C73.0802 42.0614 73.1114 42.0273 73.1484 42.0017C73.1853 41.9761 73.2279 41.9562 73.2734 41.9448C73.3189 41.9335 73.3643 41.9335 73.4098 41.942C73.4552 41.9505 73.4979 41.9647 73.5376 41.9903C73.5774 42.0159 73.6115 42.0472 73.6371 42.0842C73.6627 42.1211 73.6825 42.1638 73.6939 42.2093C73.7053 42.2548 73.7053 42.3003 73.6968 42.3457C73.6882 42.3912 73.674 42.4339 73.6485 42.4737C71.6055 45.7435 73.0035 52.2576 76.2256 54.4953C76.2881 54.538 76.3336 54.6005 76.3563 54.6688C76.379 54.7398 76.3819 54.8166 76.3563 54.8877C76.3336 54.9588 76.2881 55.0213 76.2284 55.0668C76.1688 55.1123 76.0949 55.1351 76.021 55.1351Z" fill="#263238"/>
<path d="M75.0209 56.6591C74.9669 56.6591 74.9157 56.6449 74.8674 56.6222C72.4494 55.4223 70.6565 52.7097 70.5031 50.0313C70.5031 49.9403 70.5343 49.8522 70.5968 49.7839C70.6593 49.7157 70.7446 49.6759 70.8355 49.6702C70.9264 49.6645 71.0173 49.6958 71.0855 49.7555C71.1537 49.8152 71.1992 49.9005 71.2049 49.9887C71.3413 52.3913 73.0148 54.9133 75.18 55.9909C75.251 56.0251 75.3078 56.0848 75.3419 56.1559C75.376 56.2269 75.3846 56.3094 75.3675 56.3862C75.3505 56.4629 75.3078 56.5312 75.2453 56.5824C75.1828 56.6307 75.1061 56.6591 75.0294 56.6591H75.0237H75.0209Z" fill="#263238"/>
<path d="M96.891 53.938H96.8768C96.783 53.9352 96.695 53.8925 96.6324 53.8243C96.5699 53.7561 96.5358 53.6651 96.5387 53.5712C96.5756 52.6102 96.05 51.8937 95.4959 51.1345C95.4192 51.0293 95.3425 50.9241 95.2657 50.8161C95.2117 50.7393 95.189 50.6455 95.2061 50.5545C95.2203 50.4635 95.2714 50.381 95.3481 50.327C95.4249 50.273 95.5186 50.2502 95.6095 50.2673C95.7005 50.2815 95.7829 50.3327 95.8369 50.4095C95.9136 50.5147 95.9903 50.617 96.067 50.7222C96.6694 51.5439 97.2973 52.3941 97.2462 53.6025C97.2433 53.6935 97.2036 53.7816 97.1354 53.8442C97.07 53.9068 96.9791 53.9409 96.8882 53.9409L96.891 53.938Z" fill="#263238"/>
<path fill-rule="evenodd" clip-rule="evenodd" d="M88.867 54.7854C88.6794 54.0376 88.4919 54.9389 87.9719 55.1095C87.4519 55.2801 86.9263 54.919 87.165 55.6469C87.3127 56.1047 87.7531 56.1673 88.2731 55.9967C88.7931 55.8261 89.0033 55.3313 88.867 54.7854Z" fill="#263238"/>
<path fill-rule="evenodd" clip-rule="evenodd" d="M79.1863 57.6002C78.9306 56.8723 78.8112 57.5689 78.2913 57.7395C77.7713 57.9101 77.1149 57.4836 77.4019 58.2002C77.4843 58.4248 77.652 58.6068 77.8679 58.7063C78.0838 58.8086 78.331 58.82 78.5555 58.7376C79.0755 58.5726 79.3199 57.9869 79.1863 57.5974V57.6002Z" fill="#263238"/>
<path d="M100.025 72.7296C99.9711 72.7296 99.9199 72.7154 99.8716 72.6926C98.0077 71.76 97.769 69.764 97.769 68.1291C97.769 65.1066 98.3998 61.4643 98.8714 58.9906C98.88 58.9451 98.897 58.9025 98.9226 58.8627C98.9482 58.8229 98.9823 58.7916 99.0192 58.766C99.059 58.7404 99.1016 58.7205 99.1471 58.712C99.1925 58.7034 99.238 58.7034 99.2834 58.712C99.3289 58.7205 99.3715 58.7376 99.4113 58.7631C99.4511 58.7887 99.4823 58.8229 99.5108 58.8598C99.5363 58.8968 99.5534 58.9423 99.5647 58.9878C99.5733 59.0333 99.5733 59.0788 99.5647 59.1242C99.0959 61.5724 98.4737 65.1692 98.4737 68.1262C98.4737 69.6474 98.6754 71.3051 100.187 72.0614C100.258 72.0955 100.315 72.1552 100.346 72.2263C100.38 72.2974 100.389 72.3799 100.369 72.4566C100.352 72.5334 100.306 72.6016 100.247 72.65C100.184 72.6983 100.107 72.7267 100.028 72.7267H100.022L100.025 72.7296Z" fill="#263238"/>
<path d="M80.1439 70.256C80.0842 70.256 80.0245 70.2389 79.9734 70.2105C79.9222 70.182 79.8768 70.1394 79.8455 70.0882C79.8143 70.037 79.7972 69.9802 79.7944 69.9205C79.7944 69.8607 79.8057 69.801 79.8313 69.747L79.9279 69.5537V68.6296C79.9308 68.5386 79.9705 68.4533 80.0359 68.3907C80.1012 68.3282 80.1893 68.2941 80.2774 68.2941C80.3655 68.2941 80.4536 68.3282 80.5189 68.3907C80.5843 68.4533 80.6241 68.5386 80.6269 68.6296V69.6304C80.6269 69.6845 80.6155 69.7356 80.59 69.784L80.4564 70.0512C80.428 70.111 80.3854 70.1621 80.3286 70.1991C80.2717 70.2361 80.2092 70.2531 80.141 70.256H80.1439Z" fill="#263238"/>
<path d="M59.6177 88.9253C59.5637 88.9253 59.5125 88.911 59.4642 88.8883C57.7253 88.0182 58.4641 85.0015 59.0096 82.795C59.1687 82.1524 59.3051 81.598 59.3392 81.2454C59.3705 80.9326 59.3989 80.6085 59.4273 80.2815C59.6234 78.0779 59.8478 75.5786 60.9901 73.6736C63.3257 69.7754 67.7725 68.6295 71.0912 68.3509C71.9436 68.2798 72.9836 68.3509 74.086 68.422C76.0011 68.5499 78.172 68.6949 79.4563 68.0524C79.5387 68.0154 79.6324 68.0125 79.7177 68.041C79.8029 68.0723 79.874 68.1348 79.9137 68.2144C79.9535 68.2969 79.962 68.3879 79.9336 68.476C79.9052 68.5642 79.8484 68.6352 79.7688 68.6807C78.314 69.4086 76.1404 69.2636 74.0377 69.1243C72.9609 69.0532 71.9465 68.985 71.148 69.0475C67.9941 69.3091 63.7746 70.3896 61.5896 74.029C60.5269 75.8004 60.3138 78.2087 60.1234 80.3384C60.095 80.6711 60.0638 80.9952 60.0325 81.3108C59.9927 81.7146 59.8507 82.2918 59.6859 82.9599C59.2256 84.8223 58.5323 87.6372 59.774 88.2571C59.845 88.2912 59.9018 88.3509 59.9331 88.422C59.9672 88.4931 59.9757 88.5727 59.9558 88.6495C59.9388 88.7262 59.8961 88.7945 59.8336 88.8428C59.7711 88.8911 59.6972 88.9196 59.6177 88.9196H59.612L59.6177 88.9253Z" fill="#263238"/>
<path d="M80.5474 92.2036C80.4848 92.2036 80.4223 92.1865 80.3684 92.1524C80.3144 92.1211 80.2689 92.0728 80.2405 92.0159C80.2121 91.959 80.1979 91.8965 80.2007 91.8339C80.2036 91.7714 80.2234 91.7088 80.2604 91.6576C80.3769 91.4927 80.4536 91.3022 80.4877 91.1032C80.5218 90.9042 80.5104 90.6994 80.4536 90.5032C80.0956 89.1498 78.027 87.8049 76.9871 87.2846C73.7081 85.644 68.801 83.4944 64.0588 83.7731C61.834 83.9039 59.4443 85.1066 59.4443 87.4381C59.4443 87.4865 59.4387 87.532 59.4216 87.5775C59.4046 87.623 59.379 87.6628 59.3477 87.6969C59.3165 87.731 59.2767 87.7594 59.2312 87.7765C59.1886 87.7964 59.1403 87.8049 59.092 87.8049C59.0437 87.8049 58.9982 87.7964 58.9528 87.7765C58.9102 87.7566 58.8704 87.731 58.8363 87.6969C58.8022 87.6628 58.7766 87.623 58.7624 87.5775C58.7454 87.532 58.7368 87.4865 58.7397 87.4381C58.7397 84.6517 61.4759 83.2215 64.019 83.0736C68.9289 82.7836 73.9525 84.9786 77.3025 86.6562C77.6406 86.8268 80.6156 88.3651 81.1355 90.3241C81.2179 90.6141 81.235 90.9212 81.1838 91.2198C81.1327 91.5183 81.019 91.8026 80.8457 92.05C80.8145 92.0984 80.769 92.1382 80.7178 92.1666C80.6667 92.195 80.607 92.2064 80.5502 92.2064L80.5474 92.2036Z" fill="#263238"/>
<path d="M81.0815 92.7381C81.0218 92.7381 80.9622 92.721 80.911 92.6926C80.8599 92.6641 80.8144 92.6215 80.7832 92.5703C80.7519 92.5191 80.7349 92.4623 80.732 92.4026C80.732 92.3428 80.7405 92.2831 80.769 92.2291C81.4083 90.9525 81.1128 89.4057 80.8315 87.9072C80.7746 87.6087 80.7207 87.3158 80.6695 87.0258C80.1922 84.1683 79.729 81.1316 79.729 78.203C79.7347 78.112 79.7716 78.0267 79.837 77.9641C79.9023 77.9016 79.9904 77.8674 80.0785 77.8674C80.1666 77.8674 80.2547 77.9016 80.32 77.9641C80.3854 78.0267 80.4251 78.112 80.428 78.203C80.428 81.0776 80.8883 84.083 81.36 86.9121C81.4083 87.1964 81.4623 87.4864 81.5162 87.7793C81.8231 89.3943 82.1357 91.0577 81.3941 92.5504C81.3656 92.6073 81.3202 92.6556 81.2634 92.6897C81.2065 92.7238 81.144 92.7409 81.0787 92.7409L81.0815 92.7381Z" fill="#263238"/>
<path d="M108.89 102.056C108.811 102.056 108.734 102.027 108.671 101.979C108.609 101.931 108.566 101.86 108.549 101.783C108.532 101.706 108.541 101.624 108.575 101.552C108.609 101.481 108.666 101.424 108.737 101.388C109.146 101.183 109.586 100.972 110.049 100.753C113.155 99.2778 117.022 97.4438 117.707 94.0204C117.798 93.5655 117.463 92.9542 117.196 92.4623C117.125 92.3315 117.056 92.2064 116.997 92.0898C116.46 91.0207 116.082 89.8578 115.712 88.729C115.638 88.5072 115.567 88.2883 115.496 88.0722C115.175 87.1083 114.905 86.1473 114.644 85.226C114.008 82.9741 113.405 80.8473 112.163 78.7773C110.669 76.2837 100.937 72.6841 99.9426 72.6841C99.8517 72.6812 99.7665 72.6414 99.704 72.576C99.6415 72.5106 99.6074 72.4225 99.6074 72.3343C99.6074 72.2462 99.6415 72.1581 99.704 72.0927C99.7665 72.0273 99.8517 71.9875 99.9426 71.9846C101 71.9846 111.07 75.59 112.766 78.4191C114.056 80.5743 114.67 82.7409 115.32 85.0355C115.582 85.9539 115.849 86.9036 116.167 87.8504C116.241 88.0694 116.312 88.2911 116.386 88.5129C116.747 89.6161 117.119 90.7563 117.63 91.7799C117.684 91.8879 117.75 92.0074 117.815 92.1296C118.139 92.721 118.54 93.4575 118.4 94.1626C117.647 97.9329 113.604 99.8493 110.356 101.396C109.899 101.612 109.461 101.82 109.058 102.022C109.007 102.047 108.953 102.059 108.896 102.056H108.89Z" fill="#263238"/>
<path d="M108.282 107.984C108.188 107.984 108.1 107.947 108.035 107.882C107.97 107.816 107.933 107.725 107.933 107.634C107.933 103.625 109.01 89.8949 110.058 87.8079C110.101 87.7254 110.172 87.66 110.26 87.6316C110.348 87.6032 110.444 87.6088 110.527 87.6515C110.609 87.6941 110.672 87.7652 110.703 87.8534C110.731 87.9415 110.726 88.0382 110.683 88.1206C109.751 89.9887 108.635 103.278 108.635 107.634C108.635 107.728 108.598 107.816 108.532 107.882C108.467 107.947 108.379 107.984 108.285 107.984H108.282Z" fill="#263238"/>
<path d="M70.8184 135.59C69.6648 135.59 68.5226 135.474 67.7838 135.033C66.0648 134.001 64.8061 131.922 64.0389 128.86C63.2802 125.809 62.7205 122.713 62.3653 119.591C62.2403 118.499 62.1096 117.407 61.976 116.312C61.564 112.892 61.1407 109.357 60.8906 105.866C60.7372 103.696 60.5298 101.479 60.3309 99.3291C59.9132 94.8195 59.4841 90.1565 59.4841 85.5958C59.487 85.5048 59.5268 85.4195 59.5921 85.3569C59.6575 85.2944 59.7455 85.2603 59.8336 85.2603C59.9217 85.2603 60.0098 85.2944 60.0751 85.3569C60.1405 85.4195 60.1803 85.5048 60.1831 85.5958C60.1831 90.1224 60.615 94.7684 61.0298 99.2637C61.2287 101.419 61.4362 103.64 61.5896 105.815C61.8368 109.289 62.263 112.818 62.6722 116.227C62.8029 117.322 62.9336 118.416 63.0614 119.508C63.4109 122.602 63.965 125.667 64.718 128.689C65.4369 131.567 66.5876 133.497 68.1419 134.43C69.1505 135.036 71.3725 134.896 72.8387 134.805C73.1114 134.788 73.3615 134.774 73.5803 134.763C85.0851 134.257 101.849 126.699 109.007 123.472C110.007 123.023 110.791 122.667 111.357 122.425C111.442 122.388 111.538 122.388 111.627 122.423C111.712 122.457 111.783 122.525 111.82 122.61C111.857 122.696 111.857 122.792 111.823 122.878C111.788 122.963 111.72 123.034 111.635 123.071C111.075 123.31 110.291 123.665 109.297 124.112C102.102 127.356 85.2527 134.95 73.6144 135.462C73.3984 135.474 73.1541 135.488 72.887 135.505C72.2534 135.547 71.5345 135.59 70.8184 135.59Z" fill="#263238"/>
<path d="M74.6032 121.325C74.5208 121.325 74.4412 121.294 74.3787 121.243C74.3162 121.189 74.2736 121.115 74.2594 121.035C74.2451 120.953 74.2594 120.87 74.302 120.799C74.3446 120.728 74.41 120.674 74.4867 120.645C76.4415 119.955 81.1753 119.38 86.6564 118.715C94.0582 117.816 102.449 116.798 106.08 115.229C106.165 115.192 106.262 115.192 106.35 115.226C106.435 115.26 106.506 115.328 106.543 115.414C106.58 115.499 106.583 115.596 106.549 115.684C106.515 115.769 106.447 115.84 106.361 115.877C102.636 117.487 94.1917 118.513 86.7444 119.417C81.5305 120.048 76.6063 120.648 74.7253 121.314C74.6884 121.325 74.6486 121.334 74.6088 121.334L74.6032 121.325Z" fill="#263238"/>
<path d="M79.9052 91.3989H79.8768C79.8313 91.3961 79.7858 91.3819 79.7461 91.362C79.7063 91.342 79.6693 91.3108 79.6381 91.2766C79.6068 91.2425 79.5841 91.1999 79.5699 91.1572C79.5557 91.1146 79.55 91.0662 79.5528 91.0207C79.5898 90.5203 79.6296 90.0199 79.6551 89.5166C79.6636 89.4256 79.7063 89.3432 79.7745 89.2835C79.8427 89.2238 79.9336 89.1925 80.0245 89.1982C80.1154 89.2039 80.2007 89.2437 80.2632 89.3091C80.3257 89.3745 80.3598 89.4654 80.3569 89.5564C80.3285 90.0625 80.2916 90.5687 80.2518 91.0748C80.2461 91.1629 80.2064 91.2454 80.141 91.3051C80.0757 91.3648 79.9904 91.3989 79.9023 91.3989H79.9052Z" fill="#263238"/>
<path d="M78.9818 120.02C78.8965 120.02 78.8113 119.989 78.7488 119.929C78.6834 119.872 78.6436 119.792 78.6351 119.707C78.2061 115.823 77.9077 108.965 78.3765 107.455C78.3879 107.41 78.4106 107.367 78.4391 107.33C78.4675 107.293 78.5044 107.262 78.547 107.239C78.5897 107.216 78.6351 107.202 78.6806 107.197C78.7289 107.191 78.7743 107.197 78.8198 107.211C78.8653 107.225 78.9079 107.248 78.942 107.279C78.9789 107.31 79.0073 107.347 79.0301 107.39C79.05 107.433 79.0642 107.478 79.067 107.526C79.067 107.575 79.0642 107.62 79.0471 107.666C78.6522 108.934 78.8738 115.482 79.3313 119.63C79.3398 119.721 79.3142 119.815 79.2545 119.886C79.1977 119.957 79.1125 120.006 79.0215 120.014L78.9789 120.02H78.9818Z" fill="#263238"/>
<path d="M112.561 123.224C112.402 123.216 112.246 123.19 112.092 123.148C111.965 123.111 111.831 123.088 111.697 123.079C111.658 123.102 111.615 123.114 111.57 123.119C111.524 123.125 111.479 123.119 111.436 123.105C111.393 123.091 111.354 123.071 111.32 123.04C111.285 123.011 111.257 122.974 111.237 122.934C111.195 122.849 111.186 122.752 111.214 122.661C111.243 122.57 111.305 122.497 111.391 122.451C111.641 122.312 111.956 122.389 112.26 122.462C112.36 122.491 112.465 122.511 112.567 122.522L112.925 122.508C113.618 122.482 114.277 122.46 114.905 122.278C115.729 122.033 116.579 121.567 117.477 121.072C118.784 120.353 120.136 119.611 121.497 119.548C121.591 119.545 121.682 119.576 121.75 119.639C121.819 119.702 121.858 119.79 121.864 119.884C121.867 119.977 121.836 120.068 121.773 120.137C121.711 120.205 121.622 120.247 121.529 120.25C120.332 120.302 119.054 121.007 117.818 121.686C116.926 122.175 116.005 122.687 115.107 122.949C114.394 123.159 113.661 123.185 112.953 123.21L112.601 123.224H112.564H112.561Z" fill="#263238"/>
<path d="M121.807 121.851C121.736 121.851 121.668 121.831 121.608 121.791C121.506 121.72 121.407 121.655 121.307 121.592C120.801 121.262 120.324 120.95 119.977 120.321C119.932 120.239 119.921 120.142 119.946 120.054C119.972 119.963 120.031 119.889 120.114 119.844C120.196 119.798 120.29 119.787 120.381 119.812C120.472 119.838 120.546 119.898 120.591 119.98C120.855 120.458 121.225 120.699 121.694 121.007C121.796 121.075 121.901 121.143 122.006 121.214C122.069 121.257 122.114 121.316 122.14 121.388C122.165 121.459 122.165 121.535 122.142 121.607C122.12 121.678 122.077 121.74 122.015 121.786C121.955 121.831 121.881 121.854 121.804 121.854L121.807 121.851Z" fill="#263238"/>
<path d="M120.173 125.161C119.551 125.161 118.918 125.055 118.295 124.953C117.875 124.885 117.474 124.817 117.096 124.785C117.088 124.785 116.141 124.7 115.789 124.248C115.735 124.18 115.695 124.103 115.673 124.018C115.65 123.932 115.647 123.844 115.661 123.759C115.92 122.241 117.554 122.243 118.75 122.252C119.179 122.252 119.585 122.252 119.855 122.192C120.162 122.121 120.463 121.515 120.625 121.191L120.702 121.032C120.745 120.953 120.821 120.893 120.906 120.864C120.995 120.836 121.088 120.844 121.171 120.887C121.253 120.93 121.316 121.001 121.344 121.089C121.372 121.177 121.367 121.271 121.327 121.353L121.25 121.501C121.006 121.99 120.634 122.732 120.011 122.877C119.665 122.954 119.219 122.954 118.744 122.954C117.463 122.954 116.525 123.011 116.36 123.836C116.465 123.935 116.863 124.063 117.153 124.086C117.562 124.12 117.991 124.191 118.409 124.259C119.241 124.396 120.1 124.541 120.85 124.399C121.566 124.265 122.123 123.591 122.614 122.994C122.697 122.892 122.779 122.795 122.859 122.701C124.126 121.211 124.191 120.444 123.756 118.57C123.728 118.45 123.702 118.328 123.68 118.206C123.575 117.703 123.478 117.228 123.185 116.881C122.81 116.44 122.049 116.389 121.31 116.338C120.872 116.306 120.455 116.278 120.088 116.173C120.003 116.144 119.932 116.085 119.889 116.002C119.847 115.923 119.838 115.829 119.861 115.741C119.886 115.653 119.943 115.579 120.023 115.533C120.102 115.488 120.193 115.473 120.281 115.496C120.577 115.581 120.958 115.607 121.358 115.635C122.205 115.692 123.154 115.758 123.719 116.426C124.131 116.909 124.256 117.523 124.367 118.064C124.393 118.18 124.416 118.294 124.444 118.411C124.916 120.449 124.828 121.473 123.396 123.159C123.319 123.25 123.242 123.347 123.16 123.443C122.594 124.131 121.952 124.91 120.983 125.092C120.716 125.141 120.446 125.163 120.173 125.161Z" fill="#263238"/>
<path d="M123.361 116.56C123.299 116.56 123.236 116.543 123.182 116.511C123.128 116.48 123.083 116.434 123.055 116.378C122.824 115.957 122.935 115.53 123.026 115.189C123.08 115.024 123.109 114.854 123.114 114.68C123.1 114.353 122.554 113.844 122.114 113.642C121.841 113.506 121.554 113.395 121.262 113.31L121.131 113.267C120.736 113.142 120.361 113.037 119.977 112.934C119.932 112.926 119.886 112.906 119.849 112.877C119.81 112.849 119.778 112.815 119.753 112.775C119.727 112.735 119.71 112.69 119.705 112.644C119.699 112.596 119.699 112.551 119.71 112.505C119.722 112.46 119.741 112.417 119.773 112.377C119.801 112.34 119.838 112.309 119.878 112.283C119.92 112.26 119.966 112.246 120.011 112.241C120.06 112.235 120.105 112.241 120.151 112.255C120.548 112.357 120.941 112.468 121.347 112.599L121.478 112.641C121.79 112.732 122.094 112.852 122.384 112.997C122.935 113.25 123.788 113.91 123.819 114.655C123.819 114.899 123.782 115.141 123.708 115.374C123.626 115.681 123.58 115.88 123.671 116.042C123.7 116.096 123.717 116.156 123.714 116.218C123.714 116.278 123.697 116.338 123.665 116.392C123.634 116.446 123.589 116.489 123.538 116.52C123.484 116.551 123.424 116.565 123.364 116.565H123.361V116.56Z" fill="#263238"/>
<path d="M122.495 113.327C122.444 113.327 122.393 113.315 122.347 113.295C122.302 113.275 122.259 113.244 122.228 113.204C121.881 112.798 121.907 112.309 121.929 111.874C121.949 111.675 121.944 111.473 121.909 111.274C121.73 110.526 120.833 110.367 119.679 110.239C119.449 110.213 119.236 110.19 119.045 110.156C119 110.148 118.957 110.134 118.918 110.108C118.878 110.082 118.844 110.051 118.818 110.014C118.792 109.977 118.773 109.935 118.761 109.889C118.75 109.844 118.75 109.798 118.758 109.753C118.767 109.707 118.781 109.664 118.807 109.625C118.832 109.585 118.864 109.551 118.9 109.525C118.937 109.5 118.98 109.48 119.025 109.468C119.071 109.457 119.116 109.457 119.162 109.465C119.338 109.497 119.54 109.517 119.756 109.542C120.821 109.659 122.282 109.824 122.591 111.109C122.643 111.37 122.654 111.641 122.628 111.905C122.611 112.252 122.597 112.55 122.762 112.744C122.805 112.795 122.833 112.858 122.841 112.923C122.85 112.988 122.841 113.057 122.813 113.119C122.785 113.179 122.739 113.233 122.682 113.267C122.626 113.304 122.56 113.321 122.492 113.321L122.495 113.327Z" fill="#263238"/>
<path d="M106.103 115.894C106.026 115.894 105.949 115.869 105.887 115.82C105.824 115.772 105.782 115.706 105.762 115.63C105.742 115.553 105.748 115.473 105.779 115.402C105.81 115.331 105.864 115.271 105.932 115.234C106.813 114.745 107.586 114.037 108.333 113.352C108.538 113.165 108.742 112.977 108.95 112.795C110.604 111.333 112.422 110.025 114.178 108.755L114.707 108.371C115.86 107.532 117.602 106.264 119.19 106.719C120.122 106.986 120.367 107.779 120.566 108.419C120.713 108.9 120.841 109.318 121.191 109.536C121.23 109.562 121.264 109.593 121.29 109.63C121.316 109.667 121.336 109.71 121.347 109.755C121.358 109.801 121.358 109.846 121.353 109.892C121.344 109.937 121.33 109.98 121.304 110.02C121.279 110.06 121.247 110.094 121.21 110.119C121.174 110.145 121.131 110.165 121.085 110.176C121.04 110.188 120.995 110.188 120.949 110.182C120.904 110.173 120.861 110.159 120.821 110.134C120.25 109.778 120.06 109.167 119.898 108.629C119.693 107.967 119.54 107.552 119.003 107.398C117.744 107.037 116.167 108.183 115.124 108.942L114.593 109.326C112.848 110.583 111.044 111.879 109.419 113.321C109.217 113.5 109.015 113.685 108.813 113.87C108.035 114.583 107.231 115.32 106.276 115.849C106.225 115.877 106.165 115.894 106.106 115.891L106.103 115.894Z" fill="#263238"/>
<path d="M118.858 107.347C118.764 107.347 118.676 107.31 118.611 107.245C118.545 107.179 118.508 107.089 118.508 106.995C118.508 105.274 118.096 103.497 117.696 101.78C117.284 100.011 116.86 98.186 116.86 96.3635C116.863 96.2725 116.903 96.1872 116.968 96.1246C117.034 96.0621 117.122 96.028 117.21 96.028C117.298 96.028 117.386 96.0621 117.451 96.1246C117.517 96.1872 117.556 96.2725 117.559 96.3635C117.559 98.1064 117.974 99.892 118.375 101.621C118.784 103.375 119.205 105.195 119.205 106.995C119.205 107.089 119.168 107.177 119.102 107.242C119.037 107.307 118.946 107.344 118.855 107.344L118.858 107.347Z" fill="#263238"/>
<path d="M98.809 117.677C98.7522 117.677 98.6982 117.663 98.647 117.637C97.215 116.889 93.3081 113.972 90.1712 111.626C88.3981 110.301 86.7246 109.05 86.4319 108.905C86.3893 108.885 86.3523 108.857 86.3211 108.823C86.2898 108.789 86.2642 108.746 86.25 108.703C86.2358 108.658 86.2273 108.612 86.2302 108.564C86.233 108.516 86.2444 108.47 86.2671 108.431C86.287 108.388 86.3182 108.351 86.3523 108.32C86.3893 108.288 86.4291 108.266 86.4745 108.251C86.52 108.237 86.5654 108.231 86.6137 108.237C86.662 108.243 86.7047 108.254 86.7473 108.277C87.0797 108.445 88.3612 109.394 90.5917 111.063C93.5439 113.27 97.59 116.295 98.9738 117.015C99.042 117.051 99.0988 117.108 99.1301 117.182C99.1613 117.253 99.1699 117.333 99.15 117.41C99.1301 117.487 99.0875 117.555 99.0249 117.603C98.9624 117.651 98.8857 117.677 98.809 117.677Z" fill="#263238"/>
<path d="M112.82 110.29C112.752 110.29 112.681 110.27 112.624 110.23C111.109 109.212 108.191 108.547 104.81 107.777C100.204 106.725 94.4702 105.419 89.259 102.61C89.188 102.562 89.134 102.488 89.1141 102.403C89.0943 102.317 89.1056 102.229 89.1454 102.152C89.188 102.076 89.2562 102.016 89.3386 101.988C89.421 101.959 89.5119 101.962 89.5915 101.996C94.7174 104.757 100.4 106.053 104.966 107.094C108.555 107.913 111.391 108.556 113.013 109.65C113.076 109.693 113.124 109.753 113.149 109.824C113.175 109.895 113.175 109.972 113.155 110.046C113.132 110.117 113.09 110.179 113.027 110.225C112.968 110.27 112.894 110.293 112.82 110.293V110.29Z" fill="#263238"/>
<path d="M72.9125 109.13C72.6256 109.13 72.3471 109.065 72.1425 108.871C71.5487 108.308 71.8953 107.228 73.1683 105.661C73.6172 105.11 74.2451 104.783 74.8447 104.464C75.0066 104.382 75.1629 104.296 75.3192 104.208L75.68 104.003C77.4389 103.003 78.959 102.133 81.1924 102.306C81.2861 102.312 81.3714 102.357 81.431 102.428C81.4907 102.499 81.522 102.59 81.5134 102.684C81.5049 102.778 81.4623 102.863 81.3912 102.923C81.3202 102.983 81.2293 103.014 81.1355 103.005C79.1153 102.852 77.7514 103.628 76.0267 104.612L75.663 104.819C75.5039 104.91 75.3362 104.999 75.1686 105.087C74.6316 105.371 74.0661 105.664 73.7081 106.105C72.5147 107.572 72.4778 108.223 72.6199 108.362C72.7733 108.516 73.4694 108.385 73.8502 108.186C74.0718 108.055 74.2792 107.902 74.4668 107.725C74.731 107.495 75.0038 107.265 75.3362 107.12C76.3421 106.693 78.9448 106.744 78.9732 106.744C80.1638 106.773 81.198 107.16 82.2039 107.535C83.5223 108.03 84.7668 108.496 86.2841 108.118C86.3722 108.101 86.466 108.118 86.5427 108.166C86.6194 108.214 86.6734 108.291 86.6961 108.379C86.7189 108.467 86.7047 108.561 86.6592 108.638C86.6137 108.718 86.5398 108.775 86.4546 108.8C84.727 109.23 83.3206 108.703 81.9595 108.192C80.9707 107.822 80.0359 107.469 78.9619 107.447C78.0071 107.424 76.254 107.492 75.6147 107.765C75.3845 107.865 75.1629 108.055 74.9299 108.254C74.7026 108.465 74.4526 108.649 74.1826 108.803C74.0008 108.903 73.441 109.127 72.9125 109.127V109.13Z" fill="#263238"/>
<path d="M72.3698 105.931C72.2391 105.931 72.1084 105.903 71.9863 105.854C71.4634 105.65 71.0003 104.853 70.7701 104.393C70.6565 104.18 70.5286 103.975 70.3922 103.776C70.0683 103.293 69.733 102.795 69.716 102.101C69.7018 101.575 70.2189 101.151 70.6338 100.807C70.7304 100.731 70.8156 100.657 70.8753 100.6C71.7305 99.7582 73.3217 98.1916 74.6714 97.5092C75.2766 97.2021 76.0154 97.33 76.6092 97.4324C76.7371 97.4551 76.8621 97.475 76.9814 97.4921C77.3963 97.549 77.814 97.6115 78.2288 97.6769C79.1863 97.8248 80.178 97.9755 81.1497 98.0266C81.2407 98.0352 81.3231 98.0778 81.3827 98.1461C81.4424 98.2143 81.4737 98.3024 81.468 98.3934C81.4623 98.4844 81.4225 98.5697 81.3572 98.6323C81.2918 98.6948 81.2037 98.729 81.1128 98.729C80.107 98.6778 79.0983 98.5214 78.1237 98.3735C77.7117 98.311 77.2997 98.2456 76.8877 98.1916C76.7626 98.1745 76.6291 98.1518 76.4927 98.129C75.9756 98.0409 75.3874 97.9385 74.9896 98.1404C73.7366 98.7744 72.1965 100.29 71.3697 101.106C71.2986 101.177 71.1963 101.26 71.0827 101.356C70.8838 101.521 70.415 101.908 70.4206 102.09C70.432 102.579 70.6849 102.954 70.9776 103.389C71.1338 103.611 71.2731 103.841 71.4009 104.08C71.6936 104.66 72.0402 105.121 72.2477 105.2C72.3045 105.226 72.367 105.232 72.4267 105.22C72.4863 105.206 72.5432 105.175 72.5829 105.129C73.0148 104.74 73.2223 103.526 73.12 103.15C73.1058 103.105 73.1001 103.057 73.1058 103.011C73.1086 102.963 73.1228 102.917 73.1455 102.877C73.1683 102.835 73.1995 102.798 73.2365 102.769C73.2734 102.741 73.316 102.718 73.3615 102.704C73.407 102.69 73.4553 102.687 73.5007 102.695C73.5462 102.701 73.5916 102.718 73.6343 102.741C73.674 102.766 73.711 102.798 73.7394 102.835C73.7678 102.875 73.7877 102.917 73.7991 102.963C73.9724 103.585 73.7025 105.07 73.0575 105.655C72.8728 105.832 72.6284 105.931 72.3755 105.934L72.3698 105.931Z" fill="#263238"/>
<path d="M72.8046 103.665C72.7307 103.665 72.6568 103.64 72.5943 103.597C72.5347 103.551 72.4892 103.489 72.4665 103.418C72.4437 103.347 72.4466 103.27 72.4721 103.199C72.4977 103.128 72.546 103.068 72.6085 103.025C72.7733 102.914 72.9921 102.747 73.2251 102.565C73.9951 101.976 74.947 101.243 75.6602 101.189C75.9784 101.16 76.2825 101.336 76.5467 101.49C76.6433 101.55 76.7428 101.601 76.8479 101.644L76.9871 101.692C77.8339 101.99 78.6238 102.272 79.4705 102.437C79.5614 102.454 79.6438 102.508 79.695 102.585C79.7461 102.661 79.766 102.758 79.749 102.849C79.7319 102.94 79.6779 103.023 79.6012 103.074C79.5245 103.125 79.4279 103.145 79.337 103.128C78.4391 102.951 77.581 102.647 76.7541 102.354L76.6149 102.306C76.47 102.249 76.3308 102.181 76.2001 102.098C76.0381 102.007 75.8221 101.891 75.7113 101.891C75.2084 101.928 74.2736 102.647 73.6542 103.122C73.4013 103.315 73.1853 103.483 73.0006 103.605C72.9438 103.645 72.8756 103.668 72.8074 103.668L72.8046 103.665Z" fill="#263238"/>
<path d="M68.7612 100.316C68.5425 100.321 68.3293 100.245 68.1645 100.102C67.4201 99.4569 67.7952 98.3338 68.0452 97.5832C68.0935 97.4382 68.139 97.3017 68.1731 97.1851C68.7442 95.1209 69.8921 93.8698 71.219 92.4197C71.3384 92.2889 71.4577 92.1467 71.5771 92.0017C71.9408 91.561 72.3187 91.1089 72.8358 90.8246C74.2849 90.0284 76.2398 91.2511 77.6633 92.1439C78.0043 92.3571 78.3254 92.5562 78.5868 92.6955C78.7828 92.7893 78.9846 92.8718 79.1891 92.9429C79.5813 93.085 79.9847 93.23 80.2831 93.4888C80.3172 93.5201 80.3456 93.557 80.3683 93.5968C80.3882 93.6395 80.4024 93.6821 80.4053 93.7305C80.4081 93.776 80.4053 93.8243 80.3882 93.8669C80.374 93.9096 80.3513 93.9522 80.32 93.9864C80.2888 94.0205 80.2518 94.0489 80.2121 94.0717C80.1694 94.0916 80.1268 94.1058 80.0785 94.1086C80.033 94.1115 79.9847 94.1058 79.9421 94.0916C79.8995 94.0774 79.8569 94.0546 79.8228 94.0233C79.6239 93.8499 79.2858 93.7276 78.9505 93.6082C78.7146 93.5286 78.4816 93.4319 78.26 93.321C77.9787 93.1675 77.6434 92.9628 77.2968 92.7438C76.0182 91.942 74.2679 90.8473 73.1768 91.4444C72.7761 91.6634 72.4437 92.0643 72.1198 92.4538C71.9919 92.6074 71.8669 92.758 71.739 92.8974C70.4206 94.3389 69.3778 95.4763 68.8522 97.3756C68.8152 97.5036 68.7669 97.6514 68.7158 97.8106C68.514 98.4134 68.2384 99.238 68.6277 99.5735C68.7811 99.7072 69.3352 99.5337 70.0541 98.9451C70.4632 98.6125 70.7616 98.2087 71.0798 97.7822C71.3327 97.424 71.614 97.0856 71.918 96.77C72.3158 96.3776 72.8131 96.0336 73.2961 95.6981C73.7109 95.4251 74.1059 95.1237 74.4838 94.7996C74.5179 94.7654 74.5577 94.7399 74.6031 94.7228C74.6458 94.7057 74.6941 94.6972 74.7424 94.7C74.7907 94.7 74.8361 94.7114 74.8788 94.7313C74.9214 94.7512 74.9612 94.7797 74.9924 94.8138C75.0237 94.8479 75.0492 94.8905 75.0634 94.9332C75.0777 94.9787 75.0862 95.0242 75.0833 95.0725C75.0805 95.1209 75.0663 95.1664 75.0464 95.209C75.0237 95.2517 74.9953 95.2886 74.9583 95.3199C74.5577 95.6639 74.1372 95.9824 73.6996 96.2724C73.2222 96.6051 72.7704 96.9178 72.4153 97.2676C72.134 97.5576 71.8782 97.8675 71.6453 98.1973C71.3156 98.6409 70.9775 99.0987 70.4973 99.4882C70.0683 99.8379 69.3693 100.316 68.7669 100.316H68.7612Z" fill="#263238"/>
<path d="M78.3282 98.3566C78.2685 98.3566 78.2088 98.3424 78.1549 98.3111C77.5411 97.9642 76.9473 97.5832 76.3733 97.2135C76.021 96.9889 75.6686 96.7615 75.3078 96.5397C75.16 96.4459 75.018 96.3435 74.8844 96.2326C74.6713 96.062 74.4071 95.8516 74.2366 95.8203C74.1457 95.8033 74.0633 95.7492 74.0121 95.6725C73.961 95.5957 73.9411 95.499 73.9581 95.408C73.9752 95.317 74.0292 95.2346 74.1059 95.1834C74.1826 95.1322 74.2792 95.1123 74.3701 95.1294C74.7082 95.1948 75.0322 95.4535 75.322 95.681C75.4356 95.7748 75.5521 95.863 75.6743 95.9454C76.038 96.1672 76.396 96.3975 76.7512 96.625C77.3166 96.9889 77.9048 97.3642 78.5015 97.7026C78.5697 97.7396 78.6208 97.7993 78.6521 97.8732C78.6834 97.9443 78.689 98.0239 78.6692 98.0978C78.6493 98.1718 78.6038 98.24 78.5441 98.2855C78.4816 98.3338 78.4077 98.3594 78.3282 98.3594V98.3566Z" fill="#263238"/>
<path d="M89.546 102.636C89.4693 102.636 89.3955 102.613 89.3358 102.565C87.7418 101.371 86.4404 99.6589 85.1845 97.9984C84.585 97.2108 84.0195 96.463 83.4314 95.7806C81.4111 93.4376 79.3 91.5013 76.3762 89.3148L76.0693 89.0845C74.8617 88.1746 73.208 86.9293 71.7873 86.8297C70.9889 86.7757 70.6451 87.1567 70.128 87.7339C70.0001 87.8761 69.8637 88.0268 69.716 88.1775C69.4261 88.4732 69.1278 88.7433 68.8351 89.002C67.7298 89.9972 66.8575 90.7848 67.1644 92.2435C67.2724 92.7581 67.3292 93.2841 67.3832 93.7959C67.4286 94.3276 67.5054 94.8565 67.6133 95.3768C67.6503 95.5389 67.7582 95.7038 67.852 95.7464C67.8691 95.755 67.8918 95.7663 67.9515 95.7351C68.8266 95.2744 69.0937 94.3987 69.3125 93.4632C69.3324 93.3438 69.3466 93.2244 69.3551 93.1021C69.4148 92.4425 69.483 91.9591 69.7955 91.7402C69.8325 91.7117 69.8779 91.6918 69.9234 91.6805C69.9688 91.6691 70.0172 91.6663 70.0626 91.6748C70.1109 91.6833 70.1535 91.6975 70.1933 91.7231C70.2331 91.7487 70.2672 91.7828 70.2956 91.8198C70.324 91.8568 70.3411 91.9023 70.3524 91.9506C70.361 91.9961 70.361 92.0444 70.3524 92.0899C70.3439 92.1354 70.324 92.1809 70.2985 92.2207C70.27 92.2605 70.2359 92.2918 70.1962 92.3174C70.1194 92.414 70.074 92.9401 70.0541 93.1647C70.0427 93.3182 70.0257 93.4689 69.9973 93.6196C69.7501 94.6745 69.4148 95.7578 68.2782 96.3521C68.1702 96.4118 68.0481 96.4459 67.923 96.4516C67.798 96.4573 67.673 96.4317 67.5622 96.3805C67.2042 96.2156 66.9996 95.8175 66.9342 95.5303C66.8206 94.9816 66.7382 94.4243 66.6899 93.867C66.6444 93.3694 66.5762 92.8775 66.4796 92.3856C66.0875 90.5289 67.2496 89.4854 68.3663 88.476C68.6476 88.223 68.9403 87.9585 69.213 87.6799C69.3523 87.5377 69.4801 87.3956 69.6023 87.2591C70.1621 86.6336 70.6877 86.045 71.8328 86.1218C73.4609 86.2326 75.2112 87.552 76.4898 88.5158L76.791 88.7462C79.7603 90.9668 81.9027 92.9315 83.957 95.3171C84.5594 96.0166 85.1305 96.77 85.7357 97.569C86.9661 99.184 88.2305 100.862 89.7478 101.996C89.8074 102.042 89.8501 102.101 89.8728 102.172C89.8955 102.243 89.8927 102.317 89.8728 102.388C89.8501 102.46 89.8046 102.519 89.7449 102.562C89.6853 102.605 89.6142 102.627 89.5404 102.627H89.5489L89.546 102.636Z" fill="#263238"/>
<path d="M70.0285 92.9456C69.949 92.9456 69.8723 92.9172 69.8126 92.8689C69.7501 92.8205 69.7075 92.7494 69.6904 92.6727C69.6734 92.5959 69.6819 92.5163 69.716 92.4424C69.7501 92.3713 69.8069 92.3144 69.8779 92.2775C70.3212 92.0585 71.0372 91.3392 71.4464 90.7989L71.472 90.7677C71.8243 90.2871 72.0601 90.054 72.3471 90.108C72.6341 90.1592 72.8273 90.3554 72.9864 90.5117C73.0347 90.5601 73.0859 90.6084 73.1399 90.6511C73.1768 90.6795 73.2109 90.7136 73.2365 90.7534C73.262 90.7932 73.2762 90.8387 73.2848 90.8842C73.2905 90.9297 73.2905 90.9781 73.2791 91.0236C73.2677 91.069 73.2478 91.1117 73.2194 91.1487C73.191 91.1856 73.1569 91.2169 73.1143 91.2425C73.0745 91.2652 73.029 91.2823 72.9807 91.2851C72.9324 91.288 72.887 91.2851 72.8415 91.2738C72.7961 91.2595 72.7534 91.2396 72.7165 91.2084C72.6398 91.1487 72.5687 91.0833 72.4977 91.0122C72.438 90.9525 72.3755 90.8956 72.3102 90.8444C72.2136 90.9525 72.1198 91.0662 72.0374 91.1828L72.0061 91.2226C71.6254 91.7258 70.827 92.5902 70.1905 92.9058C70.1422 92.9314 70.0854 92.9428 70.0314 92.9428L70.0285 92.9456Z" fill="#263238"/>
<path d="M60.0069 148.607H59.97C59.8791 148.598 59.7938 148.55 59.7341 148.479C59.6745 148.408 59.6489 148.314 59.6574 148.223C59.7853 146.992 60.0836 145.53 60.4331 143.839C61.4106 139.067 62.8881 131.86 62.3795 120.742C62.3795 120.697 62.3852 120.651 62.3994 120.606C62.4164 120.563 62.4391 120.523 62.4704 120.489C62.5017 120.455 62.5386 120.427 62.5812 120.407C62.6238 120.387 62.6693 120.375 62.7148 120.373C62.7602 120.373 62.8057 120.378 62.8511 120.392C62.8938 120.407 62.9335 120.432 62.9676 120.464C63.0017 120.495 63.0302 120.532 63.05 120.574C63.0699 120.617 63.0813 120.663 63.0841 120.708C63.5956 131.911 62.1067 139.173 61.1236 143.975C60.7798 145.65 60.4843 147.097 60.3592 148.288C60.3507 148.374 60.3109 148.456 60.2456 148.513C60.1802 148.573 60.0978 148.604 60.0098 148.604L60.0069 148.607Z" fill="#263238"/>
<path d="M109.541 150C109.45 150 109.365 149.966 109.299 149.901C109.234 149.838 109.194 149.753 109.191 149.662C109.095 147.174 108.674 144.66 108.268 142.226C107.947 140.296 107.614 138.303 107.441 136.321C107.097 132.386 107.131 128.428 107.543 124.501C107.549 124.456 107.563 124.41 107.583 124.37C107.606 124.33 107.634 124.293 107.671 124.265C107.708 124.237 107.748 124.214 107.793 124.202C107.839 124.188 107.884 124.185 107.93 124.188C107.975 124.194 108.021 124.208 108.061 124.228C108.1 124.251 108.137 124.279 108.166 124.316C108.194 124.353 108.217 124.393 108.231 124.438C108.245 124.484 108.248 124.529 108.242 124.575C107.833 128.459 107.799 132.371 108.14 136.261C108.311 138.214 108.64 140.196 108.958 142.11C109.368 144.566 109.791 147.103 109.89 149.633C109.893 149.727 109.862 149.818 109.797 149.886C109.734 149.955 109.646 149.994 109.552 150H109.538H109.541Z" fill="#263238"/>
<path d="M90.6115 82.5391H90.5064C84.0849 82.4112 78.8425 70.6114 78.3225 68.9366C78.2998 68.8485 78.3111 68.7547 78.3538 68.6751C78.3964 68.5954 78.4703 68.5357 78.5555 68.5101C78.6407 68.4846 78.7345 68.4902 78.8169 68.53C78.8993 68.5699 78.959 68.6409 78.9902 68.7262C79.8086 71.3649 84.9714 81.7231 90.5178 81.834C93.6717 81.8937 96.4449 78.5869 98.7862 71.9989C98.8004 71.9563 98.826 71.9165 98.8572 71.8823C98.8885 71.8482 98.9254 71.8198 98.9681 71.7999C99.0107 71.78 99.0533 71.7686 99.1016 71.7658C99.1471 71.7658 99.1925 71.7714 99.238 71.7857C99.2806 71.8027 99.3204 71.8255 99.3545 71.8567C99.3886 71.888 99.417 71.925 99.4369 71.9676C99.4568 72.0103 99.4681 72.0558 99.471 72.1013C99.471 72.1468 99.4653 72.1923 99.4511 72.2378C97.0246 79.0731 94.0496 82.5391 90.6115 82.5391Z" fill="#263238"/>
<path d="M102.568 57.9101C102.5 57.9101 102.432 57.8874 102.375 57.8504C102.318 57.8106 102.273 57.7566 102.247 57.694C102.221 57.6287 102.213 57.5604 102.227 57.4922C102.241 57.4239 102.273 57.3614 102.324 57.313C102.801 56.8354 104.35 55.1692 104.216 53.8015C104.168 53.3011 103.898 52.8945 103.389 52.5561C103.313 52.505 103.259 52.4254 103.239 52.3315C103.222 52.2405 103.239 52.1467 103.29 52.0671C103.341 51.9903 103.421 51.9363 103.514 51.9192C103.605 51.9022 103.699 51.9192 103.779 51.9704C104.461 52.4254 104.844 53.0196 104.915 53.7304C105.077 55.3597 103.506 57.1254 102.821 57.8078C102.787 57.8419 102.75 57.8675 102.707 57.8845C102.665 57.9016 102.619 57.9101 102.574 57.9101H102.568Z" fill="#263238"/>
<path d="M110.658 77.1283C110.592 77.1283 110.53 77.1112 110.473 77.0771C110.419 77.043 110.373 76.9946 110.342 76.9378C109.583 75.4507 109.382 73.0737 109.152 70.3213C108.731 65.3142 108.208 59.0788 103.861 56.1075C103.824 56.0819 103.79 56.0478 103.764 56.0108C103.739 55.971 103.722 55.9284 103.713 55.8829C103.705 55.8374 103.705 55.7919 103.713 55.7464C103.722 55.7009 103.742 55.6583 103.767 55.6213C103.793 55.5843 103.827 55.5502 103.864 55.5246C103.904 55.499 103.946 55.482 103.992 55.4734C104.037 55.4649 104.083 55.4649 104.128 55.4734C104.173 55.482 104.216 55.5019 104.253 55.5275C108.876 58.6892 109.416 65.1066 109.848 70.2616C110.072 72.94 110.265 75.2517 110.964 76.6136C110.984 76.6534 110.999 76.6989 111.001 76.7444C111.004 76.7899 111.001 76.8354 110.984 76.8809C110.97 76.9235 110.947 76.9662 110.916 77.0003C110.885 77.0344 110.851 77.0629 110.808 77.0856C110.76 77.1112 110.706 77.1254 110.649 77.1283H110.658Z" fill="#263238"/>
<path d="M101.27 72.6471C101.224 72.6471 101.179 72.6386 101.136 72.6216C101.093 72.6045 101.054 72.5789 101.022 72.5448C100.991 72.5135 100.963 72.4737 100.946 72.4311C100.929 72.3884 100.92 72.3429 100.92 72.2974C100.92 71.7515 101.074 70.8615 101.261 69.7327C101.801 66.5311 102.622 61.6889 101.233 58.2144C101.201 58.1291 101.207 58.0353 101.244 57.9528C101.281 57.8704 101.349 57.8049 101.434 57.7708C101.52 57.7367 101.613 57.7367 101.696 57.7708C101.781 57.8049 101.846 57.8704 101.886 57.9528C103.347 61.6122 102.508 66.5709 101.954 69.8493C101.77 70.944 101.622 71.8084 101.622 72.2946C101.622 72.3401 101.613 72.3856 101.596 72.4282C101.579 72.4709 101.554 72.5107 101.52 72.5419C101.488 72.5732 101.449 72.6017 101.406 72.6187C101.363 72.6358 101.318 72.6443 101.272 72.6443L101.27 72.6471Z" fill="#263238"/>
<path d="M71.418 68.6039C71.3242 68.6039 71.2361 68.567 71.1708 68.5016C71.1054 68.4362 71.0685 68.3452 71.0685 68.2542C71.0685 66.8325 71.1594 65.698 71.364 64.5778C71.5572 63.5058 71.9664 62.4993 72.3642 61.524C72.9097 60.1791 73.424 58.9082 73.424 57.4808C73.424 57.4325 73.4297 57.387 73.4467 57.3415C73.4638 57.296 73.4893 57.2562 73.5206 57.2221C73.5519 57.1879 73.5916 57.1595 73.6371 57.1424C73.6797 57.1225 73.728 57.114 73.7763 57.114C73.8246 57.114 73.8701 57.1225 73.9156 57.1424C73.9582 57.1624 73.998 57.1879 74.0321 57.2221C74.0662 57.2562 74.0917 57.296 74.1059 57.3415C74.123 57.387 74.1315 57.4325 74.1287 57.4808C74.1287 59.0475 73.5632 60.4407 73.0148 61.7885C72.6312 62.7296 72.2391 63.702 72.0573 64.7029C71.8612 65.7805 71.7731 66.8752 71.7731 68.2542C71.7731 68.2997 71.7646 68.3452 71.7447 68.3878C71.7277 68.4305 71.7021 68.4703 71.668 68.5016C71.6339 68.5328 71.597 68.5584 71.5544 68.5783C71.5117 68.5954 71.4663 68.6039 71.4208 68.6039H71.418Z" fill="#263238"/>
<path d="M81.9027 64.6972C81.843 64.6972 81.7862 64.6773 81.7407 64.6432C81.6953 64.6091 81.6612 64.5579 81.647 64.5011C81.6328 64.4442 81.6384 64.3845 81.6612 64.3305C81.6839 64.2764 81.7265 64.2309 81.7777 64.2053C82.2493 63.9494 82.6244 64.0262 82.9256 64.0888C83.0733 64.1314 83.2268 64.1428 83.3802 64.1286C83.4484 64.1172 83.5649 64.012 83.6587 63.9267C83.7695 63.8158 83.8945 63.7248 84.0337 63.6509C84.3008 63.5258 84.5253 63.6367 84.6588 63.7021C84.6986 63.7248 84.7412 63.7419 84.7867 63.7533C84.8521 63.7248 84.9089 63.6822 84.9543 63.631C85.0737 63.4974 85.2356 63.4035 85.4118 63.3637C85.5795 63.341 85.7499 63.3296 85.9204 63.3268C86.3125 63.3154 86.7189 63.304 86.9263 63.0737C86.949 63.0481 86.9774 63.0282 87.0087 63.014C87.0399 62.9998 87.074 62.9912 87.1081 62.9884C87.1422 62.9884 87.1763 62.9912 87.2104 63.0026C87.2417 63.014 87.2729 63.0339 87.2985 63.0566C87.3241 63.0794 87.344 63.1078 87.3582 63.1391C87.3724 63.1704 87.3809 63.2045 87.3837 63.2386C87.3837 63.2727 87.3809 63.3069 87.3695 63.341C87.3582 63.3723 87.3411 63.4035 87.3155 63.4291C86.9575 63.8243 86.3921 63.8386 85.9318 63.8528C85.784 63.8528 85.6391 63.8641 85.4942 63.8812C85.4232 63.9096 85.3607 63.9551 85.3124 64.012C85.1959 64.1428 85.0424 64.2338 84.872 64.2736C84.7157 64.2907 84.5594 64.2565 84.4259 64.1769C84.3065 64.1172 84.2838 64.1172 84.2525 64.1314C84.1644 64.1826 84.082 64.248 84.0082 64.3219C83.8547 64.4584 83.6842 64.6148 83.4655 64.6518C83.2495 64.6802 83.0279 64.666 82.8176 64.6119C82.5477 64.5551 82.3317 64.5124 82.0277 64.6745C81.9908 64.6944 81.9482 64.7058 81.9055 64.7029L81.9027 64.6972Z" fill="#263238"/>
<path d="M83.4001 52.795C83.1046 52.795 82.829 52.6983 82.6699 52.3969C82.65 52.3656 82.6358 52.3315 82.6301 52.2974C82.6244 52.2604 82.6244 52.2235 82.6358 52.1894C82.6443 52.1552 82.6613 52.1211 82.6841 52.0927C82.7068 52.0643 82.7352 52.0415 82.7665 52.0216C82.7977 52.0045 82.8347 51.9932 82.8688 51.9903C82.9057 51.9903 82.9426 51.9903 82.9767 52.0045C83.0108 52.0159 83.0421 52.0358 83.0705 52.0614C83.0961 52.087 83.1188 52.1154 83.133 52.1496C83.2637 52.3941 83.8405 52.2007 84.1474 52.0984C84.2241 52.0728 84.2866 52.0529 84.3406 52.0358C85.193 51.7884 87.2928 51.1117 88.4151 50.1905C88.4407 50.1678 88.472 50.1535 88.5061 50.1422C88.5402 50.1308 88.5743 50.1279 88.6084 50.1308C88.6425 50.1336 88.6766 50.145 88.7078 50.1592C88.7391 50.1763 88.7646 50.199 88.7874 50.2246C88.8101 50.2502 88.8243 50.2815 88.8357 50.3156C88.847 50.3497 88.8499 50.3838 88.847 50.418C88.8442 50.4521 88.8328 50.4862 88.8158 50.5175C88.7987 50.5488 88.7789 50.5743 88.7504 50.5971C87.5514 51.5837 85.3663 52.2832 84.4883 52.5391C84.4372 52.5533 84.3804 52.5732 84.315 52.596C84.0792 52.6784 83.7297 52.7978 83.4029 52.7978L83.4001 52.795Z" fill="#263238"/>
<path d="M82.6244 53.4063H82.5989C82.3517 53.3836 81.9169 53.159 81.7663 52.8519C81.7265 52.7723 81.7067 52.6841 81.7095 52.596C81.7123 52.5078 81.7408 52.4225 81.7891 52.3458C81.826 52.2861 81.8857 52.2463 81.9539 52.2292C82.022 52.215 82.0931 52.2263 82.1528 52.2633C82.2124 52.3003 82.255 52.36 82.2693 52.4282C82.2835 52.4965 82.2721 52.5675 82.2352 52.6273L82.0107 52.4879L82.2323 52.6273C82.255 52.6983 82.5335 52.8689 82.6472 52.8803C82.7153 52.886 82.7807 52.9173 82.8262 52.9685C82.8716 53.0196 82.8944 53.0879 82.8915 53.1561C82.8887 53.2244 82.8574 53.2898 82.8091 53.3352C82.758 53.3836 82.6926 53.4063 82.6244 53.4063Z" fill="#263238"/>
<path d="M75.6175 54.0262C75.4897 54.0262 75.359 54.0205 75.2254 54.0063C75.1572 53.9978 75.0976 53.9608 75.0549 53.9068C75.0123 53.8528 74.9924 53.7874 75.001 53.7191C75.0066 53.6509 75.0407 53.5883 75.0919 53.5457C75.143 53.5002 75.2112 53.4774 75.2766 53.4831C76.2767 53.5826 77.1206 53.2358 78.0157 52.869C78.2174 52.7865 78.422 52.7012 78.6323 52.6216C78.6976 52.6017 78.7658 52.6045 78.8283 52.633C78.8908 52.6614 78.9363 52.7126 78.9619 52.778C78.9846 52.8405 78.9846 52.9116 78.959 52.9742C78.9335 53.0367 78.8823 53.0879 78.8198 53.1135C78.6152 53.1903 78.4163 53.2727 78.2174 53.3552C77.4076 53.685 76.5751 54.0262 75.6175 54.0262Z" fill="#263238"/>
<path d="M77.095 58.2939C76.9785 58.2939 76.8649 58.2854 76.7484 58.2712C76.6802 58.2627 76.6177 58.2257 76.5722 58.1717C76.5296 58.1177 76.5097 58.0466 76.5182 57.9783C76.5268 57.9101 76.5637 57.8475 76.6177 57.8049C76.6717 57.7622 76.7427 57.7423 76.8109 57.7509C77.544 57.8475 78.4674 57.5604 79.1607 57.023C79.2147 56.9832 79.2858 56.9689 79.3511 56.9775C79.4193 56.9889 79.479 57.023 79.5187 57.077C79.5614 57.131 79.5784 57.1993 79.5727 57.2647C79.567 57.3329 79.5329 57.3954 79.4818 57.4381C78.7857 57.9755 77.8821 58.2939 77.0894 58.2939H77.095Z" fill="#263238"/>
<path d="M86.6848 55.7464C86.6024 55.7464 86.52 55.7407 86.4376 55.7322C86.4035 55.7293 86.3694 55.718 86.341 55.698C86.3097 55.681 86.2841 55.6582 86.2643 55.6298C86.2415 55.6014 86.2273 55.5701 86.2188 55.5388C86.2103 55.5047 86.2074 55.4706 86.2131 55.4365C86.2159 55.4023 86.2273 55.3682 86.2444 55.3398C86.2614 55.3085 86.2841 55.2829 86.3125 55.263C86.341 55.2431 86.3722 55.2261 86.4035 55.2175C86.4376 55.209 86.4717 55.2062 86.5058 55.209C87.2985 55.3085 88.4408 54.6801 89.1795 54.1058C89.2363 54.066 89.3045 54.0489 89.3727 54.0574C89.4409 54.066 89.5034 54.1029 89.5432 54.157C89.5858 54.211 89.6057 54.2792 89.5972 54.3475C89.5887 54.4157 89.5546 54.4783 89.5034 54.5209C89.1142 54.8223 87.827 55.7435 86.6848 55.7435V55.7464Z" fill="#263238"/>
<path d="M58.6686 96.3065C58.6487 96.3065 58.6316 96.3065 58.6146 96.3008C58.5691 96.2951 58.5237 96.2781 58.4867 96.2525C58.4469 96.2297 58.4128 96.1956 58.3873 96.1587C58.3589 96.1217 58.3418 96.079 58.3304 96.0336C58.3191 95.9881 58.3191 95.9426 58.3248 95.8971C58.3759 95.5691 58.3418 95.3322 58.2225 95.1862C58.1571 95.1095 58.0776 95.01 57.981 94.8792C57.7394 94.5465 57.981 94.1968 58.1571 93.9437C58.2196 93.8527 58.3447 93.6736 58.3645 93.5854L58.2736 93.5741C58.0946 93.557 57.6201 93.5087 57.5746 93.0026C57.5434 92.6614 57.7224 92.3912 57.8673 92.1751C57.998 91.979 58.0747 91.8539 58.0492 91.7373C58.0406 91.6833 58.0207 91.6321 57.9895 91.5894C57.9582 91.5439 57.9184 91.507 57.8701 91.4814C57.64 91.3108 57.4297 91.0975 57.5263 90.4862C57.5462 90.4009 57.6002 90.3241 57.6712 90.2758C57.7451 90.2275 57.8332 90.2076 57.9213 90.2218C58.0094 90.236 58.0889 90.2815 58.1429 90.3526C58.1969 90.4208 58.2253 90.509 58.2168 90.5971C58.1799 90.8388 58.1969 90.853 58.2935 90.9212C58.5208 91.0748 58.6771 91.3136 58.7311 91.5837C58.8277 92.0017 58.6089 92.3287 58.4498 92.5675C58.3788 92.6614 58.3219 92.7666 58.2821 92.8746L58.3418 92.8803C58.5123 92.8974 58.768 92.9229 58.93 93.1419C59.2567 93.594 58.93 94.066 58.7339 94.3475C58.6941 94.4072 58.6373 94.4868 58.6061 94.5436C58.6657 94.6204 58.7169 94.6858 58.7595 94.7398C59.0664 95.1152 59.1289 95.2772 59.0152 96.0051C59.001 96.0876 58.9612 96.1643 58.8959 96.2184C58.8334 96.2724 58.751 96.3037 58.6686 96.3037V96.3065Z" fill="#263238"/>
<path d="M59.6517 108.758C59.6318 108.758 59.6148 108.758 59.5949 108.758C59.5494 108.752 59.5068 108.735 59.467 108.709C59.4273 108.686 59.3932 108.652 59.3676 108.615C59.3392 108.578 59.3221 108.536 59.3108 108.49C59.2994 108.445 59.2994 108.399 59.3051 108.354C59.3079 108.209 59.3051 108.067 59.2852 107.922C59.2454 107.464 59.2085 106.992 59.4386 106.716C59.4756 106.676 59.5153 106.639 59.558 106.605C59.6432 106.534 59.7256 106.46 59.8023 106.381C59.4443 106.065 58.6714 105.357 59.2483 104.547C59.3051 104.475 59.3846 104.427 59.4756 104.416C59.5665 104.402 59.6574 104.424 59.7313 104.478C59.8052 104.532 59.8563 104.609 59.8734 104.7C59.8904 104.788 59.8734 104.882 59.8222 104.959C59.6546 105.195 59.7625 105.411 60.2882 105.874L60.4047 105.98C60.4558 106.025 60.4985 106.085 60.524 106.147C60.5524 106.213 60.5638 106.281 60.5638 106.349C60.5581 106.656 60.2882 106.909 60.0154 107.143L59.9842 107.171C59.9415 107.29 59.9728 107.677 59.9899 107.862C60.0154 108.061 60.0211 108.26 60.0012 108.459C59.9899 108.541 59.9472 108.618 59.8847 108.672C59.8222 108.726 59.7398 108.758 59.6574 108.758H59.6517Z" fill="#263238"/>
<path d="M19.4375 136.699H162.067" stroke="#263238" stroke-width="0.903614" stroke-linecap="round"/>
</g>
</g>
</svg>
