<svg width="19" height="23" viewBox="0 0 19 23" fill="none" xmlns="http://www.w3.org/2000/svg">
<path d="M12.6266 2.58619C12.5998 2.21846 12.5731 1.85073 12.5464 1.483C12.5296 1.259 12.5967 1.08167 12.8457 1.06207C13.0948 1.04247 13.2188 1.2142 13.2375 1.44753C13.424 3.33099 13.6124 5.21412 13.8026 7.09694C13.8605 7.67187 13.9341 8.24401 13.978 8.81894C13.9957 9.04574 14.0712 9.11386 14.3025 9.13719C15.9738 9.30146 17.2031 10.301 17.6386 11.8205C18.2915 14.0801 16.5838 16.4237 14.2624 16.475C14.0022 16.4806 13.7691 16.4405 13.7644 16.139C13.7598 15.8375 14.005 15.7918 14.255 15.7769C15.7192 15.691 16.9317 14.5636 17.0585 13.1841C17.2031 11.6086 16.2807 10.2721 14.7903 9.90812C14.4994 9.83133 14.1979 9.80265 13.8978 9.8232C13.4753 9.8596 13.3718 9.77186 13.327 9.34066C13.2729 8.82422 13.2191 8.30779 13.1657 7.79134C13.0239 7.58321 13.008 7.34522 13.009 7.10442C13.0171 6.95671 13 6.80869 12.9586 6.66668C12.8364 5.54669 12.7413 4.4267 12.6079 3.30671C12.5939 3.06778 12.538 2.82512 12.6266 2.58619Z" fill="#667580"/>
<path d="M5.83595 7.79146C5.78248 8.30852 5.7287 8.82527 5.6746 9.34171C5.62983 9.77291 5.52817 9.85691 5.09916 9.82331C3.53977 9.70105 2.04288 10.9694 1.93935 12.5001C1.81997 14.2491 3.02961 15.6902 4.68972 15.7761C4.74755 15.7761 4.80537 15.7761 4.86319 15.7845C5.08516 15.8078 5.25211 15.9151 5.23625 16.1522C5.2204 16.3893 5.06091 16.4798 4.82682 16.476C3.93761 16.479 3.08134 16.1395 2.43551 15.5278C1.30049 14.461 0.935828 13.1375 1.41707 11.6713C1.91884 10.1453 3.05106 9.30345 4.65335 9.14385C4.93314 9.11585 5.00776 9.01505 5.03201 8.76025C5.1719 7.2884 5.32672 5.81747 5.47501 4.34655C5.56828 3.3815 5.66154 2.4155 5.76226 1.45325C5.78558 1.21991 5.88818 1.04538 6.15212 1.06498C6.40113 1.08458 6.47015 1.26191 6.45336 1.48591C6.42724 1.85364 6.40051 2.22169 6.37315 2.59004C6.46642 2.82804 6.40206 3.06696 6.38248 3.30589C6.2659 4.42588 6.1633 5.54587 6.04206 6.66586C5.95532 6.89733 6.01781 7.14279 5.97678 7.37799C5.96595 7.5256 5.91746 7.66796 5.83595 7.79146Z" fill="#667580"/>
<path d="M13.5095 13.1482C13.2297 13.0773 13.1467 13.2294 13.0963 13.529C12.8081 15.2211 11.2525 16.4811 9.4907 16.4764C7.72894 16.4718 6.18634 15.1968 5.89256 13.5103C5.87018 13.3825 5.91308 13.1827 5.74054 13.1641C5.50645 13.137 5.24158 13.0707 5.03266 13.2154C4.84614 13.347 4.92074 13.4954 5.10634 13.5822C5.20893 13.6289 5.33391 13.6214 5.41318 13.724C5.45453 13.7732 5.48068 13.8334 5.48847 13.8972C5.49625 13.961 5.48532 14.0257 5.45701 14.0834C5.42524 14.1531 5.37166 14.2106 5.30435 14.2471C5.23705 14.2837 5.15968 14.2973 5.08395 14.2859C4.87594 14.266 4.68049 14.1773 4.52849 14.0338C4.37648 13.8903 4.27658 13.7002 4.24457 13.4935C4.21804 13.2851 4.26463 13.0739 4.37639 12.896C4.48814 12.7181 4.65813 12.5846 4.85733 12.5182C5.30779 12.3903 5.77505 12.4389 6.23298 12.479C6.46707 12.4995 6.51277 12.7058 6.5249 12.9233C6.54835 13.5873 6.79395 14.2243 7.22232 14.732C7.65069 15.2397 8.23701 15.5888 8.88728 15.7232C10.6248 16.1143 12.3679 14.802 12.478 13.0166C12.5087 12.5173 12.5778 12.451 13.087 12.4566C13.3756 12.4458 13.6645 12.4515 13.9525 12.4734C14.1794 12.4943 14.3901 12.6005 14.542 12.7705C14.6939 12.9406 14.7758 13.1619 14.7713 13.3899C14.7655 13.6113 14.6807 13.8233 14.5322 13.9874C14.3837 14.1516 14.1813 14.2572 13.9618 14.285C13.752 14.3083 13.5887 14.2336 13.5347 14.0237C13.5211 13.9848 13.5156 13.9437 13.5184 13.9027C13.5212 13.8617 13.5324 13.8217 13.5511 13.7851C13.5699 13.7485 13.5959 13.7161 13.6275 13.6899C13.6591 13.6637 13.6958 13.6442 13.7352 13.6326C13.8937 13.5728 14.1213 13.571 14.0607 13.3255C14.0066 13.1062 13.7902 13.1557 13.6214 13.1501L13.5095 13.1482Z" fill="#667580"/>
<path d="M15.127 20.3276C14.7381 19.244 14.172 18.2556 13.5649 17.2877C13.3783 16.9919 13.1116 17.018 12.912 17.3381C12.3858 18.1523 11.9285 19.0089 11.5448 19.8992C11.4077 20.2268 11.2752 20.5637 11.2715 20.9333C11.2862 21.0938 11.3098 21.2533 11.3424 21.4112C11.4077 21.6691 11.5244 21.9112 11.6854 22.1229C11.8464 22.3346 12.0485 22.5116 12.2796 22.6433C12.5106 22.775 12.7659 22.8586 13.03 22.8893C13.2941 22.9199 13.5617 22.8968 13.8167 22.8214C14.8426 22.5172 15.5038 21.3776 15.127 20.3276ZM13.7635 22.1009C13.6051 22.1714 13.4339 22.2085 13.2605 22.2101C13.0871 22.2117 12.9152 22.1777 12.7555 22.1101C12.5958 22.0426 12.4516 21.943 12.3319 21.8175C12.2122 21.692 12.1195 21.5432 12.0596 21.3804C11.9925 21.2151 11.9641 21.0367 11.9766 20.8587C11.989 20.6808 12.042 20.508 12.1314 20.3537C12.3916 19.5604 12.8215 18.8604 13.2618 18.1137C13.6759 18.8511 14.1011 19.5231 14.3557 20.2818C14.7176 21.0565 14.477 21.7938 13.7635 22.099V22.1009Z" fill="#667580"/>
<path d="M7.70014 20.6869C7.68833 20.6071 7.66993 20.5284 7.64512 20.4517C7.28978 19.3046 6.67703 18.2873 6.04656 17.2784C5.88428 17.0161 5.61567 17.0096 5.45619 17.2625C4.8136 18.278 4.18593 19.3046 3.84085 20.4647C3.60769 21.2562 3.87816 21.9329 4.49371 22.4443C5.10925 22.9558 5.80594 23.0519 6.5362 22.7243C7.26646 22.3967 7.65537 21.8003 7.71972 21.0079C7.71319 20.8941 7.71227 20.7867 7.70014 20.6869ZM6.719 21.7611C6.5669 21.9534 6.35953 22.0943 6.12488 22.1649C5.89023 22.2355 5.63959 22.2324 5.40677 22.1559C4.87889 22.0019 4.57578 21.6389 4.47412 21.1031C4.41817 20.8054 4.51609 20.5366 4.64759 20.2771C4.905 19.5184 5.32563 18.8454 5.74345 18.1109C6.18273 18.852 6.61174 19.5547 6.87195 20.3509C7.12936 20.853 7.07993 21.3393 6.719 21.7611Z" fill="#667580"/>
<path d="M6.30413 3.2766C6.31159 3.04514 6.2864 2.80994 6.375 2.58594C7.35801 2.80527 7.96889 3.45019 8.26827 4.36859C8.7346 5.79751 7.83366 7.33937 6.37593 7.68656C6.1978 7.72856 6.01594 7.75656 5.83594 7.7911C5.86951 7.41777 5.86578 7.03604 5.95811 6.6711C6.05137 6.98097 6.24724 6.94271 6.47853 6.83724C7.17988 6.51804 7.54734 5.95337 7.5921 5.20765C7.63687 4.46192 7.27407 3.92619 6.66972 3.52766C6.54568 3.44646 6.3862 3.41753 6.30413 3.2766Z" fill="#667580"/>
<path d="M13.0429 6.66824C13.1361 7.04157 13.1305 7.4149 13.165 7.78823C12.6334 7.68837 12.1074 7.59037 11.6681 7.22824C10.8707 6.56558 10.4967 5.75172 10.6693 4.70826C10.8483 3.62934 11.5031 2.97508 12.4889 2.60082C12.5339 2.59088 12.58 2.58712 12.626 2.58962C12.7192 2.81361 12.6894 3.04974 12.6978 3.2812C12.4497 3.52013 12.1214 3.64427 11.8789 3.9028C10.9798 4.86133 11.4275 6.51612 12.6866 6.90531C12.9664 6.98838 12.9403 6.76624 13.0429 6.66824Z" fill="#667580"/>
<path d="M3.18533 6.48073C3.17842 6.58769 3.13646 6.68938 3.06595 6.77006C2.77963 7.14339 2.4933 7.51672 2.20232 7.89005C2.06149 8.06831 1.88242 8.12151 1.69216 7.97218C1.5019 7.82285 1.51869 7.65392 1.64646 7.48499C1.95237 7.08272 2.26201 6.68233 2.57911 6.2894C2.62193 6.22617 2.68701 6.18144 2.76136 6.16413C2.8357 6.14683 2.91384 6.15824 2.98015 6.19607C3.03719 6.22007 3.08651 6.25933 3.1227 6.30955C3.1589 6.35976 3.18057 6.41899 3.18533 6.48073Z" fill="#667580"/>
<path d="M16.174 6.16406C16.2368 6.16938 16.2976 6.18896 16.3518 6.2213C16.4059 6.25365 16.452 6.29791 16.4865 6.35073C16.7662 6.70352 17.0404 7.05445 17.3118 7.41098C17.4555 7.59765 17.5348 7.80859 17.2932 7.97845C17.0516 8.14832 16.895 8.01205 16.7476 7.81512C16.4678 7.44832 16.188 7.09086 15.9082 6.72499C15.8602 6.67425 15.8297 6.60952 15.8209 6.54021C15.8122 6.47089 15.8258 6.40059 15.8597 6.33953C15.8934 6.28648 15.9398 6.24267 15.9947 6.21204C16.0496 6.18141 16.1112 6.16492 16.174 6.16406Z" fill="#667580"/>
<path d="M15.1164 1.66268C15.1481 1.58148 15.1975 1.45269 15.2498 1.32575C15.3971 0.963624 15.5473 0.601492 15.6946 0.239362C15.7879 0.0116306 15.9642 -0.0406293 16.1721 0.0359034C16.3652 0.110569 16.4118 0.286035 16.341 0.468034C16.1544 0.940296 15.9679 1.41069 15.7664 1.87455C15.7407 1.95326 15.6852 2.01875 15.6118 2.05697C15.5384 2.09518 15.453 2.10308 15.3738 2.07895C15.1985 2.02669 15.1117 1.90161 15.1164 1.66268Z" fill="#667580"/>
<path d="M1.7454 4.33397L0.310989 4.12211C0.0908849 4.08944 -0.0312926 3.96158 0.00694586 3.74225C0.0451843 3.52292 0.199067 3.40905 0.434093 3.44079C0.890157 3.50332 1.34622 3.56865 1.80229 3.62745C2.01866 3.65732 2.20146 3.75625 2.18654 3.99145C2.17162 4.22665 1.99908 4.35451 1.7454 4.33397Z" fill="#667580"/>
<path d="M17.2568 4.33287C17.0041 4.35621 16.8306 4.23955 16.811 3.99875C16.7914 3.75795 16.9742 3.66181 17.1906 3.63195L18.5588 3.44528C18.7938 3.41261 18.9486 3.51808 18.9897 3.74115C19.0307 3.96421 18.9113 4.09208 18.6912 4.12474L17.2568 4.33287Z" fill="#667580"/>
<path d="M2.63574 0.399592C2.63574 0.187727 2.70103 0.0691951 2.84932 0.0262621C2.99761 -0.0166708 3.17388 -0.0241297 3.24663 0.139202C3.46953 0.644131 3.68217 1.15465 3.87523 1.67172C3.93679 1.83598 3.84072 1.98625 3.67098 2.06372C3.60906 2.09858 3.53598 2.10784 3.46732 2.08954C3.39867 2.07123 3.33989 2.02679 3.30352 1.96572C3.00974 1.45612 2.84559 0.889588 2.63574 0.399592Z" fill="#667580"/>
</svg>
