<svg width="25" height="25" viewBox="0 0 25 25" fill="none" xmlns="http://www.w3.org/2000/svg">
<path d="M18.1533 6.76173C18.1599 6.68825 18.1703 6.6223 18.1703 6.55635C18.1703 5.73298 18.1703 4.91056 18.1759 4.08718C18.1793 4.01794 18.1635 3.94912 18.1303 3.88828C18.0971 3.82745 18.0477 3.77696 17.9877 3.74238C17.2882 3.23932 16.5935 2.7306 15.8968 2.22376C15.8526 2.19173 15.8027 2.16064 15.7641 2.12955C15.5899 1.98636 15.5485 1.79606 15.6577 1.63497C15.7669 1.47387 15.9778 1.42395 16.1717 1.55772C16.4607 1.75838 16.7432 1.97034 17.0284 2.1776C17.548 2.55443 18.0639 2.93974 18.5883 3.30809C18.6837 3.36696 18.7614 3.45061 18.8131 3.55014C18.8648 3.64967 18.8886 3.76135 18.882 3.87333C18.8726 5.00947 18.882 6.14656 18.882 7.2827V7.55496C19.6633 7.5983 20.0117 7.86018 20.1745 8.61667C20.4033 9.66143 20.3317 10.6892 19.8413 11.6596C19.6453 12.0669 19.309 12.3897 18.8942 12.5687C18.8598 12.5877 18.8297 12.6137 18.8058 12.645C18.782 12.6763 18.765 12.7122 18.7558 12.7505C18.5637 13.8567 18.1195 14.9037 17.4577 15.8103C17.5752 15.8839 17.6866 15.9667 17.7909 16.0581C18.4706 16.7534 18.6899 17.5786 18.4499 18.5207C18.2729 19.2115 18.089 19.8996 17.8982 20.5848C17.8693 20.655 17.8635 20.7327 17.8818 20.8064C17.9001 20.8801 17.9415 20.946 17.9999 20.9946C18.8001 21.7793 19.589 22.5754 20.3797 23.3686C20.4438 23.4242 20.5007 23.4874 20.5492 23.557C20.5942 23.6229 20.613 23.7033 20.602 23.7823C20.5911 23.8614 20.5511 23.9335 20.4899 23.9847C20.439 24.0408 20.3697 24.0768 20.2946 24.0862C20.2194 24.0955 20.1434 24.0776 20.0804 24.0356C20.0153 23.9926 19.9558 23.9417 19.9034 23.8839C19.0326 23.0144 18.1675 22.1401 17.291 21.2762C17.2083 21.2054 17.1491 21.111 17.1214 21.0056C17.0936 20.9003 17.0986 20.789 17.1357 20.6865C17.3494 19.9253 17.5471 19.1604 17.7542 18.3973C17.9528 17.6672 17.7956 17.0369 17.2496 16.5056C16.9973 16.2597 16.7544 16.0035 16.4965 15.7595C16.0258 15.311 15.6624 14.8061 15.5146 14.1579C15.5029 14.0708 15.4577 13.9917 15.3886 13.9374C15.3196 13.883 15.2321 13.8577 15.1447 13.8668C15.0695 13.8693 14.9974 13.8972 14.9401 13.9459C14.8828 13.9947 14.8438 14.0615 14.8293 14.1353C14.8252 14.1425 14.8233 14.1507 14.8237 14.1589C14.9074 14.5988 14.9178 15.0784 15.2237 15.4316C15.6003 15.8631 16.0258 16.2465 16.4297 16.6563C16.4816 16.7043 16.5286 16.7573 16.5699 16.8146C16.6206 16.8812 16.6435 16.9649 16.6341 17.0481C16.6246 17.1313 16.5834 17.2076 16.5191 17.2611C16.4912 17.2921 16.4574 17.3172 16.4198 17.3351C16.3821 17.3529 16.3413 17.3632 16.2997 17.3653C16.2581 17.3674 16.2165 17.3613 16.1773 17.3473C16.138 17.3333 16.1019 17.3117 16.071 17.2837C15.9692 17.1976 15.8727 17.1054 15.782 17.0077C15.0778 16.3049 14.3743 15.6012 13.6714 14.8965C13.6272 14.8523 13.5848 14.8023 13.5358 14.7656C13.4698 14.7032 13.3824 14.6684 13.2916 14.6684C13.2007 14.6684 13.1133 14.7032 13.0473 14.7656C13.0119 14.7972 12.9836 14.836 12.9642 14.8793C12.9448 14.9227 12.9348 14.9696 12.9348 15.0171C12.9348 15.0646 12.9448 15.1116 12.9642 15.1549C12.9836 15.1983 13.0119 15.237 13.0473 15.2687C13.245 15.4806 13.4558 15.6813 13.6601 15.8866C13.712 15.9343 13.7605 15.9857 13.8051 16.0402C13.8347 16.0726 13.8576 16.1105 13.8724 16.1518C13.8872 16.193 13.8938 16.2368 13.8916 16.2806C13.8894 16.3245 13.8785 16.3674 13.8597 16.407C13.8408 16.4466 13.8142 16.482 13.7815 16.5112C13.7536 16.5449 13.719 16.5724 13.6798 16.5919C13.6407 16.6114 13.5979 16.6225 13.5543 16.6246C13.5106 16.6266 13.467 16.6195 13.4262 16.6037C13.3854 16.588 13.3484 16.5638 13.3174 16.5329C13.1674 16.3787 13.0266 16.2157 12.8957 16.0449L12.49 16.7458C12.6698 16.9154 12.8524 17.0765 13.0218 17.2489C13.1913 17.4213 13.2101 17.638 13.0463 17.7868C12.8825 17.9357 12.7018 17.9168 12.5257 17.7444C12.4034 17.6248 12.2923 17.4919 12.1492 17.3393C12.0268 17.5485 11.9157 17.7162 11.8291 17.898C11.8218 17.9319 11.8224 17.9671 11.8308 18.0007C11.8393 18.0344 11.8555 18.0657 11.8781 18.092C12.0127 18.2447 12.1661 18.3803 12.3045 18.5301C12.4429 18.6799 12.4608 18.8956 12.328 19.0351C12.1831 19.1886 11.9816 19.1914 11.8084 19.0256C11.6785 18.9022 11.5655 18.7609 11.4422 18.6253C11.1306 18.9927 11.1466 19.361 11.4742 19.6898C12.6855 20.9051 13.8986 22.1191 15.1136 23.3319C15.1769 23.3904 15.2361 23.4534 15.2906 23.5203C15.321 23.5523 15.3446 23.5901 15.3599 23.6316C15.3752 23.673 15.3819 23.7172 15.3795 23.7613C15.3771 23.8054 15.3657 23.8485 15.3461 23.8881C15.3264 23.9277 15.2989 23.9628 15.2652 23.9913C15.2367 24.0253 15.2015 24.0531 15.1618 24.0727C15.1221 24.0924 15.0787 24.1035 15.0344 24.1055C14.9901 24.1074 14.9459 24.1001 14.9046 24.084C14.8633 24.068 14.8258 24.0434 14.7945 24.012C14.674 23.9178 14.5685 23.7954 14.4575 23.6851C13.9538 23.1811 13.4521 22.6733 12.9418 22.1778C12.9084 22.1447 12.8682 22.1191 12.824 22.1029C12.7799 22.0866 12.7327 22.08 12.6858 22.0836C12.214 22.2203 11.7182 22.2528 11.2327 22.1788C10.7472 22.1048 10.2835 21.926 9.87385 21.655C9.84365 21.6433 9.81196 21.636 9.77971 21.6333V22.9889C9.77971 23.2009 9.77971 23.4119 9.77971 23.6239C9.77971 23.9206 9.6545 24.0836 9.43234 24.0855C9.21017 24.0874 9.07462 23.9216 9.07367 23.6305C9.07367 22.8382 9.0652 22.0469 9.07932 21.2555C9.08828 21.1722 9.07001 21.0883 9.02724 21.0162C8.98446 20.9442 8.9195 20.888 8.8421 20.8561C8.44201 20.6413 8.05415 20.4058 7.66065 20.1787C7.31704 19.98 7.27751 19.8396 7.47237 19.4957C7.50156 19.442 7.52886 19.3874 7.57969 19.2913C7.14007 19.4288 6.74092 19.5523 6.34177 19.6785C5.98404 19.7925 5.62725 19.9093 5.26953 20.0214C4.98711 20.1156 4.79883 20.044 4.7254 19.8255C4.65197 19.6069 4.76683 19.4383 5.04925 19.3488C5.99063 19.0464 6.94144 18.743 7.89036 18.4491C7.96449 18.4298 8.0338 18.3953 8.09392 18.3477C8.15403 18.3002 8.20365 18.2408 8.23961 18.1731C9.13769 16.6029 10.0411 15.0363 10.9499 13.4731C11.0788 13.2507 11.2276 13.0397 11.3349 12.873C11.2407 12.5253 11.1598 12.2088 11.0675 11.8583L10.8567 11.8847C10.2318 11.9737 9.59483 11.8646 9.03507 11.5729C8.9253 11.5126 8.8224 11.4406 8.72818 11.3581C8.55026 11.2064 8.52767 10.9964 8.6604 10.8409C8.79314 10.6855 8.98424 10.6826 9.16687 10.8117C9.79854 11.2582 10.4848 11.3044 11.2021 11.0755C11.309 11.0493 11.407 10.9953 11.4864 10.9191C11.5657 10.8428 11.6235 10.747 11.654 10.6412C11.7034 10.5011 11.7616 10.3642 11.8282 10.2314C11.9072 10.0433 12.0399 9.88279 12.2097 9.7699C12.3795 9.65701 12.5789 9.59679 12.7827 9.59679C12.9866 9.59679 13.1859 9.65701 13.3557 9.7699C13.5256 9.88279 13.6583 10.0433 13.7373 10.2314C13.7775 10.3072 13.8112 10.3863 13.838 10.4678C13.9679 11.0124 14.3916 11.1518 14.8632 11.1923C15.4214 11.2403 15.9562 11.1622 16.4174 10.7985C16.4876 10.7396 16.5783 10.7109 16.6696 10.7189C16.7608 10.7268 16.8452 10.7707 16.9041 10.8409C16.9349 10.8767 16.9582 10.9184 16.9725 10.9634C16.9867 11.0084 16.9917 11.0559 16.9871 11.1029C16.9826 11.1499 16.9685 11.1955 16.9458 11.237C16.9232 11.2784 16.8923 11.3148 16.8552 11.344C16.4146 11.7265 15.8827 11.8687 15.3169 11.9026C15.0345 11.9196 14.7408 11.9026 14.4518 11.9026C14.4273 12.0703 14.3925 12.2842 14.3671 12.499C14.3697 12.5421 14.3869 12.583 14.416 12.6148C14.4443 12.6506 14.4914 12.6714 14.5215 12.709C14.7559 12.9917 14.9988 13.1867 15.4167 13.2093C15.8347 13.2319 16.0832 13.5663 16.184 13.9724C16.3081 14.4684 16.5879 14.9115 16.9823 15.2366C17.4493 14.5956 17.7773 13.864 17.9453 13.0887C18.0522 12.5926 18.1174 12.0884 18.1402 11.5814C18.1703 10.6657 18.1844 9.74622 18.1402 8.83146C18.0856 7.75279 17.5697 6.92754 16.5944 6.42259C16.5146 6.38959 16.4475 6.33193 16.4028 6.25804C16.3581 6.18414 16.3381 6.09788 16.3459 6.01185C16.3368 5.8864 16.3368 5.76046 16.3459 5.63502C16.4127 5.29022 16.232 5.13194 15.9467 5.00382C14.9442 4.55445 13.9934 4.65054 13.0953 5.26195C12.5389 5.63878 11.9581 5.94308 11.2793 6.03728C10.6475 6.12084 10.0049 6.02859 9.42198 5.77067C9.37209 5.749 9.32126 5.72827 9.27042 5.70849C9.26477 5.70849 9.2563 5.70849 9.24877 5.71415C9.24124 5.7198 9.22241 5.73675 9.22429 5.74712C9.27889 6.1409 9.10474 6.3557 8.7536 6.55354C8.37366 6.75781 8.05314 7.05716 7.8233 7.42239C7.59347 7.78762 7.46218 8.20625 7.44225 8.6374C7.35753 10.027 7.30575 11.4259 7.55239 12.8098C7.72557 13.7458 8.11215 14.6291 8.68205 15.3911C8.71877 15.442 8.75831 15.491 8.79126 15.5437C8.91364 15.7321 8.88539 15.9206 8.72818 16.044C8.57097 16.1674 8.35728 16.1288 8.21513 15.9498C7.7251 15.3176 7.35033 14.6039 7.10806 13.8414C6.99603 13.4834 6.92543 13.1132 6.82564 12.7505C6.80964 12.6892 6.77857 12.6016 6.7315 12.5828C6.01417 12.2945 5.67056 11.702 5.4757 11.0086C5.23945 10.2238 5.21767 9.39008 5.41262 8.59406C5.48049 8.3538 5.59011 8.12739 5.73646 7.92519C5.95675 7.60771 6.29376 7.51822 6.68349 7.57851V4.75229C6.26081 4.76077 5.89555 4.90774 5.54347 5.09521C5.41262 5.16587 5.29401 5.25725 5.16692 5.33073C4.89956 5.48146 4.61621 5.33732 4.61527 5.03303C4.60962 3.81681 5.3279 2.529 6.54417 2.26333C6.67314 2.23507 6.70327 2.16912 6.70138 2.05042C6.70138 1.73671 6.68255 1.42112 6.70891 1.10835C6.72352 0.965523 6.78744 0.832263 6.88966 0.731521C7.02146 0.61282 7.18243 0.688188 7.32081 0.781454C8.49378 1.57185 9.64133 1.50779 10.7936 0.711741C12.1699 -0.238811 13.7119 -0.230336 15.0016 0.695722C15.1757 0.821017 15.2642 0.971748 15.1739 1.17712C15.143 1.25552 15.0831 1.31893 15.0066 1.35406C14.93 1.38918 14.8429 1.3933 14.7634 1.36553C14.6958 1.34489 14.6322 1.31305 14.5751 1.27133C13.421 0.517668 12.3158 0.517668 11.1861 1.30618C10.0348 2.10506 8.82703 2.30102 7.5251 1.72353C7.48693 1.7133 7.4478 1.70698 7.40835 1.70468C7.40835 1.94302 7.40835 2.16913 7.40835 2.39428C7.40835 2.80126 7.32364 2.89075 6.92072 2.9209C6.21751 2.97365 5.55288 3.60861 5.4578 4.3114C5.792 4.22755 6.12431 4.11356 6.46604 4.06269C7.38483 3.92609 8.22078 4.17198 8.97765 4.69294C9.40127 4.98404 9.83902 5.23275 10.3521 5.32507C11.1362 5.46638 11.8442 5.26948 12.4881 4.82482C12.9955 4.47343 13.5236 4.18705 14.144 4.0806C15.1579 3.90537 16.071 4.16067 16.8881 4.76266C16.9414 4.81098 16.9834 4.87049 17.0111 4.93694C17.0387 5.00338 17.0514 5.07511 17.0482 5.14702C16.9823 5.63878 17.1244 5.98641 17.5782 6.23323C17.7947 6.34722 17.9528 6.57143 18.1533 6.76173ZM14.3021 13.5202C13.6432 12.5602 12.2659 12.6327 11.6493 13.6916C10.5196 15.6266 9.40787 17.5683 8.2895 19.508C8.26032 19.5589 8.24149 19.6163 8.21419 19.6775C8.45989 19.8198 8.68488 19.9602 8.91928 20.0864C9.30714 20.3059 9.68652 20.5282 10.0075 20.8523C10.3336 21.1629 10.745 21.3689 11.189 21.4439C11.5295 21.5279 11.8856 21.5246 12.2245 21.4345C11.7962 21.0078 11.3914 20.6055 10.9885 20.2013C10.4415 19.6512 10.3587 19.0162 10.7475 18.3417C11.2495 17.4668 11.7551 16.5926 12.264 15.719C12.2978 15.6688 12.3185 15.6109 12.3241 15.5507C12.3297 15.4904 12.32 15.4297 12.296 15.3742C12.2334 15.209 12.2139 15.0306 12.2395 14.8558C12.2651 14.681 12.335 14.5157 12.4424 14.3755C12.5499 14.2354 12.6913 14.125 12.8534 14.0549C13.0154 13.9849 13.1927 13.9574 13.3683 13.9752C13.6177 14.0006 13.855 14.1448 14.0781 14.2277C14.1412 14.0336 14.2165 13.7934 14.3021 13.5202ZM13.7373 12.1834C13.7305 12.0821 13.7122 11.9819 13.6827 11.8847C13.5001 11.4363 13.3061 10.9926 13.1179 10.546C13.0539 10.3944 12.9503 10.27 12.7856 10.3152C12.6574 10.3504 12.5478 10.4338 12.4796 10.5479C12.2725 10.9766 12.0936 11.4193 11.9148 11.8593C11.8782 11.9451 11.8593 12.0373 11.8592 12.1306C11.8592 12.3482 11.9534 12.3982 12.1539 12.3284C12.3112 12.2597 12.4772 12.2128 12.6472 12.189C12.9927 12.1683 13.3485 12.1834 13.7354 12.1834H13.7373ZM6.70231 11.7528V8.54978C6.70231 8.53377 6.70231 8.51304 6.70231 8.50362C6.64301 8.42826 6.59406 8.31521 6.51404 8.2926C6.47062 8.28737 6.4266 8.29328 6.38609 8.30976C6.34558 8.32624 6.30992 8.35275 6.28246 8.38681C6.18601 8.53742 6.11597 8.70341 6.07536 8.87762C5.95553 9.51091 5.98064 10.1631 6.14879 10.7853C6.22894 11.1569 6.42156 11.4947 6.70044 11.7528H6.70231ZM18.881 11.7133L18.9545 11.7528C19.0919 11.5041 19.2661 11.2686 19.3612 11.0048C19.5995 10.3211 19.6512 9.58611 19.5108 8.87574C19.4803 8.71491 19.4192 8.56142 19.331 8.42355C19.284 8.34913 19.1352 8.26905 19.0731 8.29354C19.0244 8.31848 18.9824 8.35464 18.9505 8.39903C18.9186 8.44342 18.8977 8.49477 18.8895 8.54884C18.8754 9.60302 18.8754 10.6582 18.8754 11.7133H18.881ZM7.4253 6.72029C7.7595 6.44991 8.08428 6.18424 8.4147 5.92328C8.53332 5.82908 8.59074 5.28079 8.46366 5.19601C8.15547 4.97967 7.80073 4.83896 7.42813 4.78526L7.4253 6.72029Z" fill="#667580"/>
<path d="M24.8239 23.5856V23.6798C24.8239 23.9266 24.6799 24.0896 24.47 24.0887C24.26 24.0877 24.1555 23.9332 24.1141 23.6996C24.0341 23.2484 23.9861 22.7783 23.8166 22.36C23.4476 21.4518 22.7613 20.8348 21.8331 20.5173C20.9689 20.2215 20.0944 19.952 19.2236 19.6779C19.1718 19.6609 19.1182 19.6478 19.0683 19.6261C18.8706 19.5432 18.7859 19.3793 18.8405 19.1984C18.8501 19.1537 18.8691 19.1116 18.8961 19.0748C18.9232 19.0381 18.9578 19.0074 18.9975 18.985C19.0373 18.9626 19.0814 18.9488 19.1268 18.9447C19.1723 18.9405 19.2181 18.9461 19.2613 18.961C19.5183 19.025 19.7696 19.1126 20.0229 19.1937C20.7148 19.4141 21.4114 19.6214 22.0939 19.8597C22.8702 20.1347 23.5457 20.6371 24.0327 21.3017C24.5196 21.9662 24.7953 22.7621 24.8239 23.5856Z" fill="#667580"/>
<path d="M0.757865 23.6245C0.78144 22.7877 1.05882 21.9779 1.55316 21.3027C2.0475 20.6274 2.73541 20.1187 3.52553 19.8439C3.80795 19.7497 3.99623 19.8138 4.06966 20.0323C4.14026 20.233 4.03295 20.4092 3.7703 20.5034C2.55968 20.9512 1.81347 21.805 1.53168 23.0649C1.49415 23.2565 1.47212 23.4509 1.46579 23.6461C1.4479 23.9287 1.31329 24.0974 1.08924 24.0842C0.865185 24.071 0.755041 23.908 0.757865 23.631V23.6245Z" fill="#667580"/>
<path d="M15.2162 8.84616C14.7907 8.75196 14.3774 8.67376 13.9735 8.56354C13.8186 8.50926 13.6777 8.42108 13.5612 8.30542C13.5291 8.2788 13.5026 8.24594 13.4835 8.20883C13.4644 8.17171 13.453 8.1311 13.45 8.08946C13.447 8.04781 13.4525 8.00599 13.4661 7.96652C13.4797 7.92705 13.5012 7.89076 13.5292 7.85982C13.5509 7.82401 13.5796 7.79291 13.6136 7.76838C13.6475 7.74385 13.686 7.72637 13.7268 7.71698C13.7676 7.70758 13.8099 7.70646 13.8511 7.71368C13.8924 7.7209 13.9317 7.73631 13.9669 7.75901C14.7652 8.24229 15.5871 8.11888 16.4145 7.86829C16.68 7.78727 16.8664 7.83249 16.9511 8.03315C17.0359 8.23382 16.9389 8.45143 16.6602 8.52586C16.1867 8.65115 15.7038 8.73877 15.2162 8.84616Z" fill="#667580"/>
<path d="M10.1428 8.79502C9.8867 8.74038 9.41036 8.65749 8.94531 8.53408C8.64783 8.454 8.5424 8.24486 8.63089 8.03289C8.71938 7.82092 8.90483 7.77664 9.18724 7.87556C9.77919 8.0915 10.42 8.13623 11.0361 8.00462C11.216 7.95597 11.3886 7.88342 11.5492 7.78889C11.7478 7.68244 11.9342 7.69468 12.0519 7.85484C12.1696 8.01499 12.146 8.22319 11.9578 8.36733C11.4842 8.72155 10.9307 8.76864 10.1428 8.79502Z" fill="#667580"/>
<path d="M15.0815 9.73926C15.2067 9.73926 15.3319 9.73266 15.4581 9.73926C15.5504 9.73689 15.64 9.77134 15.707 9.83503C15.774 9.89872 15.813 9.98643 15.8153 10.0789C15.8177 10.1713 15.7833 10.2609 15.7196 10.328C15.656 10.395 15.5683 10.434 15.476 10.4364C15.203 10.4505 14.9281 10.4496 14.6551 10.4364C14.5627 10.4356 14.4744 10.3982 14.4096 10.3323C14.3448 10.2664 14.3088 10.1774 14.3096 10.085C14.3103 9.99256 14.3477 9.90419 14.4136 9.83935C14.4794 9.77452 14.5683 9.73851 14.6607 9.73926C14.7991 9.73266 14.9403 9.73926 15.0815 9.73926Z" fill="#667580"/>
<path d="M10.5368 9.74038C10.6695 9.74038 10.8032 9.73284 10.935 9.74038C10.9785 9.73983 11.0217 9.74818 11.062 9.76492C11.1022 9.78167 11.1386 9.80645 11.1689 9.83776C11.1992 9.86907 11.2228 9.90625 11.2383 9.94701C11.2537 9.98777 11.2607 10.0313 11.2588 10.0748C11.2643 10.1183 11.2608 10.1624 11.2484 10.2044C11.2359 10.2464 11.215 10.2853 11.1867 10.3188C11.1585 10.3523 11.1237 10.3795 11.0844 10.3988C11.0451 10.4181 11.0022 10.429 10.9585 10.4309C10.6698 10.4502 10.3802 10.4502 10.0915 10.4309C10.0461 10.4288 10.0017 10.4173 9.96093 10.3972C9.92021 10.3771 9.88408 10.3487 9.85482 10.314C9.82556 10.2792 9.8038 10.2387 9.7909 10.1952C9.77801 10.1516 9.77425 10.1058 9.77988 10.0607C9.78024 10.0173 9.78924 9.97436 9.80635 9.93446C9.82346 9.89457 9.84834 9.85849 9.87954 9.82832C9.91074 9.79815 9.94763 9.7745 9.98806 9.75876C10.0285 9.74301 10.0716 9.73548 10.115 9.73661C10.2543 9.72719 10.3974 9.73661 10.5368 9.73661V9.74038Z" fill="#667580"/>
</svg>
