<svg width="141" height="133" viewBox="0 0 141 133" fill="none" xmlns="http://www.w3.org/2000/svg">
<g clip-path="url(#clip0_11786_14264)">
<path d="M132.02 4.64006C131.1 3.69006 129.5 2.81006 126.74 2.74006C120.53 2.59006 122.18 7.00006 120.53 8.04006C118.88 9.08006 118.41 7.43006 116.74 8.49006C115.07 9.55006 115.83 11.6701 114.47 11.9701C113.11 12.2701 111.29 10.6001 109.62 11.6801C107.96 12.7601 107.95 13.6601 107.2 13.6601C106.45 13.6601 104.93 13.0601 104.02 13.6601C103.11 14.2601 102.04 15.0201 102.04 15.0201H118.32" stroke="#808080" stroke-width="0.5" stroke-linecap="round" stroke-linejoin="round"/>
<path d="M133.75 7.36005C133.6 7.29005 133.45 7.21005 133.28 7.15005C133.21 6.58005 133.02 6.04005 132.72 5.55005" stroke="#808080" stroke-width="0.5" stroke-linecap="round" stroke-linejoin="round"/>
<path d="M120.41 15.01H140.38C140.38 15.01 140.84 13.65 139.17 12.74C137.5 11.83 136.75 12.59 136.15 11.83C135.61 11.17 137.35 9.52003 134.53 7.78003" stroke="#808080" stroke-width="0.5" stroke-linecap="round" stroke-linejoin="round"/>
<path d="M21.75 10.9701C21.39 10.6101 20.76 10.2501 19.7 10.2501C17.29 10.1901 17.93 11.9001 17.29 12.3101C16.65 12.7201 16.47 12.0801 15.82 12.4901C15.17 12.9001 15.46 13.7201 14.94 13.8401C14.42 13.9601 13.7 13.3101 13.06 13.7201C12.42 14.1301 12.4 14.4801 12.12 14.4801C11.84 14.4801 11.24 14.2501 10.89 14.4801C10.54 14.7101 10.13 15.0101 10.13 15.0101H16.44" stroke="#808080" stroke-width="0.5" stroke-linecap="round" stroke-linejoin="round"/>
<path d="M22.42 12.05L22.23 11.97C22.2 11.75 22.13 11.54 22.02 11.35" stroke="#808080" stroke-width="0.5" stroke-linecap="round" stroke-linejoin="round"/>
<path d="M17.24 15.0101H24.99C25.03 14.8301 25.01 14.6401 24.92 14.4801C24.83 14.3201 24.69 14.1901 24.52 14.1301C23.86 13.7701 23.58 14.0701 23.34 13.7701C23.11 13.4701 23.81 12.8701 22.71 12.2001" stroke="#808080" stroke-width="0.5" stroke-linecap="round" stroke-linejoin="round"/>
<path d="M108.61 0.980035C108.25 0.620035 107.62 0.260035 106.56 0.260035C104.17 0.190035 104.8 1.89003 104.17 2.32003C103.54 2.75003 103.35 2.08004 102.7 2.50004C102.05 2.92004 102.34 3.73003 101.82 3.85003C101.3 3.97003 100.58 3.32004 99.94 3.73004C99.3 4.14004 99.28 4.48003 98.98 4.48003C98.68 4.48003 98.1 4.25003 97.75 4.48003C97.4 4.71003 96.98 5.01004 96.98 5.01004H103.29" stroke="#808080" stroke-width="0.5" stroke-linecap="round" stroke-linejoin="round"/>
<path d="M109.27 2.03008L109.09 1.95008C109.06 1.73008 108.99 1.52008 108.87 1.33008" stroke="#808080" stroke-width="0.5" stroke-linecap="round" stroke-linejoin="round"/>
<path d="M104.1 5.00007H111.85C111.89 4.82007 111.87 4.63007 111.78 4.47007C111.69 4.31007 111.55 4.18007 111.38 4.12007C110.74 3.76007 110.44 4.06007 110.2 3.76007C109.96 3.46007 110.66 2.87007 109.57 2.20007" stroke="#808080" stroke-width="0.5" stroke-linecap="round" stroke-linejoin="round"/>
<path d="M120.26 132.11H134.59" stroke="#808080" stroke-width="0.75" stroke-miterlimit="10"/>
<path d="M4.38 132.11H117.71" stroke="#808080" stroke-width="0.75" stroke-miterlimit="10"/>
<path d="M133.19 110.65C133.19 110.65 133.49 109.55 133.5 109.48C133.61 108.64 133.35 106.95 132.51 106.55C132.37 106.48 132.21 106.45 132.05 106.45C131.89 106.45 131.74 106.48 131.59 106.55C131.45 106.61 131.32 106.71 131.21 106.82C131.1 106.94 131.03 107.07 130.98 107.22C130.75 107.85 131.04 108.62 131.39 109.14C131.78 109.76 133.18 110.65 133.18 110.65H133.19Z" fill="#808080"/>
<path d="M116.43 110.29C117.09 110.58 118.77 110.55 118.77 110.55C118.77 110.55 118.41 109.47 118.38 109.4C118.02 108.64 116.87 107.38 115.93 107.51C115.78 107.54 115.63 107.59 115.5 107.68C115.37 107.76 115.25 107.88 115.17 108.01C115.08 108.14 115.03 108.29 115 108.44C114.98 108.6 114.99 108.75 115.03 108.91C115.19 109.56 115.86 110.04 116.43 110.29Z" fill="#808080"/>
<path d="M117 115.1C117.72 115.2 119.18 114.77 119.31 114.74C119.55 115.59 119.85 116.42 120.21 117.22C120.42 117.69 120.64 118.16 120.87 118.63C120.73 118.44 120.61 118.27 120.6 118.24C120.05 117.6 118.62 116.69 117.74 117.06C117.6 117.13 117.47 117.22 117.36 117.34C117.2 117.52 117.11 117.74 117.08 117.98C117.06 118.22 117.11 118.46 117.23 118.66C117.56 119.24 118.31 119.53 118.95 119.62C119.59 119.71 120.85 119.37 121.19 119.29C121.28 119.47 121.36 119.65 121.45 119.83C121.88 120.69 122.3 121.53 122.71 122.38C122.85 122.68 122.98 122.98 123.1 123.28C122.98 123.1 122.88 122.95 122.86 122.95C122.31 122.31 120.88 121.4 120 121.78C119.86 121.84 119.73 121.94 119.62 122.06C119.52 122.18 119.44 122.32 119.39 122.47C119.34 122.62 119.33 122.78 119.35 122.93C119.37 123.09 119.42 123.24 119.5 123.37C119.83 123.95 120.58 124.25 121.22 124.34C121.86 124.43 123 124.12 123.38 124.01C123.5 124.32 123.62 124.63 123.74 124.94C123.81 125.15 123.88 125.35 123.94 125.56C123.99 125.77 124.06 125.98 124.12 126.19C124.22 126.6 124.32 127.01 124.4 127.41C124.46 127.68 124.51 127.95 124.57 128.21C124.44 127.92 124.16 127.33 124.13 127.29C123.68 126.57 122.4 125.46 121.49 125.69C121.34 125.73 121.2 125.81 121.08 125.91C120.96 126.01 120.86 126.14 120.8 126.28C120.73 126.42 120.69 126.57 120.69 126.73C120.69 126.89 120.72 127.04 120.78 127.19C121.01 127.82 121.72 128.22 122.32 128.4C122.98 128.6 124.45 128.4 124.63 128.4C124.72 128.84 124.8 129.27 124.87 129.67C125.02 130.52 125.13 131.28 125.23 131.93H125.84C125.74 131.25 125.6 130.45 125.42 129.57C125.33 129.12 125.23 128.65 125.12 128.16C125.56 127.98 125.99 127.78 126.41 127.55C126.9 128.07 128.13 128.69 128.29 128.76C128.12 129.18 127.96 129.58 127.79 129.95C127.46 130.69 127.16 131.35 126.89 131.93H127.55C127.78 131.41 128.04 130.83 128.3 130.18C128.47 129.76 128.66 129.31 128.83 128.84C129.01 128.88 130.46 129.17 131.14 129.02C131.76 128.88 132.5 128.53 132.77 127.94C132.84 127.8 132.88 127.65 132.89 127.49C132.89 127.33 132.87 127.18 132.81 127.03C132.75 126.89 132.67 126.75 132.56 126.64C132.45 126.53 132.31 126.44 132.16 126.39C131.27 126.09 129.9 127.11 129.4 127.79C129.37 127.83 129.1 128.3 128.94 128.6C129.01 128.41 129.08 128.24 129.15 128.03C129.29 127.64 129.42 127.25 129.57 126.82L129.76 126.19C129.83 125.98 129.87 125.76 129.93 125.53C130.05 125.02 130.15 124.49 130.24 123.96C130.57 124.08 131.8 124.51 132.43 124.47C133.06 124.43 133.85 124.19 134.21 123.63C134.3 123.5 134.37 123.36 134.39 123.2C134.42 123.05 134.42 122.89 134.39 122.74C134.36 122.59 134.29 122.44 134.2 122.32C134.11 122.2 133.99 122.09 133.85 122.01C133.01 121.58 131.51 122.37 130.91 122.97C130.87 123.01 130.49 123.48 130.29 123.75C130.34 123.42 130.39 123.11 130.44 122.79C130.55 121.85 130.65 120.9 130.73 119.95C130.76 119.66 130.79 119.37 130.82 119.08C130.94 119.13 132.38 119.66 133.09 119.61C133.72 119.57 134.5 119.34 134.87 118.78C134.96 118.65 135.02 118.51 135.06 118.35C135.1 118.19 135.09 118.04 135.06 117.89C135.03 117.74 134.96 117.59 134.87 117.47C134.78 117.35 134.67 117.24 134.54 117.16C133.7 116.73 132.2 117.52 131.59 118.12C131.55 118.17 131 118.84 130.87 119.03C130.94 118.4 131.01 117.76 131.11 117.14C131.24 116.3 131.42 115.46 131.65 114.64C131.7 114.66 133.2 115.23 133.93 115.17C134.56 115.13 135.34 114.9 135.71 114.34C135.8 114.21 135.86 114.07 135.9 113.92C135.93 113.77 135.93 113.61 135.9 113.46C135.87 113.31 135.8 113.16 135.71 113.04C135.62 112.91 135.5 112.81 135.36 112.73C134.52 112.3 133.02 113.09 132.42 113.69C132.38 113.73 131.97 114.25 131.76 114.5L131.71 114.48C131.97 113.66 132.3 112.87 132.7 112.11C132.91 111.69 133.14 111.3 133.36 110.92C133.63 111.05 134.86 111.64 135.52 111.68C136.18 111.72 136.96 111.56 137.38 111.05C137.48 110.93 137.56 110.79 137.61 110.64C137.65 110.49 137.67 110.33 137.65 110.18C137.63 110.02 137.58 109.87 137.5 109.74C137.41 109.61 137.3 109.5 137.17 109.41C136.38 108.88 134.8 109.52 134.14 110.04C134.1 110.07 133.78 110.4 133.54 110.64C133.65 110.47 133.75 110.31 133.87 110.14C134.27 109.55 134.66 109.02 135.02 108.56C135.23 108.31 135.42 108.07 135.59 107.86C135.92 107.86 137.26 107.81 137.85 107.53C138.44 107.25 139.07 106.76 139.21 106.11C139.24 105.96 139.24 105.8 139.21 105.64C139.18 105.49 139.12 105.34 139.03 105.21C138.94 105.08 138.83 104.97 138.7 104.88C138.57 104.8 138.42 104.74 138.26 104.72C137.32 104.62 136.2 105.9 135.86 106.68C135.83 106.75 135.5 107.84 135.5 107.84H135.52C135.34 108.04 135.16 108.26 134.95 108.5C134.59 108.95 134.17 109.46 133.77 110.05C133.32 110.69 132.91 111.35 132.53 112.03C132.11 112.79 131.76 113.58 131.48 114.4V113.32C131.37 112.49 130.67 110.93 129.74 110.76C129.58 110.73 129.42 110.73 129.26 110.76C129.1 110.79 128.95 110.86 128.82 110.96C128.69 111.06 128.58 111.18 128.51 111.33C128.43 111.47 128.39 111.63 128.38 111.79C128.33 112.45 128.81 113.11 129.28 113.54C129.81 114.01 131.28 114.47 131.4 114.51C131.14 115.35 130.93 116.2 130.78 117.07C130.69 117.57 130.61 118.09 130.54 118.6V118.12C130.43 117.29 129.73 115.73 128.8 115.56C128.57 115.52 128.33 115.56 128.12 115.67C127.91 115.78 127.74 115.95 127.63 116.16C127.56 116.3 127.52 116.45 127.51 116.61C127.46 117.27 127.94 117.93 128.41 118.36C128.88 118.79 130.13 119.2 130.46 119.3C130.44 119.5 130.41 119.7 130.39 119.89C130.28 120.84 130.17 121.79 130.03 122.71C129.98 123.04 129.92 123.35 129.87 123.68V123.26C129.76 122.42 129.06 120.87 128.13 120.7C127.98 120.68 127.82 120.69 127.67 120.73C127.52 120.77 127.38 120.84 127.26 120.94C127.14 121.04 127.04 121.16 126.97 121.3C126.9 121.44 126.86 121.59 126.85 121.75C126.8 122.41 127.28 123.07 127.75 123.5C128.21 123.93 129.35 124.3 129.73 124.43C129.66 124.76 129.59 125.09 129.52 125.39C129.46 125.6 129.41 125.81 129.34 126.02C129.27 126.23 129.21 126.44 129.14 126.64C129 127.03 128.86 127.44 128.71 127.81C128.61 128.07 128.51 128.32 128.41 128.57C128.46 128.24 128.55 127.61 128.55 127.56C128.55 126.82 128.34 126.09 127.97 125.45C127.97 125.37 127.97 125.28 127.97 125.2C127.95 125.04 127.9 124.89 127.82 124.76C127.74 124.63 127.63 124.51 127.5 124.42C127.37 124.33 127.22 124.27 127.07 124.24C126.92 124.21 126.76 124.21 126.6 124.24C125.69 124.48 125.11 126.08 125.06 126.93C125.06 126.98 125.09 127.52 125.12 127.86C125.07 127.66 125.03 127.47 124.98 127.27C124.88 126.86 124.78 126.46 124.65 126.03L124.46 125.41C124.39 125.2 124.31 124.99 124.24 124.77C124.06 124.27 123.85 123.78 123.64 123.29C124 123.2 125.24 122.89 125.75 122.5C126.25 122.11 126.78 121.49 126.77 120.82C126.77 120.66 126.74 120.51 126.68 120.36C126.62 120.21 126.53 120.08 126.42 119.98C126.31 119.87 126.17 119.79 126.02 119.74C125.87 119.69 125.72 119.67 125.56 119.68C124.62 119.78 123.81 121.28 123.64 122.1C123.64 122.15 123.57 122.76 123.55 123.09C123.42 122.79 123.28 122.5 123.14 122.21C122.72 121.36 122.27 120.52 121.82 119.69L121.42 118.91C121.54 118.88 123.04 118.55 123.6 118.1C124.09 117.72 124.63 117.11 124.62 116.43C124.62 116.27 124.6 116.12 124.53 115.97C124.47 115.82 124.38 115.69 124.27 115.58C124.16 115.47 124.02 115.39 123.87 115.34C123.72 115.29 123.56 115.27 123.41 115.28C122.47 115.38 121.66 116.88 121.49 117.7C121.49 117.76 121.39 118.63 121.39 118.86C121.1 118.29 120.8 117.72 120.54 117.15C120.18 116.38 119.87 115.58 119.61 114.77C119.67 114.77 121.23 114.41 121.81 113.96C122.31 113.58 122.84 112.95 122.83 112.28C122.83 112.12 122.81 111.97 122.75 111.83C122.69 111.68 122.61 111.55 122.5 111.44C122.38 111.33 122.25 111.25 122.1 111.2C121.95 111.15 121.79 111.13 121.64 111.14C120.7 111.25 119.89 112.74 119.72 113.57C119.72 113.63 119.65 114.29 119.63 114.61H119.57C119.34 113.78 119.18 112.94 119.09 112.08C119.04 111.61 119.01 111.16 119 110.72C119.29 110.69 120.65 110.51 121.22 110.16C121.79 109.82 122.35 109.27 122.42 108.6C122.44 108.44 122.43 108.28 122.39 108.13C122.35 107.98 122.27 107.84 122.17 107.72C122.07 107.6 121.94 107.5 121.8 107.44C121.66 107.37 121.5 107.34 121.35 107.33C120.41 107.33 119.43 108.73 119.18 109.52C119.18 109.57 119.08 110.02 119.01 110.36V109.76C119.01 109.04 119.06 108.39 119.1 107.82C119.13 107.49 119.16 107.2 119.19 106.92C119.47 106.73 120.55 105.96 120.89 105.41C121.23 104.86 121.48 104.09 121.25 103.47C121.2 103.32 121.11 103.19 121.01 103.07C120.9 102.96 120.77 102.87 120.62 102.81C120.47 102.75 120.32 102.72 120.16 102.73C120 102.73 119.85 102.77 119.71 102.84C118.87 103.28 118.65 104.97 118.79 105.81C118.79 105.88 119.12 106.98 119.12 106.98H119.14C119.1 107.25 119.06 107.53 119.03 107.84C118.97 108.42 118.92 109.07 118.9 109.79C118.88 110.56 118.9 111.33 118.96 112.1C119.03 112.96 119.17 113.82 119.39 114.66V114.69C119.24 114.45 118.8 113.82 118.77 113.77C118.22 113.13 116.79 112.22 115.91 112.59C115.77 112.66 115.64 112.75 115.53 112.87C115.37 113.05 115.27 113.27 115.25 113.51C115.23 113.75 115.28 113.99 115.4 114.19C115.68 114.7 116.45 114.98 117.08 115.09L117 115.1Z" fill="#808080"/>
<path opacity="0.3" d="M116.43 110.29C117.09 110.58 118.77 110.55 118.77 110.55C118.77 110.55 118.41 109.47 118.38 109.4C118.02 108.64 116.87 107.38 115.93 107.51C115.78 107.54 115.63 107.59 115.5 107.68C115.37 107.76 115.25 107.88 115.17 108.01C115.08 108.14 115.03 108.29 115 108.44C114.98 108.6 114.99 108.75 115.03 108.91C115.19 109.56 115.86 110.04 116.43 110.29Z" fill="#808080"/>
<path opacity="0.3" d="M133.19 110.65C133.19 110.65 133.49 109.55 133.5 109.48C133.61 108.64 133.35 106.95 132.51 106.55C132.37 106.48 132.21 106.45 132.05 106.45C131.89 106.45 131.74 106.48 131.59 106.55C131.45 106.61 131.32 106.71 131.21 106.82C131.1 106.94 131.03 107.07 130.98 107.22C130.75 107.85 131.04 108.62 131.39 109.14C131.78 109.76 133.18 110.65 133.18 110.65H133.19Z" fill="#808080"/>
<path opacity="0.3" d="M117 115.1C117.72 115.2 119.18 114.77 119.31 114.74C119.55 115.59 119.85 116.42 120.21 117.22C120.42 117.69 120.64 118.16 120.87 118.63C120.73 118.44 120.61 118.27 120.6 118.24C120.05 117.6 118.62 116.69 117.74 117.06C117.6 117.13 117.47 117.22 117.36 117.34C117.2 117.52 117.11 117.74 117.08 117.98C117.06 118.22 117.11 118.46 117.23 118.66C117.56 119.24 118.31 119.53 118.95 119.62C119.59 119.71 120.85 119.37 121.19 119.29C121.28 119.47 121.36 119.65 121.45 119.83C121.88 120.69 122.3 121.53 122.71 122.38C122.85 122.68 122.98 122.98 123.1 123.28C122.98 123.1 122.88 122.95 122.86 122.95C122.31 122.31 120.88 121.4 120 121.78C119.86 121.84 119.73 121.94 119.62 122.06C119.52 122.18 119.44 122.32 119.39 122.47C119.34 122.62 119.33 122.78 119.35 122.93C119.37 123.09 119.42 123.24 119.5 123.37C119.83 123.95 120.58 124.25 121.22 124.34C121.86 124.43 123 124.12 123.38 124.01C123.5 124.32 123.62 124.63 123.74 124.94C123.81 125.15 123.88 125.35 123.94 125.56C123.99 125.77 124.06 125.98 124.12 126.19C124.22 126.6 124.32 127.01 124.4 127.41C124.46 127.68 124.51 127.95 124.57 128.21C124.44 127.92 124.16 127.33 124.13 127.29C123.68 126.57 122.4 125.46 121.49 125.69C121.34 125.73 121.2 125.81 121.08 125.91C120.96 126.01 120.86 126.14 120.8 126.28C120.73 126.42 120.69 126.57 120.69 126.73C120.69 126.89 120.72 127.04 120.78 127.19C121.01 127.82 121.72 128.22 122.32 128.4C122.98 128.6 124.45 128.4 124.63 128.4C124.72 128.84 124.8 129.27 124.87 129.67C125.02 130.52 125.13 131.28 125.23 131.93H125.84C125.74 131.25 125.6 130.45 125.42 129.57C125.33 129.12 125.23 128.65 125.12 128.16C125.56 127.98 125.99 127.78 126.41 127.55C126.9 128.07 128.13 128.69 128.29 128.76C128.12 129.18 127.96 129.58 127.79 129.95C127.46 130.69 127.16 131.35 126.89 131.93H127.55C127.78 131.41 128.04 130.83 128.3 130.18C128.47 129.76 128.66 129.31 128.83 128.84C129.01 128.88 130.46 129.17 131.14 129.02C131.76 128.88 132.5 128.53 132.77 127.94C132.84 127.8 132.88 127.65 132.89 127.49C132.89 127.33 132.87 127.18 132.81 127.03C132.75 126.89 132.67 126.75 132.56 126.64C132.45 126.53 132.31 126.44 132.16 126.39C131.27 126.09 129.9 127.11 129.4 127.79C129.37 127.83 129.1 128.3 128.94 128.6C129.01 128.41 129.08 128.24 129.15 128.03C129.29 127.64 129.42 127.25 129.57 126.82L129.76 126.19C129.83 125.98 129.87 125.76 129.93 125.53C130.05 125.02 130.15 124.49 130.24 123.96C130.57 124.08 131.8 124.51 132.43 124.47C133.06 124.43 133.85 124.19 134.21 123.63C134.3 123.5 134.37 123.36 134.39 123.2C134.42 123.05 134.42 122.89 134.39 122.74C134.36 122.59 134.29 122.44 134.2 122.32C134.11 122.2 133.99 122.09 133.85 122.01C133.01 121.58 131.51 122.37 130.91 122.97C130.87 123.01 130.49 123.48 130.29 123.75C130.34 123.42 130.39 123.11 130.44 122.79C130.55 121.85 130.65 120.9 130.73 119.95C130.76 119.66 130.79 119.37 130.82 119.08C130.94 119.13 132.38 119.66 133.09 119.61C133.72 119.57 134.5 119.34 134.87 118.78C134.96 118.65 135.02 118.51 135.06 118.35C135.1 118.19 135.09 118.04 135.06 117.89C135.03 117.74 134.96 117.59 134.87 117.47C134.78 117.35 134.67 117.24 134.54 117.16C133.7 116.73 132.2 117.52 131.59 118.12C131.55 118.17 131 118.84 130.87 119.03C130.94 118.4 131.01 117.76 131.11 117.14C131.24 116.3 131.42 115.46 131.65 114.64C131.7 114.66 133.2 115.23 133.93 115.17C134.56 115.13 135.34 114.9 135.71 114.34C135.8 114.21 135.86 114.07 135.9 113.92C135.93 113.77 135.93 113.61 135.9 113.46C135.87 113.31 135.8 113.16 135.71 113.04C135.62 112.91 135.5 112.81 135.36 112.73C134.52 112.3 133.02 113.09 132.42 113.69C132.38 113.73 131.97 114.25 131.76 114.5L131.71 114.48C131.97 113.66 132.3 112.87 132.7 112.11C132.91 111.69 133.14 111.3 133.36 110.92C133.63 111.05 134.86 111.64 135.52 111.68C136.18 111.72 136.96 111.56 137.38 111.05C137.48 110.93 137.56 110.79 137.61 110.64C137.65 110.49 137.67 110.33 137.65 110.18C137.63 110.02 137.58 109.87 137.5 109.74C137.41 109.61 137.3 109.5 137.17 109.41C136.38 108.88 134.8 109.52 134.14 110.04C134.1 110.07 133.78 110.4 133.54 110.64C133.65 110.47 133.75 110.31 133.87 110.14C134.27 109.55 134.66 109.02 135.02 108.56C135.23 108.31 135.42 108.07 135.59 107.86C135.92 107.86 137.26 107.81 137.85 107.53C138.44 107.25 139.07 106.76 139.21 106.11C139.24 105.96 139.24 105.8 139.21 105.64C139.18 105.49 139.12 105.34 139.03 105.21C138.94 105.08 138.83 104.97 138.7 104.88C138.57 104.8 138.42 104.74 138.26 104.72C137.32 104.62 136.2 105.9 135.86 106.68C135.83 106.75 135.5 107.84 135.5 107.84H135.52C135.34 108.04 135.16 108.26 134.95 108.5C134.59 108.95 134.17 109.46 133.77 110.05C133.32 110.69 132.91 111.35 132.53 112.03C132.11 112.79 131.76 113.58 131.48 114.4V113.32C131.37 112.49 130.67 110.93 129.74 110.76C129.58 110.73 129.42 110.73 129.26 110.76C129.1 110.79 128.95 110.86 128.82 110.96C128.69 111.06 128.58 111.18 128.51 111.33C128.43 111.47 128.39 111.63 128.38 111.79C128.33 112.45 128.81 113.11 129.28 113.54C129.81 114.01 131.28 114.47 131.4 114.51C131.14 115.35 130.93 116.2 130.78 117.07C130.69 117.57 130.61 118.09 130.54 118.6V118.12C130.43 117.29 129.73 115.73 128.8 115.56C128.57 115.52 128.33 115.56 128.12 115.67C127.91 115.78 127.74 115.95 127.63 116.16C127.56 116.3 127.52 116.45 127.51 116.61C127.46 117.27 127.94 117.93 128.41 118.36C128.88 118.79 130.13 119.2 130.46 119.3C130.44 119.5 130.41 119.7 130.39 119.89C130.28 120.84 130.17 121.79 130.03 122.71C129.98 123.04 129.92 123.35 129.87 123.68V123.26C129.76 122.42 129.06 120.87 128.13 120.7C127.98 120.68 127.82 120.69 127.67 120.73C127.52 120.77 127.38 120.84 127.26 120.94C127.14 121.04 127.04 121.16 126.97 121.3C126.9 121.44 126.86 121.59 126.85 121.75C126.8 122.41 127.28 123.07 127.75 123.5C128.21 123.93 129.35 124.3 129.73 124.43C129.66 124.76 129.59 125.09 129.52 125.39C129.46 125.6 129.41 125.81 129.34 126.02C129.27 126.23 129.21 126.44 129.14 126.64C129 127.03 128.86 127.44 128.71 127.81C128.61 128.07 128.51 128.32 128.41 128.57C128.46 128.24 128.55 127.61 128.55 127.56C128.55 126.82 128.34 126.09 127.97 125.45C127.97 125.37 127.97 125.28 127.97 125.2C127.95 125.04 127.9 124.89 127.82 124.76C127.74 124.63 127.63 124.51 127.5 124.42C127.37 124.33 127.22 124.27 127.07 124.24C126.92 124.21 126.76 124.21 126.6 124.24C125.69 124.48 125.11 126.08 125.06 126.93C125.06 126.98 125.09 127.52 125.12 127.86C125.07 127.66 125.03 127.47 124.98 127.27C124.88 126.86 124.78 126.46 124.65 126.03L124.46 125.41C124.39 125.2 124.31 124.99 124.24 124.77C124.06 124.27 123.85 123.78 123.64 123.29C124 123.2 125.24 122.89 125.75 122.5C126.25 122.11 126.78 121.49 126.77 120.82C126.77 120.66 126.74 120.51 126.68 120.36C126.62 120.21 126.53 120.08 126.42 119.98C126.31 119.87 126.17 119.79 126.02 119.74C125.87 119.69 125.72 119.67 125.56 119.68C124.62 119.78 123.81 121.28 123.64 122.1C123.64 122.15 123.57 122.76 123.55 123.09C123.42 122.79 123.28 122.5 123.14 122.21C122.72 121.36 122.27 120.52 121.82 119.69L121.42 118.91C121.54 118.88 123.04 118.55 123.6 118.1C124.09 117.72 124.63 117.11 124.62 116.43C124.62 116.27 124.6 116.12 124.53 115.97C124.47 115.82 124.38 115.69 124.27 115.58C124.16 115.47 124.02 115.39 123.87 115.34C123.72 115.29 123.56 115.27 123.41 115.28C122.47 115.38 121.66 116.88 121.49 117.7C121.49 117.76 121.39 118.63 121.39 118.86C121.1 118.29 120.8 117.72 120.54 117.15C120.18 116.38 119.87 115.58 119.61 114.77C119.67 114.77 121.23 114.41 121.81 113.96C122.31 113.58 122.84 112.95 122.83 112.28C122.83 112.12 122.81 111.97 122.75 111.83C122.69 111.68 122.61 111.55 122.5 111.44C122.38 111.33 122.25 111.25 122.1 111.2C121.95 111.15 121.79 111.13 121.64 111.14C120.7 111.25 119.89 112.74 119.72 113.57C119.72 113.63 119.65 114.29 119.63 114.61H119.57C119.34 113.78 119.18 112.94 119.09 112.08C119.04 111.61 119.01 111.16 119 110.72C119.29 110.69 120.65 110.51 121.22 110.16C121.79 109.82 122.35 109.27 122.42 108.6C122.44 108.44 122.43 108.28 122.39 108.13C122.35 107.98 122.27 107.84 122.17 107.72C122.07 107.6 121.94 107.5 121.8 107.44C121.66 107.37 121.5 107.34 121.35 107.33C120.41 107.33 119.43 108.73 119.18 109.52C119.18 109.57 119.08 110.02 119.01 110.36V109.76C119.01 109.04 119.06 108.39 119.1 107.82C119.13 107.49 119.16 107.2 119.19 106.92C119.47 106.73 120.55 105.96 120.89 105.41C121.23 104.86 121.48 104.09 121.25 103.47C121.2 103.32 121.11 103.19 121.01 103.07C120.9 102.96 120.77 102.87 120.62 102.81C120.47 102.75 120.32 102.72 120.16 102.73C120 102.73 119.85 102.77 119.71 102.84C118.87 103.28 118.65 104.97 118.79 105.81C118.79 105.88 119.12 106.98 119.12 106.98H119.14C119.1 107.25 119.06 107.53 119.03 107.84C118.97 108.42 118.92 109.07 118.9 109.79C118.88 110.56 118.9 111.33 118.96 112.1C119.03 112.96 119.17 113.82 119.39 114.66V114.69C119.24 114.45 118.8 113.82 118.77 113.77C118.22 113.13 116.79 112.22 115.91 112.59C115.77 112.66 115.64 112.75 115.53 112.87C115.37 113.05 115.27 113.27 115.25 113.51C115.23 113.75 115.28 113.99 115.4 114.19C115.68 114.7 116.45 114.98 117.08 115.09L117 115.1Z" fill="#808080"/>
<path d="M18.2 110.65C18.2 110.65 18.5 109.55 18.51 109.48C18.63 108.64 18.36 106.95 17.52 106.55C17.38 106.48 17.22 106.45 17.06 106.45C16.9 106.45 16.75 106.48 16.6 106.55C16.46 106.61 16.33 106.71 16.22 106.82C16.12 106.94 16.04 107.07 15.99 107.22C15.76 107.85 16.05 108.62 16.39 109.14C16.79 109.76 18.19 110.65 18.19 110.65H18.2Z" fill="#808080"/>
<path d="M1.43999 110.29C2.11999 110.58 3.76999 110.55 3.77999 110.55C3.78999 110.55 3.41999 109.47 3.38999 109.4C3.02999 108.64 1.86999 107.38 0.939993 107.51C0.789993 107.54 0.639993 107.59 0.509993 107.68C0.379993 107.76 0.259993 107.88 0.179993 108.01C0.0899926 108.14 0.0399926 108.29 0.00999262 108.44C-0.0100074 108.6 -0.0100074 108.75 0.0399926 108.91C0.199993 109.56 0.869993 110.04 1.43999 110.29Z" fill="#808080"/>
<path d="M2.01997 115.1C2.73997 115.2 4.20997 114.77 4.32997 114.74C4.56997 115.59 4.86997 116.42 5.22997 117.22C5.42997 117.7 5.64997 118.17 5.88997 118.63L5.60997 118.24C5.05997 117.6 3.62997 116.69 2.74997 117.06C2.60997 117.13 2.47997 117.22 2.37997 117.34C2.27997 117.46 2.19997 117.6 2.14997 117.74C2.09997 117.89 2.08997 118.05 2.10997 118.2C2.12997 118.36 2.17997 118.51 2.25997 118.64C2.58997 119.22 3.33997 119.51 3.96997 119.6C4.59997 119.69 5.86997 119.35 6.20997 119.27C6.29997 119.44 6.37997 119.63 6.46997 119.8C6.89997 120.66 7.32997 121.5 7.71997 122.35C7.85997 122.65 7.98997 122.95 8.11997 123.24C7.99997 123.07 7.89997 122.91 7.87997 122.91C7.32997 122.27 5.89997 121.36 5.01997 121.74C4.87997 121.8 4.74997 121.9 4.63997 122.02C4.53997 122.14 4.45997 122.28 4.40997 122.43C4.35997 122.58 4.34997 122.74 4.36997 122.89C4.38997 123.04 4.43997 123.2 4.51997 123.33C4.84997 123.91 5.59997 124.2 6.22997 124.3C6.85997 124.39 8.00997 124.09 8.38997 123.97C8.50997 124.28 8.62997 124.59 8.74997 124.9C8.81997 125.11 8.89997 125.31 8.94997 125.52C8.99997 125.73 9.06997 125.94 9.12997 126.15C9.22997 126.56 9.32997 126.97 9.40997 127.37C9.46997 127.64 9.51997 127.9 9.57997 128.17C9.43997 127.88 9.16997 127.29 9.13997 127.25C8.68997 126.53 7.39997 125.42 6.49997 125.65C6.34997 125.69 6.20997 125.77 6.08997 125.87C5.96997 125.97 5.86997 126.09 5.80997 126.24C5.73997 126.38 5.69997 126.53 5.69997 126.69C5.69997 126.85 5.71997 127 5.77997 127.15C6.00997 127.78 6.72997 128.18 7.32997 128.37C7.98997 128.57 9.45997 128.37 9.63997 128.37C9.72997 128.81 9.80997 129.23 9.87997 129.64C10.03 130.49 10.14 131.25 10.24 131.9H10.86C10.75 131.22 10.62 130.42 10.44 129.54C10.35 129.09 10.25 128.61 10.14 128.13C10.58 127.95 11.01 127.75 11.43 127.52C11.92 128.05 13.15 128.66 13.31 128.73C13.14 129.15 12.98 129.55 12.81 129.92C12.48 130.66 12.18 131.32 11.91 131.9H12.57C12.8 131.38 13.06 130.79 13.32 130.15C13.49 129.73 13.68 129.28 13.85 128.81C14.03 128.85 15.48 129.14 16.16 128.99C16.77 128.85 17.52 128.5 17.79 127.91C17.86 127.77 17.9 127.61 17.91 127.46C17.91 127.3 17.89 127.15 17.83 127C17.77 126.85 17.69 126.72 17.58 126.61C17.47 126.5 17.33 126.41 17.18 126.36C16.29 126.06 14.92 127.08 14.42 127.76C14.39 127.8 14.12 128.27 13.95 128.57C14.02 128.38 14.09 128.21 14.16 127.99C14.31 127.6 14.43 127.21 14.58 126.78C14.64 126.58 14.7 126.37 14.77 126.15C14.84 125.94 14.88 125.72 14.94 125.49C15.06 124.98 15.16 124.45 15.25 123.92C15.58 124.04 16.81 124.47 17.44 124.42C18.07 124.38 18.86 124.14 19.22 123.58C19.31 123.45 19.38 123.31 19.4 123.15C19.43 123 19.43 122.84 19.4 122.69C19.37 122.54 19.3 122.39 19.21 122.27C19.12 122.15 19 122.04 18.86 121.96C18.02 121.53 16.52 122.32 15.92 122.92C15.88 122.96 15.5 123.43 15.3 123.7C15.35 123.37 15.41 123.06 15.44 122.74C15.56 121.8 15.64 120.85 15.74 119.9C15.77 119.61 15.8 119.32 15.83 119.03C15.96 119.08 17.39 119.61 18.09 119.56C18.72 119.52 19.51 119.29 19.87 118.73C19.96 118.6 20.02 118.46 20.05 118.3C20.08 118.15 20.08 117.99 20.05 117.84C20.02 117.69 19.95 117.54 19.85 117.42C19.76 117.3 19.65 117.19 19.52 117.11C18.68 116.68 17.18 117.47 16.58 118.07C16.54 118.12 15.99 118.79 15.86 118.98C15.93 118.35 16 117.71 16.1 117.09C16.23 116.25 16.41 115.41 16.64 114.59C16.69 114.61 18.2 115.18 18.92 115.13C19.55 115.09 20.33 114.86 20.7 114.29C20.79 114.16 20.85 114.02 20.88 113.87C20.91 113.72 20.91 113.56 20.88 113.41C20.85 113.26 20.78 113.11 20.69 112.99C20.6 112.86 20.48 112.76 20.34 112.68C19.5 112.25 18 113.04 17.4 113.64C17.36 113.68 16.95 114.2 16.74 114.45L16.69 114.43C16.95 113.61 17.28 112.82 17.68 112.06C17.89 111.64 18.12 111.25 18.34 110.88C18.61 111.01 19.84 111.6 20.5 111.64C21.16 111.68 21.94 111.52 22.36 111.01C22.46 110.89 22.54 110.75 22.59 110.6C22.64 110.45 22.65 110.29 22.63 110.14C22.61 109.98 22.56 109.83 22.48 109.7C22.39 109.57 22.28 109.45 22.15 109.37C21.36 108.84 19.78 109.47 19.12 110C19.09 110.03 18.76 110.36 18.51 110.6L18.84 110.1C19.24 109.51 19.63 108.98 19.99 108.52C20.19 108.27 20.39 108.03 20.56 107.82C20.89 107.82 22.23 107.77 22.81 107.49C23.39 107.21 24.03 106.72 24.17 106.07C24.2 105.92 24.2 105.76 24.17 105.6C24.14 105.45 24.08 105.3 24 105.17C23.91 105.04 23.8 104.93 23.66 104.85C23.53 104.77 23.38 104.71 23.22 104.69C22.28 104.59 21.17 105.87 20.82 106.65C20.79 106.72 20.46 107.81 20.46 107.81C20.29 108.01 20.1 108.23 19.9 108.47C19.54 108.92 19.12 109.43 18.71 110.02C18.26 110.66 17.85 111.32 17.48 112C17.06 112.76 16.71 113.55 16.43 114.37V113.29C16.32 112.46 15.62 110.9 14.69 110.73C14.54 110.7 14.38 110.71 14.23 110.75C14.08 110.79 13.94 110.87 13.81 110.96C13.69 111.06 13.59 111.18 13.52 111.32C13.45 111.46 13.41 111.61 13.4 111.77C13.35 112.43 13.83 113.09 14.3 113.52C14.83 114 16.3 114.45 16.42 114.49C16.16 115.33 15.95 116.19 15.8 117.06C15.71 117.56 15.63 118.08 15.57 118.59V118.06C15.46 117.22 14.76 115.67 13.83 115.5C13.68 115.48 13.52 115.49 13.37 115.53C13.22 115.57 13.08 115.64 12.96 115.74C12.84 115.84 12.74 115.96 12.67 116.1C12.6 116.24 12.56 116.39 12.55 116.55C12.5 117.21 12.98 117.87 13.45 118.3C13.92 118.73 15.17 119.14 15.5 119.24C15.48 119.44 15.45 119.64 15.43 119.83C15.31 120.78 15.21 121.73 15.07 122.65C15.02 122.98 14.96 123.31 14.9 123.62V123.2C14.79 122.36 14.09 120.81 13.16 120.64C13 120.6 12.84 120.6 12.68 120.64C12.52 120.67 12.37 120.74 12.24 120.83C12.11 120.93 12 121.05 11.92 121.19C11.84 121.33 11.8 121.49 11.79 121.66C11.73 122.32 12.22 122.98 12.69 123.41C13.16 123.84 14.29 124.21 14.67 124.34C14.6 124.67 14.53 125 14.45 125.3C14.39 125.51 14.35 125.72 14.27 125.93C14.2 126.14 14.13 126.35 14.07 126.55C13.93 126.94 13.78 127.34 13.63 127.72C13.53 127.98 13.43 128.23 13.33 128.48C13.38 128.15 13.47 127.52 13.47 127.47C13.47 126.73 13.26 126 12.89 125.36C12.89 125.28 12.89 125.2 12.89 125.12C12.87 124.96 12.81 124.81 12.73 124.68C12.65 124.55 12.54 124.43 12.4 124.34C12.27 124.25 12.12 124.19 11.97 124.16C11.81 124.13 11.65 124.14 11.5 124.18C10.59 124.42 10.01 126.02 9.95997 126.87C9.95997 126.92 9.98997 127.46 10.02 127.8C9.96997 127.6 9.92997 127.41 9.87997 127.21C9.78997 126.8 9.67997 126.4 9.54997 125.97C9.48997 125.76 9.42997 125.55 9.36997 125.35C9.30997 125.14 9.21997 124.93 9.14997 124.71C8.96997 124.22 8.75997 123.72 8.53997 123.23C8.89997 123.14 10.14 122.83 10.65 122.44C11.15 122.05 11.68 121.43 11.68 120.76C11.68 120.6 11.66 120.45 11.6 120.3C11.54 120.16 11.45 120.03 11.34 119.92C11.22 119.81 11.09 119.73 10.94 119.68C10.79 119.63 10.63 119.61 10.48 119.62C9.53997 119.72 8.71997 121.22 8.54997 122.04C8.54997 122.09 8.48997 122.7 8.45997 123.03C8.32997 122.73 8.18997 122.44 8.04997 122.15C7.62997 121.3 7.17997 120.46 6.72997 119.62L6.32997 118.83C6.45997 118.8 7.94997 118.47 8.51997 118.02C9.01997 117.64 9.54997 117.01 9.54997 116.34C9.54997 116.18 9.51997 116.03 9.45997 115.88C9.39997 115.73 9.30997 115.6 9.19997 115.5C9.08997 115.39 8.94997 115.31 8.79997 115.25C8.64997 115.2 8.48997 115.18 8.33997 115.19C7.39997 115.29 6.58997 116.79 6.41997 117.61C6.41997 117.67 6.32997 118.54 6.31997 118.77C6.01997 118.2 5.72997 117.63 5.46997 117.06C5.10997 116.29 4.80997 115.49 4.54997 114.68C4.60997 114.68 6.16997 114.32 6.74997 113.87C7.24997 113.49 7.77997 112.86 7.76997 112.19C7.76997 112.03 7.73997 111.88 7.67997 111.73C7.61997 111.58 7.52997 111.45 7.41997 111.35C7.30997 111.24 7.16997 111.16 7.01997 111.1C6.86997 111.05 6.70997 111.03 6.55997 111.04C5.61997 111.15 4.80997 112.64 4.63997 113.47C4.63997 113.53 4.56997 114.19 4.54997 114.51H4.48997C4.24997 113.68 4.08997 112.84 4.00997 111.98C3.94997 111.51 3.92997 111.06 3.91997 110.62C4.20997 110.58 5.56997 110.4 6.13997 110.06C6.69997 109.72 7.26997 109.17 7.33997 108.51C7.35997 108.35 7.34997 108.19 7.30997 108.04C7.26997 107.89 7.18997 107.75 7.08997 107.63C6.98997 107.51 6.85997 107.41 6.71997 107.34C6.57997 107.27 6.41997 107.24 6.25997 107.23C5.31997 107.23 4.33997 108.63 4.09997 109.42C4.09997 109.47 3.98997 109.92 3.92997 110.26V109.66C3.92997 108.94 3.96997 108.3 4.01997 107.72C4.04997 107.39 4.07997 107.1 4.10997 106.82C4.37997 106.63 5.46997 105.86 5.80997 105.31C6.14997 104.76 6.39997 103.99 6.16997 103.38C6.11997 103.23 6.03997 103.1 5.92997 102.98C5.81997 102.87 5.68997 102.78 5.54997 102.72C5.39997 102.66 5.24997 102.63 5.08997 102.63C4.92997 102.63 4.77997 102.67 4.63997 102.74C3.79997 103.18 3.57997 104.87 3.71997 105.71C3.71997 105.78 4.04997 106.88 4.04997 106.88C4.00997 107.15 3.96997 107.43 3.93997 107.75C3.87997 108.33 3.81997 108.98 3.79997 109.7C3.76997 110.47 3.79997 111.24 3.85997 112.01C3.91997 112.87 4.06997 113.72 4.28997 114.55V114.58C4.13997 114.35 3.69997 113.7 3.65997 113.66C3.10997 113.02 1.67997 112.11 0.799969 112.48C0.659969 112.54 0.529969 112.64 0.429969 112.76C0.329969 112.88 0.249969 113.02 0.199969 113.16C0.149969 113.31 0.139969 113.47 0.149969 113.63C0.169969 113.79 0.219969 113.94 0.299969 114.07C0.649969 114.65 1.42997 114.93 2.04997 115.03L2.01997 115.1Z" fill="#808080"/>
<path opacity="0.3" d="M1.43999 110.29C2.11999 110.58 3.76999 110.55 3.77999 110.55C3.78999 110.55 3.41999 109.47 3.38999 109.4C3.02999 108.64 1.86999 107.38 0.939993 107.51C0.789993 107.54 0.639993 107.59 0.509993 107.68C0.379993 107.76 0.259993 107.88 0.179993 108.01C0.0899926 108.14 0.0399926 108.29 0.00999262 108.44C-0.0100074 108.6 -0.0100074 108.75 0.0399926 108.91C0.199993 109.56 0.869993 110.04 1.43999 110.29Z" fill="#808080"/>
<path opacity="0.3" d="M18.2 110.65C18.2 110.65 18.5 109.55 18.51 109.48C18.63 108.64 18.36 106.95 17.52 106.55C17.38 106.48 17.22 106.45 17.06 106.45C16.9 106.45 16.75 106.48 16.6 106.55C16.46 106.61 16.33 106.71 16.22 106.82C16.12 106.94 16.04 107.07 15.99 107.22C15.76 107.85 16.05 108.62 16.39 109.14C16.79 109.76 18.19 110.65 18.19 110.65H18.2Z" fill="#808080"/>
<path opacity="0.3" d="M2.01997 115.1C2.73997 115.2 4.20997 114.77 4.32997 114.74C4.56997 115.59 4.86997 116.42 5.22997 117.22C5.42997 117.7 5.64997 118.17 5.88997 118.63L5.60997 118.24C5.05997 117.6 3.62997 116.69 2.74997 117.06C2.60997 117.13 2.47997 117.22 2.37997 117.34C2.27997 117.46 2.19997 117.6 2.14997 117.74C2.09997 117.89 2.08997 118.05 2.10997 118.2C2.12997 118.36 2.17997 118.51 2.25997 118.64C2.58997 119.22 3.33997 119.51 3.96997 119.6C4.59997 119.69 5.86997 119.35 6.20997 119.27C6.29997 119.44 6.37997 119.63 6.46997 119.8C6.89997 120.66 7.32997 121.5 7.71997 122.35C7.85997 122.65 7.98997 122.95 8.11997 123.24C7.99997 123.07 7.89997 122.91 7.87997 122.91C7.32997 122.27 5.89997 121.36 5.01997 121.74C4.87997 121.8 4.74997 121.9 4.63997 122.02C4.53997 122.14 4.45997 122.28 4.40997 122.43C4.35997 122.58 4.34997 122.74 4.36997 122.89C4.38997 123.04 4.43997 123.2 4.51997 123.33C4.84997 123.91 5.59997 124.2 6.22997 124.3C6.85997 124.39 8.00997 124.09 8.38997 123.97C8.50997 124.28 8.62997 124.59 8.74997 124.9C8.81997 125.11 8.89997 125.31 8.94997 125.52C8.99997 125.73 9.06997 125.94 9.12997 126.15C9.22997 126.56 9.32997 126.97 9.40997 127.37C9.46997 127.64 9.51997 127.9 9.57997 128.17C9.43997 127.88 9.16997 127.29 9.13997 127.25C8.68997 126.53 7.39997 125.42 6.49997 125.65C6.34997 125.69 6.20997 125.77 6.08997 125.87C5.96997 125.97 5.86997 126.09 5.80997 126.24C5.73997 126.38 5.69997 126.53 5.69997 126.69C5.69997 126.85 5.71997 127 5.77997 127.15C6.00997 127.78 6.72997 128.18 7.32997 128.37C7.98997 128.57 9.45997 128.37 9.63997 128.37C9.72997 128.81 9.80997 129.23 9.87997 129.64C10.03 130.49 10.14 131.25 10.24 131.9H10.86C10.75 131.22 10.62 130.42 10.44 129.54C10.35 129.09 10.25 128.61 10.14 128.13C10.58 127.95 11.01 127.75 11.43 127.52C11.92 128.05 13.15 128.66 13.31 128.73C13.14 129.15 12.98 129.55 12.81 129.92C12.48 130.66 12.18 131.32 11.91 131.9H12.57C12.8 131.38 13.06 130.79 13.32 130.15C13.49 129.73 13.68 129.28 13.85 128.81C14.03 128.85 15.48 129.14 16.16 128.99C16.77 128.85 17.52 128.5 17.79 127.91C17.86 127.77 17.9 127.61 17.91 127.46C17.91 127.3 17.89 127.15 17.83 127C17.77 126.85 17.69 126.72 17.58 126.61C17.47 126.5 17.33 126.41 17.18 126.36C16.29 126.06 14.92 127.08 14.42 127.76C14.39 127.8 14.12 128.27 13.95 128.57C14.02 128.38 14.09 128.21 14.16 127.99C14.31 127.6 14.43 127.21 14.58 126.78C14.64 126.58 14.7 126.37 14.77 126.15C14.84 125.94 14.88 125.72 14.94 125.49C15.06 124.98 15.16 124.45 15.25 123.92C15.58 124.04 16.81 124.47 17.44 124.42C18.07 124.38 18.86 124.14 19.22 123.58C19.31 123.45 19.38 123.31 19.4 123.15C19.43 123 19.43 122.84 19.4 122.69C19.37 122.54 19.3 122.39 19.21 122.27C19.12 122.15 19 122.04 18.86 121.96C18.02 121.53 16.52 122.32 15.92 122.92C15.88 122.96 15.5 123.43 15.3 123.7C15.35 123.37 15.41 123.06 15.44 122.74C15.56 121.8 15.64 120.85 15.74 119.9C15.77 119.61 15.8 119.32 15.83 119.03C15.96 119.08 17.39 119.61 18.09 119.56C18.72 119.52 19.51 119.29 19.87 118.73C19.96 118.6 20.02 118.46 20.05 118.3C20.08 118.15 20.08 117.99 20.05 117.84C20.02 117.69 19.95 117.54 19.85 117.42C19.76 117.3 19.65 117.19 19.52 117.11C18.68 116.68 17.18 117.47 16.58 118.07C16.54 118.12 15.99 118.79 15.86 118.98C15.93 118.35 16 117.71 16.1 117.09C16.23 116.25 16.41 115.41 16.64 114.59C16.69 114.61 18.2 115.18 18.92 115.13C19.55 115.09 20.33 114.86 20.7 114.29C20.79 114.16 20.85 114.02 20.88 113.87C20.91 113.72 20.91 113.56 20.88 113.41C20.85 113.26 20.78 113.11 20.69 112.99C20.6 112.86 20.48 112.76 20.34 112.68C19.5 112.25 18 113.04 17.4 113.64C17.36 113.68 16.95 114.2 16.74 114.45L16.69 114.43C16.95 113.61 17.28 112.82 17.68 112.06C17.89 111.64 18.12 111.25 18.34 110.88C18.61 111.01 19.84 111.6 20.5 111.64C21.16 111.68 21.94 111.52 22.36 111.01C22.46 110.89 22.54 110.75 22.59 110.6C22.64 110.45 22.65 110.29 22.63 110.14C22.61 109.98 22.56 109.83 22.48 109.7C22.39 109.57 22.28 109.45 22.15 109.37C21.36 108.84 19.78 109.47 19.12 110C19.09 110.03 18.76 110.36 18.51 110.6L18.84 110.1C19.24 109.51 19.63 108.98 19.99 108.52C20.19 108.27 20.39 108.03 20.56 107.82C20.89 107.82 22.23 107.77 22.81 107.49C23.39 107.21 24.03 106.72 24.17 106.07C24.2 105.92 24.2 105.76 24.17 105.6C24.14 105.45 24.08 105.3 24 105.17C23.91 105.04 23.8 104.93 23.66 104.85C23.53 104.77 23.38 104.71 23.22 104.69C22.28 104.59 21.17 105.87 20.82 106.65C20.79 106.72 20.46 107.81 20.46 107.81C20.29 108.01 20.1 108.23 19.9 108.47C19.54 108.92 19.12 109.43 18.71 110.02C18.26 110.66 17.85 111.32 17.48 112C17.06 112.76 16.71 113.55 16.43 114.37V113.29C16.32 112.46 15.62 110.9 14.69 110.73C14.54 110.7 14.38 110.71 14.23 110.75C14.08 110.79 13.94 110.87 13.81 110.96C13.69 111.06 13.59 111.18 13.52 111.32C13.45 111.46 13.41 111.61 13.4 111.77C13.35 112.43 13.83 113.09 14.3 113.52C14.83 114 16.3 114.45 16.42 114.49C16.16 115.33 15.95 116.19 15.8 117.06C15.71 117.56 15.63 118.08 15.57 118.59V118.06C15.46 117.22 14.76 115.67 13.83 115.5C13.68 115.48 13.52 115.49 13.37 115.53C13.22 115.57 13.08 115.64 12.96 115.74C12.84 115.84 12.74 115.96 12.67 116.1C12.6 116.24 12.56 116.39 12.55 116.55C12.5 117.21 12.98 117.87 13.45 118.3C13.92 118.73 15.17 119.14 15.5 119.24C15.48 119.44 15.45 119.64 15.43 119.83C15.31 120.78 15.21 121.73 15.07 122.65C15.02 122.98 14.96 123.31 14.9 123.62V123.2C14.79 122.36 14.09 120.81 13.16 120.64C13 120.6 12.84 120.6 12.68 120.64C12.52 120.67 12.37 120.74 12.24 120.83C12.11 120.93 12 121.05 11.92 121.19C11.84 121.33 11.8 121.49 11.79 121.66C11.73 122.32 12.22 122.98 12.69 123.41C13.16 123.84 14.29 124.21 14.67 124.34C14.6 124.67 14.53 125 14.45 125.3C14.39 125.51 14.35 125.72 14.27 125.93C14.2 126.14 14.13 126.35 14.07 126.55C13.93 126.94 13.78 127.34 13.63 127.72C13.53 127.98 13.43 128.23 13.33 128.48C13.38 128.15 13.47 127.52 13.47 127.47C13.47 126.73 13.26 126 12.89 125.36C12.89 125.28 12.89 125.2 12.89 125.12C12.87 124.96 12.81 124.81 12.73 124.68C12.65 124.55 12.54 124.43 12.4 124.34C12.27 124.25 12.12 124.19 11.97 124.16C11.81 124.13 11.65 124.14 11.5 124.18C10.59 124.42 10.01 126.02 9.95997 126.87C9.95997 126.92 9.98997 127.46 10.02 127.8C9.96997 127.6 9.92997 127.41 9.87997 127.21C9.78997 126.8 9.67997 126.4 9.54997 125.97C9.48997 125.76 9.42997 125.55 9.36997 125.35C9.30997 125.14 9.21997 124.93 9.14997 124.71C8.96997 124.22 8.75997 123.72 8.53997 123.23C8.89997 123.14 10.14 122.83 10.65 122.44C11.15 122.05 11.68 121.43 11.68 120.76C11.68 120.6 11.66 120.45 11.6 120.3C11.54 120.16 11.45 120.03 11.34 119.92C11.22 119.81 11.09 119.73 10.94 119.68C10.79 119.63 10.63 119.61 10.48 119.62C9.53997 119.72 8.71997 121.22 8.54997 122.04C8.54997 122.09 8.48997 122.7 8.45997 123.03C8.32997 122.73 8.18997 122.44 8.04997 122.15C7.62997 121.3 7.17997 120.46 6.72997 119.62L6.32997 118.83C6.45997 118.8 7.94997 118.47 8.51997 118.02C9.01997 117.64 9.54997 117.01 9.54997 116.34C9.54997 116.18 9.51997 116.03 9.45997 115.88C9.39997 115.73 9.30997 115.6 9.19997 115.5C9.08997 115.39 8.94997 115.31 8.79997 115.25C8.64997 115.2 8.48997 115.18 8.33997 115.19C7.39997 115.29 6.58997 116.79 6.41997 117.61C6.41997 117.67 6.32997 118.54 6.31997 118.77C6.01997 118.2 5.72997 117.63 5.46997 117.06C5.10997 116.29 4.80997 115.49 4.54997 114.68C4.60997 114.68 6.16997 114.32 6.74997 113.87C7.24997 113.49 7.77997 112.86 7.76997 112.19C7.76997 112.03 7.73997 111.88 7.67997 111.73C7.61997 111.58 7.52997 111.45 7.41997 111.35C7.30997 111.24 7.16997 111.16 7.01997 111.1C6.86997 111.05 6.70997 111.03 6.55997 111.04C5.61997 111.15 4.80997 112.64 4.63997 113.47C4.63997 113.53 4.56997 114.19 4.54997 114.51H4.48997C4.24997 113.68 4.08997 112.84 4.00997 111.98C3.94997 111.51 3.92997 111.06 3.91997 110.62C4.20997 110.58 5.56997 110.4 6.13997 110.06C6.69997 109.72 7.26997 109.17 7.33997 108.51C7.35997 108.35 7.34997 108.19 7.30997 108.04C7.26997 107.89 7.18997 107.75 7.08997 107.63C6.98997 107.51 6.85997 107.41 6.71997 107.34C6.57997 107.27 6.41997 107.24 6.25997 107.23C5.31997 107.23 4.33997 108.63 4.09997 109.42C4.09997 109.47 3.98997 109.92 3.92997 110.26V109.66C3.92997 108.94 3.96997 108.3 4.01997 107.72C4.04997 107.39 4.07997 107.1 4.10997 106.82C4.37997 106.63 5.46997 105.86 5.80997 105.31C6.14997 104.76 6.39997 103.99 6.16997 103.38C6.11997 103.23 6.03997 103.1 5.92997 102.98C5.81997 102.87 5.68997 102.78 5.54997 102.72C5.39997 102.66 5.24997 102.63 5.08997 102.63C4.92997 102.63 4.77997 102.67 4.63997 102.74C3.79997 103.18 3.57997 104.87 3.71997 105.71C3.71997 105.78 4.04997 106.88 4.04997 106.88C4.00997 107.15 3.96997 107.43 3.93997 107.75C3.87997 108.33 3.81997 108.98 3.79997 109.7C3.76997 110.47 3.79997 111.24 3.85997 112.01C3.91997 112.87 4.06997 113.72 4.28997 114.55V114.58C4.13997 114.35 3.69997 113.7 3.65997 113.66C3.10997 113.02 1.67997 112.11 0.799969 112.48C0.659969 112.54 0.529969 112.64 0.429969 112.76C0.329969 112.88 0.249969 113.02 0.199969 113.16C0.149969 113.31 0.139969 113.47 0.149969 113.63C0.169969 113.79 0.219969 113.94 0.299969 114.07C0.649969 114.65 1.42997 114.93 2.04997 115.03L2.01997 115.1Z" fill="#808080"/>
<path d="M31.65 106.23C34.48 106.02 38.51 103.07 40.14 101.33C41.77 99.59 46.94 92.65 46.94 92.65C46.77 94.91 46.96 97.19 47.48 99.4C48.35 102.89 48.56 110.72 48.89 113.45C49.15 115.6 46.79 127.46 46.05 131.61" stroke="#263238" stroke-width="0.5" stroke-miterlimit="10"/>
<path d="M66.11 63.04C66.11 63.04 63.28 63.37 61.21 63.04C59.14 62.71 53.77 61.32 50.18 63.7" stroke="#263238" stroke-width="0.5" stroke-miterlimit="10"/>
<path d="M93.69 104.44C93.69 101.93 97.89 73.37 98.11 71.43C98.33 69.48 94 65.2 91.61 64.11" stroke="#263238" stroke-width="0.5" stroke-miterlimit="10"/>
<path d="M79.39 122.54C80.22 123.08 81.11 123.53 82.03 123.89" stroke="#263238" stroke-width="0.5" stroke-miterlimit="10"/>
<path d="M59.27 105.76C59.27 105.76 71.66 117.53 78.86 122.21" stroke="#263238" stroke-width="0.5" stroke-miterlimit="10"/>
<path d="M65.05 116.8C68.41 119.42 76.08 125.14 80.85 126.53" stroke="#263238" stroke-width="0.5" stroke-miterlimit="10"/>
<path d="M63.39 115.49C63.39 115.49 63.7 115.74 64.24 116.15" stroke="#263238" stroke-width="0.5" stroke-miterlimit="10"/>
<path d="M61.9 64.92C61.9 64.92 60.91 71.52 64.54 75.79" stroke="#263238" stroke-width="0.5" stroke-miterlimit="10"/>
<path d="M79.39 75.6C78.87 76.23 78.32 76.84 77.74 77.42" stroke="#263238" stroke-width="0.5" stroke-miterlimit="10"/>
<path d="M85.15 65.88C83.87 68.87 82.26 71.72 80.34 74.35" stroke="#263238" stroke-width="0.5" stroke-miterlimit="10"/>
<path d="M49.6 79.8499C47.62 84.4099 46.96 92.6399 46.96 92.6399C46.96 92.6399 46.91 84.1199 48.47 77.5699" stroke="#263238" stroke-width="0.5" stroke-miterlimit="10"/>
<path d="M66.12 63.04C66.12 63.04 65.53 63.11 64.69 63.15C63.72 65.1 62.34 68.98 64.92 71.42C68.5 74.8 78.19 71.75 80.8 68.05C81.79 66.63 82.71 65.16 83.53 63.65" stroke="#263238" stroke-width="0.5" stroke-miterlimit="10"/>
<path d="M65.18 63.0399C65.18 63.0399 64.49 60.6999 63.9 58.3699C63.31 56.0499 62.87 56.0599 62.87 56.0599C62.87 56.0599 60 56.7199 58.76 56.8699C57.52 57.0199 56.54 55.5699 54.92 52.0099C53.3 48.4499 53.08 46.3999 52.61 46.0699C52.13 45.7399 49.88 45.0999 49.61 44.4599C49.34 43.8099 51.9 41.2099 52.5 39.4899C53.09 37.7599 53.2 37.1799 52.61 35.2799C52.02 33.3799 54.77 27.1699 54.77 27.1699C54.77 27.1699 54.39 26.1499 56.75 25.3899C59.11 24.6299 62.53 24.0899 64.05 25.7199C65.56 27.3499 77.07 40.7999 77.07 44.7399C77.07 48.6799 76.8 55.3299 78.21 59.0599C79.62 62.7899 82.3 63.6199 82.3 63.6199" stroke="#263238" stroke-width="0.5" stroke-miterlimit="10"/>
<path d="M62.87 56.0501C62.87 56.0501 65.45 54.9401 66.76 53.5601C66.76 53.5601 65.02 57.5201 63.9 58.3701L62.87 56.0501Z" fill="#263238" stroke="#263238" stroke-width="0.5" stroke-miterlimit="10"/>
<path d="M57.15 39.28C57.15 40.07 56.82 40.72 56.4 40.72C55.98 40.72 55.64 40.08 55.64 39.28C55.64 38.48 55.97 37.84 56.4 37.84C56.83 37.84 57.15 38.48 57.15 39.28Z" fill="#263238"/>
<path d="M54.98 36.44C54.98 36.44 56.38 34.42 58.28 36.77" stroke="#263238" stroke-width="0.5" stroke-miterlimit="10"/>
<path d="M71.73 46.59C71.73 46.59 70.38 49.4 68.38 51.07" stroke="#263238" stroke-width="0.5" stroke-miterlimit="10"/>
<path d="M54.87 17.23C54.87 17.23 44.07 18.34 46.42 19.36C48.77 20.38 49.83 20.11 49.83 20.11C49.83 20.11 43.99 24.98 44.08 27.5C44.17 30.03 47.75 29.4 47.75 29.4L50.39 27.23C50.39 27.23 50.96 29.09 51.54 28.43C51.87 28.05 52.24 27.71 52.65 27.42C52.65 27.42 51.68 28.66 53.14 28.3C54.6 27.95 61.68 25.86 61.68 25.86C61.68 25.86 58.63 31.17 59.04 31.84C59.45 32.5 63.55 29.53 63.55 29.53C63.55 29.53 62.33 32.87 62.98 32.93C63.63 32.99 64.66 33.95 64.66 33.95C64.66 33.95 62.02 36.49 63.67 36.59C65.32 36.69 67.3 35.25 67.3 35.25C67.3 35.25 66.16 40.76 67.68 41.4C69.19 42.04 71.04 39.84 71.04 39.84C71.04 39.84 73.53 41.95 74.44 42.27L75.36 42.6C75.36 42.6 75.8 44.76 74.39 45.73C73.63 46.3 72.7 46.6 71.75 46.6C71.75 46.6 71.09 51.24 72.56 51.88C74.03 52.52 74.67 50.58 74.67 50.58C74.67 50.58 77.21 55.77 79.04 55.55C80.87 55.33 84.17 49.77 84.17 49.77C84.17 49.77 83.95 51.5 85.31 50.9C86.66 50.3 91.02 45.95 91.41 43.01C91.64 41.18 91.77 39.34 91.79 37.5C91.79 37.5 92.39 40.53 92.71 38.2C93.03 35.88 92.38 27.02 90.02 23.41C87.66 19.8 84.34 18.93 84.34 18.93C84.34 18.93 82.56 14.23 82.18 14.77C81.94 15.18 81.8 15.64 81.8 16.11C81.8 16.11 79.91 11.3 73.43 11.19C66.95 11.08 69.59 14 69.59 14C69.59 14 61.01 11.74 57.82 13.47C54.63 15.2 57.82 17.03 57.82 17.03L54.87 17.22V17.23Z" fill="#263238" stroke="#263238" stroke-width="0.5" stroke-miterlimit="10"/>
<path d="M74.43 91.73C74.43 91.73 73.55 88.03 73.22 86.62C72.88 85.21 71.81 83.65 71.14 81.98C70.47 80.31 70.54 77.95 69.6 78.62C68.66 79.29 68.32 80.78 68.73 81.92C69.13 83.07 70.48 86.16 70.48 86.16L64.23 82.53C64.23 82.53 60.2 77.89 59.65 77.62C59.1 77.35 57.9 77.35 58.11 78.28C58.31 79.21 60.8 81.85 61.13 82.31C61.47 82.78 63.01 84.73 63.01 84.73L62.54 85.2C62.54 85.2 58.25 80.22 57.29 79.21C56.33 78.2 55.01 78.27 55.07 79.41C55.14 80.55 57.42 82.84 58.16 83.85C58.9 84.86 61.52 87.62 61.52 87.62C61.52 87.62 58.88 86.28 58.35 85.8C57.83 85.33 55.26 81.43 54.59 81.91C53.92 82.39 55.6 85.14 56.14 86.15C56.68 87.16 59.9 89.78 59.9 89.78C59.9 89.78 57.01 88.23 56.34 87.7C55.67 87.17 55.13 87.09 55.33 88.1C55.53 89.11 59.57 92.27 60.24 92.61C60.91 92.94 68.25 97.25 68.52 97.45C68.79 97.65 70.7 99.36 70.7 99.36L75.1 92.32L74.45 91.73H74.43Z" stroke="#263238" stroke-width="0.5" stroke-miterlimit="10"/>
<path d="M90.17 84.48L92.52 103.81L75.57 91.56L69.58 101.13C69.58 101.13 84.37 115.17 91.04 118.33C97.71 121.49 101.53 125.12 102.29 123.6C103.05 122.08 103.71 122.51 104.79 118.27C105.88 114.03 105.55 107.49 105.55 105.64C105.55 103.79 104.86 83.28 103.99 75.88C103.12 68.48 99.96 64.89 95.39 64.45C90.82 64.01 82.88 63.26 82.12 63.59" stroke="#263238" stroke-width="0.5" stroke-miterlimit="10"/>
<path d="M92.53 103.81C92.53 103.81 98.58 107.06 100 108.36C100.79 109.07 101.48 109.87 102.07 110.76" stroke="#263238" stroke-width="0.5" stroke-miterlimit="10"/>
<path d="M97.41 106.35C97.41 106.35 101.04 106.92 103.13 108.83" stroke="#263238" stroke-width="0.5" stroke-miterlimit="10"/>
<path d="M101.13 103.96C101.62 104.01 102.11 104.14 102.56 104.34" stroke="#263238" stroke-width="0.5" stroke-miterlimit="10"/>
<path d="M95.5 104.44C96.74 104.17 97.99 104 99.25 103.92" stroke="#263238" stroke-width="0.5" stroke-miterlimit="10"/>
<path d="M54.91 52.3L51.91 53.09L51.28 50.59L54.1 49.89L54.91 52.3Z" stroke="#263238" stroke-width="0.5" stroke-miterlimit="10"/>
<path d="M51.96 53.36L51.39 53.51L46.44 54.84L46.29 54.36C46.29 54.36 46.34 54.27 46.37 54.23C46.43 54.12 46.49 53.24 46.52 52.46C46.97 52.84 47.32 53.1 47.42 53.11C47.72 53.11 49.1 52.34 49.07 51.92C49.07 51.83 48.85 51.52 48.5 51.07L50.31 50.56L50.48 50.51L51.21 50.39L51.96 53.36Z" stroke="#263238" stroke-width="0.5" stroke-miterlimit="10"/>
<path d="M50.48 50.51L48.5 51.07C47.5 49.75 45.36 47.26 44.04 45.98L43.7 44.99L44.46 44.7H44.47C44.96 44.7 45.42 44.67 45.73 44.61C46.51 44.46 46.99 44.18 47.07 43.75L48 43.4L50.48 50.51Z" stroke="#263238" stroke-width="0.5" stroke-miterlimit="10"/>
<path d="M47.54 43.52L47.07 43.7C47.09 43.61 47.08 43.5 47.05 43.38C46.96 43.01 45.68 42.58 44.45 42.27L46.76 41.41L47.54 43.52Z" stroke="#263238" stroke-width="0.5" stroke-miterlimit="10"/>
<path d="M46.37 40.37L46 40.5L46.37 40.36V40.37Z" fill="#D0D0D0" stroke="#263238" stroke-width="0.5" stroke-miterlimit="10"/>
<path d="M46.76 41.41L44.45 42.27C44.09 42.18 43.73 42.1 43.41 42.04V41.5C43.41 41.5 45.29 41.05 45.84 40.64C45.89 40.6 45.93 40.56 45.98 40.51C45.98 40.51 45.9866 40.5067 46 40.5L46.37 40.37L46.76 41.41Z" stroke="#263238" stroke-width="0.5" stroke-miterlimit="10"/>
<path d="M46.59 39C46.6 39.31 46.54 39.62 46.41 39.91C46.31 40.13 46.17 40.33 46 40.5C46 40.5 45.9934 40.5033 45.98 40.51C45.98 40.51 45.89 40.6 45.84 40.64C45.29 41.05 43.41 41.5 43.41 41.5V42.04C43.29 42.01 43.17 41.99 43.06 41.97C42.67 41.9 42.36 41.86 42.23 41.87C42.03 41.88 41.59 41.97 41.09 42.1C41.18 41.32 41.36 39.95 41.54 39.75C41.81 39.46 44.43 38.75 45.24 38.48C46.05 38.21 46.61 38.4 46.59 39Z" stroke="#263238" stroke-width="0.5" stroke-miterlimit="10"/>
<path d="M47.07 43.7001V43.7501C46.99 44.1801 46.51 44.4601 45.73 44.6101C45.42 44.6701 44.96 44.7001 44.47 44.7001H44.46C44.46 44.7001 44.4 44.7101 44.37 44.7101H44.09C43.14 44.7101 42.22 44.6601 42.22 44.6601L42.29 45.6701C41.55 46.4401 40.53 47.9801 39.89 49.0901C39.46 47.0701 38.71 43.4501 38.82 43.1001C38.92 42.7801 40.11 42.3601 41.09 42.1001C41.59 41.9701 42.03 41.8801 42.23 41.8701C42.36 41.8601 42.67 41.9001 43.06 41.9701C43.17 41.9901 43.29 42.0101 43.41 42.0401C43.73 42.1001 44.09 42.1801 44.45 42.2701C45.68 42.5801 46.96 43.0101 47.05 43.3801C47.08 43.5001 47.09 43.6101 47.07 43.7001Z" stroke="#263238" stroke-width="0.5" stroke-miterlimit="10"/>
<path d="M49.07 51.92C49.1 52.34 47.72 53.11 47.42 53.11C47.32 53.1 46.97 52.84 46.52 52.46C46.53 52.15 46.54 51.85 46.54 51.63C46.54 51.47 46.54 51.35 46.53 51.29C46.5 51.12 46 50.51 45.37 49.9C44.88 49.4 44.32 48.9 43.87 48.6C43.63 48.45 43.43 48.35 43.29 48.34C43.02 48.33 42.45 48.82 41.83 49.44C41.15 50.12 40.43 50.96 40.01 51.46C39.99 51.48 39.98 51.49 39.97 51.51C39.92 51.57 39.88 51.62 39.84 51.66C39.65 51.23 39.49 50.78 39.35 50.33C39.32 50.2 39.55 49.71 39.89 49.1C40.53 47.98 41.55 46.44 42.29 45.67C42.6 45.35 42.86 45.17 43.02 45.19C43.19 45.22 43.56 45.52 44.04 45.98C45.36 47.26 47.5 49.75 48.5 51.07C48.85 51.52 49.06 51.83 49.07 51.92Z" stroke="#263238" stroke-width="0.5" stroke-miterlimit="10"/>
<path d="M51.39 53.51L46.44 54.84L46.29 54.36C46.29 54.36 46.34 54.27 46.37 54.23C46.43 54.12 46.49 53.24 46.52 52.46C46.53 52.15 46.54 51.85 46.54 51.63C46.54 51.47 46.54 51.35 46.53 51.29C46.5 51.12 46 50.51 45.37 49.9C44.88 49.4 44.32 48.9 43.87 48.6C43.63 48.45 43.43 48.35 43.29 48.34C43.02 48.33 42.45 48.82 41.83 49.44C41.15 50.12 40.43 50.96 40.01 51.46C39.99 51.48 39.98 51.49 39.97 51.51C39.92 51.57 39.88 51.62 39.84 51.66C39.73 51.8 39.66 51.88 39.66 51.88L39.74 51.91C39.53 52.31 39.44 52.68 39.55 52.96C40.05 54.22 42.75 60.43 42.75 60.43L42.66 61.42L49.41 63.34L50.57 58.03C50.57 58.03 51.74 56.73 51.63 55.46C51.57 54.72 51.47 54.01 51.39 53.51Z" stroke="#263238" stroke-width="0.5" stroke-miterlimit="10"/>
<path d="M47.3 57.3C47.3 57.3 48.36 59.23 48.12 60.42C48.07 60.75 47.94 61.07 47.74 61.34C47.54 61.61 47.28 61.83 46.98 61.98" stroke="#263238" stroke-width="0.5" stroke-miterlimit="10"/>
<path d="M41.83 61.1901L50.55 63.8001C50.55 63.8001 47.07 74.7901 46.85 76.5301C46.64 78.2701 43.15 91.39 41.68 95.7701C38.63 104.8 33.52 105.79 31.67 106.22C29.82 106.65 26.66 104.48 26.12 100.99C25.58 97.5101 25.46 93.6001 28.19 88.5801C30.92 83.5701 40.54 65.53 40.66 64.34C40.77 63.14 41.84 61.1801 41.84 61.1801L41.83 61.1901Z" stroke="#263238" stroke-width="0.5" stroke-miterlimit="10"/>
<path d="M92.23 118.93C92.23 118.93 92.85 130.43 94.54 132.11" stroke="#263238" stroke-width="0.5" stroke-miterlimit="10"/>
<path d="M42.94 51.89C42.94 51.89 43.64 51.89 44.45 52.62C45.26 53.35 44.88 54.22 46.29 54.36" stroke="#263238" stroke-width="0.5" stroke-miterlimit="10"/>
</g>
<defs>
<clipPath id="clip0_11786_14264">
<rect width="140.69" height="132.48" fill="white"/>
</clipPath>
</defs>
</svg>
