<svg width="179" height="137" viewBox="0 0 179 137" fill="none" xmlns="http://www.w3.org/2000/svg">
<mask id="mask0_5228_7674" style="mask-type:alpha" maskUnits="userSpaceOnUse" x="0" y="0" width="179" height="137">
<rect width="179" height="137" fill="#D9D9D9"/>
</mask>
<g mask="url(#mask0_5228_7674)">
<path d="M74.6744 112.986C74.4879 114.063 73.5131 118.658 72.4149 123.746C69.6829 121.748 59.417 114.253 59.0018 114.124C58.5234 113.973 55.3883 113.212 54.5218 112.8C53.6553 112.384 51.3927 108.964 51.3927 108.964L48.0831 108.413C48.0831 108.413 45.8145 109.481 44.9389 108.976C44.0634 108.467 46.5065 107.107 47.2316 106.686C47.9567 106.268 50.6526 106.015 50.6526 106.015L49.9455 105.118C49.9455 105.118 47.3279 103.59 46.9548 103.614C46.5817 103.638 45.1164 104.198 44.1867 104.249C43.254 104.297 43.1698 102.898 44.2319 101.899C45.297 100.9 47.3519 100.87 47.3519 100.87L46.3982 100.554C45.9228 100.395 44.6862 100.097 45.3752 99.1159C46.0642 98.138 50.9624 98.5954 52.3976 99.164C53.8358 99.7327 57.9127 101.827 58.5024 102.636C59.0891 103.442 63.2171 109.746 63.2171 109.746L70.2395 111.515L74.6744 112.986Z" stroke="#263238" stroke-width="0.300875" stroke-linecap="round" stroke-linejoin="round"/>
<path d="M59.5284 104.351L56.7183 102.739C56.7183 102.739 54.8167 102.197 54.1458 101.956C53.4748 101.716 53.2642 102.663 53.5831 103.488C53.8991 104.309 54.7927 104.914 55.5659 105.335C56.1436 105.624 56.7544 105.838 57.3832 105.976C57.3832 105.976 57.3351 109.908 57.8465 110.624C58.358 111.341 59.8744 111.72 59.8744 111.72" stroke="#263238" stroke-width="0.300875" stroke-linecap="round" stroke-linejoin="round"/>
<path d="M50.1171 98.8301C50.1171 98.8301 48.9437 99.2754 49.2626 100.193C49.5815 101.111 50.8271 101.315 51.3898 101.279C51.9524 101.243 53.4147 102.284 53.4147 102.284" stroke="#263238" stroke-width="0.300875" stroke-linecap="round" stroke-linejoin="round"/>
<path d="M47.34 100.87L50.2103 101.917L52.5993 104.3" stroke="#263238" stroke-width="0.300875" stroke-linecap="round" stroke-linejoin="round"/>
<path d="M51.429 105.022L53.5802 103.491" stroke="#263238" stroke-width="0.300875" stroke-linecap="round" stroke-linejoin="round"/>
<path d="M74.7046 112.755C74.7046 112.773 74.7016 112.815 74.6925 112.887L70.724 111.635L70.2396 111.515L69.674 111.325L71.7861 105.389C73.3657 108.924 74.6775 112.303 74.7046 112.755Z" stroke="#263238" stroke-width="0.300875" stroke-linecap="round" stroke-linejoin="round"/>
<path d="M74.6926 112.887C74.6866 112.914 74.6805 112.947 74.6745 112.986L70.2396 111.515L70.724 111.635L74.6926 112.887Z" stroke="#263238" stroke-width="0.300875" stroke-linecap="round" stroke-linejoin="round"/>
<path d="M74.6926 112.887C74.7016 112.815 74.7046 112.773 74.7046 112.755C74.6776 112.303 73.3657 108.925 71.7861 105.389C71.5424 104.848 71.2927 104.3 71.04 103.762C69.689 100.87 72.3638 92.9751 74.0126 88.6726C75.532 91.0555 77.256 92.4305 78.2971 92.9089C79.636 93.5257 83.5143 95.8094 83.5143 95.8094C83.5143 95.8094 88.4606 110.107 91.6018 116.263C94.7459 122.422 96.843 125.422 97.9864 125.617C99.1267 125.81 99.8247 125.855 100.312 125.301C100.8 124.751 103.986 121.345 106.429 118.592L106.444 118.577L110.304 136.391H69.677C70.369 133.214 71.4401 128.283 72.415 123.746C73.5132 118.658 74.488 114.063 74.6745 112.986C74.6806 112.947 74.6866 112.914 74.6926 112.887Z" stroke="#263238" stroke-width="0.300875" stroke-linecap="round" stroke-linejoin="round"/>
<path d="M85.6173 73.6649C85.6083 74.3118 85.6022 75.0219 85.6022 75.744C83.1441 76.8422 80.8785 78.9363 79.672 77.3416C78.3511 75.5966 76.4737 70.5027 79.335 65.1171C80.4272 66.5974 83.8662 72.2087 85.6173 73.6649Z" fill="#263238"/>
<path d="M114.432 76.484C112.904 77.0948 108.418 77.6273 108.171 77.8139C107.924 78.0034 104.01 75.109 98.1548 74.5825C96.87 74.4682 95.7086 74.399 94.6496 74.3749L99.1326 70.8486C98.9882 69.7143 98.7956 68.0866 98.7204 66.9102C98.6994 66.6003 98.6813 66.2904 98.6632 65.9865C99.1838 64.5393 99.5418 63.0349 99.5418 63.0349C99.5418 63.0349 100.101 63.6998 101.371 63.1011C101.741 62.9296 102.066 62.6768 102.322 62.3609C102.578 62.045 102.755 61.6719 102.839 61.2748C102.839 61.2748 97.7576 54.7999 95.6605 50.2326C93.5634 45.6654 93.1542 43.1831 93.1542 43.1831C93.1542 43.1831 90.9939 44.8741 88.4846 45.0245C85.9723 45.1749 84.6816 43.9504 82.1843 45.7496C79.684 47.5518 79.1455 48.9599 79.1455 48.9599C79.1455 48.9599 79.1605 50.3259 79.1304 52.0499C78.0112 52.0198 75.7004 51.8273 74.4789 50.8043C72.8361 49.4263 73.2754 45.2231 73.7056 43.6375C74.1329 42.0518 75.0566 40.0811 77.5238 39.3229C79.9909 38.5647 83.6195 38.0893 85.4368 36.5037C87.2571 34.9181 89.5046 33.3054 93.3678 33.7688C97.2341 34.2351 107.744 38.7332 109.025 47.0855C110.31 55.4408 109.32 56.4547 110.112 57.9712C110.906 59.4876 117.784 65.6826 118.124 69.9189C118.467 74.1582 115.964 75.8732 114.432 76.484Z" fill="#263238"/>
<path d="M104.798 63.2214C104.798 63.2214 107.133 65.7488 104.702 67.7195C102.271 69.6872 100.998 70.7253 100.998 70.7253" stroke="#263238" stroke-width="0.300875" stroke-linecap="round" stroke-linejoin="round"/>
<path d="M96.5933 43.806C96.5933 43.806 99.1146 43.2915 100.86 48.1657C102.608 53.0399 108.791 57.0355 108.791 57.0355" stroke="#263238" stroke-width="0.300875" stroke-linecap="round" stroke-linejoin="round"/>
<path d="M101.091 54.2163C101.091 54.2163 111.664 62.4392 113.533 65.3758C115.401 68.3123 114.968 73.1805 110.852 75.3618" stroke="#263238" stroke-width="0.300875" stroke-linecap="round" stroke-linejoin="round"/>
<path d="M93.8102 41.9075C93.8102 41.9075 98.0074 39.004 101.386 38.4143" stroke="#263238" stroke-width="0.300875" stroke-linecap="round" stroke-linejoin="round"/>
<path d="M91.2137 41.0952L84.7509 42.2686C82.407 42.6808 80.1836 43.6015 78.2369 44.9645C77.0394 45.8159 75.9984 46.8239 75.8239 47.8348C75.3726 50.4133 77.4336 50.4103 77.4336 50.4103" stroke="#263238" stroke-width="0.300875" stroke-linecap="round" stroke-linejoin="round"/>
<path d="M79.5787 41.4262C79.5787 41.4262 79.9428 39.5908 85.3826 39.0041C88.7434 38.6852 92.1343 38.9831 95.3867 39.8857" stroke="#263238" stroke-width="0.300875" stroke-linecap="round" stroke-linejoin="round"/>
<path d="M84.8562 81.5989L83.9084 82.3572C83.1983 81.4756 82.3619 80.6091 81.5826 79.8509L81.7301 77.6575L84.8562 81.5989Z" fill="#263238"/>
<path d="M87.0224 84.3308L84.8561 81.5989L81.73 77.6574L85.3976 75.0067L85.6022 75.777C85.6053 77.9342 85.6654 80.1938 85.8821 81.1446C86.1047 82.1284 86.559 83.356 87.0224 84.3308Z" stroke="#263238" stroke-width="0.300875" stroke-linecap="round" stroke-linejoin="round"/>
<path d="M94.6496 74.375L88.6772 79.0686L90.8796 82.8476C89.4956 84.5746 88.4576 85.8413 88.3102 85.9557C88.0514 86.1512 87.5279 85.393 87.0224 84.3309C86.5591 83.3561 86.1048 82.1285 85.8821 81.1447C85.6655 80.1939 85.6053 77.9343 85.6023 75.777V75.744C85.6023 75.0219 85.6083 74.3118 85.6173 73.6649C85.7016 73.7341 85.7858 73.7943 85.861 73.8454C85.9062 73.8755 85.9513 73.8996 85.9904 73.9207C86.0175 73.9357 86.0416 73.9477 86.0656 73.9568C86.1168 73.9778 86.1619 73.9929 86.207 74.0019C87.6151 74.2667 89.5377 73.021 90.5457 72.4403C91.5536 71.8566 97.1288 69.1758 97.9893 67.5601C98.0495 67.4458 98.1097 67.3255 98.1668 67.2021C98.1969 67.1389 98.227 67.0757 98.2541 67.0095C98.3985 66.6876 98.5369 66.3386 98.6633 65.9866C98.6813 66.2905 98.6994 66.6004 98.7205 66.9103C98.7957 68.0867 98.9882 69.7144 99.1327 70.8487L94.6496 74.375Z" stroke="#263238" stroke-width="0.300875" stroke-linecap="round" stroke-linejoin="round"/>
<path d="M102.839 61.2749C102.755 61.672 102.578 62.0451 102.322 62.361C102.066 62.6769 101.741 62.9297 101.371 63.1012C100.102 63.6999 99.5419 63.035 99.5419 63.035C99.5419 63.035 99.1839 64.5394 98.6633 65.9836C98.4588 66.5492 98.2301 67.1058 97.9894 67.5601C97.1289 69.1758 91.5537 71.8566 90.5457 72.4403C89.5378 73.021 87.6152 74.2666 86.2071 74.0019C86.0446 73.9718 85.8461 73.8514 85.6174 73.6649C83.8663 72.2087 80.4273 66.5973 79.3351 65.117C79.3321 65.117 79.3321 65.114 79.3321 65.114C78.1015 63.4502 78.1015 60.4956 78.6612 58.2902C78.9771 57.0506 79.0914 54.2584 79.1305 52.05C79.1606 50.326 79.1456 48.96 79.1456 48.96C79.1456 48.96 79.6841 47.5519 82.1844 45.7497C84.6817 43.9505 85.9724 45.175 88.4847 45.0246C90.994 44.8741 93.1543 43.1832 93.1543 43.1832C93.1543 43.1832 93.5635 45.6655 95.6606 50.2327C97.7577 54.8 102.839 61.2749 102.839 61.2749Z" stroke="#263238" stroke-width="0.300875" stroke-linecap="round" stroke-linejoin="round"/>
<path d="M85.2893 51.373C85.6564 52.6698 85.9392 53.9877 86.1318 55.3205C86.3183 56.9603 84.0407 59.942 84.3687 60.4655C85.1449 61.7683 86.6222 61.8074 87.0374 61.5216" stroke="#263238" stroke-width="0.300875" stroke-linecap="round" stroke-linejoin="round"/>
<path d="M89.8567 55.0979C90.0884 54.8963 90.3622 54.7519 90.66 54.6737C90.9579 54.5955 91.2678 54.5864 91.5687 54.6496C92.2517 54.8121 92.8564 55.2062 93.2837 55.7629" stroke="#263238" stroke-width="0.300875" stroke-linecap="round" stroke-linejoin="round"/>
<path d="M84.2995 55.2573C84.2995 55.2573 82.3949 53.8944 81.1072 55.6214" stroke="#263238" stroke-width="0.300875" stroke-linecap="round" stroke-linejoin="round"/>
<path d="M85.0096 49.652C85.0096 49.652 85.4699 50.0582 84.471 50.8254C83.4721 51.5956 80.8575 51.4783 80.674 52.7059" stroke="#263238" stroke-width="0.60175" stroke-linecap="round" stroke-linejoin="round"/>
<path d="M88.3223 49.8024C88.3223 49.8024 88.563 50.9156 89.0925 51.06C89.6221 51.2044 91.7974 51.2466 92.8715 51.7881L93.9456 52.3327" stroke="#263238" stroke-width="0.60175" stroke-linecap="round" stroke-linejoin="round"/>
<path d="M87.552 70.1146C87.6693 70.0815 87.7837 70.0424 87.895 69.9912C87.7897 70.0424 87.6724 70.0845 87.552 70.1146Z" fill="#263238" stroke="#263238" stroke-width="0.300875" stroke-linecap="round" stroke-linejoin="round"/>
<path d="M88.7343 66.9073V66.9133C87.0193 67.3646 86.5018 69.0856 86.3454 70.1056C86.6583 70.1958 86.9892 70.2169 87.3112 70.1658C87.3503 70.1597 87.3924 70.1507 87.4315 70.1447C86.6372 70.3162 85.6534 70.0966 85.2171 69.1157C84.6153 67.7618 84.1129 65.1893 85.9933 64.6387C87.8708 64.0881 88.7343 66.9073 88.7343 66.9073Z" fill="#263238" stroke="#263238" stroke-width="0.300875" stroke-linecap="round" stroke-linejoin="round"/>
<path d="M88.4395 69.5459C88.3763 69.6542 88.3011 69.7445 88.2139 69.8107C88.1808 69.8347 88.1447 69.8558 88.1116 69.8769C88.1477 69.8528 88.1808 69.8287 88.2139 69.8047C88.3011 69.7385 88.3733 69.6512 88.4395 69.5459Z" fill="#F5F5F5" stroke="#263238" stroke-width="0.300875" stroke-linecap="round" stroke-linejoin="round"/>
<path d="M88.4967 69.4286C88.608 69.1909 88.6742 68.8931 88.7163 68.5862C88.6772 68.8931 88.608 69.1909 88.4967 69.4286Z" fill="#F5F5F5" stroke="#263238" stroke-width="0.300875" stroke-linecap="round" stroke-linejoin="round"/>
<path d="M88.7524 67.127C88.7434 67.0126 88.7374 66.9374 88.7344 66.9133H88.7374C88.7374 66.9133 88.7464 66.9946 88.7524 67.127Z" fill="#F5F5F5" stroke="#263238" stroke-width="0.300875" stroke-linecap="round" stroke-linejoin="round"/>
<path d="M88.7344 68.4328C88.7825 67.9273 88.7675 67.4188 88.7524 67.136C88.7705 67.4188 88.7855 67.9243 88.7344 68.4328Z" fill="#F5F5F5" stroke="#263238" stroke-width="0.300875" stroke-linecap="round" stroke-linejoin="round"/>
<path d="M88.6833 79.0687L88.3132 85.9557L91.8545 84.8064L88.6833 79.0657V79.0687Z" fill="#263238" stroke="#263238" stroke-width="0.300875" stroke-linecap="round" stroke-linejoin="round"/>
<path d="M102.373 75.5574L93.5213 87.3848L90.8796 82.8476L88.6772 79.0686L99.1327 70.8487L99.8006 70.3221L102.373 75.5574Z" stroke="#263238" stroke-width="0.300875" stroke-linecap="round" stroke-linejoin="round"/>
<path d="M104.028 78.5842C104.991 77.9012 106.038 77.3416 107.142 76.9204C109.007 76.1983 114.417 76.4841 115.386 78.163C116.355 79.8449 116.872 87.0268 117.02 95.361C117.17 103.695 114.306 116.816 114.306 116.816L109.582 114.578H109.579" stroke="#263238" stroke-width="0.300875" stroke-linecap="round" stroke-linejoin="round"/>
<path d="M97.8088 105.248C98.4527 104.48 99.5208 103.367 99.5208 103.367L103.805 86.3317" stroke="#263238" stroke-width="0.300875" stroke-linecap="round" stroke-linejoin="round"/>
<path d="M77.5779 92.4997L76.6663 93.1586L73.2664 91.5369C73.2664 91.5369 73.6906 89.861 73.3115 89.3646C72.9324 88.8681 70.6668 88.5642 70.6668 88.5642L67.6069 85.3719L71.2566 82.6641C71.7169 83.9187 72.2254 85.1583 72.779 86.3739C73.1581 87.2253 73.5763 87.9896 74.0126 88.6725C75.2221 90.5681 76.558 91.8257 77.5779 92.4997Z" stroke="#263238" stroke-width="0.300875" stroke-linecap="round" stroke-linejoin="round"/>
<path d="M79.9278 78.2894C79.7624 78.1359 79.6179 78.0006 79.4916 77.8802C78.6702 77.0919 77.1086 75.7711 76.212 75.0219L78.1497 73.009C78.1798 73.0752 79.1576 75.2145 79.621 75.7861C79.8617 76.081 79.9248 77.2363 79.9278 78.2894Z" stroke="#263238" stroke-width="0.300875" stroke-linecap="round" stroke-linejoin="round"/>
<path d="M109.579 114.578C109.579 114.578 108.875 115.83 106.444 118.577L106.429 118.592C103.986 121.345 100.799 124.751 100.312 125.301C99.8247 125.855 99.1266 125.81 97.9863 125.617C96.843 125.421 94.7459 122.422 91.6017 116.263C88.4606 110.107 83.5142 95.8093 83.5142 95.8093C83.5142 95.8093 79.6359 93.5257 78.297 92.9089C78.0834 92.8096 77.8427 92.6742 77.5779 92.4997C76.558 91.8257 75.2221 90.5681 74.0126 88.6726C73.5763 87.9896 73.1581 87.2253 72.779 86.3739C72.2254 85.1583 71.7169 83.9187 71.2566 82.6641C71.0309 82.0563 70.8203 81.4455 70.6217 80.8318L76.212 75.0219C77.1086 75.771 78.6701 77.0919 79.4915 77.8802C79.6179 78.0005 79.7623 78.1359 79.9278 78.2894C80 78.3555 80.0722 78.4217 80.1504 78.494C80.5656 78.8791 81.0591 79.3394 81.5826 79.8509C82.3619 80.6091 83.1983 81.4756 83.9084 82.3572C84.3657 82.9289 84.7719 83.5065 85.0697 84.0662C86.3394 86.419 88.259 90.9141 88.259 90.9141C88.4094 91.5128 88.6501 92.0845 88.9721 92.608C89.4475 93.4264 95.5312 102.028 97.8088 105.248C97.526 105.582 97.3214 105.853 97.3274 105.931C97.3424 106.19 101.386 109.86 102.027 110.339C102.337 110.57 104.115 111.566 105.869 112.541C107.626 113.513 109.356 114.455 109.561 114.566L109.579 114.578Z" stroke="#263238" stroke-width="0.300875" stroke-linecap="round" stroke-linejoin="round"/>
<path d="M74.5571 76.6345L79.0913 81.4666" stroke="#263238" stroke-width="0.270788" stroke-linecap="round" stroke-linejoin="round"/>
<path d="M72.8031 78.4127L76.6934 83.5246" stroke="#263238" stroke-width="0.261761" stroke-linecap="round" stroke-linejoin="round"/>
<path d="M71.5454 79.8689L74.5572 85.5584" stroke="#263238" stroke-width="0.26477" stroke-linecap="round" stroke-linejoin="round"/>
<path d="M78.1526 73.006H78.1496L76.212 75.0218L70.6217 80.8317L66.7795 84.8213C66.7795 84.8213 64.1709 76.114 63.7467 74.8353C63.3255 73.5596 63.2111 73.1293 64.3845 72.4523C65.561 71.7724 71.7139 68.535 72.9475 68.8088C74.181 69.0825 75.4146 70.8367 75.5169 71.0924C75.6192 71.3481 76.9852 71.1766 76.9852 71.1766L78.1526 73.006Z" stroke="#263238" stroke-width="0.300875" stroke-linecap="round" stroke-linejoin="round"/>
<path d="M67.9409 73.3038C67.1015 73.3881 66.4456 73.4452 66.4456 73.4452" stroke="#263238" stroke-width="0.300875" stroke-linecap="round" stroke-linejoin="round"/>
<path d="M75.5169 71.0773C75.5169 71.0773 72.2855 72.4854 71.2745 72.8073C70.5434 72.9818 69.8033 73.1082 69.0541 73.1804" stroke="#263238" stroke-width="0.300875" stroke-linecap="round" stroke-linejoin="round"/>
<path d="M105.791 63.769C105.791 63.769 106.477 66.7597 104.509 68.7004C102.542 70.641 98.8138 74.2545 99.5148 77.4288C100.216 80.603 102.301 81.8667 104.046 82.0231C105.794 82.1796 108.054 80.7414 108.054 80.7414C108.054 80.7414 106.179 78.4548 107.13 76.9233C108.081 75.3919 112.552 75.6326 113.512 71.318C114.471 67.0035 112.043 64.5122 110.774 63.8052" fill="#263238"/>
<path d="M18.7057 119.717C19.5181 119.687 21.0827 118.814 21.0827 118.814C21.0827 118.814 20.2101 117.942 20.1499 117.882C19.4278 117.34 17.7129 116.678 16.8704 117.25C16.72 117.34 16.6297 117.49 16.5394 117.611C16.4492 117.761 16.389 117.912 16.389 118.092C16.3589 118.273 16.389 118.423 16.4492 118.604C16.5094 118.754 16.5996 118.905 16.6899 119.025C17.1713 119.627 18.0438 119.777 18.7057 119.717Z" fill="#808080"/>
<path d="M35.0733 111.894C35.1034 111.894 34.8326 110.691 34.8025 110.63C34.5017 109.758 33.4185 108.284 32.3955 108.284C32.215 108.284 32.0646 108.344 31.9141 108.404C31.7637 108.494 31.6433 108.584 31.523 108.705C31.4026 108.825 31.3425 108.976 31.2823 109.156C31.2522 109.307 31.2221 109.487 31.2522 109.668C31.3425 110.39 32.0044 110.991 32.5761 111.322C33.2982 111.744 35.0733 111.894 35.0733 111.894Z" fill="#808080"/>
<path d="M19.5782 115.234C19.6685 115.505 19.7888 115.775 19.9092 116.106C20.1499 116.678 20.3906 117.34 20.7215 118.062C21.0826 118.814 21.4737 119.566 21.895 120.258C22.3764 121.071 22.948 121.823 23.5498 122.515L23.5799 122.545C23.3091 122.395 22.587 122.004 22.5268 121.973C21.6843 121.612 19.849 121.462 19.1871 122.244C19.0667 122.365 19.0066 122.515 18.9464 122.696C18.9163 122.846 18.8862 123.027 18.9163 123.207C18.9464 123.388 19.0066 123.538 19.0968 123.688C19.1871 123.839 19.3074 123.959 19.4579 124.049C20.0596 124.471 20.9322 124.38 21.5941 124.14C22.3162 123.899 23.5498 122.756 23.64 122.665C24.302 123.357 24.994 124.019 25.7161 124.621C26.1373 124.982 26.5886 125.313 27.0399 125.674C26.7992 125.554 26.6187 125.434 26.5886 125.434C25.7462 125.072 23.9108 124.922 23.2489 125.704C23.1286 125.825 23.0684 125.975 23.0082 126.156C22.9781 126.306 22.948 126.487 22.9781 126.667C23.0082 126.848 23.0684 126.998 23.1586 127.149C23.2489 127.299 23.3692 127.419 23.5197 127.51C24.1214 127.931 24.994 127.841 25.6559 127.6C26.2877 127.389 27.3709 126.426 27.6417 126.186L28.1532 126.577C28.9956 127.179 29.808 127.81 30.6203 128.412C30.8911 128.623 31.1619 128.863 31.4327 129.074C31.2221 128.954 31.0717 128.863 31.0416 128.863C30.1991 128.502 28.3638 128.352 27.7019 129.134C27.5815 129.255 27.5213 129.405 27.4612 129.586C27.4311 129.736 27.401 129.917 27.4311 130.097C27.4612 130.278 27.5213 130.428 27.6116 130.578C27.7019 130.729 27.8222 130.849 27.9726 130.94C28.5744 131.361 29.4469 131.27 30.1089 131.03C30.7407 130.819 31.7035 129.947 32.0345 129.646C32.3052 129.886 32.576 130.127 32.8167 130.368C32.9672 130.548 33.1477 130.699 33.3282 130.879L33.8096 131.391C34.1105 131.722 34.4114 132.083 34.6822 132.414C34.8627 132.655 35.0432 132.865 35.2237 133.106C34.9529 132.895 34.3813 132.474 34.3512 132.444C33.5689 131.963 31.7938 131.541 31.0115 132.203C30.8911 132.324 30.8009 132.444 30.7106 132.624C30.6504 132.775 30.6203 132.955 30.6203 133.106C30.6203 133.286 30.6504 133.437 30.7407 133.587C30.8009 133.738 30.9212 133.888 31.0416 133.978C31.5531 134.46 32.4557 134.52 33.1176 134.4C33.8698 134.279 35.1936 133.377 35.3441 133.256C35.645 133.647 35.9157 134.008 36.1865 134.37C36.8485 135.242 37.4201 136.054 37.8414 136.716H38.6537C38.1422 135.994 37.4803 135.062 36.6378 134.008C36.3069 133.617 36.006 133.226 35.675 132.805C36.006 132.414 36.337 132.023 36.6378 131.601C37.36 131.872 38.8643 131.842 39.0449 131.842C39.0749 132.324 39.105 132.805 39.1351 133.226C39.2254 134.64 39.2254 135.844 39.2254 136.716H39.6466L39.9174 136.566C39.8873 135.693 39.8572 134.52 39.7369 133.166C39.7068 132.685 39.6466 132.143 39.5864 131.632C39.767 131.571 41.3315 131.15 41.9032 130.669C42.4147 130.248 42.9863 129.525 42.9562 128.803C42.9562 128.623 42.9261 128.472 42.8359 128.322C42.7757 128.171 42.6554 128.021 42.535 127.931C42.4147 127.81 42.2642 127.72 42.0837 127.69C41.9333 127.63 41.7527 127.63 41.5722 127.63C40.5492 127.78 39.7369 129.435 39.5864 130.308C39.5864 130.368 39.5563 130.94 39.5263 131.331C39.4962 131.12 39.4962 130.909 39.4661 130.669C39.4059 130.217 39.3457 129.766 39.2856 129.315C39.2555 129.074 39.1953 128.863 39.1652 128.623C39.1351 128.382 39.0749 128.141 39.0148 127.901C38.8944 127.359 38.7139 126.787 38.5634 126.246C38.9546 126.216 40.3386 126.005 40.9103 125.674C41.512 125.313 42.1439 124.711 42.2341 123.989C42.2642 123.809 42.2341 123.658 42.204 123.478C42.1439 123.327 42.0837 123.177 41.9633 123.027C41.843 122.906 41.7226 122.786 41.5722 122.726C41.4218 122.665 41.2412 122.605 41.0908 122.605C40.0678 122.605 39.0148 124.11 38.7139 124.952C38.6838 125.012 38.5634 125.644 38.5033 126.005C38.3829 125.674 38.2927 125.343 38.1723 125.012C37.8414 124.049 37.4502 123.087 37.0892 122.154C36.9688 121.853 36.8485 121.552 36.7582 121.281C36.9086 121.251 38.5334 121.071 39.1953 120.68C39.767 120.319 40.4289 119.717 40.5191 118.995C40.5492 118.814 40.5191 118.664 40.4891 118.483C40.4289 118.333 40.3687 118.182 40.2484 118.032C40.128 117.912 40.0077 117.791 39.8572 117.731C39.7068 117.671 39.5263 117.611 39.3758 117.611C38.3528 117.611 37.2998 119.115 36.9989 119.958C36.9688 120.018 36.7883 120.95 36.7582 121.191C36.5175 120.559 36.2768 119.897 36.0662 119.235C35.7653 118.363 35.5547 117.46 35.3742 116.558C35.4343 116.558 37.1493 116.377 37.8414 115.956C38.413 115.595 39.0749 114.993 39.1652 114.271C39.1953 114.091 39.1652 113.94 39.1351 113.76C39.0749 113.609 39.0148 113.459 38.8944 113.308C38.7741 113.188 38.6537 113.068 38.5033 113.007C38.3528 112.947 38.1723 112.887 38.0219 112.887C36.9989 112.887 35.9458 114.391 35.645 115.234C35.6149 115.294 35.4644 115.986 35.4043 116.347H35.3441C35.1936 115.444 35.1335 114.512 35.1335 113.579C35.1335 113.068 35.1636 112.586 35.1936 112.105C35.5246 112.105 36.9989 112.075 37.6307 111.774C38.2927 111.473 38.9546 110.961 39.105 110.239C39.1351 110.089 39.1652 109.908 39.1351 109.728C39.105 109.547 39.0449 109.397 38.9546 109.246C38.8643 109.096 38.744 108.976 38.5935 108.885C38.4431 108.795 38.2927 108.735 38.1121 108.705C37.0892 108.584 35.8857 109.969 35.4945 110.781C35.4644 110.811 35.314 111.292 35.1936 111.653C35.2237 111.443 35.2237 111.202 35.2538 111.022C35.3441 110.269 35.4644 109.547 35.5848 108.946C35.645 108.585 35.7352 108.284 35.7954 107.983C36.1264 107.802 37.39 107.14 37.8113 106.569C38.2325 106.027 38.6236 105.245 38.4431 104.523C38.413 104.372 38.3228 104.192 38.2325 104.071C38.1422 103.951 37.9918 103.831 37.8414 103.74C37.6909 103.65 37.5405 103.62 37.3599 103.59C37.1794 103.59 37.029 103.59 36.8485 103.65C35.8857 104.011 35.4343 105.786 35.4945 106.719C35.4945 106.809 35.7051 108.013 35.7051 108.013H35.7352C35.675 108.284 35.5848 108.584 35.5246 108.915C35.4043 109.517 35.2538 110.239 35.1335 110.991C35.0131 111.804 34.9229 112.646 34.8928 113.489C34.8627 114.421 34.8928 115.354 35.0432 116.287V116.317C34.9229 116.046 34.5317 115.294 34.4715 115.264C33.9601 114.512 32.5159 113.338 31.5531 113.639C31.4026 113.699 31.2522 113.79 31.1017 113.88C30.9814 114 30.861 114.121 30.8009 114.301C30.7407 114.452 30.7106 114.632 30.7106 114.783C30.7106 114.963 30.7407 115.113 30.831 115.264C31.1017 115.926 31.884 116.347 32.5459 116.528C33.2981 116.738 34.9229 116.437 35.0733 116.437C35.2237 117.37 35.4343 118.303 35.7352 119.205C35.8857 119.747 36.0662 120.258 36.2467 120.8C36.1264 120.559 36.006 120.379 36.006 120.349C35.4945 119.597 34.0503 118.423 33.0875 118.724C32.9371 118.784 32.7866 118.874 32.6663 118.965C32.5459 119.085 32.4256 119.205 32.3654 119.386C32.3052 119.536 32.2752 119.717 32.2752 119.867C32.2752 120.048 32.3052 120.198 32.3654 120.349C32.6362 121.011 33.4185 121.432 34.0804 121.612C34.7423 121.793 36.1564 121.582 36.5175 121.522L36.7281 122.124C37.0892 123.087 37.4502 124.049 37.7511 125.012C37.8714 125.343 37.9617 125.674 38.0821 126.035C37.9617 125.825 37.8714 125.674 37.8714 125.644C37.3599 124.892 35.9157 123.719 34.9529 124.019C34.8025 124.08 34.6521 124.17 34.5016 124.26C34.3813 124.38 34.2609 124.501 34.2008 124.681C34.1406 124.832 34.1105 125.012 34.1105 125.163C34.1105 125.343 34.1406 125.494 34.2308 125.644C34.5016 126.306 35.2839 126.727 35.9458 126.908C36.6078 127.088 37.8714 126.908 38.3228 126.818C38.413 127.179 38.5033 127.51 38.5935 127.871C38.6236 128.111 38.6838 128.322 38.744 128.563C38.7741 128.803 38.8041 129.044 38.8643 129.255C38.9245 129.706 38.9847 130.157 39.0148 130.609C39.0448 130.94 39.0749 131.21 39.105 131.481C38.9847 131.15 38.7741 130.488 38.744 130.428C38.3829 129.706 37.8113 129.104 37.1493 128.683C37.1192 128.593 37.0591 128.533 36.9989 128.442C36.9086 128.292 36.7883 128.171 36.6378 128.081C36.4874 127.991 36.337 127.931 36.1564 127.901C35.9759 127.871 35.8255 127.901 35.645 127.931C35.4945 127.991 35.3441 128.051 35.1936 128.171C34.4415 128.863 34.6521 130.669 35.0131 131.511C35.0432 131.571 35.3441 132.053 35.5246 132.384L35.1034 131.872C34.8025 131.541 34.5016 131.18 34.2008 130.819L33.7194 130.308C33.5689 130.127 33.3583 129.977 33.2079 129.796C32.7866 129.405 32.3654 129.044 31.9141 128.683C32.215 128.442 33.268 127.51 33.5689 126.908C33.8698 126.306 34.0804 125.434 33.7494 124.802C33.6893 124.651 33.5689 124.501 33.4486 124.411C33.3282 124.29 33.1778 124.23 32.9973 124.17C32.8468 124.11 32.6663 124.11 32.4858 124.14C32.3052 124.17 32.1548 124.23 32.0044 124.32C31.1619 124.862 31.1017 126.727 31.3424 127.6C31.3725 127.66 31.6132 128.262 31.7336 128.593C31.4628 128.382 31.192 128.141 30.8911 127.961C30.0788 127.359 29.2363 126.757 28.3939 126.156C28.1231 125.975 27.8824 125.795 27.6116 125.614C27.7319 125.524 28.9956 124.471 29.3266 123.779C29.6275 123.177 29.8381 122.304 29.5071 121.673C29.4469 121.522 29.3266 121.372 29.2062 121.281C29.0859 121.161 28.9354 121.101 28.7549 121.041C28.6045 120.981 28.424 120.981 28.2434 121.011C28.0629 121.041 27.9125 121.101 27.762 121.191C26.9196 121.733 26.8594 123.598 27.1001 124.471C27.1001 124.531 27.4612 125.434 27.5514 125.644C26.9798 125.253 26.4382 124.832 25.8966 124.411C25.1745 123.839 24.4825 123.237 23.8507 122.575C23.9108 122.545 25.2347 121.432 25.5656 120.71C25.8665 120.108 26.0771 119.235 25.7462 118.604C25.686 118.453 25.5656 118.303 25.4453 118.213C25.3249 118.092 25.1745 118.032 24.994 117.972C24.8435 117.912 24.663 117.912 24.4825 117.942C24.302 117.972 24.1515 118.032 24.0011 118.122C23.1586 118.664 23.0985 120.529 23.3392 121.402C23.3392 121.462 23.61 122.124 23.7604 122.455L23.7002 122.485C23.0684 121.793 22.4967 121.071 22.0153 120.289C21.7445 119.867 21.5038 119.446 21.2631 119.025C21.5339 118.844 22.7675 118.002 23.1286 117.4C23.4896 116.798 23.7905 115.986 23.5197 115.324C23.4595 115.174 23.3693 115.023 23.2489 114.903C23.1286 114.783 22.9781 114.692 22.8277 114.602C22.6772 114.542 22.4967 114.512 22.3463 114.512C22.1657 114.512 22.0153 114.542 21.8649 114.632C20.9622 115.083 20.6915 116.919 20.8419 117.821C20.8419 117.882 20.9923 118.363 21.0826 118.724C20.9923 118.543 20.872 118.333 20.7817 118.152C20.4207 117.46 20.1499 116.798 19.9092 116.227C19.7888 115.896 19.6685 115.595 19.5481 115.324C19.7287 114.993 20.3906 113.729 20.4508 113.037C20.5109 112.345 20.3906 111.473 19.849 110.991C19.7287 110.871 19.5782 110.781 19.4278 110.721C19.2773 110.661 19.0968 110.63 18.9163 110.661C18.7358 110.661 18.5853 110.721 18.4349 110.811C18.2845 110.901 18.1641 110.991 18.0438 111.142C17.442 111.954 18.0438 113.699 18.5853 114.452C18.7057 114.331 19.5782 115.234 19.5782 115.234Z" fill="#808080"/>
<path d="M130.661 105.395C131.353 106.087 133.399 106.809 133.399 106.809C133.399 106.809 133.459 105.305 133.459 105.215C133.369 104.101 132.557 102.055 131.353 101.755C131.143 101.725 130.932 101.725 130.752 101.755C130.541 101.785 130.36 101.875 130.21 101.995C130.06 102.116 129.909 102.266 129.819 102.447C129.729 102.627 129.668 102.838 129.638 103.018C129.518 103.891 130.09 104.793 130.661 105.395Z" fill="#808080"/>
<path d="M150.97 113.699C150.97 113.729 151.843 112.496 151.903 112.436C152.445 111.473 152.896 109.307 152.054 108.404C151.903 108.254 151.723 108.133 151.542 108.073C151.362 108.013 151.151 107.953 150.94 107.983C150.73 107.983 150.549 108.043 150.339 108.133C150.158 108.223 150.008 108.344 149.857 108.524C149.286 109.186 149.286 110.269 149.436 111.082C149.677 111.954 150.97 113.699 150.97 113.699Z" fill="#808080"/>
<path d="M159.816 108.675C158.703 108.103 156.747 109.156 155.965 109.938C155.905 109.999 154.972 111.172 154.972 111.202H155.002C154.671 111.352 154.37 111.533 154.009 111.744C153.347 112.135 152.595 112.556 151.843 113.067C151.001 113.639 150.188 114.241 149.436 114.873C148.564 115.595 147.751 116.407 147.029 117.28L146.999 117.31C147.119 116.979 147.48 116.046 147.51 115.956C147.781 114.873 147.631 112.646 146.578 112.014C146.397 111.924 146.217 111.834 146.006 111.834C145.795 111.834 145.585 111.834 145.404 111.894C145.224 111.954 145.043 112.075 144.893 112.195C144.742 112.345 144.622 112.496 144.532 112.676C144.141 113.459 144.442 114.512 144.803 115.234C145.224 116.046 146.818 117.31 146.939 117.4C146.217 118.303 145.555 119.235 144.983 120.228C144.622 120.8 144.291 121.402 143.99 121.973C144.111 121.673 144.201 121.402 144.201 121.372C144.472 120.288 144.321 118.092 143.298 117.43C143.118 117.34 142.937 117.25 142.727 117.25C142.516 117.22 142.305 117.25 142.125 117.31C141.944 117.37 141.764 117.49 141.583 117.611C141.433 117.761 141.312 117.912 141.222 118.092C140.861 118.874 141.132 119.927 141.493 120.65C141.854 121.372 143.208 122.485 143.569 122.756C143.449 122.996 143.328 123.207 143.208 123.448C142.636 124.561 142.035 125.644 141.463 126.727C141.252 127.088 141.042 127.479 140.801 127.84C140.891 127.57 140.981 127.359 140.981 127.329C141.252 126.246 141.102 124.019 140.049 123.388C139.868 123.297 139.688 123.207 139.477 123.207C139.266 123.177 139.056 123.207 138.875 123.267C138.695 123.327 138.514 123.448 138.334 123.568C138.183 123.718 138.063 123.869 137.973 124.049C137.612 124.832 137.882 125.885 138.243 126.607C138.605 127.329 139.838 128.322 140.229 128.683C139.989 129.044 139.748 129.405 139.507 129.766C139.327 130.007 139.176 130.217 138.996 130.458C138.815 130.669 138.635 130.909 138.454 131.12C138.093 131.541 137.732 131.962 137.371 132.354C137.13 132.624 136.89 132.895 136.649 133.136C136.859 132.775 137.281 132.023 137.281 131.962C137.612 131.06 137.702 130.067 137.551 129.104C137.582 129.014 137.612 128.894 137.642 128.773C137.702 128.563 137.702 128.352 137.672 128.171C137.642 127.961 137.551 127.78 137.431 127.6C137.311 127.419 137.16 127.299 136.98 127.179C136.799 127.058 136.619 126.998 136.408 126.968C135.175 126.848 133.73 128.532 133.279 129.525C133.249 129.586 133.038 130.247 132.918 130.699C132.948 130.428 133.008 130.187 133.038 129.916C133.099 129.375 133.159 128.833 133.219 128.262C133.249 127.991 133.249 127.69 133.279 127.419C133.309 127.118 133.309 126.848 133.309 126.547C133.309 125.855 133.309 125.163 133.249 124.471C133.73 124.531 135.385 124.741 136.198 124.501C136.98 124.26 137.943 123.749 138.243 122.936C138.334 122.756 138.364 122.545 138.364 122.334C138.364 122.124 138.304 121.913 138.213 121.733C138.123 121.552 138.003 121.372 137.852 121.251C137.702 121.131 137.521 121.011 137.311 120.95C136.107 120.619 134.422 122.064 133.821 122.996C133.791 123.057 133.429 123.779 133.249 124.17C133.219 123.749 133.189 123.327 133.159 122.906C133.038 121.673 132.888 120.439 132.737 119.205C132.707 118.814 132.647 118.453 132.617 118.062C132.798 118.092 134.783 118.363 135.656 118.092C136.438 117.851 137.401 117.34 137.702 116.528C137.792 116.347 137.822 116.136 137.822 115.926C137.822 115.715 137.762 115.505 137.672 115.324C137.582 115.144 137.461 114.963 137.311 114.843C137.16 114.722 136.98 114.602 136.769 114.542C135.566 114.211 133.881 115.655 133.279 116.588C133.249 116.648 132.737 117.701 132.617 117.942C132.527 117.099 132.437 116.287 132.376 115.444C132.316 114.331 132.316 113.218 132.376 112.105C132.467 112.105 134.513 112.436 135.445 112.135C136.228 111.894 137.19 111.383 137.491 110.57C137.582 110.39 137.612 110.179 137.612 109.968C137.612 109.758 137.551 109.547 137.461 109.367C137.371 109.186 137.251 109.006 137.1 108.885C136.95 108.765 136.769 108.645 136.559 108.584C135.355 108.253 133.67 109.698 133.068 110.63C133.038 110.691 132.647 111.473 132.467 111.864L132.407 111.834C132.497 110.721 132.707 109.607 133.008 108.524C133.159 107.923 133.339 107.351 133.55 106.809C133.941 106.9 135.686 107.321 136.529 107.17C137.371 107.02 138.334 106.629 138.725 105.846C138.815 105.666 138.875 105.455 138.905 105.275C138.936 105.064 138.905 104.854 138.815 104.673C138.755 104.493 138.635 104.312 138.514 104.162C138.364 104.011 138.213 103.891 138.003 103.801C136.859 103.349 134.994 104.613 134.302 105.455C134.272 105.516 133.941 106.027 133.7 106.418C133.791 106.177 133.881 105.907 133.971 105.696C134.302 104.823 134.663 104.041 134.994 103.349C135.175 102.958 135.355 102.627 135.536 102.296C135.957 102.206 137.642 101.755 138.334 101.243C138.996 100.732 139.688 99.9192 139.658 99.0467C139.658 98.8361 139.628 98.6255 139.537 98.4449C139.447 98.2644 139.327 98.0839 139.176 97.9335C139.026 97.783 138.845 97.6928 138.665 97.6025C138.484 97.5423 138.274 97.5122 138.063 97.5423C136.829 97.6928 135.776 99.6484 135.566 100.732C135.536 100.822 135.415 102.326 135.445 102.326H135.475C135.295 102.657 135.114 102.958 134.934 103.319C134.603 104.011 134.212 104.763 133.851 105.636C133.46 106.569 133.129 107.531 132.828 108.494C132.497 109.577 132.286 110.691 132.166 111.804V111.834C132.106 111.473 131.835 110.48 131.835 110.42C131.474 109.397 130.12 107.592 128.886 107.652C128.676 107.652 128.495 107.712 128.315 107.802C128.134 107.892 127.984 108.043 127.833 108.193C127.713 108.344 127.623 108.554 127.562 108.735C127.502 108.945 127.502 109.126 127.532 109.337C127.653 110.209 128.465 110.901 129.187 111.322C130 111.774 132.015 111.954 132.166 111.954C132.076 113.098 132.045 114.241 132.106 115.414C132.136 116.076 132.196 116.768 132.226 117.43C132.166 117.099 132.076 116.859 132.076 116.828C131.715 115.775 130.361 114 129.127 114.06C128.916 114.06 128.736 114.121 128.555 114.211C128.375 114.301 128.224 114.452 128.074 114.602C127.954 114.752 127.863 114.963 127.803 115.144C127.743 115.354 127.743 115.535 127.773 115.745C127.893 116.618 128.706 117.31 129.428 117.731C130.15 118.122 131.865 118.333 132.316 118.363C132.346 118.634 132.376 118.874 132.376 119.145C132.497 120.379 132.617 121.612 132.707 122.846C132.737 123.267 132.768 123.688 132.768 124.11C132.707 123.839 132.647 123.598 132.647 123.568C132.286 122.545 130.932 120.74 129.699 120.8C129.488 120.8 129.308 120.86 129.127 120.95C128.946 121.041 128.796 121.191 128.646 121.342C128.525 121.492 128.435 121.703 128.375 121.883C128.315 122.094 128.315 122.274 128.345 122.485C128.465 123.357 129.277 124.049 129.969 124.471C130.692 124.862 132.226 125.042 132.768 125.102V126.396C132.737 126.697 132.737 126.968 132.707 127.239C132.677 127.54 132.647 127.81 132.617 128.081C132.557 128.623 132.467 129.164 132.376 129.706C132.316 130.067 132.256 130.428 132.196 130.759C132.166 130.338 132.106 129.495 132.076 129.435C131.865 128.352 130.812 126.396 129.578 126.246C129.368 126.216 129.157 126.246 128.977 126.306C128.796 126.366 128.615 126.487 128.465 126.607C128.315 126.757 128.194 126.908 128.104 127.118C128.014 127.299 127.984 127.509 127.984 127.72C127.954 128.593 128.646 129.405 129.307 129.916C130.03 130.488 131.895 130.939 132.136 131C132.045 131.571 131.925 132.143 131.835 132.654C131.474 134.46 131.113 135.964 130.842 137.017L131.624 137.318C131.624 137.298 131.634 137.278 131.654 137.258C131.895 136.205 132.226 134.67 132.557 132.805C132.647 132.233 132.768 131.601 132.858 130.939C133.49 130.939 134.091 130.879 134.723 130.819C135.054 131.692 136.288 133.016 136.438 133.196C136.047 133.617 135.656 134.038 135.265 134.43C133.971 135.753 132.858 136.776 132.045 137.529L132.888 137.86C133.67 137.138 134.663 136.145 135.776 134.941C136.198 134.52 136.619 134.038 137.04 133.557C137.251 133.677 138.875 134.731 139.778 134.851C140.59 134.971 141.673 134.881 142.275 134.279C142.426 134.129 142.546 133.978 142.636 133.768C142.727 133.587 142.757 133.377 142.757 133.166C142.757 132.955 142.696 132.745 142.636 132.564C142.546 132.384 142.426 132.203 142.275 132.083C141.312 131.301 139.176 131.902 138.243 132.504C138.183 132.534 137.642 132.985 137.281 133.286L137.822 132.685C138.183 132.263 138.514 131.872 138.905 131.421L139.417 130.759C139.597 130.548 139.748 130.278 139.928 130.037C140.32 129.465 140.681 128.863 141.042 128.262C141.403 128.593 142.696 129.676 143.479 129.916C144.261 130.157 145.344 130.247 146.036 129.736C146.217 129.616 146.337 129.465 146.457 129.285C146.578 129.104 146.638 128.924 146.668 128.713C146.698 128.502 146.668 128.292 146.638 128.111C146.608 127.931 146.487 127.72 146.337 127.57C145.525 126.637 143.298 126.908 142.305 127.359C142.245 127.389 141.553 127.78 141.192 128.021C141.403 127.66 141.613 127.299 141.824 126.908C142.396 125.825 142.967 124.711 143.509 123.598C143.689 123.267 143.84 122.906 144.02 122.575C144.141 122.695 145.645 124.019 146.548 124.29C147.33 124.531 148.413 124.621 149.105 124.11C149.286 123.989 149.436 123.839 149.526 123.688C149.647 123.508 149.707 123.327 149.737 123.117C149.767 122.906 149.767 122.695 149.707 122.515C149.647 122.304 149.556 122.124 149.436 121.973C148.624 121.041 146.397 121.311 145.404 121.763C145.314 121.793 144.351 122.365 144.08 122.545C144.472 121.793 144.863 121.071 145.254 120.349C145.795 119.386 146.427 118.453 147.089 117.551C147.149 117.611 148.714 118.995 149.617 119.266C150.399 119.506 151.482 119.596 152.174 119.085C152.355 118.965 152.475 118.814 152.595 118.634C152.716 118.453 152.776 118.273 152.806 118.062C152.836 117.851 152.806 117.641 152.776 117.46C152.716 117.25 152.625 117.069 152.475 116.919C151.663 115.986 149.436 116.257 148.443 116.708C148.383 116.738 147.631 117.189 147.27 117.4L147.21 117.34C147.902 116.467 148.684 115.655 149.526 114.903C149.978 114.482 150.459 114.121 150.91 113.79C151.181 114.09 152.385 115.384 153.197 115.715C153.979 116.046 155.002 116.257 155.754 115.805C155.935 115.715 156.085 115.565 156.236 115.414C156.356 115.264 156.446 115.053 156.507 114.873C156.567 114.662 156.567 114.482 156.537 114.271C156.507 114.06 156.416 113.88 156.326 113.699C155.604 112.706 153.378 112.706 152.324 113.067C152.264 113.098 151.693 113.338 151.301 113.519C151.512 113.368 151.723 113.188 151.933 113.067C152.686 112.526 153.438 112.075 154.07 111.683C154.431 111.473 154.792 111.262 155.093 111.112C155.514 111.262 157.138 111.834 157.981 111.774C158.823 111.714 159.846 111.413 160.298 110.691C160.418 110.51 160.508 110.33 160.538 110.119C160.568 109.908 160.568 109.698 160.538 109.517C160.478 109.307 160.388 109.126 160.268 108.976C160.147 108.915 159.997 108.795 159.816 108.675Z" fill="#808080"/>
<path d="M40.9704 21.4209C40.9102 21.2103 40.85 21.0298 40.7598 20.8192C38.1422 13.4778 25.9567 12.9663 25.9567 21.9926C25.9567 23.7377 21.8046 21.9926 20.2702 24.2491C18.7056 26.5057 20.4507 27.8897 18.3746 28.5817C16.2986 29.2738 16.1181 27.5287 13.5306 27.7092C10.943 27.8897 11.274 30.3268 10.4315 31.0188C9.559 31.7109 9.559 31.3799 7.66349 31.5303C5.76797 31.7108 5.43701 33.0949 5.43701 33.0949H50.8391C50.8391 33.0949 52.5541 27.8897 49.4551 25.9641C46.356 24.0385 46.356 26.6561 43.919 25.6031C41.9031 24.7907 41.512 23.1359 40.9704 21.4209Z" stroke="#808080" stroke-width="0.300875" stroke-linecap="round" stroke-linejoin="round"/>
<path d="M125.216 6.34704C125.155 6.1966 125.125 6.01608 125.065 5.86564C122.929 -0.0315145 113.09 -0.45274 113.09 6.82844C113.09 8.21247 109.751 6.82844 108.487 8.63369C107.223 10.4389 108.637 11.5522 106.952 12.1238C105.268 12.6955 105.147 11.2814 103.041 11.4318C100.935 11.5823 101.236 13.538 100.544 14.0795C99.8518 14.6512 99.8518 14.3503 98.3173 14.5008C96.7829 14.6512 96.5121 15.7344 96.5121 15.7344H133.219C133.219 15.7344 134.603 11.5522 132.106 9.98763C129.578 8.45317 129.608 10.5593 127.653 9.71684C125.968 9.05492 125.667 7.73107 125.216 6.34704Z" stroke="#808080" stroke-width="0.300875" stroke-linecap="round" stroke-linejoin="round"/>
<path d="M152.956 31.3497C152.896 31.1993 152.866 31.0188 152.806 30.8683C150.7 24.9712 140.831 24.5499 140.831 31.8311C140.831 33.2152 137.491 31.8311 136.228 33.6364C134.964 35.4416 136.378 36.5549 134.693 37.1265C133.008 37.6982 132.888 36.2841 130.782 36.4345C128.676 36.585 128.976 38.5406 128.284 39.0822C127.592 39.6539 127.592 39.353 126.058 39.5034C124.523 39.6539 124.253 40.7671 124.253 40.7671H160.99C160.99 40.7671 162.374 36.585 159.876 35.0204C157.349 33.4859 157.379 35.5921 155.423 34.7496C153.738 34.0576 153.438 32.7338 152.956 31.3497Z" stroke="#808080" stroke-width="0.300875" stroke-linecap="round" stroke-linejoin="round"/>
<path d="M11.605 136.656H162.644" stroke="#263238" stroke-width="0.300875" stroke-linecap="round"/>
</g>
</svg>
