<svg width="35" height="35" viewBox="0 0 35 35" fill="none" xmlns="http://www.w3.org/2000/svg">
<path d="M22.4374 33.5517V34.6618H21.2937V33.5556H13.2373V34.667H12.0935V33.5282C11.6265 33.5282 11.1995 33.5282 10.7726 33.5282C10.1166 33.5282 9.78157 33.1873 9.78027 32.5236C9.78027 24.0159 9.78027 15.5083 9.78027 7.00065C9.78027 6.24324 10.2615 5.76172 11.0184 5.76172C15.1758 5.76172 19.3327 5.76172 23.4892 5.76172C24.2487 5.76172 24.7312 6.23934 24.7325 6.99675C24.7325 15.5157 24.7325 24.035 24.7325 32.5548C24.7325 33.1899 24.3871 33.523 23.7441 33.5295C23.3495 33.5295 22.9536 33.5295 22.559 33.5295C22.5181 33.5348 22.4775 33.5422 22.4374 33.5517ZM23.5591 32.3518V6.94599H10.9498V32.3518H23.5591Z" fill="#667580"/>
<path d="M3.35233 21.983C2.83482 21.9531 2.31732 21.983 1.81792 21.8854C1.35086 21.7939 0.924756 21.5555 0.601078 21.2047C0.2774 20.8538 0.0728539 20.4087 0.0169477 19.9333C-0.0399051 19.4644 0.0470547 18.9892 0.266166 18.5714C0.485276 18.1535 0.826093 17.813 1.24295 17.5955C1.6598 17.3779 2.13279 17.2936 2.59858 17.354C3.06437 17.4143 3.50071 17.6164 3.84915 17.9331C4.20365 18.2532 4.26187 18.5942 4.00829 18.8727C3.75471 19.1512 3.45196 19.1239 3.10264 18.8154C2.66663 18.4354 2.13359 18.386 1.67947 18.6853C1.47098 18.8236 1.31297 19.0265 1.22937 19.2632C1.14576 19.4999 1.14111 19.7576 1.21613 19.9972C1.29115 20.2368 1.44174 20.4453 1.64511 20.5911C1.84848 20.7369 2.09355 20.8121 2.3432 20.8053C3.06125 20.8118 3.77929 20.8053 4.49734 20.8053C4.92041 20.8053 5.17658 21.0291 5.17917 21.3792C5.18176 21.7292 4.92042 21.957 4.50511 21.9622C4.11698 21.9622 3.73918 21.9622 3.35621 21.9622L3.35233 21.983Z" fill="#667580"/>
<path d="M31.1514 21.9578C30.7568 21.9578 30.3622 21.9644 29.9676 21.9578C29.573 21.9513 29.331 21.7054 29.3401 21.3644C29.3491 21.0234 29.5911 20.8087 29.9611 20.8048C30.6792 20.7957 31.3972 20.8048 32.1153 20.8048C32.7324 20.8048 33.1503 20.5042 33.3107 19.9667C33.3816 19.7287 33.373 19.4739 33.2864 19.2412C33.1997 19.0086 33.0396 18.8109 32.8307 18.6783C32.3675 18.3803 31.8552 18.4415 31.3856 18.8501C31.0634 19.1299 30.7387 19.1364 30.5006 18.867C30.2626 18.5976 30.3104 18.2814 30.63 17.9782C30.8978 17.7202 31.2237 17.5312 31.5799 17.4274C31.9361 17.3235 32.3119 17.3079 32.6754 17.3818C33.0389 17.4556 33.3792 17.6169 33.6673 17.8517C33.9554 18.0865 34.1828 18.3879 34.3301 18.7303C34.4773 19.0726 34.5401 19.4457 34.5129 19.8177C34.4858 20.1897 34.3696 20.5496 34.1743 20.8667C33.979 21.1837 33.7103 21.4485 33.3912 21.6386C33.0721 21.8286 32.712 21.9381 32.3417 21.9578C31.9535 21.9748 31.5525 21.9578 31.1579 21.9578H31.1514Z" fill="#667580"/>
<path d="M31.7117 25.3994C32.0584 25.4138 32.404 25.4481 32.7468 25.5022C33.2113 25.6086 33.6309 25.859 33.9464 26.2181C34.2619 26.5772 34.4572 27.0269 34.505 27.5038C34.5527 27.9772 34.4542 28.4538 34.223 28.8689C33.9917 29.284 33.6389 29.6173 33.2126 29.8235C32.7863 30.0298 32.3072 30.0989 31.8405 30.0214C31.3738 29.944 30.9421 29.7238 30.6042 29.3908C30.3028 29.0902 30.2679 28.757 30.5111 28.5006C30.7543 28.2443 31.0726 28.2638 31.3973 28.5501C31.8437 28.9405 32.3547 29.0069 32.8205 28.7245C33.0318 28.5951 33.1955 28.4 33.2868 28.1687C33.378 27.9374 33.3919 27.6825 33.3264 27.4426C33.1724 26.9012 32.7493 26.5928 32.1425 26.5863C31.7958 26.5863 31.4478 26.5941 31.1075 26.5863C30.7672 26.5785 30.502 26.3351 30.5046 26.0059C30.5072 25.6766 30.7465 25.4489 31.1153 25.4333C31.3184 25.4254 31.5228 25.4333 31.7259 25.4333L31.7117 25.3994Z" fill="#667580"/>
<path d="M2.44367 30.0519C1.07355 30.0597 0.0333685 29.0512 0.00490525 27.8096C-0.0129459 27.2004 0.20904 26.6087 0.622612 26.1632C1.03618 25.7177 1.6079 25.4544 2.21341 25.4307C2.6093 25.4164 3.00519 25.419 3.3998 25.4307C3.7944 25.4424 4.03764 25.691 4.026 26.0241C4.01436 26.3573 3.76723 26.5746 3.40109 26.5837C3.03495 26.5928 2.68174 26.5837 2.32206 26.5837C2.07167 26.58 1.82695 26.6587 1.6252 26.8079C1.42345 26.9572 1.27575 27.1687 1.20466 27.4102C1.13356 27.6517 1.14296 27.91 1.23141 28.1457C1.31987 28.3813 1.48254 28.5814 1.6946 28.7154C2.14354 28.9965 2.66361 28.9444 3.08927 28.5775C3.12549 28.5462 3.15655 28.5085 3.19407 28.4785C3.46836 28.2599 3.78016 28.2703 4.00139 28.5046C4.05506 28.5582 4.09729 28.6222 4.12547 28.6928C4.15364 28.7634 4.16717 28.8391 4.16523 28.9151C4.16329 28.9911 4.14592 29.066 4.11419 29.135C4.08246 29.2041 4.03703 29.2659 3.9807 29.3166C3.58512 29.7565 3.03249 30.0208 2.44367 30.0519Z" fill="#667580"/>
<path d="M28.4617 24.2728C27.829 24.2728 27.195 24.2728 26.5624 24.2728C26.1393 24.2728 25.8844 24.0477 25.8819 23.6976C25.8793 23.3475 26.1406 23.1185 26.5546 23.1172C27.8329 23.1172 29.1116 23.1172 30.3907 23.1172C30.8034 23.1172 31.0622 23.3579 31.0531 23.708C31.0441 24.0581 30.7943 24.2689 30.3972 24.2715C29.7554 24.2767 29.1085 24.2728 28.4617 24.2728Z" fill="#667580"/>
<path d="M6.04179 23.1147C6.67445 23.1147 7.3084 23.1147 7.94106 23.1147C8.36542 23.1147 8.6216 23.3359 8.62548 23.6847C8.62936 24.0335 8.3732 24.2703 7.9566 24.2716C6.67834 24.2716 5.39966 24.2716 4.12054 24.2716C3.70523 24.2716 3.44775 24.0348 3.45422 23.6834C3.46069 23.332 3.71299 23.1186 4.14123 23.116C4.77518 23.1108 5.40784 23.1147 6.04179 23.1147Z" fill="#667580"/>
<path d="M27.6065 26.586C27.2481 26.586 26.8897 26.586 26.5326 26.586C26.138 26.5782 25.8857 26.3543 25.8857 26.016C25.8857 25.6776 26.129 25.4355 26.5171 25.4316C27.2459 25.4238 27.9739 25.4238 28.701 25.4316C29.0892 25.4316 29.3375 25.6776 29.3311 26.0173C29.3246 26.3569 29.0723 26.5782 28.6842 26.586C28.3219 26.5912 27.9648 26.586 27.6065 26.586Z" fill="#667580"/>
<path d="M6.90886 25.4273C7.27889 25.4273 7.64892 25.4195 8.01894 25.4273C8.38896 25.4351 8.62572 25.672 8.62831 25.9973C8.62985 26.0759 8.61525 26.154 8.58542 26.2266C8.55558 26.2993 8.51119 26.365 8.45496 26.4196C8.39874 26.4742 8.33189 26.5165 8.25865 26.544C8.18541 26.5714 8.10734 26.5833 8.0293 26.579C7.27761 26.5881 6.52593 26.5894 5.77424 26.579C5.69625 26.5829 5.61831 26.5704 5.54537 26.5423C5.47242 26.5143 5.40606 26.4713 5.35048 26.4162C5.2949 26.361 5.25132 26.2948 5.22249 26.2218C5.19366 26.1488 5.1802 26.0706 5.18297 25.9921C5.19074 25.6655 5.43138 25.4377 5.80011 25.4286C6.16884 25.4195 6.53884 25.4273 6.90886 25.4273Z" fill="#667580"/>
<path d="M16.707 1.72461H17.8145V4.57335H16.707V1.72461Z" fill="#667580"/>
<path d="M33.0804 24.2702C32.7945 24.2702 32.5073 24.2793 32.2226 24.2702C32.0714 24.2734 31.9251 24.2161 31.8157 24.111C31.7064 24.0059 31.6429 23.8614 31.6391 23.7093C31.636 23.6308 31.6491 23.5526 31.6776 23.4794C31.7061 23.4063 31.7494 23.34 31.8048 23.2845C31.8601 23.2291 31.9263 23.1859 31.9991 23.1575C32.0719 23.1291 32.1498 23.1163 32.2278 23.1198C32.7876 23.1085 33.3482 23.1085 33.9097 23.1198C33.9875 23.1153 34.0654 23.127 34.1385 23.1541C34.2117 23.1812 34.2785 23.2232 34.3348 23.2774C34.3911 23.3316 34.4357 23.3969 34.4659 23.4692C34.496 23.5415 34.511 23.6192 34.51 23.6976C34.51 24.0243 34.2681 24.2585 33.9032 24.2728C33.6303 24.278 33.3547 24.2702 33.0804 24.2702Z" fill="#667580"/>
<path d="M1.44413 24.2715C1.16985 24.2715 0.895582 24.2793 0.621299 24.2715C0.255158 24.2585 0.0145151 24.0295 0.00804622 23.7041C0.00580286 23.6257 0.0197296 23.5476 0.0489508 23.4748C0.078172 23.402 0.122042 23.3361 0.177824 23.2812C0.233606 23.2263 0.30008 23.1837 0.37306 23.1559C0.446041 23.1281 0.523941 23.1158 0.601873 23.1198C1.16165 23.1085 1.72229 23.1085 2.28379 23.1198C2.36172 23.1156 2.43966 23.1277 2.5127 23.1554C2.58575 23.183 2.65232 23.2255 2.70822 23.2803C2.76413 23.3351 2.80816 23.4009 2.83754 23.4736C2.86692 23.5463 2.88102 23.6244 2.87895 23.7028C2.87895 24.0282 2.63313 24.2585 2.26699 24.2715C1.99271 24.2793 1.71841 24.2715 1.44413 24.2715Z" fill="#667580"/>
<path d="M20.1121 4.5945H19.0137V2.31445H20.1121V4.5945Z" fill="#667580"/>
<path d="M15.5066 2.27289H14.4004V0.00195312H15.5066V2.27289Z" fill="#667580"/>
<path d="M26.9983 21.9551C26.8081 21.9551 26.6166 21.9681 26.4264 21.9551C26.2799 21.9464 26.1423 21.8811 26.0423 21.773C25.9424 21.6648 25.8877 21.5221 25.8897 21.3744C25.8917 21.2267 25.9502 21.0855 26.0531 20.9801C26.1559 20.8748 26.2952 20.8133 26.4419 20.8086C26.8301 20.793 27.2286 20.793 27.6219 20.8086C27.6967 20.8089 27.7707 20.8243 27.8396 20.8538C27.9085 20.8833 27.9708 20.9264 28.0228 20.9804C28.0749 21.0345 28.1157 21.0985 28.1428 21.1687C28.17 21.2388 28.1829 21.3138 28.1808 21.389C28.1794 21.541 28.1182 21.6862 28.0105 21.7929C27.9028 21.8995 27.7574 21.9588 27.6063 21.9577C27.4045 21.9694 27.2014 21.9577 26.9983 21.9577V21.9551Z" fill="#667580"/>
<path d="M7.47664 20.8015C7.66812 20.8015 7.86476 20.7924 8.04848 20.8015C8.19948 20.8001 8.34491 20.8588 8.45301 20.9649C8.56111 21.071 8.62312 21.2157 8.6255 21.3676C8.62792 21.443 8.61531 21.5181 8.58842 21.5884C8.56153 21.6588 8.52093 21.7231 8.46896 21.7774C8.41699 21.8318 8.3547 21.8751 8.28582 21.9048C8.21694 21.9346 8.14287 21.9502 8.06791 21.9506C7.67977 21.9676 7.28127 21.9676 6.88925 21.9506C6.8143 21.9503 6.74016 21.9349 6.67121 21.9053C6.60227 21.8757 6.53991 21.8326 6.48782 21.7783C6.43573 21.7241 6.39497 21.66 6.36792 21.5896C6.34087 21.5193 6.32808 21.4443 6.33033 21.3689C6.33204 21.2172 6.39343 21.0723 6.50109 20.9659C6.60874 20.8596 6.75388 20.8005 6.90476 20.8015C7.09495 20.7911 7.28645 20.8015 7.47664 20.8015Z" fill="#667580"/>
<path d="M14.3926 4.57363V3.47266H15.5117V4.57363H14.3926Z" fill="#667580"/>
<path d="M20.1147 1.1257H19.0137V0H20.1147V1.1257Z" fill="#667580"/>
<path d="M19.5557 11.559C19.5527 12.0162 19.415 12.4622 19.1602 12.8408C18.9053 13.2193 18.5447 13.5135 18.1238 13.6861C17.7029 13.8586 17.2406 13.9019 16.7952 13.8105C16.3499 13.719 15.9415 13.4969 15.6216 13.1722C15.3016 12.8474 15.0845 12.4346 14.9975 11.9859C14.9106 11.5371 14.9578 11.0725 15.1332 10.6507C15.3085 10.2289 15.6042 9.86881 15.9828 9.61586C16.3614 9.36292 16.806 9.22848 17.2606 9.2295C17.5634 9.23069 17.863 9.29191 18.1423 9.40965C18.4215 9.5274 18.675 9.69937 18.8882 9.91572C19.1013 10.1321 19.27 10.3886 19.3846 10.6705C19.4991 10.9525 19.5573 11.2544 19.5557 11.559ZM17.2515 10.3877C17.0241 10.3885 16.8021 10.4573 16.6136 10.5852C16.4251 10.7132 16.2786 10.8946 16.1928 11.1064C16.1069 11.3182 16.0856 11.5509 16.1315 11.775C16.1774 11.999 16.2884 12.2043 16.4505 12.3647C16.6125 12.5252 16.8184 12.6336 17.0418 12.6762C17.2652 12.7188 17.4962 12.6937 17.7054 12.604C17.9146 12.5143 18.0926 12.3641 18.2168 12.1725C18.341 11.9809 18.4058 11.7565 18.403 11.5278C18.3969 11.2244 18.273 10.9355 18.0578 10.7229C17.8426 10.5103 17.5532 10.391 17.2515 10.3903V10.3877Z" fill="#667580"/>
<path d="M22.416 19.6699V20.7813H21.2969V19.6699H22.416Z" fill="#667580"/>
<path d="M20.112 20.7826H19.002V19.6699H20.112V20.7826Z" fill="#667580"/>
<path d="M17.8171 19.6621V20.7761H16.7031V19.6621H17.8171Z" fill="#667580"/>
<path d="M13.2078 23.099H12.1016V21.9824H13.2078V23.099Z" fill="#667580"/>
<path d="M14.4082 21.9746H15.517V23.0886H14.4082V21.9746Z" fill="#667580"/>
<path d="M15.5182 19.6621V20.7761H14.4043V19.6621H15.5182Z" fill="#667580"/>
<path d="M20.1121 23.1068H19.0137V21.9824H20.1121V23.1068Z" fill="#667580"/>
<path d="M22.4225 21.9746V23.0925H21.3047V21.9746H22.4225Z" fill="#667580"/>
<path d="M13.213 20.7826H12.1094V19.666H13.213V20.7826Z" fill="#667580"/>
<path d="M21.2969 17.3447H22.4044V18.4691H21.2969V17.3447Z" fill="#667580"/>
<path d="M19.0059 17.3457H20.1159V18.4584H19.0059V17.3457Z" fill="#667580"/>
<path d="M16.6914 18.461V17.3496H17.8118V18.461H16.6914Z" fill="#667580"/>
<path d="M12.0977 25.4089V24.2949H13.2116V25.4089H12.0977Z" fill="#667580"/>
<path d="M14.3965 25.4024V24.291H15.5169V25.4024H14.3965Z" fill="#667580"/>
<path d="M17.8094 25.4213H16.7109V24.2969H17.8094V25.4213Z" fill="#667580"/>
<path d="M20.1185 24.291V25.4037H19.0059V24.291H20.1185Z" fill="#667580"/>
<path d="M22.4161 25.4135H21.3086V24.293H22.4161V25.4135Z" fill="#667580"/>
<path d="M14.3926 18.4571V17.3574H15.5117V18.4571H14.3926Z" fill="#667580"/>
<path d="M12.0977 18.4701V17.3535H13.2051V18.4701H12.0977Z" fill="#667580"/>
<path d="M13.2026 27.7302H12.1016V26.6045H13.2026V27.7302Z" fill="#667580"/>
<path d="M15.517 27.7263H14.4121V26.6084H15.517V27.7263Z" fill="#667580"/>
<path d="M17.8055 27.7354H16.7109V26.6084H17.8055V27.7354Z" fill="#667580"/>
<path d="M19.0137 26.5977H20.116V27.7247H19.0137V26.5977Z" fill="#667580"/>
<path d="M22.4122 27.7357H21.3125V26.6113H22.4122V27.7357Z" fill="#667580"/>
<path d="M12.1094 28.9121H13.2104V30.0378H12.1094V28.9121Z" fill="#667580"/>
<path d="M14.4121 28.9062H15.5067V30.032H14.4121V28.9062Z" fill="#667580"/>
<path d="M16.6914 30.03V28.9199H17.8118V30.03H16.6914Z" fill="#667580"/>
<path d="M20.1211 28.9277V30.0352H19.002V28.9277H20.1211Z" fill="#667580"/>
<path d="M22.4135 30.0398H21.3086V28.9219H22.4135V30.0398Z" fill="#667580"/>
<path d="M17.8132 23.0977H16.707V21.9824H17.8132V23.0977Z" fill="#667580"/>
</svg>
