<svg width="31" height="26" viewBox="0 0 31 26" fill="none" xmlns="http://www.w3.org/2000/svg">
<path d="M1.58659 2.08057C1.55805 1.83062 1.51906 1.60609 1.50955 1.38051C1.49623 1.07231 1.63034 0.888024 1.86336 0.853074C2.08211 0.821301 2.28945 0.97593 2.35318 1.25235C2.41975 1.54149 2.45589 1.8391 2.51296 2.13035C2.76405 3.39915 2.98851 4.67642 3.2824 5.93251C3.41746 6.51078 3.69138 7.04986 3.89872 7.59742C3.96815 7.57835 3.98907 7.57941 3.99383 7.57094C4.25253 7.00538 4.50743 6.85923 5.05812 6.94395C7.51387 7.32205 9.98103 7.55294 12.4596 7.54976C15.3557 7.54552 18.2518 7.50316 21.1479 7.44067C22.722 7.40678 24.2875 7.21826 25.8454 6.94713C26.4133 6.84864 26.6938 6.88994 26.9687 7.76687C27.2017 7.1939 27.4737 6.68765 27.6164 6.1401C27.8818 5.1223 28.0796 4.08121 28.2917 3.04647C28.4049 2.49044 28.4876 1.92594 28.5856 1.36674C28.6483 1.0077 28.8814 0.793764 29.1372 0.855192C29.3978 0.91662 29.5148 1.1708 29.4568 1.54255C29.4311 1.70565 29.4073 1.86981 29.3826 2.02762C30.192 2.49362 30.3889 2.92467 30.2671 3.9467C30.2424 4.1564 30.2291 4.36928 30.1834 4.57263C30.1035 4.93061 30.0446 5.30447 29.9048 5.63385C29.4492 6.71201 29.2342 7.86219 29.0041 9.01237C28.7539 10.2663 28.3573 11.46 27.6697 12.5085C27.489 12.7849 27.2883 13.0497 27.0676 13.2869C26.9059 13.4617 26.8565 13.6332 26.8936 13.8736C27.0163 14.6574 27.0334 15.4443 26.9021 16.228C26.7062 17.3983 26.0975 18.2657 25.2833 18.9976C24.9866 19.2645 24.7089 19.5779 24.4854 19.9211C23.383 21.6093 22.1257 23.1175 20.5392 24.2571C17.1419 26.6951 13.2918 26.5744 10.0124 23.9446C8.54962 22.7711 7.36644 21.3064 6.32879 19.6807C6.18517 19.4562 5.99781 19.2517 5.79712 19.0897C4.36191 17.9342 3.81407 16.3668 4.01475 14.4392C4.01951 14.3958 4.01761 14.3502 4.02902 14.3079C4.16883 13.7698 3.99003 13.3886 3.64573 12.9872C2.80495 12.0075 2.37981 10.7715 2.08877 9.47626C1.99081 9.04203 1.89569 8.60568 1.82817 8.1651C1.69977 7.31464 1.36688 6.54361 1.10343 5.74399C0.882769 5.081 0.712521 4.40529 0.701108 3.69146C0.689695 2.94056 0.774343 2.2585 1.58659 2.08057ZM26.1736 8.74548C26.1574 8.74336 26.1412 8.7423 26.1241 8.74019C26.1241 8.5379 26.1213 8.33561 26.1241 8.13226C26.127 7.9681 26.0556 7.91091 25.9177 7.93315C25.699 7.9681 25.4802 8.01682 25.2605 8.03483C23.3754 8.19369 21.4922 8.39386 19.6043 8.49236C16.8918 8.63428 14.1763 8.65016 11.4628 8.49871C10.0733 8.4214 8.68563 8.27842 7.29797 8.15556C6.57322 8.09096 5.84943 8.01153 5.12564 7.92998C4.9183 7.90668 4.84792 7.9967 4.83556 8.21911C4.78039 9.21572 4.86029 10.1986 5.05621 11.1719C5.15227 11.6506 5.27687 12.1229 5.17225 12.6281C5.06668 13.1418 4.98393 13.6618 4.90974 14.1818C4.66341 15.9156 5.09236 17.3433 6.42961 18.3769C6.67594 18.5676 6.88709 18.8387 7.06209 19.1141C8.09214 20.7387 9.27246 22.1939 10.7657 23.3113C13.7683 25.5608 17.1371 25.5703 20.1531 23.3388C21.6111 22.2596 22.78 20.8626 23.773 19.2729C24.0336 18.8556 24.3332 18.4977 24.706 18.2001C25.4593 17.5996 25.9396 16.7957 26.0604 15.7567C26.1507 14.9836 26.1022 14.2073 25.9339 13.4606C25.7294 12.5582 25.7408 11.6792 25.9025 10.7768C26.0233 10.1054 26.0832 9.42119 26.1698 8.7423L26.1736 8.74548ZM29.2742 3.11319C29.2418 3.11743 29.2095 3.12166 29.1781 3.1259C29.1087 3.51989 29.0307 3.91175 28.9708 4.30786C28.7045 6.06702 28.1861 7.70651 27.158 9.10981C27.0914 9.20089 27.0457 9.32693 27.0277 9.44343C26.9088 10.2145 26.7984 10.9865 26.691 11.7586C26.6672 11.926 26.6643 12.0965 26.652 12.2649C26.7794 12.1833 26.8527 12.0848 26.9202 11.981C27.6002 10.9431 27.9626 9.75586 28.1947 8.51883C28.3849 7.50316 28.5913 6.50125 28.9603 5.53959C29.1657 5.00368 29.2561 4.41165 29.3807 3.83973C29.4368 3.58449 29.3978 3.33137 29.2732 3.11107L29.2742 3.11319ZM3.93962 11.8095C3.76747 10.4093 3.47072 9.12676 2.99993 7.90244C2.53484 6.69295 2.18293 5.45062 1.97559 4.15535C1.92137 3.81432 1.84814 3.47646 1.78442 3.13755C1.76159 3.13331 1.73876 3.12908 1.71594 3.12484C1.67789 3.18839 1.61512 3.24876 1.60846 3.31654C1.58849 3.51565 1.5514 3.72747 1.59229 3.91493C1.71974 4.50167 1.86716 5.08418 2.03265 5.66033C2.19339 6.21953 2.41595 6.75649 2.55766 7.32099C2.80305 8.29219 2.99612 9.27927 3.23104 10.2536C3.3623 10.797 3.60007 11.2894 3.93962 11.8095Z" fill="#667580"/>
<path d="M21.0217 6.76469C20.3541 6.71596 19.5905 6.63422 18.8818 6.08876C18.8162 6.03846 18.7485 5.98973 18.6887 5.92371C18.475 5.6895 18.4064 5.3421 18.5025 5.00729C18.6035 4.65675 18.8201 4.51999 19.0779 4.64575C19.4357 4.82023 19.7876 5.03872 20.1522 5.15819C21.0913 5.46471 22.0205 5.31381 22.9223 4.82809C23.1478 4.70705 23.3487 4.40996 23.5271 4.13645C23.7545 3.78905 23.9888 3.69159 24.1946 3.9541C24.4083 4.22447 24.4544 4.65203 24.2417 5.02301C24.026 5.39869 23.7751 5.76338 23.4948 5.99602C22.7567 6.61221 21.9431 6.74111 21.0226 6.76312L21.0217 6.76469Z" fill="#667580"/>
<path d="M9.64434 6.76317C9.08754 6.59324 8.52388 6.46125 7.97492 6.24277C7.46321 6.04098 7.06228 5.53575 6.72898 4.90611C6.57802 4.62088 6.5839 4.32654 6.74761 4.06407C6.91916 3.78945 7.1956 3.70297 7.3397 3.95179C8.19941 5.43713 9.33947 5.29755 10.4491 5.20197C10.9256 5.161 11.3951 4.87274 11.8617 4.66184C12.1548 4.52833 12.4156 4.62391 12.5028 5.00473C12.6028 5.44169 12.5009 5.76333 12.2068 5.96512C11.3922 6.52497 10.5393 6.71462 9.64532 6.76469L9.64434 6.76317Z" fill="#667580"/>
<path d="M22.9156 10.8745C22.814 10.8622 22.6403 10.8323 22.4647 10.822C22.377 10.8168 22.2836 10.8312 22.1986 10.858C21.6425 11.0301 21.0854 11.0806 20.5181 10.9281C20.4368 10.9065 20.3389 10.9209 20.2557 10.9477C19.6847 11.1352 19.1129 11.1898 18.5308 11.0136C18.4708 10.9951 18.3978 11.0013 18.3377 11.0208C17.7427 11.2197 17.1468 11.2475 16.5463 11.0528C16.501 11.0383 16.4447 11.0404 16.3994 11.0548C15.8026 11.2506 15.2067 11.2578 14.6089 11.0641C14.5609 11.0486 14.5026 11.0353 14.4574 11.0497C13.8347 11.2475 13.2194 11.2424 12.6068 10.9961C12.5634 10.9786 12.5043 10.993 12.4562 11.0064C11.876 11.1682 11.3041 11.1548 10.7396 10.9188C10.6676 10.8889 10.5761 10.8838 10.5004 10.9013C9.89983 11.0373 9.31131 11.0208 8.73481 10.7694C8.68769 10.7488 8.62856 10.7395 8.57959 10.7498C8.04651 10.8642 7.52544 10.722 7.00251 10.654C6.73089 10.618 6.60339 10.4366 6.62187 10.1512C6.6385 9.89465 6.80757 9.70301 7.05518 9.72773C7.58641 9.78131 8.13243 9.74216 8.6341 10.0049C8.66551 10.0214 8.70986 10.0276 8.74405 10.0183C9.23463 9.87714 9.74 9.92247 10.2047 10.0585C10.5881 10.1708 10.9411 10.0791 11.3051 10.1038C11.6996 10.1316 12.0904 10.2264 12.4821 10.2903C12.5394 10.2996 12.6031 10.314 12.6567 10.2975C13.2508 10.1203 13.8393 10.143 14.426 10.3449C14.4731 10.3614 14.5304 10.3696 14.5775 10.3552C15.1845 10.1728 15.7896 10.1677 16.3975 10.349C16.4437 10.3624 16.501 10.3583 16.5472 10.3429C17.1413 10.1368 17.7381 10.1224 18.3386 10.3016C18.3848 10.315 18.4412 10.3202 18.4855 10.3027C19.0741 10.0781 19.669 10.0368 20.2742 10.213C20.3268 10.2285 20.3924 10.2161 20.447 10.1965C21.0262 9.99047 21.6101 9.89774 22.2134 10.0636C22.2744 10.0801 22.3465 10.0482 22.413 10.0389C22.9073 9.97193 23.3997 9.88847 23.8958 9.84623C24.1841 9.8215 24.3735 10.0307 24.3799 10.3058C24.3864 10.5726 24.209 10.7694 23.9125 10.8003C23.6067 10.8323 23.2999 10.8467 22.9174 10.8745H22.9156Z" fill="#667580"/>
<path d="M16.2416 23.045C15.1395 22.9908 14.0969 22.7711 13.1391 22.3508C12.0146 21.8564 10.9233 21.3111 9.82314 20.7793C9.56395 20.6543 9.51718 20.4569 9.65457 20.2682C9.79488 20.0772 10.0356 20.0302 10.3094 20.1631C11.1581 20.5747 11.9961 21.0014 12.8497 21.4074C13.6945 21.8094 14.587 22.1096 15.5663 22.2234C16.5076 22.3325 17.406 22.2059 18.2801 21.9289C19.4727 21.5515 20.5495 21.0006 21.6213 20.441C21.8191 20.3375 22.014 20.23 22.2206 20.1393C22.4593 20.035 22.6737 20.0843 22.814 20.2579C22.9524 20.429 22.927 20.6241 22.701 20.7451C21.0903 21.6088 19.4854 22.4877 17.5795 22.873C17.1429 22.9614 16.6879 22.9892 16.2406 23.045H16.2416Z" fill="#667580"/>
<path d="M8.63072 17.125C9.13229 17.2003 9.68858 17.2981 10.2503 17.3651C11.6374 17.53 13.0263 17.682 14.4152 17.8364C14.625 17.8597 14.8383 17.8627 15.0499 17.8778C15.3463 17.8988 15.5041 18.0276 15.4995 18.2399C15.495 18.4536 15.3372 18.5515 15.0335 18.5831C14.2 18.6689 13.4002 18.4815 12.5922 18.3814C11.2672 18.2173 9.94757 18.0215 8.62616 17.8379C8.55959 17.8288 8.49211 17.8175 8.42736 17.7995C8.18204 17.7302 8.06987 17.5902 8.10635 17.4035C8.14192 17.2221 8.31245 17.1197 8.63072 17.1258V17.125Z" fill="#667580"/>
<path d="M17.98 18.5898C17.7841 18.5898 17.5883 18.5989 17.3942 18.5876C17.1364 18.5732 16.9861 18.4374 16.9806 18.2358C16.9751 18.0538 17.1291 17.9098 17.3796 17.8923C17.6967 17.8704 18.0183 17.8885 18.3317 17.8514C19.5069 17.7119 20.6803 17.5595 21.8528 17.4056C22.4878 17.3222 23.12 17.2274 23.7532 17.1372C24.0912 17.0895 24.3226 17.1835 24.3708 17.3889C24.4246 17.6209 24.2515 17.787 23.8962 17.8393C23.1519 17.9492 22.4085 18.0682 21.6615 18.1653C20.489 18.3177 19.3128 18.4549 18.1385 18.5974C18.0866 18.6035 18.0328 18.6027 17.98 18.605C17.98 18.5997 17.98 18.5944 17.98 18.5891V18.5898Z" fill="#667580"/>
</svg>
