<svg width="35" height="34" viewBox="0 0 35 34" fill="none" xmlns="http://www.w3.org/2000/svg">
<path d="M34.7762 12.8854C34.7856 12.7713 34.7639 12.6569 34.7133 12.5543C34.6627 12.4517 34.5851 12.3648 34.4889 12.303C29.0596 8.25979 23.6339 4.21103 18.2117 0.156705C17.9173 -0.0640713 17.7111 -0.0437794 17.4286 0.168643C14.102 2.66123 10.7715 5.14824 7.43694 7.62968L1.17997 12.297C1.03097 12.408 0.873619 12.5059 0.876003 12.735C0.88554 13.3651 0.876002 13.994 0.881962 14.6241C0.889114 14.9821 1.14898 15.1015 1.44937 14.9117C1.5042 14.8759 1.55546 14.833 1.60791 14.7924C6.93231 10.8232 12.2512 6.85199 17.5644 2.87882C17.7587 2.73322 17.8756 2.73442 18.0687 2.87882C22.6381 6.29985 27.2123 9.71294 31.7913 13.1181C31.8815 13.1743 31.9546 13.2542 32.0027 13.3491C32.0508 13.444 32.0721 13.5502 32.0643 13.6563C32.0512 15.1015 32.0583 16.549 32.056 17.9966C32.056 18.0873 32.0989 18.1911 32.0178 18.2747C30.5874 16.962 28.4918 17.647 28.0162 19.4537C27.8934 19.9009 27.7413 20.3394 27.5608 20.7665C27.4345 21.072 27.6633 21.0541 27.8183 21.1149C27.9733 21.1758 28.127 21.2713 28.2105 20.9884C28.3714 20.4395 28.5585 19.8977 28.76 19.3619C28.9067 18.9638 29.1979 18.6359 29.5755 18.4434C29.9532 18.2509 30.3894 18.2082 30.7972 18.3236C31.1999 18.4343 31.5481 18.6888 31.7761 19.0391C32.0041 19.3894 32.096 19.8112 32.0345 20.2247C31.8629 21.2987 31.6769 22.3787 31.5029 23.4576C30.9831 26.6021 30.4586 29.7455 29.9532 32.8925C29.9103 33.1526 29.8483 33.2505 29.5539 33.2505C24.3582 33.2409 19.1626 33.2381 13.9669 33.2421C13.8517 33.2633 13.7327 33.2487 13.626 33.2004C13.8763 32.9724 14.0575 32.7003 14.3626 32.5464C15.4426 31.9986 16.5155 31.4413 17.5942 30.8912C17.6622 30.8554 17.7254 30.7718 17.8327 30.8291C17.8327 31.205 17.8577 31.5821 17.8243 31.9533C17.7969 32.26 17.953 32.248 18.1688 32.2552C18.4072 32.2552 18.505 32.2242 18.5026 31.9437C18.4859 30.3756 18.493 28.8063 18.4954 27.2382C18.4896 27.0944 18.4988 26.9504 18.5228 26.8086C18.6563 26.1677 19.1749 25.7548 19.8567 25.7536C21.9746 25.7536 24.0924 25.7536 26.2102 25.7536C26.3974 25.7536 26.5679 25.7465 26.6418 25.5364C26.9541 24.6116 27.357 23.7141 27.5537 22.7547C27.7587 21.7343 27.0125 20.8584 25.9742 20.8452C25.5236 20.8381 25.0683 20.8655 24.6189 20.8393C23.7451 20.7856 23.1288 21.1484 22.7677 21.9396C22.6296 22.2288 22.4028 22.4663 22.1204 22.6174C21.5244 22.9754 20.9188 23.2081 20.1762 23.1879C18.3023 23.1306 16.4261 23.1759 14.551 23.1604C14.2399 23.1604 14.3126 23.337 14.3126 23.4969C14.3126 23.6568 14.2291 23.849 14.5403 23.8382C15.2137 23.8156 15.8861 23.8382 16.5596 23.8275C16.5928 23.8217 16.6269 23.8225 16.6599 23.8299C16.6928 23.8373 16.724 23.8512 16.7516 23.8707C16.7792 23.8902 16.8026 23.915 16.8206 23.9437C16.8386 23.9723 16.8508 24.0042 16.8564 24.0375C17.1043 24.744 17.6968 25.1462 18.4489 25.1557C18.673 25.1557 18.8983 25.1557 19.2166 25.1557C18.2546 25.5794 17.7981 26.2417 17.8219 27.206C17.8219 27.3707 17.7349 27.4375 17.6276 27.5163C16.4666 28.3946 15.2769 29.2383 14.1588 30.168C13.4352 30.7647 12.6986 31.1513 11.7449 30.9902C11.7228 30.9872 11.7003 30.9872 11.6782 30.9902C11.4297 31.002 11.1865 31.0657 10.9642 31.1773C10.7418 31.2889 10.5453 31.4459 10.3872 31.6382C10.094 31.9879 10.1214 32.1538 10.4969 32.4091L11.7163 33.2445C11.0583 33.2445 10.4981 33.2326 9.93782 33.2445C9.71491 33.2529 9.66961 33.1801 9.67081 32.97C9.68034 31.6776 9.67081 30.3852 9.67081 29.0927C9.67081 28.6953 9.57902 28.601 9.19399 28.5999C8.74222 28.5999 8.28924 28.5999 7.83746 28.5999C7.74448 28.5999 7.63363 28.6416 7.5633 28.5366C7.29151 28.1308 7.02211 27.7215 6.72887 27.2764H7.24621C7.66581 27.2764 7.75283 27.1905 7.75641 26.7811C7.75641 26.5258 7.75641 26.2728 7.75641 26.0186C7.75641 23.3931 7.75641 20.7637 7.75641 18.1303C7.75641 17.6732 7.68011 17.5992 7.21641 17.598H6.28901C5.84916 17.598 5.77167 17.678 5.77167 18.1183C5.77167 19.344 5.76095 20.572 5.77764 21.7976C5.77764 22.0696 5.69538 22.1329 5.44863 22.1102C5.24122 22.0911 5.03023 22.1102 4.82043 22.1102C4.58203 22.1102 4.44852 22.2355 4.44732 22.4766C4.44732 23.9564 4.44732 25.4366 4.44732 26.9172C4.44732 27.1559 4.58441 27.2752 4.82282 27.2752H5.48678C5.29486 27.5628 5.10533 27.7836 4.98851 28.039C4.77156 28.5163 4.43303 28.6715 3.91568 28.6154C3.65701 28.5867 3.57237 28.5581 3.57356 28.2741C3.58389 23.779 3.58628 19.2839 3.58072 14.7888C3.58072 14.7124 3.58072 14.6349 3.58072 14.5573C3.58072 14.5036 3.58072 14.4296 3.51993 14.426C3.33468 14.4007 3.14649 14.4068 2.96324 14.4439C2.85715 14.4785 2.92153 14.6647 2.92153 14.7793C2.92153 20.9674 2.92153 27.1543 2.92153 33.34C2.92153 33.877 2.95133 33.908 3.47582 33.908H32.1025C32.6591 33.908 32.7092 33.8579 32.7092 33.3113V13.8055L34.1253 14.8628C34.2588 14.963 34.3947 15.0657 34.5747 14.9678C34.7547 14.87 34.7655 14.7172 34.7631 14.543C34.769 13.9904 34.7559 13.4379 34.7762 12.8854ZM18.4251 24.4898C17.9888 24.4898 17.686 24.2714 17.4846 23.8299C18.4847 23.8299 19.4312 23.8012 20.3764 23.8406C21.0035 23.8657 21.5685 23.7631 22.0834 23.3967C22.1681 23.3358 22.3218 23.1676 22.3767 23.4086C22.4136 23.5876 22.7343 23.7666 22.3874 23.9838C21.8057 24.355 21.2097 24.5602 20.5016 24.5042C19.8114 24.4505 19.1153 24.497 18.4251 24.4898ZM6.43325 18.5229C6.43325 18.215 6.58702 18.2568 6.77298 18.2556C6.95894 18.2544 7.11747 18.2174 7.11271 18.5241C7.09125 19.8368 7.10317 21.1495 7.10317 22.4623C7.10317 23.7547 7.09125 25.0459 7.11271 26.3384C7.11271 26.6475 6.95894 26.6057 6.77298 26.6057C6.58702 26.6057 6.43206 26.6439 6.43325 26.3384C6.44756 23.7352 6.44676 21.1297 6.43087 18.5217L6.43325 18.5229ZM5.47963 26.6105C5.3187 26.5914 5.1089 26.7095 5.11605 26.3718C5.13513 25.2464 5.13274 24.1187 5.11605 22.9921C5.11605 22.6341 5.34493 22.7928 5.49393 22.7702C5.6632 22.7451 5.80267 22.7415 5.79075 23.0088C5.76571 23.559 5.78359 24.1127 5.78359 24.6653C5.78359 25.2178 5.76571 25.7918 5.79075 26.3551C5.79671 26.626 5.6632 26.6308 5.47248 26.6093L5.47963 26.6105ZM9.03307 33.007C9.03307 33.1944 8.98301 33.2457 8.79467 33.2457C7.9674 33.2362 7.14013 33.2457 6.31286 33.2457C5.48559 33.2457 4.65832 33.2457 3.83224 33.2457C3.6439 33.2457 3.59383 33.1968 3.59383 33.007C3.60258 31.8367 3.60258 30.666 3.59383 29.4949C3.59383 29.3075 3.6439 29.2562 3.83224 29.2562C5.48598 29.2626 7.14052 29.2626 8.79585 29.2562C8.983 29.2562 9.03426 29.3051 9.03426 29.4949C9.01678 30.6644 9.014 31.8347 9.02592 33.0058L9.03307 33.007ZM12.9668 32.939C12.8321 33.1097 12.7284 33.1252 12.5376 32.9903C12.0465 32.6323 11.5375 32.3077 11.0106 31.9509C11.2646 31.7313 11.5328 31.6096 11.826 31.6537C12.8714 31.8089 13.6951 31.4306 14.4878 30.7587C15.5368 29.8708 16.6728 29.0879 17.8255 28.212C17.8255 28.823 17.8255 29.3875 17.8255 29.9508C17.8255 30.0952 17.6777 30.0999 17.5871 30.1465C16.6716 30.6238 15.7609 31.1155 14.8287 31.5618C14.1111 31.9031 13.4579 32.3089 12.9632 32.9378L12.9668 32.939ZM31.727 33.2457C31.3539 33.2194 30.9784 33.2457 30.5635 33.2457C31.0499 30.273 31.5327 27.3229 32.0166 24.3717H32.0607V24.7297C32.0607 27.4578 32.0607 30.1859 32.0691 32.9151C32.0667 33.1896 31.9964 33.2636 31.7234 33.2445L31.727 33.2457ZM34.2052 14.2804L17.8291 1.85251L1.41957 14.2792V12.7123L17.8291 0.623323L34.204 12.6503L34.2052 14.2804Z" fill="#667580"/>
<path d="M26.2351 15.2708C25.8489 15.2637 25.4627 15.2708 25.0765 15.2708C24.7239 15.2888 24.3706 15.2888 24.0179 15.2708C23.1096 15.1754 22.3241 16.0465 22.926 17.0609C23.2491 17.6039 23.2074 17.95 22.8664 18.382C22.7413 18.5419 22.7472 18.7484 22.9308 18.8438C23.2884 19.03 23.267 19.3307 23.2634 19.6541C23.2634 20.3141 23.5697 20.6232 24.2337 20.6291C24.7725 20.6291 25.3137 20.6291 25.8537 20.6291C26.7143 20.6184 27.3163 20.1232 27.4856 19.2794C27.6215 18.6099 27.7478 17.9404 27.8706 17.2662C27.9203 17.0239 27.9153 16.7735 27.856 16.5334C27.7968 16.2933 27.6847 16.0695 27.5279 15.8782C27.3712 15.687 27.1738 15.5333 26.9501 15.4282C26.7265 15.3231 26.4822 15.2693 26.2351 15.2708ZM26.5343 19.7174C26.4455 19.8003 26.3407 19.8643 26.2263 19.9053C26.1119 19.9464 25.9904 19.9636 25.8692 19.9561C25.6045 19.9561 25.3399 19.9561 25.0753 19.9561H24.1813C24.0048 19.9561 23.919 19.8797 23.9238 19.6959C23.9309 19.4644 23.9238 19.2317 23.9238 19.0002C23.9291 18.9288 23.9162 18.8572 23.8861 18.7923C23.8561 18.7273 23.8099 18.6711 23.7521 18.629C23.6877 18.5789 23.5292 18.5503 23.615 18.4154C23.7009 18.2806 23.708 18.1099 23.9226 18.1183C24.0239 18.1183 24.1944 18.1779 24.2218 18.0753C24.2561 17.8919 24.2617 17.7043 24.2385 17.5192C24.2385 17.4261 24.1348 17.4559 24.0775 17.4607C23.9345 17.4714 23.9071 17.3987 23.9238 17.2793C23.9428 17.1373 24.0537 17.1922 24.13 17.1886C24.2492 17.1886 24.2945 17.2889 24.3577 17.3605C24.539 17.5906 24.7683 17.7784 25.0295 17.9107C25.2908 18.043 25.5777 18.1167 25.8704 18.1266C25.9314 18.1193 25.9932 18.1327 26.0457 18.1647C26.0983 18.1967 26.1385 18.2455 26.16 18.3032C26.197 18.4226 26.1195 18.4966 26.0408 18.5813C25.8656 18.7591 25.9562 18.9954 25.98 19.1983C25.9919 19.3045 26.1553 19.2532 26.2339 19.209C26.4545 19.0837 26.613 19.2186 26.7048 19.3654C26.7966 19.5121 26.6321 19.6195 26.5343 19.7174ZM27.1876 17.2113C27.1065 17.623 27.0278 18.0347 26.9491 18.4464C26.9158 18.425 26.8788 18.4035 26.8431 18.382C26.7668 17.7853 26.4854 17.5037 25.8751 17.4631C25.5044 17.4392 25.1599 17.3151 24.9537 17.0156C24.6402 16.5633 24.2313 16.4607 23.7259 16.5096C23.627 16.5191 23.4231 16.6588 23.3909 16.4058C23.375 16.3117 23.3934 16.2151 23.4426 16.1334C23.4918 16.0517 23.5686 15.9904 23.6591 15.9606C23.741 15.9363 23.8267 15.9274 23.9119 15.9344C24.6616 15.9344 25.4114 15.9272 26.1624 15.9344C26.9134 15.9415 27.333 16.4857 27.1887 17.2161L27.1876 17.2113Z" fill="#667580"/>
<path d="M18.7646 9.15534C18.6537 9.24723 18.6239 9.57302 18.3652 9.32241C18.3114 9.26766 18.2518 9.21885 18.1876 9.17682C17.625 8.8367 17.3198 8.37963 17.4962 7.69702C17.5088 7.53217 17.5088 7.36661 17.4962 7.20177C17.445 6.89268 17.5821 6.84375 17.8538 6.84375C18.0851 6.84375 18.2115 6.88432 18.1614 7.14687C18.1459 7.24234 18.1733 7.34617 18.1614 7.44283C18.0589 8.03952 18.2341 8.51688 18.786 8.80806C19.0232 8.94172 18.8742 9.06345 18.7646 9.15534Z" fill="#667580"/>
<path d="M17.8181 5.71592C17.2786 5.7171 16.7516 5.87842 16.3037 6.17948C15.8558 6.48054 15.5072 6.90782 15.3019 7.40727C15.0966 7.90671 15.0439 8.4559 15.1503 8.98536C15.2568 9.51482 15.5178 10.0008 15.9002 10.3817C16.2825 10.7627 16.7692 11.0216 17.2985 11.1257C17.8279 11.2297 18.3762 11.1743 18.8741 10.9664C19.372 10.7584 19.7971 10.4073 20.0957 9.95751C20.3942 9.50768 20.5528 8.9793 20.5514 8.43922C20.5527 8.08013 20.4828 7.72435 20.3457 7.39251C20.2086 7.06067 20.0071 6.75936 19.7529 6.50605C19.4986 6.25274 19.1967 6.05247 18.8646 5.91684C18.5325 5.78121 18.1768 5.71291 17.8181 5.71592ZM17.7978 10.5133C17.3899 10.5081 16.9927 10.3822 16.6563 10.1513C16.3198 9.92046 16.0591 9.59505 15.9071 9.21609C15.7551 8.83714 15.7185 8.42162 15.802 8.0219C15.8856 7.62218 16.0854 7.25617 16.3764 6.96999C16.6674 6.68381 17.0365 6.49029 17.4372 6.41381C17.8379 6.33733 18.2522 6.38132 18.628 6.54024C19.0037 6.69916 19.3241 6.96589 19.5486 7.3068C19.7732 7.64772 19.8919 8.04757 19.8898 8.45593C19.8892 8.72907 19.8344 8.99937 19.7286 9.25113C19.6228 9.50289 19.4681 9.73111 19.2735 9.92252C19.0789 10.1139 18.8482 10.2647 18.5949 10.3661C18.3415 10.4676 18.0706 10.5176 17.7978 10.5133Z" fill="#667580"/>
<path d="M6.80494 28.5848H5.41504C5.63199 28.2578 5.83106 27.963 6.02417 27.6647C6.10522 27.5394 6.15171 27.5931 6.20893 27.6814C6.39846 27.9738 6.59038 28.2626 6.80494 28.5848Z" fill="#667580"/>
<path d="M26.9461 18.4512C26.8888 18.4691 26.8601 18.4357 26.8398 18.3867C26.8756 18.4082 26.9126 18.4297 26.9461 18.4512Z" fill="#667580"/>
<path d="M26.8638 18.6183C26.7778 18.5944 26.8339 18.4691 26.8399 18.3867C26.8757 18.4082 26.9127 18.4297 26.9461 18.4512C26.9497 18.5252 26.9557 18.6434 26.8638 18.6183Z" fill="#667580"/>
<path d="M18.7646 9.15534C18.6537 9.24723 18.6239 9.57302 18.3652 9.32241C18.3114 9.26766 18.2518 9.21885 18.1876 9.17682C17.625 8.8367 17.3198 8.37963 17.4962 7.69702C17.5088 7.53217 17.5088 7.36661 17.4962 7.20177C17.445 6.89268 17.5821 6.84375 17.8538 6.84375C18.0851 6.84375 18.2115 6.88432 18.1614 7.14687C18.1459 7.24234 18.1733 7.34617 18.1614 7.44283C18.0589 8.03952 18.2341 8.51688 18.786 8.80806C19.0232 8.94172 18.8742 9.06345 18.7646 9.15534Z" fill="#667580"/>
<path d="M18.7646 9.15534C18.6537 9.24723 18.6239 9.57302 18.3652 9.32241C18.3114 9.26766 18.2518 9.21885 18.1876 9.17682C17.625 8.8367 17.3198 8.37963 17.4962 7.69702C17.5088 7.53217 17.5088 7.36661 17.4962 7.20177C17.445 6.89268 17.5821 6.84375 17.8538 6.84375C18.0851 6.84375 18.2115 6.88432 18.1614 7.14687C18.1459 7.24234 18.1733 7.34617 18.1614 7.44283C18.0589 8.03952 18.2341 8.51688 18.786 8.80806C19.0232 8.94172 18.8742 9.06345 18.7646 9.15534Z" fill="#667580"/>
</svg>
