<svg width="35" height="35" viewBox="0 0 35 35" fill="none" xmlns="http://www.w3.org/2000/svg">
<mask id="mask0_5887_920" style="mask-type:alpha" maskUnits="userSpaceOnUse" x="0" y="0" width="35" height="35">
<rect x="0.979492" y="0.979492" width="34.02" height="34.02" fill="#D9D9D9"/>
</mask>
<g mask="url(#mask0_5887_920)">
<path d="M28.6142 32.2844H2.68066L6.15285 2.68066H31.3864L28.6142 32.2844Z" stroke="#667580" stroke-width="0.567473" stroke-miterlimit="10"/>
<path d="M31.3722 2.68066L32.4335 4.60435L29.869 33.3679L28.6309 32.2844L31.3722 2.68066Z" stroke="#667580" stroke-width="0.567473" stroke-miterlimit="10"/>
<path d="M2.68066 32.2852L3.66603 33.5111L29.9107 33.3687L28.6566 32.2852H2.68066Z" stroke="#667580" stroke-width="0.567473" stroke-miterlimit="10"/>
<mask id="mask1_5887_920" style="mask-type:alpha" maskUnits="userSpaceOnUse" x="3" y="2" width="29" height="31">
<path d="M28.2099 32.2844H3.12695L6.52895 2.68066H30.9822L28.2099 32.2844Z" fill="#D9D9D9" stroke="#31343D" stroke-width="0.214276" stroke-miterlimit="10"/>
</mask>
<g mask="url(#mask1_5887_920)">
<path d="M5.56621 7.57155C6.24244 7.57155 6.79063 7.02431 6.79063 6.34925C6.79063 5.67419 6.24244 5.12695 5.56621 5.12695C4.88999 5.12695 4.3418 5.67419 4.3418 6.34925C4.3418 7.02431 4.88999 7.57155 5.56621 7.57155Z" stroke="#667580" stroke-width="0.412746" stroke-miterlimit="10"/>
<path d="M8.01446 7.57155C8.69068 7.57155 9.23887 7.02431 9.23887 6.34925C9.23887 5.67419 8.69068 5.12695 8.01446 5.12695C7.33823 5.12695 6.79004 5.67419 6.79004 6.34925C6.79004 7.02431 7.33823 7.57155 8.01446 7.57155Z" stroke="#667580" stroke-width="0.412746" stroke-miterlimit="10"/>
<path d="M10.4656 7.57155C11.1419 7.57155 11.69 7.02431 11.69 6.34925C11.69 5.67419 11.1419 5.12695 10.4656 5.12695C9.7894 5.12695 9.24121 5.67419 9.24121 6.34925C9.24121 7.02431 9.7894 7.57155 10.4656 7.57155Z" stroke="#667580" stroke-width="0.412746" stroke-miterlimit="10"/>
<path d="M12.9129 7.57155C13.5891 7.57155 14.1373 7.02431 14.1373 6.34925C14.1373 5.67419 13.5891 5.12695 12.9129 5.12695C12.2367 5.12695 11.6885 5.67419 11.6885 6.34925C11.6885 7.02431 12.2367 7.57155 12.9129 7.57155Z" stroke="#667580" stroke-width="0.412746" stroke-miterlimit="10"/>
<path d="M15.3631 7.57155C16.0393 7.57155 16.5875 7.02431 16.5875 6.34925C16.5875 5.67419 16.0393 5.12695 15.3631 5.12695C14.6869 5.12695 14.1387 5.67419 14.1387 6.34925C14.1387 7.02431 14.6869 7.57155 15.3631 7.57155Z" stroke="#667580" stroke-width="0.412746" stroke-miterlimit="10"/>
<path d="M17.8133 7.57155C18.4895 7.57155 19.0377 7.02431 19.0377 6.34925C19.0377 5.67419 18.4895 5.12695 17.8133 5.12695C17.1371 5.12695 16.5889 5.67419 16.5889 6.34925C16.5889 7.02431 17.1371 7.57155 17.8133 7.57155Z" stroke="#667580" stroke-width="0.412746" stroke-miterlimit="10"/>
<path d="M20.2615 7.57155C20.9378 7.57155 21.4859 7.02431 21.4859 6.34925C21.4859 5.67419 20.9378 5.12695 20.2615 5.12695C19.5853 5.12695 19.0371 5.67419 19.0371 6.34925C19.0371 7.02431 19.5853 7.57155 20.2615 7.57155Z" stroke="#667580" stroke-width="0.412746" stroke-miterlimit="10"/>
<path d="M22.7107 7.57155C23.387 7.57155 23.9352 7.02431 23.9352 6.34925C23.9352 5.67419 23.387 5.12695 22.7107 5.12695C22.0345 5.12695 21.4863 5.67419 21.4863 6.34925C21.4863 7.02431 22.0345 7.57155 22.7107 7.57155Z" stroke="#667580" stroke-width="0.412746" stroke-miterlimit="10"/>
<path d="M25.1609 7.57155C25.8372 7.57155 26.3854 7.02431 26.3854 6.34925C26.3854 5.67419 25.8372 5.12695 25.1609 5.12695C24.4847 5.12695 23.9365 5.67419 23.9365 6.34925C23.9365 7.02431 24.4847 7.57155 25.1609 7.57155Z" stroke="#667580" stroke-width="0.412746" stroke-miterlimit="10"/>
<path d="M27.6102 7.57155C28.2864 7.57155 28.8346 7.02431 28.8346 6.34925C28.8346 5.67419 28.2864 5.12695 27.6102 5.12695C26.9339 5.12695 26.3857 5.67419 26.3857 6.34925C26.3857 7.02431 26.9339 7.57155 27.6102 7.57155Z" stroke="#667580" stroke-width="0.412746" stroke-miterlimit="10"/>
<path d="M30.0594 7.57155C30.7356 7.57155 31.2838 7.02431 31.2838 6.34925C31.2838 5.67419 30.7356 5.12695 30.0594 5.12695C29.3831 5.12695 28.835 5.67419 28.835 6.34925C28.835 7.02431 29.3831 7.57155 30.0594 7.57155Z" stroke="#667580" stroke-width="0.412746" stroke-miterlimit="10"/>
<path d="M6.79082 5.12526C7.46705 5.12526 8.01524 4.57802 8.01524 3.90296C8.01524 3.22791 7.46705 2.68066 6.79082 2.68066C6.1146 2.68066 5.56641 3.22791 5.56641 3.90296C5.56641 4.57802 6.1146 5.12526 6.79082 5.12526Z" stroke="#667580" stroke-width="0.412746" stroke-miterlimit="10"/>
<path d="M9.24102 5.12526C9.91725 5.12526 10.4654 4.57802 10.4654 3.90296C10.4654 3.22791 9.91725 2.68066 9.24102 2.68066C8.56479 2.68066 8.0166 3.22791 8.0166 3.90296C8.0166 4.57802 8.56479 5.12526 9.24102 5.12526Z" stroke="#667580" stroke-width="0.412746" stroke-miterlimit="10"/>
<path d="M11.6902 5.12624C12.3665 5.12624 12.9147 4.579 12.9147 3.90394C12.9147 3.22888 12.3665 2.68164 11.6902 2.68164C11.014 2.68164 10.4658 3.22888 10.4658 3.90394C10.4658 4.579 11.014 5.12624 11.6902 5.12624Z" stroke="#667580" stroke-width="0.412746" stroke-miterlimit="10"/>
<path d="M14.1404 5.12624C14.8167 5.12624 15.3649 4.579 15.3649 3.90394C15.3649 3.22888 14.8167 2.68164 14.1404 2.68164C13.4642 2.68164 12.916 3.22888 12.916 3.90394C12.916 4.579 13.4642 5.12624 14.1404 5.12624Z" stroke="#667580" stroke-width="0.412746" stroke-miterlimit="10"/>
<path d="M16.5906 5.12526C17.2669 5.12526 17.815 4.57802 17.815 3.90296C17.815 3.22791 17.2669 2.68066 16.5906 2.68066C15.9144 2.68066 15.3662 3.22791 15.3662 3.90296C15.3662 4.57802 15.9144 5.12526 16.5906 5.12526Z" stroke="#667580" stroke-width="0.412746" stroke-miterlimit="10"/>
<path d="M19.0379 5.12526C19.7141 5.12526 20.2623 4.57802 20.2623 3.90296C20.2623 3.22791 19.7141 2.68066 19.0379 2.68066C18.3617 2.68066 17.8135 3.22791 17.8135 3.90296C17.8135 4.57802 18.3617 5.12526 19.0379 5.12526Z" stroke="#667580" stroke-width="0.412746" stroke-miterlimit="10"/>
<path d="M21.4861 5.12526C22.1624 5.12526 22.7106 4.57802 22.7106 3.90296C22.7106 3.22791 22.1624 2.68066 21.4861 2.68066C20.8099 2.68066 20.2617 3.22791 20.2617 3.90296C20.2617 4.57802 20.8099 5.12526 21.4861 5.12526Z" stroke="#667580" stroke-width="0.412746" stroke-miterlimit="10"/>
<path d="M23.9354 5.12624C24.6116 5.12624 25.1598 4.579 25.1598 3.90394C25.1598 3.22888 24.6116 2.68164 23.9354 2.68164C23.2591 2.68164 22.7109 3.22888 22.7109 3.90394C22.7109 4.579 23.2591 5.12624 23.9354 5.12624Z" stroke="#667580" stroke-width="0.412746" stroke-miterlimit="10"/>
<path d="M26.3856 5.12624C27.0618 5.12624 27.61 4.579 27.61 3.90394C27.61 3.22888 27.0618 2.68164 26.3856 2.68164C25.7093 2.68164 25.1611 3.22888 25.1611 3.90394C25.1611 4.579 25.7093 5.12624 26.3856 5.12624Z" stroke="#667580" stroke-width="0.412746" stroke-miterlimit="10"/>
<path d="M28.8348 5.12624C29.511 5.12624 30.0592 4.579 30.0592 3.90394C30.0592 3.22888 29.511 2.68164 28.8348 2.68164C28.1585 2.68164 27.6104 3.22888 27.6104 3.90394C27.6104 4.579 28.1585 5.12624 28.8348 5.12624Z" stroke="#667580" stroke-width="0.412746" stroke-miterlimit="10"/>
<path d="M31.284 5.12526C31.9602 5.12526 32.5084 4.57802 32.5084 3.90296C32.5084 3.22791 31.9602 2.68066 31.284 2.68066C30.6078 2.68066 30.0596 3.22791 30.0596 3.90296C30.0596 4.57802 30.6078 5.12526 31.284 5.12526Z" stroke="#667580" stroke-width="0.412746" stroke-miterlimit="10"/>
<path d="M4.98028 12.4622C5.6565 12.4622 6.20469 11.9149 6.20469 11.2399C6.20469 10.5648 5.6565 10.0176 4.98028 10.0176C4.30405 10.0176 3.75586 10.5648 3.75586 11.2399C3.75586 11.9149 4.30405 12.4622 4.98028 12.4622Z" stroke="#667580" stroke-width="0.412746" stroke-miterlimit="10"/>
<path d="M7.42852 12.4622C8.10475 12.4622 8.65294 11.9149 8.65294 11.2399C8.65294 10.5648 8.10475 10.0176 7.42852 10.0176C6.75229 10.0176 6.2041 10.5648 6.2041 11.2399C6.2041 11.9149 6.75229 12.4622 7.42852 12.4622Z" stroke="#667580" stroke-width="0.412746" stroke-miterlimit="10"/>
<path d="M9.88164 12.4622C10.5579 12.4622 11.1061 11.9149 11.1061 11.2399C11.1061 10.5648 10.5579 10.0176 9.88164 10.0176C9.20542 10.0176 8.65723 10.5648 8.65723 11.2399C8.65723 11.9149 9.20542 12.4622 9.88164 12.4622Z" stroke="#667580" stroke-width="0.412746" stroke-miterlimit="10"/>
<path d="M12.3318 12.4622C13.0081 12.4622 13.5563 11.9149 13.5563 11.2399C13.5563 10.5648 13.0081 10.0176 12.3318 10.0176C11.6556 10.0176 11.1074 10.5648 11.1074 11.2399C11.1074 11.9149 11.6556 12.4622 12.3318 12.4622Z" stroke="#667580" stroke-width="0.412746" stroke-miterlimit="10"/>
<path d="M14.7772 12.4622C15.4534 12.4622 16.0016 11.9149 16.0016 11.2399C16.0016 10.5648 15.4534 10.0176 14.7772 10.0176C14.1009 10.0176 13.5527 10.5648 13.5527 11.2399C13.5527 11.9149 14.1009 12.4622 14.7772 12.4622Z" stroke="#667580" stroke-width="0.412746" stroke-miterlimit="10"/>
<path d="M17.2264 12.4622C17.9026 12.4622 18.4508 11.9149 18.4508 11.2399C18.4508 10.5648 17.9026 10.0176 17.2264 10.0176C16.5501 10.0176 16.002 10.5648 16.002 11.2399C16.002 11.9149 16.5501 12.4622 17.2264 12.4622Z" stroke="#667580" stroke-width="0.412746" stroke-miterlimit="10"/>
<path d="M19.6766 12.4622C20.3528 12.4622 20.901 11.9149 20.901 11.2399C20.901 10.5648 20.3528 10.0176 19.6766 10.0176C19.0003 10.0176 18.4521 10.5648 18.4521 11.2399C18.4521 11.9149 19.0003 12.4622 19.6766 12.4622Z" stroke="#667580" stroke-width="0.412746" stroke-miterlimit="10"/>
<path d="M22.1268 12.4622C22.803 12.4622 23.3512 11.9149 23.3512 11.2399C23.3512 10.5648 22.803 10.0176 22.1268 10.0176C21.4505 10.0176 20.9023 10.5648 20.9023 11.2399C20.9023 11.9149 21.4505 12.4622 22.1268 12.4622Z" stroke="#667580" stroke-width="0.412746" stroke-miterlimit="10"/>
<path d="M24.576 12.4622C25.2522 12.4622 25.8004 11.9149 25.8004 11.2399C25.8004 10.5648 25.2522 10.0176 24.576 10.0176C23.8998 10.0176 23.3516 10.5648 23.3516 11.2399C23.3516 11.9149 23.8998 12.4622 24.576 12.4622Z" stroke="#667580" stroke-width="0.412746" stroke-miterlimit="10"/>
<path d="M27.0242 12.4622C27.7004 12.4622 28.2486 11.9149 28.2486 11.2399C28.2486 10.5648 27.7004 10.0176 27.0242 10.0176C26.348 10.0176 25.7998 10.5648 25.7998 11.2399C25.7998 11.9149 26.348 12.4622 27.0242 12.4622Z" stroke="#667580" stroke-width="0.412746" stroke-miterlimit="10"/>
<path d="M29.4744 12.4622C30.1506 12.4622 30.6988 11.9149 30.6988 11.2399C30.6988 10.5648 30.1506 10.0176 29.4744 10.0176C28.7982 10.0176 28.25 10.5648 28.25 11.2399C28.25 11.9149 28.7982 12.4622 29.4744 12.4622Z" stroke="#667580" stroke-width="0.412746" stroke-miterlimit="10"/>
<path d="M6.20489 10.0169C6.88111 10.0169 7.4293 9.46962 7.4293 8.79456C7.4293 8.11951 6.88111 7.57227 6.20489 7.57227C5.52866 7.57227 4.98047 8.11951 4.98047 8.79456C4.98047 9.46962 5.52866 10.0169 6.20489 10.0169Z" stroke="#667580" stroke-width="0.412746" stroke-miterlimit="10"/>
<path d="M8.6541 10.0169C9.33033 10.0169 9.87852 9.46962 9.87852 8.79456C9.87852 8.11951 9.33033 7.57227 8.6541 7.57227C7.97788 7.57227 7.42969 8.11951 7.42969 8.79456C7.42969 9.46962 7.97788 10.0169 8.6541 10.0169Z" stroke="#667580" stroke-width="0.412746" stroke-miterlimit="10"/>
<path d="M11.1043 10.0169C11.7805 10.0169 12.3287 9.46962 12.3287 8.79456C12.3287 8.11951 11.7805 7.57227 11.1043 7.57227C10.4281 7.57227 9.87988 8.11951 9.87988 8.79456C9.87988 9.46962 10.4281 10.0169 11.1043 10.0169Z" stroke="#667580" stroke-width="0.412746" stroke-miterlimit="10"/>
<path d="M13.5535 10.0169C14.2297 10.0169 14.7779 9.46962 14.7779 8.79456C14.7779 8.11951 14.2297 7.57227 13.5535 7.57227C12.8773 7.57227 12.3291 8.11951 12.3291 8.79456C12.3291 9.46962 12.8773 10.0169 13.5535 10.0169Z" stroke="#667580" stroke-width="0.412746" stroke-miterlimit="10"/>
<path d="M16.0047 10.0169C16.6809 10.0169 17.2291 9.46962 17.2291 8.79456C17.2291 8.11951 16.6809 7.57227 16.0047 7.57227C15.3285 7.57227 14.7803 8.11951 14.7803 8.79456C14.7803 9.46962 15.3285 10.0169 16.0047 10.0169Z" stroke="#667580" stroke-width="0.412746" stroke-miterlimit="10"/>
<path d="M18.452 10.0169C19.1282 10.0169 19.6764 9.46962 19.6764 8.79456C19.6764 8.11951 19.1282 7.57227 18.452 7.57227C17.7757 7.57227 17.2275 8.11951 17.2275 8.79456C17.2275 9.46962 17.7757 10.0169 18.452 10.0169Z" stroke="#667580" stroke-width="0.412746" stroke-miterlimit="10"/>
<path d="M20.9022 10.0169C21.5784 10.0169 22.1266 9.46962 22.1266 8.79456C22.1266 8.11951 21.5784 7.57227 20.9022 7.57227C20.2259 7.57227 19.6777 8.11951 19.6777 8.79456C19.6777 9.46962 20.2259 10.0169 20.9022 10.0169Z" stroke="#667580" stroke-width="0.412746" stroke-miterlimit="10"/>
<path d="M23.3514 10.0169C24.0276 10.0169 24.5758 9.46962 24.5758 8.79456C24.5758 8.11951 24.0276 7.57227 23.3514 7.57227C22.6751 7.57227 22.127 8.11951 22.127 8.79456C22.127 9.46962 22.6751 10.0169 23.3514 10.0169Z" stroke="#667580" stroke-width="0.412746" stroke-miterlimit="10"/>
<path d="M25.8006 10.0169C26.4768 10.0169 27.025 9.46962 27.025 8.79456C27.025 8.11951 26.4768 7.57227 25.8006 7.57227C25.1244 7.57227 24.5762 8.11951 24.5762 8.79456C24.5762 9.46962 25.1244 10.0169 25.8006 10.0169Z" stroke="#667580" stroke-width="0.412746" stroke-miterlimit="10"/>
<path d="M28.2498 10.0169C28.926 10.0169 29.4742 9.46962 29.4742 8.79456C29.4742 8.11951 28.926 7.57227 28.2498 7.57227C27.5736 7.57227 27.0254 8.11951 27.0254 8.79456C27.0254 9.46962 27.5736 10.0169 28.2498 10.0169Z" stroke="#667580" stroke-width="0.412746" stroke-miterlimit="10"/>
<path d="M30.698 10.0169C31.3743 10.0169 31.9225 9.46962 31.9225 8.79456C31.9225 8.11951 31.3743 7.57227 30.698 7.57227C30.0218 7.57227 29.4736 8.11951 29.4736 8.79456C29.4736 9.46962 30.0218 10.0169 30.698 10.0169Z" stroke="#667580" stroke-width="0.412746" stroke-miterlimit="10"/>
<path d="M4.39532 17.3548C5.07154 17.3548 5.61973 16.8075 5.61973 16.1325C5.61973 15.4574 5.07154 14.9102 4.39532 14.9102C3.71909 14.9102 3.1709 15.4574 3.1709 16.1325C3.1709 16.8075 3.71909 17.3548 4.39532 17.3548Z" stroke="#667580" stroke-width="0.412746" stroke-miterlimit="10"/>
<path d="M6.84551 17.3548C7.52174 17.3548 8.06993 16.8075 8.06993 16.1325C8.06993 15.4574 7.52174 14.9102 6.84551 14.9102C6.16928 14.9102 5.62109 15.4574 5.62109 16.1325C5.62109 16.8075 6.16928 17.3548 6.84551 17.3548Z" stroke="#667580" stroke-width="0.412746" stroke-miterlimit="10"/>
<path d="M9.29473 17.3548C9.97096 17.3548 10.5191 16.8075 10.5191 16.1325C10.5191 15.4574 9.97096 14.9102 9.29473 14.9102C8.6185 14.9102 8.07031 15.4574 8.07031 16.1325C8.07031 16.8075 8.6185 17.3548 9.29473 17.3548Z" stroke="#667580" stroke-width="0.412746" stroke-miterlimit="10"/>
<path d="M11.7439 17.3548C12.4202 17.3548 12.9684 16.8075 12.9684 16.1325C12.9684 15.4574 12.4202 14.9102 11.7439 14.9102C11.0677 14.9102 10.5195 15.4574 10.5195 16.1325C10.5195 16.8075 11.0677 17.3548 11.7439 17.3548Z" stroke="#667580" stroke-width="0.412746" stroke-miterlimit="10"/>
<path d="M14.1951 17.3548C14.8713 17.3548 15.4195 16.8075 15.4195 16.1325C15.4195 15.4574 14.8713 14.9102 14.1951 14.9102C13.5189 14.9102 12.9707 15.4574 12.9707 16.1325C12.9707 16.8075 13.5189 17.3548 14.1951 17.3548Z" stroke="#667580" stroke-width="0.412746" stroke-miterlimit="10"/>
<path d="M16.6434 17.3548C17.3196 17.3548 17.8678 16.8075 17.8678 16.1325C17.8678 15.4574 17.3196 14.9102 16.6434 14.9102C15.9671 14.9102 15.4189 15.4574 15.4189 16.1325C15.4189 16.8075 15.9671 17.3548 16.6434 17.3548Z" stroke="#667580" stroke-width="0.412746" stroke-miterlimit="10"/>
<path d="M19.0926 17.3548C19.7688 17.3548 20.317 16.8075 20.317 16.1325C20.317 15.4574 19.7688 14.9102 19.0926 14.9102C18.4164 14.9102 17.8682 15.4574 17.8682 16.1325C17.8682 16.8075 18.4164 17.3548 19.0926 17.3548Z" stroke="#667580" stroke-width="0.412746" stroke-miterlimit="10"/>
<path d="M21.5418 17.3548C22.218 17.3548 22.7662 16.8075 22.7662 16.1325C22.7662 15.4574 22.218 14.9102 21.5418 14.9102C20.8656 14.9102 20.3174 15.4574 20.3174 16.1325C20.3174 16.8075 20.8656 17.3548 21.5418 17.3548Z" stroke="#667580" stroke-width="0.412746" stroke-miterlimit="10"/>
<path d="M23.991 17.3548C24.6672 17.3548 25.2154 16.8075 25.2154 16.1325C25.2154 15.4574 24.6672 14.9102 23.991 14.9102C23.3148 14.9102 22.7666 15.4574 22.7666 16.1325C22.7666 16.8075 23.3148 17.3548 23.991 17.3548Z" stroke="#667580" stroke-width="0.412746" stroke-miterlimit="10"/>
<path d="M26.4402 17.3548C27.1165 17.3548 27.6647 16.8075 27.6647 16.1325C27.6647 15.4574 27.1165 14.9102 26.4402 14.9102C25.764 14.9102 25.2158 15.4574 25.2158 16.1325C25.2158 16.8075 25.764 17.3548 26.4402 17.3548Z" stroke="#667580" stroke-width="0.412746" stroke-miterlimit="10"/>
<path d="M28.8885 17.3548C29.5647 17.3548 30.1129 16.8075 30.1129 16.1325C30.1129 15.4574 29.5647 14.9102 28.8885 14.9102C28.2123 14.9102 27.6641 15.4574 27.6641 16.1325C27.6641 16.8075 28.2123 17.3548 28.8885 17.3548Z" stroke="#667580" stroke-width="0.412746" stroke-miterlimit="10"/>
<path d="M5.61895 14.9075C6.29518 14.9075 6.84337 14.3602 6.84337 13.6852C6.84337 13.0101 6.29518 12.4629 5.61895 12.4629C4.94272 12.4629 4.39453 13.0101 4.39453 13.6852C4.39453 14.3602 4.94272 14.9075 5.61895 14.9075Z" stroke="#667580" stroke-width="0.412746" stroke-miterlimit="10"/>
<path d="M8.07305 14.9075C8.74928 14.9075 9.29747 14.3602 9.29747 13.6852C9.29747 13.0101 8.74928 12.4629 8.07305 12.4629C7.39682 12.4629 6.84863 13.0101 6.84863 13.6852C6.84863 14.3602 7.39682 14.9075 8.07305 14.9075Z" stroke="#667580" stroke-width="0.412746" stroke-miterlimit="10"/>
<path d="M10.5203 14.9075C11.1965 14.9075 11.7447 14.3602 11.7447 13.6852C11.7447 13.0101 11.1965 12.4629 10.5203 12.4629C9.84409 12.4629 9.2959 13.0101 9.2959 13.6852C9.2959 14.3602 9.84409 14.9075 10.5203 14.9075Z" stroke="#667580" stroke-width="0.412746" stroke-miterlimit="10"/>
<path d="M12.9676 14.9075C13.6438 14.9075 14.192 14.3602 14.192 13.6852C14.192 13.0101 13.6438 12.4629 12.9676 12.4629C12.2914 12.4629 11.7432 13.0101 11.7432 13.6852C11.7432 14.3602 12.2914 14.9075 12.9676 14.9075Z" stroke="#667580" stroke-width="0.412746" stroke-miterlimit="10"/>
<path d="M15.4168 14.9075C16.093 14.9075 16.6412 14.3602 16.6412 13.6852C16.6412 13.0101 16.093 12.4629 15.4168 12.4629C14.7406 12.4629 14.1924 13.0101 14.1924 13.6852C14.1924 14.3602 14.7406 14.9075 15.4168 14.9075Z" stroke="#667580" stroke-width="0.412746" stroke-miterlimit="10"/>
<path d="M17.868 14.9075C18.5442 14.9075 19.0924 14.3602 19.0924 13.6852C19.0924 13.0101 18.5442 12.4629 17.868 12.4629C17.1917 12.4629 16.6436 13.0101 16.6436 13.6852C16.6436 14.3602 17.1917 14.9075 17.868 14.9075Z" stroke="#667580" stroke-width="0.412746" stroke-miterlimit="10"/>
<path d="M20.3172 14.9075C20.9934 14.9075 21.5416 14.3602 21.5416 13.6852C21.5416 13.0101 20.9934 12.4629 20.3172 12.4629C19.641 12.4629 19.0928 13.0101 19.0928 13.6852C19.0928 14.3602 19.641 14.9075 20.3172 14.9075Z" stroke="#667580" stroke-width="0.412746" stroke-miterlimit="10"/>
<path d="M22.7664 14.9075C23.4426 14.9075 23.9908 14.3602 23.9908 13.6852C23.9908 13.0101 23.4426 12.4629 22.7664 12.4629C22.0902 12.4629 21.542 13.0101 21.542 13.6852C21.542 14.3602 22.0902 14.9075 22.7664 14.9075Z" stroke="#667580" stroke-width="0.412746" stroke-miterlimit="10"/>
<path d="M25.2147 14.9075C25.8909 14.9075 26.4391 14.3602 26.4391 13.6852C26.4391 13.0101 25.8909 12.4629 25.2147 12.4629C24.5384 12.4629 23.9902 13.0101 23.9902 13.6852C23.9902 14.3602 24.5384 14.9075 25.2147 14.9075Z" stroke="#667580" stroke-width="0.412746" stroke-miterlimit="10"/>
<path d="M27.6658 14.9075C28.342 14.9075 28.8902 14.3602 28.8902 13.6852C28.8902 13.0101 28.342 12.4629 27.6658 12.4629C26.9896 12.4629 26.4414 13.0101 26.4414 13.6852C26.4414 14.3602 26.9896 14.9075 27.6658 14.9075Z" stroke="#667580" stroke-width="0.412746" stroke-miterlimit="10"/>
<path d="M30.1131 14.9075C30.7893 14.9075 31.3375 14.3602 31.3375 13.6852C31.3375 13.0101 30.7893 12.4629 30.1131 12.4629C29.4369 12.4629 28.8887 13.0101 28.8887 13.6852C28.8887 14.3602 29.4369 14.9075 30.1131 14.9075Z" stroke="#667580" stroke-width="0.412746" stroke-miterlimit="10"/>
<path d="M3.80938 22.2424C4.48561 22.2424 5.0338 21.6952 5.0338 21.0201C5.0338 20.3451 4.48561 19.7979 3.80938 19.7979C3.13315 19.7979 2.58496 20.3451 2.58496 21.0201C2.58496 21.6952 3.13315 22.2424 3.80938 22.2424Z" stroke="#667580" stroke-width="0.412746" stroke-miterlimit="10"/>
<path d="M6.26055 22.2424C6.93678 22.2424 7.48497 21.6952 7.48497 21.0201C7.48497 20.3451 6.93678 19.7979 6.26055 19.7979C5.58432 19.7979 5.03613 20.3451 5.03613 21.0201C5.03613 21.6952 5.58432 22.2424 6.26055 22.2424Z" stroke="#667580" stroke-width="0.412746" stroke-miterlimit="10"/>
<path d="M8.70977 22.2424C9.386 22.2424 9.93419 21.6952 9.93419 21.0201C9.93419 20.3451 9.386 19.7979 8.70977 19.7979C8.03354 19.7979 7.48535 20.3451 7.48535 21.0201C7.48535 21.6952 8.03354 22.2424 8.70977 22.2424Z" stroke="#667580" stroke-width="0.412746" stroke-miterlimit="10"/>
<path d="M11.158 22.2424C11.8342 22.2424 12.3824 21.6952 12.3824 21.0201C12.3824 20.3451 11.8342 19.7979 11.158 19.7979C10.4818 19.7979 9.93359 20.3451 9.93359 21.0201C9.93359 21.6952 10.4818 22.2424 11.158 22.2424Z" stroke="#667580" stroke-width="0.412746" stroke-miterlimit="10"/>
<path d="M13.6072 22.2424C14.2835 22.2424 14.8316 21.6952 14.8316 21.0201C14.8316 20.3451 14.2835 19.7979 13.6072 19.7979C12.931 19.7979 12.3828 20.3451 12.3828 21.0201C12.3828 21.6952 12.931 22.2424 13.6072 22.2424Z" stroke="#667580" stroke-width="0.412746" stroke-miterlimit="10"/>
<path d="M16.0564 22.2424C16.7327 22.2424 17.2809 21.6952 17.2809 21.0201C17.2809 20.3451 16.7327 19.7979 16.0564 19.7979C15.3802 19.7979 14.832 20.3451 14.832 21.0201C14.832 21.6952 15.3802 22.2424 16.0564 22.2424Z" stroke="#667580" stroke-width="0.412746" stroke-miterlimit="10"/>
<path d="M18.5066 22.2424C19.1829 22.2424 19.7311 21.6952 19.7311 21.0201C19.7311 20.3451 19.1829 19.7979 18.5066 19.7979C17.8304 19.7979 17.2822 20.3451 17.2822 21.0201C17.2822 21.6952 17.8304 22.2424 18.5066 22.2424Z" stroke="#667580" stroke-width="0.412746" stroke-miterlimit="10"/>
<path d="M20.9568 22.2424C21.6331 22.2424 22.1813 21.6952 22.1813 21.0201C22.1813 20.3451 21.6331 19.7979 20.9568 19.7979C20.2806 19.7979 19.7324 20.3451 19.7324 21.0201C19.7324 21.6952 20.2806 22.2424 20.9568 22.2424Z" stroke="#667580" stroke-width="0.412746" stroke-miterlimit="10"/>
<path d="M23.4051 22.2424C24.0813 22.2424 24.6295 21.6952 24.6295 21.0201C24.6295 20.3451 24.0813 19.7979 23.4051 19.7979C22.7289 19.7979 22.1807 20.3451 22.1807 21.0201C22.1807 21.6952 22.7289 22.2424 23.4051 22.2424Z" stroke="#667580" stroke-width="0.412746" stroke-miterlimit="10"/>
<path d="M25.8563 22.2424C26.5325 22.2424 27.0807 21.6952 27.0807 21.0201C27.0807 20.3451 26.5325 19.7979 25.8563 19.7979C25.18 19.7979 24.6318 20.3451 24.6318 21.0201C24.6318 21.6952 25.18 22.2424 25.8563 22.2424Z" stroke="#667580" stroke-width="0.412746" stroke-miterlimit="10"/>
<path d="M28.3025 22.2424C28.9788 22.2424 29.527 21.6952 29.527 21.0201C29.527 20.3451 28.9788 19.7979 28.3025 19.7979C27.6263 19.7979 27.0781 20.3451 27.0781 21.0201C27.0781 21.6952 27.6263 22.2424 28.3025 22.2424Z" stroke="#667580" stroke-width="0.412746" stroke-miterlimit="10"/>
<path d="M5.03594 19.7981C5.71217 19.7981 6.26036 19.2509 6.26036 18.5758C6.26036 17.9008 5.71217 17.3535 5.03594 17.3535C4.35971 17.3535 3.81152 17.9008 3.81152 18.5758C3.81152 19.2509 4.35971 19.7981 5.03594 19.7981Z" stroke="#667580" stroke-width="0.412746" stroke-miterlimit="10"/>
<path d="M7.48516 19.7981C8.16139 19.7981 8.70958 19.2509 8.70958 18.5758C8.70958 17.9008 8.16139 17.3535 7.48516 17.3535C6.80893 17.3535 6.26074 17.9008 6.26074 18.5758C6.26074 19.2509 6.80893 19.7981 7.48516 19.7981Z" stroke="#667580" stroke-width="0.412746" stroke-miterlimit="10"/>
<path d="M9.93438 19.7981C10.6106 19.7981 11.1588 19.2509 11.1588 18.5758C11.1588 17.9008 10.6106 17.3535 9.93438 17.3535C9.25815 17.3535 8.70996 17.9008 8.70996 18.5758C8.70996 19.2509 9.25815 19.7981 9.93438 19.7981Z" stroke="#667580" stroke-width="0.412746" stroke-miterlimit="10"/>
<path d="M12.3856 19.7981C13.0618 19.7981 13.61 19.2509 13.61 18.5758C13.61 17.9008 13.0618 17.3535 12.3856 17.3535C11.7093 17.3535 11.1611 17.9008 11.1611 18.5758C11.1611 19.2509 11.7093 19.7981 12.3856 19.7981Z" stroke="#667580" stroke-width="0.412746" stroke-miterlimit="10"/>
<path d="M14.8338 19.7981C15.51 19.7981 16.0582 19.2509 16.0582 18.5758C16.0582 17.9008 15.51 17.3535 14.8338 17.3535C14.1576 17.3535 13.6094 17.9008 13.6094 18.5758C13.6094 19.2509 14.1576 19.7981 14.8338 19.7981Z" stroke="#667580" stroke-width="0.412746" stroke-miterlimit="10"/>
<path d="M17.283 19.7981C17.9592 19.7981 18.5074 19.2509 18.5074 18.5758C18.5074 17.9008 17.9592 17.3535 17.283 17.3535C16.6068 17.3535 16.0586 17.9008 16.0586 18.5758C16.0586 19.2509 16.6068 19.7981 17.283 19.7981Z" stroke="#667580" stroke-width="0.412746" stroke-miterlimit="10"/>
<path d="M19.7342 19.7981C20.4104 19.7981 20.9586 19.2509 20.9586 18.5758C20.9586 17.9008 20.4104 17.3535 19.7342 17.3535C19.058 17.3535 18.5098 17.9008 18.5098 18.5758C18.5098 19.2509 19.058 19.7981 19.7342 19.7981Z" stroke="#667580" stroke-width="0.412746" stroke-miterlimit="10"/>
<path d="M22.1815 19.7981C22.8577 19.7981 23.4059 19.2509 23.4059 18.5758C23.4059 17.9008 22.8577 17.3535 22.1815 17.3535C21.5052 17.3535 20.957 17.9008 20.957 18.5758C20.957 19.2509 21.5052 19.7981 22.1815 19.7981Z" stroke="#667580" stroke-width="0.412746" stroke-miterlimit="10"/>
<path d="M24.6316 19.7981C25.3079 19.7981 25.8561 19.2509 25.8561 18.5758C25.8561 17.9008 25.3079 17.3535 24.6316 17.3535C23.9554 17.3535 23.4072 17.9008 23.4072 18.5758C23.4072 19.2509 23.9554 19.7981 24.6316 19.7981Z" stroke="#667580" stroke-width="0.412746" stroke-miterlimit="10"/>
<path d="M27.0789 19.7981C27.7551 19.7981 28.3033 19.2509 28.3033 18.5758C28.3033 17.9008 27.7551 17.3535 27.0789 17.3535C26.4027 17.3535 25.8545 17.9008 25.8545 18.5758C25.8545 19.2509 26.4027 19.7981 27.0789 19.7981Z" stroke="#667580" stroke-width="0.412746" stroke-miterlimit="10"/>
<path d="M29.5272 19.7981C30.2034 19.7981 30.7516 19.2509 30.7516 18.5758C30.7516 17.9008 30.2034 17.3535 29.5272 17.3535C28.8509 17.3535 28.3027 17.9008 28.3027 18.5758C28.3027 19.2509 28.8509 19.7981 29.5272 19.7981Z" stroke="#667580" stroke-width="0.412746" stroke-miterlimit="10"/>
<path d="M3.22637 27.134C3.9026 27.134 4.45079 26.5868 4.45079 25.9118C4.45079 25.2367 3.9026 24.6895 3.22637 24.6895C2.55014 24.6895 2.00195 25.2367 2.00195 25.9118C2.00195 26.5868 2.55014 27.134 3.22637 27.134Z" stroke="#667580" stroke-width="0.412746" stroke-miterlimit="10"/>
<path d="M5.67559 27.134C6.35182 27.134 6.90001 26.5868 6.90001 25.9118C6.90001 25.2367 6.35182 24.6895 5.67559 24.6895C4.99936 24.6895 4.45117 25.2367 4.45117 25.9118C4.45117 26.5868 4.99936 27.134 5.67559 27.134Z" stroke="#667580" stroke-width="0.412746" stroke-miterlimit="10"/>
<path d="M8.12285 27.134C8.79908 27.134 9.34727 26.5868 9.34727 25.9118C9.34727 25.2367 8.79908 24.6895 8.12285 24.6895C7.44663 24.6895 6.89844 25.2367 6.89844 25.9118C6.89844 26.5868 7.44663 27.134 8.12285 27.134Z" stroke="#667580" stroke-width="0.412746" stroke-miterlimit="10"/>
<path d="M10.576 27.1331C11.2522 27.1331 11.8004 26.5858 11.8004 25.9108C11.8004 25.2357 11.2522 24.6885 10.576 24.6885C9.89975 24.6885 9.35156 25.2357 9.35156 25.9108C9.35156 26.5858 9.89975 27.1331 10.576 27.1331Z" stroke="#667580" stroke-width="0.412746" stroke-miterlimit="10"/>
<path d="M13.0242 27.1331C13.7004 27.1331 14.2486 26.5858 14.2486 25.9108C14.2486 25.2357 13.7004 24.6885 13.0242 24.6885C12.348 24.6885 11.7998 25.2357 11.7998 25.9108C11.7998 26.5858 12.348 27.1331 13.0242 27.1331Z" stroke="#667580" stroke-width="0.412746" stroke-miterlimit="10"/>
<path d="M15.4734 27.1331C16.1497 27.1331 16.6979 26.5858 16.6979 25.9108C16.6979 25.2357 16.1497 24.6885 15.4734 24.6885C14.7972 24.6885 14.249 25.2357 14.249 25.9108C14.249 26.5858 14.7972 27.1331 15.4734 27.1331Z" stroke="#667580" stroke-width="0.412746" stroke-miterlimit="10"/>
<path d="M17.9227 27.134C18.5989 27.134 19.1471 26.5868 19.1471 25.9118C19.1471 25.2367 18.5989 24.6895 17.9227 24.6895C17.2464 24.6895 16.6982 25.2367 16.6982 25.9118C16.6982 26.5868 17.2464 27.134 17.9227 27.134Z" stroke="#667580" stroke-width="0.412746" stroke-miterlimit="10"/>
<path d="M20.3729 27.134C21.0491 27.134 21.5973 26.5868 21.5973 25.9118C21.5973 25.2367 21.0491 24.6895 20.3729 24.6895C19.6966 24.6895 19.1484 25.2367 19.1484 25.9118C19.1484 26.5868 19.6966 27.134 20.3729 27.134Z" stroke="#667580" stroke-width="0.412746" stroke-miterlimit="10"/>
<path d="M22.8221 27.1331C23.4983 27.1331 24.0465 26.5858 24.0465 25.9108C24.0465 25.2357 23.4983 24.6885 22.8221 24.6885C22.1458 24.6885 21.5977 25.2357 21.5977 25.9108C21.5977 26.5858 22.1458 27.1331 22.8221 27.1331Z" stroke="#667580" stroke-width="0.412746" stroke-miterlimit="10"/>
<path d="M25.2703 27.1331C25.9465 27.1331 26.4947 26.5858 26.4947 25.9108C26.4947 25.2357 25.9465 24.6885 25.2703 24.6885C24.5941 24.6885 24.0459 25.2357 24.0459 25.9108C24.0459 26.5858 24.5941 27.1331 25.2703 27.1331Z" stroke="#667580" stroke-width="0.412746" stroke-miterlimit="10"/>
<path d="M27.7176 27.1331C28.3938 27.1331 28.942 26.5858 28.942 25.9108C28.942 25.2357 28.3938 24.6885 27.7176 24.6885C27.0414 24.6885 26.4932 25.2357 26.4932 25.9108C26.4932 26.5858 27.0414 27.1331 27.7176 27.1331Z" stroke="#667580" stroke-width="0.412746" stroke-miterlimit="10"/>
<path d="M4.45098 24.6858C5.12721 24.6858 5.6754 24.1386 5.6754 23.4635C5.6754 22.7885 5.12721 22.2412 4.45098 22.2412C3.77475 22.2412 3.22656 22.7885 3.22656 23.4635C3.22656 24.1386 3.77475 24.6858 4.45098 24.6858Z" stroke="#667580" stroke-width="0.412746" stroke-miterlimit="10"/>
<path d="M6.90313 24.6858C7.57936 24.6858 8.12755 24.1386 8.12755 23.4635C8.12755 22.7885 7.57936 22.2412 6.90313 22.2412C6.2269 22.2412 5.67871 22.7885 5.67871 23.4635C5.67871 24.1386 6.2269 24.6858 6.90313 24.6858Z" stroke="#667580" stroke-width="0.412746" stroke-miterlimit="10"/>
<path d="M9.34844 24.6858C10.0247 24.6858 10.5729 24.1386 10.5729 23.4635C10.5729 22.7885 10.0247 22.2412 9.34844 22.2412C8.67221 22.2412 8.12402 22.7885 8.12402 23.4635C8.12402 24.1386 8.67221 24.6858 9.34844 24.6858Z" stroke="#667580" stroke-width="0.412746" stroke-miterlimit="10"/>
<path d="M11.7977 24.6858C12.4739 24.6858 13.0221 24.1386 13.0221 23.4635C13.0221 22.7885 12.4739 22.2412 11.7977 22.2412C11.1214 22.2412 10.5732 22.7885 10.5732 23.4635C10.5732 24.1386 11.1214 24.6858 11.7977 24.6858Z" stroke="#667580" stroke-width="0.412746" stroke-miterlimit="10"/>
<path d="M14.2479 24.6858C14.9241 24.6858 15.4723 24.1386 15.4723 23.4635C15.4723 22.7885 14.9241 22.2412 14.2479 22.2412C13.5716 22.2412 13.0234 22.7885 13.0234 23.4635C13.0234 24.1386 13.5716 24.6858 14.2479 24.6858Z" stroke="#667580" stroke-width="0.412746" stroke-miterlimit="10"/>
<path d="M16.6971 24.6858C17.3733 24.6858 17.9215 24.1386 17.9215 23.4635C17.9215 22.7885 17.3733 22.2412 16.6971 22.2412C16.0208 22.2412 15.4727 22.7885 15.4727 23.4635C15.4727 24.1386 16.0208 24.6858 16.6971 24.6858Z" stroke="#667580" stroke-width="0.412746" stroke-miterlimit="10"/>
<path d="M19.1482 24.6858C19.8245 24.6858 20.3727 24.1386 20.3727 23.4635C20.3727 22.7885 19.8245 22.2412 19.1482 22.2412C18.472 22.2412 17.9238 22.7885 17.9238 23.4635C17.9238 24.1386 18.472 24.6858 19.1482 24.6858Z" stroke="#667580" stroke-width="0.412746" stroke-miterlimit="10"/>
<path d="M21.5955 24.6858C22.2717 24.6858 22.8199 24.1386 22.8199 23.4635C22.8199 22.7885 22.2717 22.2412 21.5955 22.2412C20.9193 22.2412 20.3711 22.7885 20.3711 23.4635C20.3711 24.1386 20.9193 24.6858 21.5955 24.6858Z" stroke="#667580" stroke-width="0.412746" stroke-miterlimit="10"/>
<path d="M24.0467 24.6858C24.7229 24.6858 25.2711 24.1386 25.2711 23.4635C25.2711 22.7885 24.7229 22.2412 24.0467 22.2412C23.3705 22.2412 22.8223 22.7885 22.8223 23.4635C22.8223 24.1386 23.3705 24.6858 24.0467 24.6858Z" stroke="#667580" stroke-width="0.412746" stroke-miterlimit="10"/>
<path d="M26.4949 24.6858C27.1712 24.6858 27.7193 24.1386 27.7193 23.4635C27.7193 22.7885 27.1712 22.2412 26.4949 22.2412C25.8187 22.2412 25.2705 22.7885 25.2705 23.4635C25.2705 24.1386 25.8187 24.6858 26.4949 24.6858Z" stroke="#667580" stroke-width="0.412746" stroke-miterlimit="10"/>
<path d="M28.9441 24.6858C29.6204 24.6858 30.1686 24.1386 30.1686 23.4635C30.1686 22.7885 29.6204 22.2412 28.9441 22.2412C28.2679 22.2412 27.7197 22.7885 27.7197 23.4635C27.7197 24.1386 28.2679 24.6858 28.9441 24.6858Z" stroke="#667580" stroke-width="0.412746" stroke-miterlimit="10"/>
<path d="M2.64141 32.0237C3.31764 32.0237 3.86583 31.4765 3.86583 30.8014C3.86583 30.1263 3.31764 29.5791 2.64141 29.5791C1.96518 29.5791 1.41699 30.1263 1.41699 30.8014C1.41699 31.4765 1.96518 32.0237 2.64141 32.0237Z" stroke="#667580" stroke-width="0.412746" stroke-miterlimit="10"/>
<path d="M5.09258 32.0237C5.76881 32.0237 6.317 31.4765 6.317 30.8014C6.317 30.1263 5.76881 29.5791 5.09258 29.5791C4.41635 29.5791 3.86816 30.1263 3.86816 30.8014C3.86816 31.4765 4.41635 32.0237 5.09258 32.0237Z" stroke="#667580" stroke-width="0.412746" stroke-miterlimit="10"/>
<path d="M7.53887 32.0237C8.2151 32.0237 8.76329 31.4765 8.76329 30.8014C8.76329 30.1263 8.2151 29.5791 7.53887 29.5791C6.86264 29.5791 6.31445 30.1263 6.31445 30.8014C6.31445 31.4765 6.86264 32.0237 7.53887 32.0237Z" stroke="#667580" stroke-width="0.412746" stroke-miterlimit="10"/>
<path d="M9.98907 32.0237C10.6653 32.0237 11.2135 31.4765 11.2135 30.8014C11.2135 30.1263 10.6653 29.5791 9.98907 29.5791C9.31284 29.5791 8.76465 30.1263 8.76465 30.8014C8.76465 31.4765 9.31284 32.0237 9.98907 32.0237Z" stroke="#667580" stroke-width="0.412746" stroke-miterlimit="10"/>
<path d="M12.4383 32.0237C13.1145 32.0237 13.6627 31.4765 13.6627 30.8014C13.6627 30.1263 13.1145 29.5791 12.4383 29.5791C11.7621 29.5791 11.2139 30.1263 11.2139 30.8014C11.2139 31.4765 11.7621 32.0237 12.4383 32.0237Z" stroke="#667580" stroke-width="0.412746" stroke-miterlimit="10"/>
<path d="M14.8875 32.0237C15.5637 32.0237 16.1119 31.4765 16.1119 30.8014C16.1119 30.1263 15.5637 29.5791 14.8875 29.5791C14.2113 29.5791 13.6631 30.1263 13.6631 30.8014C13.6631 31.4765 14.2113 32.0237 14.8875 32.0237Z" stroke="#667580" stroke-width="0.412746" stroke-miterlimit="10"/>
<path d="M17.3387 32.0237C18.0149 32.0237 18.5631 31.4765 18.5631 30.8014C18.5631 30.1263 18.0149 29.5791 17.3387 29.5791C16.6624 29.5791 16.1143 30.1263 16.1143 30.8014C16.1143 31.4765 16.6624 32.0237 17.3387 32.0237Z" stroke="#667580" stroke-width="0.412746" stroke-miterlimit="10"/>
<path d="M19.7869 32.0237C20.4631 32.0237 21.0113 31.4765 21.0113 30.8014C21.0113 30.1263 20.4631 29.5791 19.7869 29.5791C19.1107 29.5791 18.5625 30.1263 18.5625 30.8014C18.5625 31.4765 19.1107 32.0237 19.7869 32.0237Z" stroke="#667580" stroke-width="0.412746" stroke-miterlimit="10"/>
<path d="M22.2361 32.0237C22.9124 32.0237 23.4606 31.4765 23.4606 30.8014C23.4606 30.1263 22.9124 29.5791 22.2361 29.5791C21.5599 29.5791 21.0117 30.1263 21.0117 30.8014C21.0117 31.4765 21.5599 32.0237 22.2361 32.0237Z" stroke="#667580" stroke-width="0.412746" stroke-miterlimit="10"/>
<path d="M24.6844 32.0237C25.3606 32.0237 25.9088 31.4765 25.9088 30.8014C25.9088 30.1263 25.3606 29.5791 24.6844 29.5791C24.0082 29.5791 23.46 30.1263 23.46 30.8014C23.46 31.4765 24.0082 32.0237 24.6844 32.0237Z" stroke="#667580" stroke-width="0.412746" stroke-miterlimit="10"/>
<path d="M27.1336 32.0237C27.8098 32.0237 28.358 31.4765 28.358 30.8014C28.358 30.1263 27.8098 29.5791 27.1336 29.5791C26.4574 29.5791 25.9092 30.1263 25.9092 30.8014C25.9092 31.4765 26.4574 32.0237 27.1336 32.0237Z" stroke="#667580" stroke-width="0.412746" stroke-miterlimit="10"/>
<path d="M3.86602 29.5784C4.54225 29.5784 5.09044 29.0311 5.09044 28.3561C5.09044 27.681 4.54225 27.1338 3.86602 27.1338C3.18979 27.1338 2.6416 27.681 2.6416 28.3561C2.6416 29.0311 3.18979 29.5784 3.86602 29.5784Z" stroke="#667580" stroke-width="0.412746" stroke-miterlimit="10"/>
<path d="M6.31328 29.5784C6.98951 29.5784 7.5377 29.0311 7.5377 28.3561C7.5377 27.681 6.98951 27.1338 6.31328 27.1338C5.63706 27.1338 5.08887 27.681 5.08887 28.3561C5.08887 29.0311 5.63706 29.5784 6.31328 29.5784Z" stroke="#667580" stroke-width="0.412746" stroke-miterlimit="10"/>
<path d="M8.76641 29.5784C9.44264 29.5784 9.99083 29.0311 9.99083 28.3561C9.99083 27.681 9.44264 27.1338 8.76641 27.1338C8.09018 27.1338 7.54199 27.681 7.54199 28.3561C7.54199 29.0311 8.09018 29.5784 8.76641 29.5784Z" stroke="#667580" stroke-width="0.412746" stroke-miterlimit="10"/>
<path d="M11.2147 29.5784C11.8909 29.5784 12.4391 29.0311 12.4391 28.3561C12.4391 27.681 11.8909 27.1338 11.2147 27.1338C10.5384 27.1338 9.99023 27.681 9.99023 28.3561C9.99023 29.0311 10.5384 29.5784 11.2147 29.5784Z" stroke="#667580" stroke-width="0.412746" stroke-miterlimit="10"/>
<path d="M13.6639 29.5784C14.3401 29.5784 14.8883 29.0311 14.8883 28.3561C14.8883 27.681 14.3401 27.1338 13.6639 27.1338C12.9876 27.1338 12.4395 27.681 12.4395 28.3561C12.4395 29.0311 12.9876 29.5784 13.6639 29.5784Z" stroke="#667580" stroke-width="0.412746" stroke-miterlimit="10"/>
<path d="M16.1141 29.5784C16.7903 29.5784 17.3385 29.0311 17.3385 28.3561C17.3385 27.681 16.7903 27.1338 16.1141 27.1338C15.4378 27.1338 14.8896 27.681 14.8896 28.3561C14.8896 29.0311 15.4378 29.5784 16.1141 29.5784Z" stroke="#667580" stroke-width="0.412746" stroke-miterlimit="10"/>
<path d="M18.5633 29.5784C19.2395 29.5784 19.7877 29.0311 19.7877 28.3561C19.7877 27.681 19.2395 27.1338 18.5633 27.1338C17.8871 27.1338 17.3389 27.681 17.3389 28.3561C17.3389 29.0311 17.8871 29.5784 18.5633 29.5784Z" stroke="#667580" stroke-width="0.412746" stroke-miterlimit="10"/>
<path d="M21.0125 29.5784C21.6887 29.5784 22.2369 29.0311 22.2369 28.3561C22.2369 27.681 21.6887 27.1338 21.0125 27.1338C20.3363 27.1338 19.7881 27.681 19.7881 28.3561C19.7881 29.0311 20.3363 29.5784 21.0125 29.5784Z" stroke="#667580" stroke-width="0.412746" stroke-miterlimit="10"/>
<path d="M23.4607 29.5784C24.137 29.5784 24.6852 29.0311 24.6852 28.3561C24.6852 27.681 24.137 27.1338 23.4607 27.1338C22.7845 27.1338 22.2363 27.681 22.2363 28.3561C22.2363 29.0311 22.7845 29.5784 23.4607 29.5784Z" stroke="#667580" stroke-width="0.412746" stroke-miterlimit="10"/>
<path d="M25.91 29.5784C26.5862 29.5784 27.1344 29.0311 27.1344 28.3561C27.1344 27.681 26.5862 27.1338 25.91 27.1338C25.2337 27.1338 24.6855 27.681 24.6855 28.3561C24.6855 29.0311 25.2337 29.5784 25.91 29.5784Z" stroke="#667580" stroke-width="0.412746" stroke-miterlimit="10"/>
<path d="M28.3592 29.5784C29.0354 29.5784 29.5836 29.0311 29.5836 28.3561C29.5836 27.681 29.0354 27.1338 28.3592 27.1338C27.683 27.1338 27.1348 27.681 27.1348 28.3561C27.1348 29.0311 27.683 29.5784 28.3592 29.5784Z" stroke="#667580" stroke-width="0.412746" stroke-miterlimit="10"/>
</g>
</g>
</svg>
